<svg width="186" height="97" viewBox="0 0 186 97" fill="none" xmlns="http://www.w3.org/2000/svg">
<rect x="184.625" y="73.625" width="183.25" height="72.25" rx="12.375" transform="rotate(-180 184.625 73.625)" fill="white" stroke="#DFDFDF" stroke-width="2.75"/>
<path d="M94.6908 94.9375C94.1615 95.8542 92.8385 95.8542 92.3092 94.9375L80.4014 74.3125C79.8721 73.3958 80.5337 72.25 81.5922 72.25L105.408 72.25C106.466 72.25 107.128 73.3958 106.599 74.3125L94.6908 94.9375Z" fill="white"/>
<path d="M26.4274 43H24.2354L19.8194 37.672V43H17.9794V31.8H19.8194V36.824L24.0754 31.8H26.2674L21.7394 37.256L26.4274 43ZM35.86 31.8V43H34.02V33.56H29.46V43H27.62V31.8H35.86ZM46.3444 31.8V43H44.5044V33.56H39.9444V43H38.1044V31.8H46.3444ZM56.2528 43.208C55.0474 43.208 54.0394 42.8027 53.2288 41.992C52.4288 41.1813 52.0288 40.184 52.0288 39C52.0288 37.8053 52.4288 36.808 53.2288 36.008C54.0394 35.1973 55.0474 34.792 56.2528 34.792C57.0314 34.792 57.7408 34.9787 58.3808 35.352C59.0208 35.7253 59.5008 36.2267 59.8208 36.856L58.3328 37.72C58.1514 37.336 57.8741 37.0373 57.5008 36.824C57.1381 36.6 56.7168 36.488 56.2368 36.488C55.5328 36.488 54.9408 36.728 54.4608 37.208C53.9914 37.688 53.7568 38.2853 53.7568 39C53.7568 39.7147 53.9914 40.312 54.4608 40.792C54.9408 41.272 55.5328 41.512 56.2368 41.512C56.7061 41.512 57.1274 41.4 57.5008 41.176C57.8848 40.952 58.1728 40.6533 58.3648 40.28L59.8528 41.128C59.5114 41.768 59.0208 42.2747 58.3808 42.648C57.7408 43.0213 57.0314 43.208 56.2528 43.208ZM64.7528 43.208C63.5794 43.208 62.5821 42.8027 61.7608 41.992C60.9394 41.1813 60.5288 40.184 60.5288 39C60.5288 37.816 60.9394 36.8187 61.7608 36.008C62.5821 35.1973 63.5794 34.792 64.7528 34.792C65.9368 34.792 66.9341 35.1973 67.7448 36.008C68.5661 36.8187 68.9768 37.816 68.9768 39C68.9768 40.184 68.5661 41.1813 67.7448 41.992C66.9341 42.8027 65.9368 43.208 64.7528 43.208ZM62.9768 40.808C63.4568 41.288 64.0488 41.528 64.7528 41.528C65.4568 41.528 66.0488 41.288 66.5288 40.808C67.0088 40.328 67.2488 39.7253 67.2488 39C67.2488 38.2747 67.0088 37.672 66.5288 37.192C66.0488 36.712 65.4568 36.472 64.7528 36.472C64.0488 36.472 63.4568 36.712 62.9768 37.192C62.4968 37.672 62.2568 38.2747 62.2568 39C62.2568 39.7253 62.4968 40.328 62.9768 40.808ZM84.0113 35H85.7393V43H74.5393V35H76.2673V41.368H79.2753V35H81.0033V41.368H84.0113V35ZM94.4944 35V43H92.7664V36.664H90.0944V39.64C90.0944 40.9093 89.817 41.8107 89.2624 42.344C88.7077 42.8773 87.9184 43.096 86.8944 43V41.384C87.385 41.4693 87.753 41.368 87.9984 41.08C88.2437 40.792 88.3664 40.2853 88.3664 39.56V35H94.4944ZM102.844 35H104.572V43H102.844V41.848C102.193 42.7547 101.26 43.208 100.044 43.208C98.9453 43.208 98.0067 42.8027 97.228 41.992C96.4493 41.1707 96.06 40.1733 96.06 39C96.06 37.816 96.4493 36.8187 97.228 36.008C98.0067 35.1973 98.9453 34.792 100.044 34.792C101.26 34.792 102.193 35.24 102.844 36.136V35ZM98.508 40.84C98.988 41.32 99.5907 41.56 100.316 41.56C101.041 41.56 101.644 41.32 102.124 40.84C102.604 40.3493 102.844 39.736 102.844 39C102.844 38.264 102.604 37.656 102.124 37.176C101.644 36.6853 101.041 36.44 100.316 36.44C99.5907 36.44 98.988 36.6853 98.508 37.176C98.028 37.656 97.788 38.264 97.788 39C97.788 39.736 98.028 40.3493 98.508 40.84ZM111.946 35V36.664H108.314V43H106.586V35H111.946ZM116.517 43.208C115.29 43.208 114.288 42.8133 113.509 42.024C112.741 41.224 112.357 40.2053 112.357 38.968C112.357 37.6133 112.56 36.568 112.965 35.832C113.37 35.0853 114.192 34.408 115.429 33.8C115.632 33.704 115.93 33.5653 116.325 33.384C116.73 33.2027 117.008 33.0747 117.157 33C117.306 32.9147 117.493 32.7973 117.717 32.648C117.941 32.488 118.106 32.3227 118.213 32.152C118.32 31.9707 118.405 31.7573 118.469 31.512L119.877 32.328C119.834 32.5627 119.765 32.7813 119.669 32.984C119.573 33.176 119.434 33.3573 119.253 33.528C119.072 33.6987 118.912 33.8373 118.773 33.944C118.645 34.0507 118.426 34.1787 118.117 34.328C117.808 34.4773 117.578 34.584 117.429 34.648C117.29 34.712 117.024 34.824 116.629 34.984C115.925 35.2613 115.408 35.5493 115.077 35.848C114.757 36.136 114.533 36.4987 114.405 36.936C115.045 36.2107 115.914 35.848 117.013 35.848C117.952 35.848 118.768 36.184 119.461 36.856C120.165 37.528 120.517 38.3973 120.517 39.464C120.517 40.552 120.144 41.448 119.397 42.152C118.661 42.856 117.701 43.208 116.517 43.208ZM116.501 41.592C117.173 41.592 117.722 41.3947 118.149 41C118.576 40.5947 118.789 40.0827 118.789 39.464C118.789 38.8347 118.576 38.3173 118.149 37.912C117.733 37.5067 117.189 37.304 116.517 37.304C115.92 37.304 115.381 37.496 114.901 37.88C114.421 38.2533 114.181 38.7547 114.181 39.384C114.181 40.024 114.405 40.552 114.853 40.968C115.301 41.384 115.85 41.592 116.501 41.592ZM128.219 35H129.947V43H128.219V41.848C127.568 42.7547 126.635 43.208 125.419 43.208C124.32 43.208 123.382 42.8027 122.603 41.992C121.824 41.1707 121.435 40.1733 121.435 39C121.435 37.816 121.824 36.8187 122.603 36.008C123.382 35.1973 124.32 34.792 125.419 34.792C126.635 34.792 127.568 35.24 128.219 36.136V35ZM123.883 40.84C124.363 41.32 124.966 41.56 125.691 41.56C126.416 41.56 127.019 41.32 127.499 40.84C127.979 40.3493 128.219 39.736 128.219 39C128.219 38.264 127.979 37.656 127.499 37.176C127.019 36.6853 126.416 36.44 125.691 36.44C124.966 36.44 124.363 36.6853 123.883 37.176C123.403 37.656 123.163 38.264 123.163 39C123.163 39.736 123.403 40.3493 123.883 40.84ZM137.353 35H139.193L136.121 43.256C135.748 44.2693 135.225 45.0267 134.553 45.528C133.881 46.0293 133.102 46.2533 132.217 46.2V44.584C132.761 44.616 133.198 44.504 133.529 44.248C133.87 44.0027 134.142 43.6027 134.345 43.048L134.393 42.936L131.033 35H132.873L135.305 40.824L137.353 35ZM148.434 35V43H146.754V37.736L144.45 41.4H144.242L141.954 37.752V43H140.274V35H142.034L144.354 38.696L146.674 35H148.434ZM154.206 43.208C153.033 43.208 152.035 42.8027 151.214 41.992C150.393 41.1813 149.982 40.184 149.982 39C149.982 37.816 150.393 36.8187 151.214 36.008C152.035 35.1973 153.033 34.792 154.206 34.792C155.39 34.792 156.387 35.1973 157.198 36.008C158.019 36.8187 158.43 37.816 158.43 39C158.43 40.184 158.019 41.1813 157.198 41.992C156.387 42.8027 155.39 43.208 154.206 43.208ZM152.43 40.808C152.91 41.288 153.502 41.528 154.206 41.528C154.91 41.528 155.502 41.288 155.982 40.808C156.462 40.328 156.702 39.7253 156.702 39C156.702 38.2747 156.462 37.672 155.982 37.192C155.502 36.712 154.91 36.472 154.206 36.472C153.502 36.472 152.91 36.712 152.43 37.192C151.95 37.672 151.71 38.2747 151.71 39C151.71 39.7253 151.95 40.328 152.43 40.808ZM168.152 35V43H166.472V37.736L164.168 41.4H163.96L161.672 37.752V43H159.992V35H161.752L164.072 38.696L166.392 35H168.152Z" fill="#333333"/>
</svg>
