<svg width="186" height="97" viewBox="0 0 186 97" fill="none" xmlns="http://www.w3.org/2000/svg">
<rect x="184.625" y="73.625" width="183.25" height="72.25" rx="12.375" transform="rotate(-180 184.625 73.625)" fill="white" stroke="#DFDFDF" stroke-width="2.75"/>
<path d="M94.6908 94.9375C94.1615 95.8542 92.8385 95.8542 92.3092 94.9375L80.4014 74.3125C79.8721 73.3958 80.5337 72.25 81.5922 72.25L105.408 72.25C106.466 72.25 107.128 73.3958 106.599 74.3125L94.6908 94.9375Z" fill="white"/>
<path d="M25.235 22.8V34H23.395V24.56H18.835V34H16.995V22.8H25.235ZM31.8954 25.792C32.994 25.792 33.9327 26.2027 34.7114 27.024C35.49 27.8347 35.8794 28.8267 35.8794 30C35.8794 31.184 35.49 32.1813 34.7114 32.992C33.9327 33.8027 32.994 34.208 31.8954 34.208C30.6794 34.208 29.746 33.76 29.0954 32.864V37.2H27.3674V26H29.0954V27.152C29.746 26.2453 30.6794 25.792 31.8954 25.792ZM29.8154 31.84C30.2954 32.32 30.898 32.56 31.6234 32.56C32.3487 32.56 32.9514 32.32 33.4314 31.84C33.9114 31.3493 34.1514 30.736 34.1514 30C34.1514 29.264 33.9114 28.656 33.4314 28.176C32.9514 27.6853 32.3487 27.44 31.6234 27.44C30.898 27.44 30.2954 27.6853 29.8154 28.176C29.3354 28.656 29.0954 29.264 29.0954 30C29.0954 30.736 29.3354 31.3493 29.8154 31.84ZM41.2215 34.208C40.0482 34.208 39.0508 33.8027 38.2295 32.992C37.4082 32.1813 36.9975 31.184 36.9975 30C36.9975 28.816 37.4082 27.8187 38.2295 27.008C39.0508 26.1973 40.0482 25.792 41.2215 25.792C42.4055 25.792 43.4028 26.1973 44.2135 27.008C45.0348 27.8187 45.4455 28.816 45.4455 30C45.4455 31.184 45.0348 32.1813 44.2135 32.992C43.4028 33.8027 42.4055 34.208 41.2215 34.208ZM39.4455 31.808C39.9255 32.288 40.5175 32.528 41.2215 32.528C41.9255 32.528 42.5175 32.288 42.9975 31.808C43.4775 31.328 43.7175 30.7253 43.7175 30C43.7175 29.2747 43.4775 28.672 42.9975 28.192C42.5175 27.712 41.9255 27.472 41.2215 27.472C40.5175 27.472 39.9255 27.712 39.4455 28.192C38.9655 28.672 38.7255 29.2747 38.7255 30C38.7255 30.7253 38.9655 31.328 39.4455 31.808ZM53.7355 32.368H54.8075V36.144H53.1115V34H47.6235V36.144H45.9275V32.368H46.9035C47.3942 31.6747 47.6395 30.7093 47.6395 29.472V26H53.7355V32.368ZM48.8075 32.368H52.0395V27.584H49.3355V29.472C49.3355 30.6133 49.1595 31.5787 48.8075 32.368ZM59.6746 34.208C58.5013 34.208 57.504 33.8027 56.6826 32.992C55.8613 32.1813 55.4506 31.184 55.4506 30C55.4506 28.816 55.8613 27.8187 56.6826 27.008C57.504 26.1973 58.5013 25.792 59.6746 25.792C60.8586 25.792 61.856 26.1973 62.6666 27.008C63.488 27.8187 63.8986 28.816 63.8986 30C63.8986 31.184 63.488 32.1813 62.6666 32.992C61.856 33.8027 60.8586 34.208 59.6746 34.208ZM57.8986 31.808C58.3786 32.288 58.9706 32.528 59.6746 32.528C60.3786 32.528 60.9706 32.288 61.4506 31.808C61.9306 31.328 62.1706 30.7253 62.1706 30C62.1706 29.2747 61.9306 28.672 61.4506 28.192C60.9706 27.712 60.3786 27.472 59.6746 27.472C58.9706 27.472 58.3786 27.712 57.8986 28.192C57.4186 28.672 57.1786 29.2747 57.1786 30C57.1786 30.7253 57.4186 31.328 57.8986 31.808ZM70.9971 29.888C71.7865 30.2507 72.1811 30.864 72.1811 31.728C72.1811 32.4 71.9518 32.9493 71.4931 33.376C71.0451 33.792 70.3998 34 69.5571 34H65.4611V26H69.2371C70.0585 26 70.6931 26.208 71.1411 26.624C71.5998 27.0293 71.8291 27.5573 71.8291 28.208C71.8291 28.9653 71.5518 29.5253 70.9971 29.888ZM69.1091 27.472H67.1091V29.248H69.1091C69.8131 29.248 70.1651 28.9493 70.1651 28.352C70.1651 27.7653 69.8131 27.472 69.1091 27.472ZM69.3971 32.496C70.1225 32.496 70.4851 32.1813 70.4851 31.552C70.4851 31.2747 70.3891 31.0613 70.1971 30.912C70.0051 30.752 69.7385 30.672 69.3971 30.672H67.1091V32.496H69.3971ZM77.3621 34.208C76.1888 34.208 75.1915 33.8027 74.3701 32.992C73.5488 32.1813 73.1381 31.184 73.1381 30C73.1381 28.816 73.5488 27.8187 74.3701 27.008C75.1915 26.1973 76.1888 25.792 77.3621 25.792C78.5461 25.792 79.5435 26.1973 80.3541 27.008C81.1755 27.8187 81.5861 28.816 81.5861 30C81.5861 31.184 81.1755 32.1813 80.3541 32.992C79.5435 33.8027 78.5461 34.208 77.3621 34.208ZM75.5861 31.808C76.0661 32.288 76.6581 32.528 77.3621 32.528C78.0661 32.528 78.6581 32.288 79.1381 31.808C79.6181 31.328 79.8581 30.7253 79.8581 30C79.8581 29.2747 79.6181 28.672 79.1381 28.192C78.6581 27.712 78.0661 27.472 77.3621 27.472C76.6581 27.472 76.0661 27.712 75.5861 28.192C75.1061 28.672 74.8661 29.2747 74.8661 30C74.8661 30.7253 75.1061 31.328 75.5861 31.808ZM89.6663 26V34H87.9383V27.664H85.2663V30.64C85.2663 31.9093 84.9889 32.8107 84.4343 33.344C83.8796 33.8773 83.0903 34.096 82.0663 34V32.384C82.5569 32.4693 82.9249 32.368 83.1703 32.08C83.4156 31.792 83.5383 31.2853 83.5383 30.56V26H89.6663ZM95.1679 28.72C96.0212 28.72 96.7199 28.9653 97.2639 29.456C97.8079 29.936 98.0799 30.5707 98.0799 31.36C98.0799 32.1387 97.8079 32.7733 97.2639 33.264C96.7199 33.7547 96.0212 34 95.1679 34H91.6799V26H93.4079V28.72H95.1679ZM95.1839 32.448C95.5252 32.448 95.8079 32.3467 96.0319 32.144C96.2665 31.9413 96.3839 31.68 96.3839 31.36C96.3839 31.0293 96.2665 30.768 96.0319 30.576C95.8079 30.3733 95.5252 30.272 95.1839 30.272H93.4079V32.448H95.1839ZM103.175 34.208C101.969 34.208 100.961 33.8027 100.151 32.992C99.3506 32.1813 98.9506 31.184 98.9506 30C98.9506 28.8053 99.3506 27.808 100.151 27.008C100.961 26.1973 101.969 25.792 103.175 25.792C103.953 25.792 104.663 25.9787 105.303 26.352C105.943 26.7253 106.423 27.2267 106.743 27.856L105.255 28.72C105.073 28.336 104.796 28.0373 104.423 27.824C104.06 27.6 103.639 27.488 103.159 27.488C102.455 27.488 101.863 27.728 101.383 28.208C100.913 28.688 100.679 29.2853 100.679 30C100.679 30.7147 100.913 31.312 101.383 31.792C101.863 32.272 102.455 32.512 103.159 32.512C103.628 32.512 104.049 32.4 104.423 32.176C104.807 31.952 105.095 31.6533 105.287 31.28L106.775 32.128C106.433 32.768 105.943 33.2747 105.303 33.648C104.663 34.0213 103.953 34.208 103.175 34.208ZM114.058 26V27.664H111.45V34H109.722V27.664H107.098V26H114.058ZM120.763 29.888C121.552 30.2507 121.947 30.864 121.947 31.728C121.947 32.4 121.717 32.9493 121.259 33.376C120.811 33.792 120.165 34 119.323 34H115.227V26H119.003C119.824 26 120.459 26.208 120.907 26.624C121.365 27.0293 121.595 27.5573 121.595 28.208C121.595 28.9653 121.317 29.5253 120.763 29.888ZM118.875 27.472H116.875V29.248H118.875C119.579 29.248 119.931 28.9493 119.931 28.352C119.931 27.7653 119.579 27.472 118.875 27.472ZM119.163 32.496C119.888 32.496 120.251 32.1813 120.251 31.552C120.251 31.2747 120.155 31.0613 119.963 30.912C119.771 30.752 119.504 30.672 119.163 30.672H116.875V32.496H119.163ZM124.712 30.736C124.84 31.344 125.133 31.8133 125.592 32.144C126.05 32.464 126.61 32.624 127.272 32.624C128.189 32.624 128.877 32.2933 129.336 31.632L130.76 32.464C129.97 33.6267 128.802 34.208 127.256 34.208C125.954 34.208 124.904 33.8133 124.104 33.024C123.304 32.224 122.904 31.216 122.904 30C122.904 28.8053 123.298 27.808 124.088 27.008C124.877 26.1973 125.89 25.792 127.128 25.792C128.301 25.792 129.261 26.2027 130.008 27.024C130.765 27.8453 131.144 28.8427 131.144 30.016C131.144 30.1973 131.122 30.4373 131.08 30.736H124.712ZM124.696 29.328H129.4C129.282 28.6773 129.01 28.1867 128.584 27.856C128.168 27.5253 127.677 27.36 127.112 27.36C126.472 27.36 125.938 27.536 125.512 27.888C125.085 28.24 124.813 28.72 124.696 29.328ZM138.056 26H139.784V34H138.056V30.816H134.392V34H132.664V26H134.392V29.184H138.056V26ZM147.181 26H148.909V34H147.181V30.816H143.517V34H141.789V26H143.517V29.184H147.181V26ZM154.402 28.72C155.256 28.72 155.954 28.9653 156.498 29.456C157.042 29.936 157.314 30.5707 157.314 31.36C157.314 32.1387 157.042 32.7733 156.498 33.264C155.954 33.7547 155.256 34 154.402 34H150.914V26H152.642V28.72H154.402ZM158.274 26H160.002V34H158.274V26ZM154.418 32.448C154.76 32.448 155.042 32.3467 155.266 32.144C155.501 31.9413 155.618 31.68 155.618 31.36C155.618 31.0293 155.501 30.768 155.266 30.576C155.042 30.3733 154.76 30.272 154.418 30.272H152.642V32.448H154.418ZM163.32 24.88V23.376H167.8V24.88H163.32ZM167.8 26H169.128V34H167.432V28.912L163.336 34H162.008V26H163.704V31.072L167.8 26ZM71.1836 45V53H69.5036V47.736L67.1996 51.4H66.9916L64.7036 47.752V53H63.0236V45H64.7836L67.1036 48.696L69.4236 45H71.1836ZM79.5159 45H81.2439V53H79.5159V51.848C78.8652 52.7547 77.9319 53.208 76.7159 53.208C75.6172 53.208 74.6785 52.8027 73.8999 51.992C73.1212 51.1707 72.7319 50.1733 72.7319 49C72.7319 47.816 73.1212 46.8187 73.8999 46.008C74.6785 45.1973 75.6172 44.792 76.7159 44.792C77.9319 44.792 78.8652 45.24 79.5159 46.136V45ZM75.1799 50.84C75.6599 51.32 76.2625 51.56 76.9879 51.56C77.7132 51.56 78.3159 51.32 78.7959 50.84C79.2759 50.3493 79.5159 49.736 79.5159 49C79.5159 48.264 79.2759 47.656 78.7959 47.176C78.3159 46.6853 77.7132 46.44 76.9879 46.44C76.2625 46.44 75.6599 46.6853 75.1799 47.176C74.6999 47.656 74.4599 48.264 74.4599 49C74.4599 49.736 74.6999 50.3493 75.1799 50.84ZM88.618 45V46.664H84.986V53H83.258V45H88.618ZM95.8128 45H97.5408V53H95.8128V51.848C95.1621 52.7547 94.2288 53.208 93.0128 53.208C91.9141 53.208 90.9754 52.8027 90.1968 51.992C89.4181 51.1707 89.0288 50.1733 89.0288 49C89.0288 47.816 89.4181 46.8187 90.1968 46.008C90.9754 45.1973 91.9141 44.792 93.0128 44.792C94.2288 44.792 95.1621 45.24 95.8128 46.136V45ZM91.4768 50.84C91.9568 51.32 92.5594 51.56 93.2848 51.56C94.0101 51.56 94.6128 51.32 95.0928 50.84C95.5728 50.3493 95.8128 49.736 95.8128 49C95.8128 48.264 95.5728 47.656 95.0928 47.176C94.6128 46.6853 94.0101 46.44 93.2848 46.44C92.5594 46.44 91.9568 46.6853 91.4768 47.176C90.9968 47.656 90.7568 48.264 90.7568 49C90.7568 49.736 90.9968 50.3493 91.4768 50.84ZM104.051 48.904C104.904 49.288 105.331 49.9227 105.331 50.808C105.331 51.4907 105.054 52.0613 104.499 52.52C103.944 52.9787 103.171 53.208 102.179 53.208C100.568 53.208 99.4802 52.568 98.9149 51.288L100.323 50.456C100.611 51.256 101.235 51.656 102.195 51.656C102.643 51.656 102.995 51.5653 103.251 51.384C103.507 51.192 103.635 50.9413 103.635 50.632C103.635 50.3547 103.534 50.136 103.331 49.976C103.128 49.8053 102.846 49.72 102.483 49.72H101.347V48.2H102.195C102.547 48.2 102.819 48.12 103.011 47.96C103.214 47.7893 103.315 47.56 103.315 47.272C103.315 46.9947 103.203 46.7707 102.979 46.6C102.755 46.4187 102.456 46.328 102.083 46.328C101.283 46.328 100.728 46.68 100.419 47.384L99.0109 46.584C99.6082 45.3893 100.622 44.792 102.051 44.792C102.947 44.792 103.656 45.0213 104.179 45.48C104.712 45.928 104.979 46.4773 104.979 47.128C104.979 47.928 104.67 48.52 104.051 48.904ZM112.534 45H113.862V53H112.166V47.912L108.07 53H106.742V45H108.438V50.072L112.534 45ZM121.259 45H122.987V53H121.259V49.816H117.595V53H115.867V45H117.595V48.184H121.259V45Z" fill="#333333"/>
</svg>
