<svg width="1354" height="420" viewBox="0 0 1354 420" fill="none" xmlns="http://www.w3.org/2000/svg">
	<path d="M150.068 399.723C150.068 400.896 149.76 401.93 149.144 402.825L144.282 410.151H141.378L144.898 404.981H144.634C143.035 404.981 141.723 404.497 140.696 403.529C139.684 402.546 139.178 401.278 139.178 399.723C139.178 398.168 139.684 396.907 140.696 395.939C141.723 394.956 143.035 394.465 144.634 394.465C146.233 394.465 147.538 394.956 148.55 395.939C149.562 396.907 150.068 398.168 150.068 399.723ZM141.708 399.723C141.708 400.574 141.979 401.263 142.522 401.791C143.079 402.319 143.783 402.583 144.634 402.583C145.485 402.583 146.181 402.326 146.724 401.813C147.267 401.285 147.538 400.588 147.538 399.723C147.538 398.858 147.267 398.168 146.724 397.655C146.181 397.127 145.485 396.863 144.634 396.863C143.783 396.863 143.079 397.127 142.522 397.655C141.979 398.168 141.708 398.858 141.708 399.723ZM162.573 405.025V407.379H160.813V410.151H158.261V407.379H150.693V405.025L155.995 394.751H158.745L153.443 405.025H158.261V401.021H160.813V405.025H162.573Z" fill="white"/>
	<path d="M138.628 414.551H162.947V415.651H138.628V414.551Z" fill="white"/>
	<path d="M921.044 285.554H923.244V300.954H920.714V288.26L917.612 289.14L916.996 286.984L921.044 285.554ZM936.27 299.062C935.214 300.514 933.733 301.24 931.826 301.24C929.919 301.24 928.431 300.514 927.36 299.062C926.304 297.61 925.776 295.674 925.776 293.254C925.776 290.834 926.304 288.898 927.36 287.446C928.431 285.994 929.919 285.268 931.826 285.268C933.733 285.268 935.214 285.994 936.27 287.446C937.341 288.898 937.876 290.834 937.876 293.254C937.876 295.674 937.341 297.61 936.27 299.062ZM931.826 298.776C932.97 298.776 933.843 298.3 934.444 297.346C935.045 296.393 935.346 295.029 935.346 293.254C935.346 291.48 935.045 290.116 934.444 289.162C933.843 288.209 932.97 287.732 931.826 287.732C930.697 287.732 929.824 288.209 929.208 289.162C928.607 290.116 928.306 291.48 928.306 293.254C928.306 295.029 928.607 296.393 929.208 297.346C929.824 298.3 930.697 298.776 931.826 298.776ZM950.127 299.062C949.071 300.514 947.59 301.24 945.683 301.24C943.777 301.24 942.288 300.514 941.217 299.062C940.161 297.61 939.633 295.674 939.633 293.254C939.633 290.834 940.161 288.898 941.217 287.446C942.288 285.994 943.777 285.268 945.683 285.268C947.59 285.268 949.071 285.994 950.127 287.446C951.198 288.898 951.733 290.834 951.733 293.254C951.733 295.674 951.198 297.61 950.127 299.062ZM945.683 298.776C946.827 298.776 947.7 298.3 948.301 297.346C948.903 296.393 949.203 295.029 949.203 293.254C949.203 291.48 948.903 290.116 948.301 289.162C947.7 288.209 946.827 287.732 945.683 287.732C944.554 287.732 943.681 288.209 943.065 289.162C942.464 290.116 942.163 291.48 942.163 293.254C942.163 295.029 942.464 296.393 943.065 297.346C943.681 298.3 944.554 298.776 945.683 298.776Z" fill="white"/>
	<path d="M916.71 305.354H952.613V306.454H916.71V305.354Z" fill="white"/>
	<path d="M1091.69 144.908H1093.89V160.308H1091.36V147.614L1088.26 148.494L1087.64 146.338L1091.69 144.908ZM1106.91 158.416C1105.86 159.868 1104.38 160.594 1102.47 160.594C1100.56 160.594 1099.07 159.868 1098 158.416C1096.95 156.964 1096.42 155.028 1096.42 152.608C1096.42 150.188 1096.95 148.252 1098 146.8C1099.07 145.348 1100.56 144.622 1102.47 144.622C1104.38 144.622 1105.86 145.348 1106.91 146.8C1107.98 148.252 1108.52 150.188 1108.52 152.608C1108.52 155.028 1107.98 156.964 1106.91 158.416ZM1102.47 158.13C1103.61 158.13 1104.49 157.653 1105.09 156.7C1105.69 155.746 1105.99 154.382 1105.99 152.608C1105.99 150.833 1105.69 149.469 1105.09 148.516C1104.49 147.562 1103.61 147.086 1102.47 147.086C1101.34 147.086 1100.47 147.562 1099.85 148.516C1099.25 149.469 1098.95 150.833 1098.95 152.608C1098.95 154.382 1099.25 155.746 1099.85 156.7C1100.47 157.653 1101.34 158.13 1102.47 158.13ZM1120.84 149.88C1120.84 151.053 1120.53 152.087 1119.91 152.982L1115.05 160.308H1112.15L1115.67 155.138H1115.4C1113.8 155.138 1112.49 154.654 1111.46 153.686C1110.45 152.703 1109.95 151.434 1109.95 149.88C1109.95 148.325 1110.45 147.064 1111.46 146.096C1112.49 145.113 1113.8 144.622 1115.4 144.622C1117 144.622 1118.31 145.113 1119.32 146.096C1120.33 147.064 1120.84 148.325 1120.84 149.88ZM1112.48 149.88C1112.48 150.73 1112.75 151.42 1113.29 151.948C1113.85 152.476 1114.55 152.74 1115.4 152.74C1116.25 152.74 1116.95 152.483 1117.49 151.97C1118.03 151.442 1118.31 150.745 1118.31 149.88C1118.31 149.014 1118.03 148.325 1117.49 147.812C1116.95 147.284 1116.25 147.02 1115.4 147.02C1114.55 147.02 1113.85 147.284 1113.29 147.812C1112.75 148.325 1112.48 149.014 1112.48 149.88Z" fill="white"/>
	<path d="M1087.35 164.708H1121.39V165.808H1087.35V164.708Z" fill="white"/>
	<path d="M1118.44 351.536H1120.64V366.936H1118.11V354.242L1115.01 355.122L1114.39 352.966L1118.44 351.536ZM1133.67 365.044C1132.61 366.496 1131.13 367.222 1129.22 367.222C1127.31 367.222 1125.83 366.496 1124.76 365.044C1123.7 363.592 1123.17 361.656 1123.17 359.236C1123.17 356.816 1123.7 354.88 1124.76 353.428C1125.83 351.976 1127.31 351.25 1129.22 351.25C1131.13 351.25 1132.61 351.976 1133.67 353.428C1134.74 354.88 1135.27 356.816 1135.27 359.236C1135.27 361.656 1134.74 363.592 1133.67 365.044ZM1129.22 364.758C1130.37 364.758 1131.24 364.281 1131.84 363.328C1132.44 362.375 1132.74 361.011 1132.74 359.236C1132.74 357.461 1132.44 356.097 1131.84 355.144C1131.24 354.191 1130.37 353.714 1129.22 353.714C1128.09 353.714 1127.22 354.191 1126.6 355.144C1126 356.097 1125.7 357.461 1125.7 359.236C1125.7 361.011 1126 362.375 1126.6 363.328C1127.22 364.281 1128.09 364.758 1129.22 364.758ZM1142.94 357.828C1144.05 358.092 1144.95 358.613 1145.64 359.39C1146.35 360.153 1146.7 361.113 1146.7 362.272C1146.7 363.812 1146.18 365.022 1145.14 365.902C1144.1 366.782 1142.82 367.222 1141.31 367.222C1140.14 367.222 1139.08 366.951 1138.14 366.408C1137.22 365.865 1136.55 365.073 1136.14 364.032L1138.3 362.778C1138.75 364.098 1139.76 364.758 1141.31 364.758C1142.19 364.758 1142.89 364.538 1143.4 364.098C1143.91 363.643 1144.17 363.035 1144.17 362.272C1144.17 361.509 1143.91 360.908 1143.4 360.468C1142.89 360.028 1142.19 359.808 1141.31 359.808H1140.74L1139.73 358.29L1143.05 353.912H1136.6V351.536H1146.06V353.692L1142.94 357.828Z" fill="white"/>
	<path d="M1114.11 371.336H1147.47V372.436H1114.11V371.336Z" fill="white"/>
	<path d="M1289.54 5.6H1291.74V21H1289.21V8.306L1286.11 9.186L1285.5 7.03L1289.54 5.6ZM1304.77 19.108C1303.71 20.56 1302.23 21.286 1300.33 21.286C1298.42 21.286 1296.93 20.56 1295.86 19.108C1294.8 17.656 1294.28 15.72 1294.28 13.3C1294.28 10.88 1294.8 8.944 1295.86 7.492C1296.93 6.04 1298.42 5.314 1300.33 5.314C1302.23 5.314 1303.71 6.04 1304.77 7.492C1305.84 8.944 1306.38 10.88 1306.38 13.3C1306.38 15.72 1305.84 17.656 1304.77 19.108ZM1300.33 18.822C1301.47 18.822 1302.34 18.3453 1302.94 17.392C1303.54 16.4387 1303.85 15.0747 1303.85 13.3C1303.85 11.5253 1303.54 10.1613 1302.94 9.208C1302.34 8.25467 1301.47 7.778 1300.33 7.778C1299.2 7.778 1298.32 8.25467 1297.71 9.208C1297.11 10.1613 1296.81 11.5253 1296.81 13.3C1296.81 15.0747 1297.11 16.4387 1297.71 17.392C1298.32 18.3453 1299.2 18.822 1300.33 18.822ZM1313.26 10.77C1314.86 10.77 1316.16 11.2613 1317.17 12.244C1318.19 13.212 1318.69 14.4733 1318.69 16.028C1318.69 17.5827 1318.19 18.8513 1317.17 19.834C1316.16 20.802 1314.86 21.286 1313.26 21.286C1311.65 21.286 1310.33 20.802 1309.32 19.834C1308.31 18.8513 1307.8 17.5827 1307.8 16.028C1307.8 14.8547 1308.11 13.8207 1308.73 12.926L1313.61 5.6H1316.49L1312.97 10.77H1313.26ZM1313.26 18.888C1314.11 18.888 1314.81 18.6313 1315.35 18.118C1315.89 17.59 1316.16 16.8933 1316.16 16.028C1316.16 15.1627 1315.89 14.4733 1315.35 13.96C1314.81 13.432 1314.11 13.168 1313.26 13.168C1312.39 13.168 1311.69 13.432 1311.15 13.96C1310.6 14.4733 1310.33 15.1627 1310.33 16.028C1310.33 16.8933 1310.6 17.59 1311.15 18.118C1311.69 18.6313 1312.39 18.888 1313.26 18.888Z" fill="white"/>
	<path d="M1285.21 25.4H1319.24V26.5H1285.21V25.4Z" fill="white"/>
	<path d="M134.714 275.466H136.914V290.866H134.384V278.172L131.282 279.052L130.666 276.896L134.714 275.466ZM142.899 275.466H145.099V290.866H142.569V278.172L139.467 279.052L138.851 276.896L142.899 275.466ZM156.057 282.858C157.568 283.694 158.323 284.941 158.323 286.598C158.323 288.006 157.832 289.121 156.849 289.942C155.866 290.749 154.561 291.152 152.933 291.152C151.305 291.152 149.992 290.749 148.995 289.942C148.012 289.121 147.521 288.006 147.521 286.598C147.521 285.806 147.719 285.088 148.115 284.442C148.511 283.782 149.068 283.254 149.787 282.858C148.628 282.096 148.049 281.01 148.049 279.602C148.049 278.194 148.518 277.109 149.457 276.346C150.396 275.569 151.554 275.18 152.933 275.18C154.297 275.18 155.448 275.569 156.387 276.346C157.34 277.109 157.817 278.194 157.817 279.602C157.817 281.01 157.23 282.096 156.057 282.858ZM152.933 277.578C152.244 277.578 151.679 277.762 151.239 278.128C150.799 278.495 150.579 279.023 150.579 279.712C150.579 280.372 150.799 280.893 151.239 281.274C151.694 281.656 152.258 281.846 152.933 281.846C153.593 281.846 154.15 281.656 154.605 281.274C155.06 280.893 155.287 280.372 155.287 279.712C155.287 279.023 155.06 278.495 154.605 278.128C154.165 277.762 153.608 277.578 152.933 277.578ZM152.933 288.754C153.784 288.754 154.473 288.549 155.001 288.138C155.529 287.713 155.793 287.119 155.793 286.356C155.793 285.594 155.529 285.007 155.001 284.596C154.473 284.171 153.784 283.958 152.933 283.958C152.068 283.958 151.371 284.171 150.843 284.596C150.315 285.007 150.051 285.594 150.051 286.356C150.051 287.119 150.315 287.713 150.843 288.138C151.371 288.549 152.068 288.754 152.933 288.754Z" fill="white"/>
	<path d="M130.38 295.266H159.093V296.366H130.38V295.266Z" fill="white"/>
	<path d="M379.525 220.282H381.725V235.682H379.195V222.988L376.093 223.868L375.477 221.712L379.525 220.282ZM387.71 220.282H389.91V235.682H387.38V222.988L384.278 223.868L383.662 221.712L387.71 220.282ZM397.568 225.452C399.167 225.452 400.472 225.943 401.484 226.926C402.496 227.894 403.002 229.155 403.002 230.71C403.002 232.265 402.496 233.533 401.484 234.516C400.472 235.484 399.167 235.968 397.568 235.968C395.955 235.968 394.642 235.484 393.63 234.516C392.618 233.533 392.112 232.265 392.112 230.71C392.112 229.537 392.42 228.503 393.036 227.608L397.92 220.282H400.802L397.282 225.452H397.568ZM397.568 233.57C398.419 233.57 399.115 233.313 399.658 232.8C400.201 232.272 400.472 231.575 400.472 230.71C400.472 229.845 400.201 229.155 399.658 228.642C399.115 228.114 398.419 227.85 397.568 227.85C396.703 227.85 395.999 228.114 395.456 228.642C394.913 229.155 394.642 229.845 394.642 230.71C394.642 231.575 394.913 232.272 395.456 232.8C395.999 233.313 396.703 233.57 397.568 233.57Z" fill="white"/>
	<path d="M375.191 240.082H403.552V241.182H375.191V240.082Z" fill="white"/>
	<path d="M265.546 245.855H267.746V261.255H265.216V248.561L262.114 249.441L261.498 247.285L265.546 245.855ZM273.732 245.855H275.932V261.255H273.402V248.561L270.3 249.441L269.684 247.285L273.732 245.855ZM277.913 245.855H287.703V248.055L282.291 261.255H279.629L284.953 248.275H277.913V245.855Z" fill="white"/>
	<path d="M261.212 265.655H288.363V266.755H261.212V265.655Z" fill="white"/>
	<path d="M913.209 167.116H915.409V182.516H912.879V169.822L909.777 170.702L909.161 168.546L913.209 167.116ZM921.395 167.116H923.595V182.516H921.065V169.822L917.963 170.702L917.347 168.546L921.395 167.116ZM929.581 167.116H931.781V182.516H929.251V169.822L926.149 170.702L925.533 168.546L929.581 167.116Z" fill="white"/>
	<path d="M908.875 186.916H933.431V188.016H908.875V186.916Z" fill="white"/>
	<path d="M748.351 314.761C748.351 315.934 748.043 316.968 747.427 317.863L742.565 325.189H739.661L743.181 320.019H742.917C741.318 320.019 740.005 319.535 738.979 318.567C737.967 317.584 737.461 316.315 737.461 314.761C737.461 313.206 737.967 311.945 738.979 310.977C740.005 309.994 741.318 309.503 742.917 309.503C744.515 309.503 745.821 309.994 746.833 310.977C747.845 311.945 748.351 313.206 748.351 314.761ZM739.991 314.761C739.991 315.611 740.262 316.301 740.805 316.829C741.362 317.357 742.066 317.621 742.917 317.621C743.767 317.621 744.464 317.364 745.007 316.851C745.549 316.323 745.821 315.626 745.821 314.761C745.821 313.895 745.549 313.206 745.007 312.693C744.464 312.165 743.767 311.901 742.917 311.901C742.066 311.901 741.362 312.165 740.805 312.693C740.262 313.206 739.991 313.895 739.991 314.761ZM758.205 317.181C759.716 318.017 760.471 319.263 760.471 320.921C760.471 322.329 759.98 323.443 758.997 324.265C758.014 325.071 756.709 325.475 755.081 325.475C753.453 325.475 752.14 325.071 751.143 324.265C750.16 323.443 749.669 322.329 749.669 320.921C749.669 320.129 749.867 319.41 750.263 318.765C750.659 318.105 751.216 317.577 751.935 317.181C750.776 316.418 750.197 315.333 750.197 313.925C750.197 312.517 750.666 311.431 751.605 310.669C752.544 309.891 753.702 309.503 755.081 309.503C756.445 309.503 757.596 309.891 758.535 310.669C759.488 311.431 759.965 312.517 759.965 313.925C759.965 315.333 759.378 316.418 758.205 317.181ZM755.081 311.901C754.392 311.901 753.827 312.084 753.387 312.451C752.947 312.817 752.727 313.345 752.727 314.035C752.727 314.695 752.947 315.215 753.387 315.597C753.842 315.978 754.406 316.169 755.081 316.169C755.741 316.169 756.298 315.978 756.753 315.597C757.208 315.215 757.435 314.695 757.435 314.035C757.435 313.345 757.208 312.817 756.753 312.451C756.313 312.084 755.756 311.901 755.081 311.901ZM755.081 323.077C755.932 323.077 756.621 322.871 757.149 322.461C757.677 322.035 757.941 321.441 757.941 320.679C757.941 319.916 757.677 319.329 757.149 318.919C756.621 318.493 755.932 318.281 755.081 318.281C754.216 318.281 753.519 318.493 752.991 318.919C752.463 319.329 752.199 319.916 752.199 320.679C752.199 321.441 752.463 322.035 752.991 322.461C753.519 322.871 754.216 323.077 755.081 323.077Z" fill="white"/>
	<path d="M736.911 329.589H761.241V330.689H736.911V329.589Z" fill="white"/>
	<path d="M1081.75 56.9447H1083.95V72.3447H1081.42V59.6507L1078.31 60.5307L1077.7 58.3747L1081.75 56.9447ZM1096.97 70.4527C1095.92 71.9047 1094.43 72.6307 1092.53 72.6307C1090.62 72.6307 1089.13 71.9047 1088.06 70.4527C1087.01 69.0007 1086.48 67.0647 1086.48 64.6447C1086.48 62.2247 1087.01 60.2887 1088.06 58.8367C1089.13 57.3847 1090.62 56.6587 1092.53 56.6587C1094.43 56.6587 1095.92 57.3847 1096.97 58.8367C1098.04 60.2887 1098.58 62.2247 1098.58 64.6447C1098.58 67.0647 1098.04 69.0007 1096.97 70.4527ZM1092.53 70.1667C1093.67 70.1667 1094.54 69.6901 1095.15 68.7367C1095.75 67.7834 1096.05 66.4194 1096.05 64.6447C1096.05 62.8701 1095.75 61.5061 1095.15 60.5527C1094.54 59.5994 1093.67 59.1227 1092.53 59.1227C1091.4 59.1227 1090.53 59.5994 1089.91 60.5527C1089.31 61.5061 1089.01 62.8701 1089.01 64.6447C1089.01 66.4194 1089.31 67.7834 1089.91 68.7367C1090.53 69.6901 1091.4 70.1667 1092.53 70.1667ZM1108.76 64.3367C1110.27 65.1727 1111.03 66.4194 1111.03 68.0767C1111.03 69.4847 1110.54 70.5994 1109.55 71.4207C1108.57 72.2274 1107.27 72.6307 1105.64 72.6307C1104.01 72.6307 1102.7 72.2274 1101.7 71.4207C1100.72 70.5994 1100.23 69.4847 1100.23 68.0767C1100.23 67.2847 1100.42 66.5661 1100.82 65.9207C1101.22 65.2607 1101.77 64.7327 1102.49 64.3367C1101.33 63.5741 1100.75 62.4887 1100.75 61.0807C1100.75 59.6727 1101.22 58.5874 1102.16 57.8247C1103.1 57.0474 1104.26 56.6587 1105.64 56.6587C1107 56.6587 1108.15 57.0474 1109.09 57.8247C1110.04 58.5874 1110.52 59.6727 1110.52 61.0807C1110.52 62.4887 1109.93 63.5741 1108.76 64.3367ZM1105.64 59.0567C1104.95 59.0567 1104.38 59.2401 1103.94 59.6067C1103.5 59.9734 1103.28 60.5014 1103.28 61.1907C1103.28 61.8507 1103.5 62.3714 1103.94 62.7527C1104.4 63.1341 1104.96 63.3247 1105.64 63.3247C1106.3 63.3247 1106.85 63.1341 1107.31 62.7527C1107.76 62.3714 1107.99 61.8507 1107.99 61.1907C1107.99 60.5014 1107.76 59.9734 1107.31 59.6067C1106.87 59.2401 1106.31 59.0567 1105.64 59.0567ZM1105.64 70.2327C1106.49 70.2327 1107.18 70.0274 1107.71 69.6167C1108.23 69.1914 1108.5 68.5974 1108.5 67.8347C1108.5 67.0721 1108.23 66.4854 1107.71 66.0747C1107.18 65.6494 1106.49 65.4367 1105.64 65.4367C1104.77 65.4367 1104.08 65.6494 1103.55 66.0747C1103.02 66.4854 1102.76 67.0721 1102.76 67.8347C1102.76 68.5974 1103.02 69.1914 1103.55 69.6167C1104.08 70.0274 1104.77 70.2327 1105.64 70.2327Z" fill="white"/>
	<path d="M1077.41 76.7447H1111.8V77.8447H1077.41V76.7447Z" fill="white"/>
	<path d="M1105.31 263.353H1107.51V278.753H1104.98V266.059L1101.87 266.939L1101.26 264.783L1105.31 263.353ZM1120.53 276.861C1119.47 278.313 1117.99 279.039 1116.09 279.039C1114.18 279.039 1112.69 278.313 1111.62 276.861C1110.56 275.409 1110.04 273.473 1110.04 271.053C1110.04 268.633 1110.56 266.697 1111.62 265.245C1112.69 263.793 1114.18 263.067 1116.09 263.067C1117.99 263.067 1119.47 263.793 1120.53 265.245C1121.6 266.697 1122.14 268.633 1122.14 271.053C1122.14 273.473 1121.6 275.409 1120.53 276.861ZM1116.09 276.575C1117.23 276.575 1118.1 276.098 1118.7 275.145C1119.31 274.191 1119.61 272.827 1119.61 271.053C1119.61 269.278 1119.31 267.914 1118.7 266.961C1118.1 266.007 1117.23 265.531 1116.09 265.531C1114.96 265.531 1114.08 266.007 1113.47 266.961C1112.87 267.914 1112.57 269.278 1112.57 271.053C1112.57 272.827 1112.87 274.191 1113.47 275.145C1114.08 276.098 1114.96 276.575 1116.09 276.575ZM1123.37 278.753V276.773L1128.74 271.295C1130.05 269.989 1130.7 268.86 1130.7 267.907C1130.7 267.159 1130.47 266.579 1130.02 266.169C1129.58 265.743 1129.01 265.531 1128.32 265.531C1127.03 265.531 1126.08 266.169 1125.46 267.445L1123.33 266.191C1123.81 265.164 1124.5 264.387 1125.38 263.859C1126.26 263.331 1127.23 263.067 1128.3 263.067C1129.65 263.067 1130.81 263.492 1131.78 264.343C1132.75 265.193 1133.23 266.352 1133.23 267.819C1133.23 269.388 1132.36 271.06 1130.61 272.835L1127.14 276.311H1133.52V278.753H1123.37Z" fill="white"/>
	<path d="M1100.97 283.153H1134.33V284.253H1100.97V283.153Z" fill="white"/>
	<path d="M926.114 377.087H928.314V392.487H925.784V379.793L922.682 380.673L922.066 378.517L926.114 377.087ZM941.339 390.595C940.283 392.047 938.802 392.773 936.895 392.773C934.989 392.773 933.5 392.047 932.429 390.595C931.373 389.143 930.845 387.207 930.845 384.787C930.845 382.367 931.373 380.431 932.429 378.979C933.5 377.527 934.989 376.801 936.895 376.801C938.802 376.801 940.283 377.527 941.339 378.979C942.41 380.431 942.945 382.367 942.945 384.787C942.945 387.207 942.41 389.143 941.339 390.595ZM936.895 390.309C938.039 390.309 938.912 389.832 939.513 388.879C940.115 387.926 940.415 386.562 940.415 384.787C940.415 383.012 940.115 381.648 939.513 380.695C938.912 379.742 938.039 379.265 936.895 379.265C935.766 379.265 934.893 379.742 934.277 380.695C933.676 381.648 933.375 383.012 933.375 384.787C933.375 386.562 933.676 387.926 934.277 388.879C934.893 389.832 935.766 390.309 936.895 390.309ZM947.727 377.087H949.927V392.487H947.397V379.793L944.295 380.673L943.679 378.517L947.727 377.087Z" fill="white"/>
	<path d="M921.78 396.887H951.577V397.987H921.78V396.887Z" fill="white"/>
	<path d="M765.193 403.594C765.193 404.768 764.885 405.802 764.269 406.696L759.407 414.022H756.503L760.023 408.852H759.759C758.161 408.852 756.848 408.368 755.821 407.4C754.809 406.418 754.303 405.149 754.303 403.594C754.303 402.04 754.809 400.778 755.821 399.81C756.848 398.828 758.161 398.336 759.759 398.336C761.358 398.336 762.663 398.828 763.675 399.81C764.687 400.778 765.193 402.04 765.193 403.594ZM756.833 403.594C756.833 404.445 757.105 405.134 757.647 405.662C758.205 406.19 758.909 406.454 759.759 406.454C760.61 406.454 761.307 406.198 761.849 405.684C762.392 405.156 762.663 404.46 762.663 403.594C762.663 402.729 762.392 402.04 761.849 401.526C761.307 400.998 760.61 400.734 759.759 400.734C758.909 400.734 758.205 400.998 757.647 401.526C757.105 402.04 756.833 402.729 756.833 403.594ZM777.182 403.594C777.182 404.768 776.874 405.802 776.258 406.696L771.396 414.022H768.492L772.012 408.852H771.748C770.149 408.852 768.836 408.368 767.81 407.4C766.798 406.418 766.292 405.149 766.292 403.594C766.292 402.04 766.798 400.778 767.81 399.81C768.836 398.828 770.149 398.336 771.748 398.336C773.346 398.336 774.652 398.828 775.664 399.81C776.676 400.778 777.182 402.04 777.182 403.594ZM768.822 403.594C768.822 404.445 769.093 405.134 769.636 405.662C770.193 406.19 770.897 406.454 771.748 406.454C772.598 406.454 773.295 406.198 773.838 405.684C774.38 405.156 774.652 404.46 774.652 403.594C774.652 402.729 774.38 402.04 773.838 401.526C773.295 400.998 772.598 400.734 771.748 400.734C770.897 400.734 770.193 400.998 769.636 401.526C769.093 402.04 768.822 402.729 768.822 403.594Z" fill="white"/>
	<path d="M753.753 418.422H777.732V419.522H753.753V418.422Z" fill="white"/>
	<path d="M487.12 362.542C487.12 363.716 486.812 364.75 486.196 365.644L481.334 372.97H478.43L481.95 367.8H481.686C480.087 367.8 478.774 367.316 477.748 366.348C476.736 365.366 476.23 364.097 476.23 362.542C476.23 360.988 476.736 359.726 477.748 358.758C478.774 357.776 480.087 357.284 481.686 357.284C483.284 357.284 484.59 357.776 485.602 358.758C486.614 359.726 487.12 360.988 487.12 362.542ZM478.76 362.542C478.76 363.393 479.031 364.082 479.574 364.61C480.131 365.138 480.835 365.402 481.686 365.402C482.536 365.402 483.233 365.146 483.776 364.632C484.318 364.104 484.59 363.408 484.59 362.542C484.59 361.677 484.318 360.988 483.776 360.474C483.233 359.946 482.536 359.682 481.686 359.682C480.835 359.682 480.131 359.946 479.574 360.474C479.031 360.988 478.76 361.677 478.76 362.542ZM493.244 362.74C494.843 362.74 496.148 363.232 497.16 364.214C498.172 365.182 498.678 366.444 498.678 367.998C498.678 369.553 498.172 370.822 497.16 371.804C496.148 372.772 494.843 373.256 493.244 373.256C491.631 373.256 490.318 372.772 489.306 371.804C488.294 370.822 487.788 369.553 487.788 367.998C487.788 366.825 488.096 365.791 488.712 364.896L493.596 357.57H496.478L492.958 362.74H493.244ZM493.244 370.858C494.095 370.858 494.792 370.602 495.334 370.088C495.877 369.56 496.148 368.864 496.148 367.998C496.148 367.133 495.877 366.444 495.334 365.93C494.792 365.402 494.095 365.138 493.244 365.138C492.379 365.138 491.675 365.402 491.132 365.93C490.59 366.444 490.318 367.133 490.318 367.998C490.318 368.864 490.59 369.56 491.132 370.088C491.675 370.602 492.379 370.858 493.244 370.858Z" fill="white"/>
	<path d="M475.68 377.37H499.228V378.47H475.68V377.37Z" fill="white"/>
	<path d="M491.567 193.362H493.767V208.762H491.237V196.068L488.135 196.948L487.519 194.792L491.567 193.362ZM499.752 193.362H501.952V208.762H499.422V196.068L496.32 196.948L495.704 194.792L499.752 193.362ZM509.654 199.17C511.121 199.17 512.36 199.61 513.372 200.49C514.384 201.356 514.89 202.558 514.89 204.098C514.89 205.638 514.369 206.848 513.328 207.728C512.287 208.608 511.011 209.048 509.5 209.048C508.283 209.048 507.205 208.77 506.266 208.212C505.327 207.64 504.66 206.819 504.264 205.748L506.442 204.494C506.853 205.888 507.872 206.584 509.5 206.584C510.365 206.584 511.055 206.364 511.568 205.924C512.096 205.47 512.36 204.861 512.36 204.098C512.36 203.336 512.103 202.734 511.59 202.294C511.077 201.854 510.395 201.634 509.544 201.634H505.056L505.65 193.362H514.23V195.738H507.982L507.718 199.17H509.654Z" fill="white"/>
	<path d="M487.233 213.162H515.594V214.262H487.233V213.162Z" fill="white"/>
	<path d="M604.434 169.135H606.634V184.535H604.104V171.841L601.002 172.721L600.386 170.565L604.434 169.135ZM612.619 169.135H614.819V184.535H612.289V171.841L609.187 172.721L608.571 170.565L612.619 169.135ZM628.857 179.409V181.763H627.097V184.535H624.545V181.763H616.977V179.409L622.279 169.135H625.029L619.727 179.409H624.545V175.405H627.097V179.409H628.857Z" fill="white"/>
	<path d="M600.1 188.935H629.231V190.035H600.1V188.935Z" fill="white"/>
	<path d="M620.692 354.006C620.692 355.18 620.384 356.214 619.768 357.108L614.906 364.434H612.002L615.522 359.264H615.258C613.659 359.264 612.347 358.78 611.32 357.812C610.308 356.83 609.802 355.561 609.802 354.006C609.802 352.452 610.308 351.19 611.32 350.222C612.347 349.24 613.659 348.748 615.258 348.748C616.857 348.748 618.162 349.24 619.174 350.222C620.186 351.19 620.692 352.452 620.692 354.006ZM612.332 354.006C612.332 354.857 612.603 355.546 613.146 356.074C613.703 356.602 614.407 356.866 615.258 356.866C616.109 356.866 616.805 356.61 617.348 356.096C617.891 355.568 618.162 354.872 618.162 354.006C618.162 353.141 617.891 352.452 617.348 351.938C616.805 351.41 616.109 351.146 615.258 351.146C614.407 351.146 613.703 351.41 613.146 351.938C612.603 352.452 612.332 353.141 612.332 354.006ZM621.355 349.034H631.145V351.234L625.733 364.434H623.071L628.395 351.454H621.355V349.034Z" fill="white"/>
	<path d="M609.252 368.834H631.805V369.934H609.252V368.834Z" fill="white"/>
	<path d="M722.919 91.069H725.119V106.469H722.589V93.775L719.487 94.655L718.871 92.499L722.919 91.069ZM731.105 91.069H733.305V106.469H730.775V93.775L727.673 94.655L727.057 92.499L731.105 91.069ZM735.638 106.469V104.489L741.006 99.011C742.311 97.7057 742.964 96.5763 742.964 95.623C742.964 94.875 742.737 94.2957 742.282 93.885C741.842 93.4597 741.277 93.247 740.588 93.247C739.297 93.247 738.344 93.885 737.728 95.161L735.594 93.907C736.078 92.8803 736.76 92.103 737.64 91.575C738.52 91.047 739.495 90.783 740.566 90.783C741.915 90.783 743.074 91.2083 744.042 92.059C745.01 92.9097 745.494 94.0683 745.494 95.535C745.494 97.1043 744.621 98.7763 742.876 100.551L739.4 104.027H745.78V106.469H735.638Z" fill="white"/>
	<path d="M718.585 110.869H746.594V111.969H718.585V110.869Z" fill="white"/>
	<path d="M734.914 190.671H737.114V206.071H734.584V193.377L731.482 194.257L730.866 192.101L734.914 190.671ZM743.099 190.671H745.299V206.071H742.769V193.377L739.667 194.257L739.051 192.101L743.099 190.671ZM754.299 196.963C755.413 197.227 756.315 197.747 757.005 198.525C757.709 199.287 758.061 200.248 758.061 201.407C758.061 202.947 757.54 204.157 756.499 205.037C755.457 205.917 754.181 206.357 752.671 206.357C751.497 206.357 750.441 206.085 749.503 205.543C748.579 205 747.911 204.208 747.501 203.167L749.657 201.913C750.111 203.233 751.116 203.893 752.671 203.893C753.551 203.893 754.247 203.673 754.761 203.233C755.274 202.778 755.531 202.169 755.531 201.407C755.531 200.644 755.274 200.043 754.761 199.603C754.247 199.163 753.551 198.943 752.671 198.943H752.099L751.087 197.425L754.409 193.047H747.963V190.671H757.423V192.827L754.299 196.963Z" fill="white"/>
	<path d="M730.58 210.471H758.831V211.571H730.58V210.471Z" fill="white"/>
	<path d="M890.374 71.9975H892.574V87.3975H890.044V74.7035L886.942 75.5835L886.326 73.4275L890.374 71.9975ZM898.559 71.9975H900.759V87.3975H898.229V74.7035L895.127 75.5835L894.511 73.4275L898.559 71.9975ZM913.785 85.5055C912.729 86.9575 911.247 87.6835 909.341 87.6835C907.434 87.6835 905.945 86.9575 904.875 85.5055C903.819 84.0535 903.291 82.1175 903.291 79.6975C903.291 77.2775 903.819 75.3415 904.875 73.8895C905.945 72.4375 907.434 71.7115 909.341 71.7115C911.247 71.7115 912.729 72.4375 913.785 73.8895C914.855 75.3415 915.391 77.2775 915.391 79.6975C915.391 82.1175 914.855 84.0535 913.785 85.5055ZM909.341 85.2195C910.485 85.2195 911.357 84.7428 911.959 83.7895C912.56 82.8361 912.861 81.4721 912.861 79.6975C912.861 77.9228 912.56 76.5588 911.959 75.6055C911.357 74.6521 910.485 74.1755 909.341 74.1755C908.211 74.1755 907.339 74.6521 906.723 75.6055C906.121 76.5588 905.821 77.9228 905.821 79.6975C905.821 81.4721 906.121 82.8361 906.723 83.7895C907.339 84.7428 908.211 85.2195 909.341 85.2195Z" fill="white"/>
	<path d="M886.04 91.7975H916.271V92.8975H886.04V91.7975Z" fill="white"/>
	<path d="M1323.13 339.51H1325.33V354.91H1322.8V342.216L1319.7 343.096L1319.08 340.94L1323.13 339.51ZM1338.36 353.018C1337.3 354.47 1335.82 355.196 1333.91 355.196C1332.01 355.196 1330.52 354.47 1329.45 353.018C1328.39 351.566 1327.86 349.63 1327.86 347.21C1327.86 344.79 1328.39 342.854 1329.45 341.402C1330.52 339.95 1332.01 339.224 1333.91 339.224C1335.82 339.224 1337.3 339.95 1338.36 341.402C1339.43 342.854 1339.96 344.79 1339.96 347.21C1339.96 349.63 1339.43 351.566 1338.36 353.018ZM1333.91 352.732C1335.06 352.732 1335.93 352.255 1336.53 351.302C1337.13 350.349 1337.43 348.985 1337.43 347.21C1337.43 345.435 1337.13 344.071 1336.53 343.118C1335.93 342.165 1335.06 341.688 1333.91 341.688C1332.79 341.688 1331.91 342.165 1331.3 343.118C1330.7 344.071 1330.39 345.435 1330.39 347.21C1330.39 348.985 1330.7 350.349 1331.3 351.302C1331.91 352.255 1332.79 352.732 1333.91 352.732ZM1353.23 349.784V352.138H1351.47V354.91H1348.92V352.138H1341.35V349.784L1346.65 339.51H1349.4L1344.1 349.784H1348.92V345.78H1351.47V349.784H1353.23Z" fill="white"/>
	<path d="M1318.8 359.31H1353.6V360.41H1318.8V359.31Z" fill="white"/>
	<path d="M1318.04 231.116H1320.24V246.516H1317.71V233.822L1314.6 234.702L1313.99 232.546L1318.04 231.116ZM1333.26 244.624C1332.21 246.076 1330.72 246.802 1328.82 246.802C1326.91 246.802 1325.42 246.076 1324.35 244.624C1323.3 243.172 1322.77 241.236 1322.77 238.816C1322.77 236.396 1323.3 234.46 1324.35 233.008C1325.42 231.556 1326.91 230.83 1328.82 230.83C1330.72 230.83 1332.21 231.556 1333.26 233.008C1334.33 234.46 1334.87 236.396 1334.87 238.816C1334.87 241.236 1334.33 243.172 1333.26 244.624ZM1328.82 244.338C1329.96 244.338 1330.83 243.861 1331.44 242.908C1332.04 241.954 1332.34 240.59 1332.34 238.816C1332.34 237.041 1332.04 235.677 1331.44 234.724C1330.83 233.77 1329.96 233.294 1328.82 233.294C1327.69 233.294 1326.82 233.77 1326.2 234.724C1325.6 235.677 1325.3 237.041 1325.3 238.816C1325.3 240.59 1325.6 241.954 1326.2 242.908C1326.82 243.861 1327.69 244.338 1328.82 244.338ZM1341.69 236.924C1343.15 236.924 1344.39 237.364 1345.41 238.244C1346.42 239.109 1346.92 240.312 1346.92 241.852C1346.92 243.392 1346.4 244.602 1345.36 245.482C1344.32 246.362 1343.04 246.802 1341.53 246.802C1340.32 246.802 1339.24 246.523 1338.3 245.966C1337.36 245.394 1336.69 244.572 1336.3 243.502L1338.48 242.248C1338.89 243.641 1339.91 244.338 1341.53 244.338C1342.4 244.338 1343.09 244.118 1343.6 243.678C1344.13 243.223 1344.39 242.614 1344.39 241.852C1344.39 241.089 1344.14 240.488 1343.62 240.048C1343.11 239.608 1342.43 239.388 1341.58 239.388H1337.09L1337.68 231.116H1346.26V233.492H1340.02L1339.75 236.924H1341.69Z" fill="white"/>
	<path d="M1313.7 250.916H1347.63V252.016H1313.7V250.916Z" fill="white"/>
	<path d="M1305.84 124.111H1308.04V139.511H1305.51V126.817L1302.41 127.697L1301.79 125.541L1305.84 124.111ZM1321.06 137.619C1320.01 139.071 1318.53 139.797 1316.62 139.797C1314.71 139.797 1313.23 139.071 1312.15 137.619C1311.1 136.167 1310.57 134.231 1310.57 131.811C1310.57 129.391 1311.1 127.455 1312.15 126.003C1313.23 124.551 1314.71 123.825 1316.62 123.825C1318.53 123.825 1320.01 124.551 1321.06 126.003C1322.14 127.455 1322.67 129.391 1322.67 131.811C1322.67 134.231 1322.14 136.167 1321.06 137.619ZM1316.62 137.333C1317.76 137.333 1318.64 136.857 1319.24 135.903C1319.84 134.95 1320.14 133.586 1320.14 131.811C1320.14 130.037 1319.84 128.673 1319.24 127.719C1318.64 126.766 1317.76 126.289 1316.62 126.289C1315.49 126.289 1314.62 126.766 1314 127.719C1313.4 128.673 1313.1 130.037 1313.1 131.811C1313.1 133.586 1313.4 134.95 1314 135.903C1314.62 136.857 1315.49 137.333 1316.62 137.333ZM1323.45 124.111H1333.24V126.311L1327.83 139.511H1325.16L1330.49 126.531H1323.45V124.111Z" fill="white"/>
	<path d="M1301.5 143.911H1333.9V145.011H1301.5V143.911Z" fill="white"/>
	<path d="M350.504 378.819C350.504 379.992 350.196 381.026 349.58 381.921L344.718 389.247H341.814L345.334 384.077H345.07C343.472 384.077 342.159 383.593 341.132 382.625C340.12 381.642 339.614 380.373 339.614 378.819C339.614 377.264 340.12 376.003 341.132 375.035C342.159 374.052 343.472 373.561 345.07 373.561C346.669 373.561 347.974 374.052 348.986 375.035C349.998 376.003 350.504 377.264 350.504 378.819ZM342.144 378.819C342.144 379.669 342.416 380.359 342.958 380.887C343.516 381.415 344.22 381.679 345.07 381.679C345.921 381.679 346.618 381.422 347.16 380.909C347.703 380.381 347.974 379.684 347.974 378.819C347.974 377.953 347.703 377.264 347.16 376.751C346.618 376.223 345.921 375.959 345.07 375.959C344.22 375.959 343.516 376.223 342.958 376.751C342.416 377.264 342.144 377.953 342.144 378.819ZM356.673 379.655C358.14 379.655 359.379 380.095 360.391 380.975C361.403 381.84 361.909 383.043 361.909 384.583C361.909 386.123 361.388 387.333 360.347 388.213C359.306 389.093 358.03 389.533 356.519 389.533C355.302 389.533 354.224 389.254 353.285 388.697C352.346 388.125 351.679 387.303 351.283 386.233L353.461 384.979C353.872 386.372 354.891 387.069 356.519 387.069C357.384 387.069 358.074 386.849 358.587 386.409C359.115 385.954 359.379 385.345 359.379 384.583C359.379 383.82 359.122 383.219 358.609 382.779C358.096 382.339 357.414 382.119 356.563 382.119H352.075L352.669 373.847H361.249V376.223H355.001L354.737 379.655H356.673Z" fill="white"/>
	<path d="M339.064 393.647H362.613V394.747H339.064V393.647Z" fill="white"/>
	<path d="M11.8384 383.405C11.8384 384.578 11.5304 385.612 10.9144 386.507L6.05244 393.833H3.14844L6.66844 388.663H6.40444C4.80577 388.663 3.4931 388.179 2.46644 387.211C1.45444 386.228 0.948437 384.96 0.948437 383.405C0.948437 381.85 1.45444 380.589 2.46644 379.621C3.4931 378.638 4.80577 378.147 6.40444 378.147C8.0031 378.147 9.30844 378.638 10.3204 379.621C11.3324 380.589 11.8384 381.85 11.8384 383.405ZM3.47844 383.405C3.47844 384.256 3.74977 384.945 4.29244 385.473C4.84977 386.001 5.55377 386.265 6.40444 386.265C7.2551 386.265 7.95177 386.008 8.49444 385.495C9.0371 384.967 9.30844 384.27 9.30844 383.405C9.30844 382.54 9.0371 381.85 8.49444 381.337C7.95177 380.809 7.2551 380.545 6.40444 380.545C5.55377 380.545 4.84977 380.809 4.29244 381.337C3.74977 381.85 3.47844 382.54 3.47844 383.405ZM19.0687 384.725C20.1834 384.989 21.0854 385.51 21.7747 386.287C22.4787 387.05 22.8307 388.01 22.8307 389.169C22.8307 390.709 22.31 391.919 21.2687 392.799C20.2274 393.679 18.9514 394.119 17.4407 394.119C16.2674 394.119 15.2114 393.848 14.2727 393.305C13.3487 392.762 12.6814 391.97 12.2707 390.929L14.4267 389.675C14.8814 390.995 15.886 391.655 17.4407 391.655C18.3207 391.655 19.0174 391.435 19.5307 390.995C20.044 390.54 20.3007 389.932 20.3007 389.169C20.3007 388.406 20.044 387.805 19.5307 387.365C19.0174 386.925 18.3207 386.705 17.4407 386.705H16.8687L15.8567 385.187L19.1787 380.809H12.7327V378.433H22.1927V380.589L19.0687 384.725Z" fill="white"/>
	<path d="M0.398437 398.233H23.6007V399.333H0.398437V398.233Z" fill="white"/>
</svg>
