<svg width="1292" height="583" viewBox="0 0 1292 583" fill="none" xmlns="http://www.w3.org/2000/svg">
<path d="M11.4459 120.572C11.4459 121.745 11.1379 122.779 10.5219 123.674L5.65986 131H2.75586L6.27586 125.83H6.01186C4.41319 125.83 3.10053 125.346 2.07386 124.378C1.06186 123.395 0.555859 122.127 0.555859 120.572C0.555859 119.017 1.06186 117.756 2.07386 116.788C3.10053 115.805 4.41319 115.314 6.01186 115.314C7.61053 115.314 8.91586 115.805 9.92786 116.788C10.9399 117.756 11.4459 119.017 11.4459 120.572ZM3.08586 120.572C3.08586 121.423 3.35719 122.112 3.89986 122.64C4.45719 123.168 5.16119 123.432 6.01186 123.432C6.86253 123.432 7.55919 123.175 8.10186 122.662C8.64453 122.134 8.91586 121.437 8.91586 120.572C8.91586 119.707 8.64453 119.017 8.10186 118.504C7.55919 117.976 6.86253 117.712 6.01186 117.712C5.16119 117.712 4.45719 117.976 3.89986 118.504C3.35719 119.017 3.08586 119.707 3.08586 120.572Z" fill="white"/>
<path d="M0.00585937 135.4H11.9959V136.5H0.00585937L0.00585937 135.4Z" fill="white"/>
<path d="M45.8125 115.6H48.0125L48.0125 131H45.4825L45.4825 118.306L42.3805 119.186L41.7645 117.03L45.8125 115.6ZM61.0381 129.108C59.9821 130.56 58.5007 131.286 56.5941 131.286C54.6874 131.286 53.1987 130.56 52.1281 129.108C51.0721 127.656 50.5441 125.72 50.5441 123.3C50.5441 120.88 51.0721 118.944 52.1281 117.492C53.1987 116.04 54.6874 115.314 56.5941 115.314C58.5007 115.314 59.9821 116.04 61.0381 117.492C62.1087 118.944 62.6441 120.88 62.6441 123.3C62.6441 125.72 62.1087 127.656 61.0381 129.108ZM56.5941 128.822C57.7381 128.822 58.6107 128.345 59.2121 127.392C59.8134 126.439 60.1141 125.075 60.1141 123.3C60.1141 121.525 59.8134 120.161 59.2121 119.208C58.6107 118.255 57.7381 117.778 56.5941 117.778C55.4647 117.778 54.5921 118.255 53.9761 119.208C53.3747 120.161 53.0741 121.525 53.0741 123.3C53.0741 125.075 53.3747 126.439 53.9761 127.392C54.5921 128.345 55.4647 128.822 56.5941 128.822Z" fill="white"/>
<path d="M41.4785 135.4H63.5241V136.5H41.4785V135.4Z" fill="white"/>
<path d="M96.6485 116.6H98.8485V132H96.3185V119.306L93.2165 120.186L92.6005 118.03L96.6485 116.6ZM104.834 116.6H107.034V132H104.504V119.306L101.402 120.186L100.786 118.03L104.834 116.6Z" fill="white"/>
<path d="M92.3145 136.4H108.684V137.5H92.3145V136.4Z" fill="white"/>
<path d="M8.41896 45.6H10.619V61H8.08896V48.306L4.98696 49.186L4.37096 47.03L8.41896 45.6ZM12.9525 61V59.02L18.3205 53.542C19.6258 52.2367 20.2785 51.1073 20.2785 50.154C20.2785 49.406 20.0512 48.8267 19.5965 48.416C19.1565 47.9907 18.5918 47.778 17.9025 47.778C16.6118 47.778 15.6585 48.416 15.0425 49.692L12.9085 48.438C13.3925 47.4113 14.0745 46.634 14.9545 46.106C15.8345 45.578 16.8098 45.314 17.8805 45.314C19.2298 45.314 20.3885 45.7393 21.3565 46.59C22.3245 47.4407 22.8085 48.5993 22.8085 50.066C22.8085 51.6353 21.9358 53.3073 20.1905 55.082L16.7145 58.558H23.0945V61H12.9525Z" fill="white"/>
<path d="M4.08496 65.4H23.9085V66.5H4.08496V65.4Z" fill="white"/>
<path d="M88.8008 33.6H91.0008V49H88.4708V36.306L85.3688 37.186L84.7528 35.03L88.8008 33.6ZM100 39.892C101.115 40.156 102.017 40.6767 102.706 41.454C103.41 42.2167 103.762 43.1773 103.762 44.336C103.762 45.876 103.242 47.086 102.2 47.966C101.159 48.846 99.883 49.286 98.3723 49.286C97.199 49.286 96.143 49.0147 95.2043 48.472C94.2803 47.9293 93.613 47.1373 93.2023 46.096L95.3583 44.842C95.813 46.162 96.8177 46.822 98.3723 46.822C99.2523 46.822 99.949 46.602 100.462 46.162C100.976 45.7073 101.232 45.0987 101.232 44.336C101.232 43.5733 100.976 42.972 100.462 42.532C99.949 42.092 99.2523 41.872 98.3723 41.872H97.8003L96.7883 40.354L100.11 35.976H93.6643V33.6H103.124V35.756L100 39.892Z" fill="white"/>
<path d="M84.4668 53.4H104.532V54.5H84.4668V53.4Z" fill="white"/>
<path d="M155.36 22.6H157.56V38H155.03V25.306L151.928 26.186L151.312 24.03L155.36 22.6ZM171.598 32.874V35.228H169.838V38H167.286V35.228H159.718V32.874L165.02 22.6H167.77L162.468 32.874H167.286V28.87H169.838V32.874H171.598Z" fill="white"/>
<path d="M151.026 42.4H171.972V43.5H151.026V42.4Z" fill="white"/>
<path d="M213.747 28.6H215.947V44H213.417V31.306L210.315 32.186L209.699 30.03L213.747 28.6ZM223.649 34.408C225.115 34.408 226.355 34.848 227.367 35.728C228.379 36.5933 228.885 37.796 228.885 39.336C228.885 40.876 228.364 42.086 227.323 42.966C226.281 43.846 225.005 44.286 223.495 44.286C222.277 44.286 221.199 44.0073 220.261 43.45C219.322 42.878 218.655 42.0567 218.259 40.986L220.437 39.732C220.847 41.1253 221.867 41.822 223.495 41.822C224.36 41.822 225.049 41.602 225.563 41.162C226.091 40.7073 226.355 40.0987 226.355 39.336C226.355 38.5733 226.098 37.972 225.585 37.532C225.071 37.092 224.389 36.872 223.539 36.872H219.051L219.645 28.6H228.225V30.976H221.977L221.713 34.408H223.649Z" fill="white"/>
<path d="M209.413 48.4H229.589V49.5H209.413V48.4Z" fill="white"/>
<path d="M162.747 121.6H164.947V137H162.417V124.306L159.315 125.186L158.699 123.03L162.747 121.6ZM172.605 126.77C174.203 126.77 175.509 127.261 176.521 128.244C177.533 129.212 178.039 130.473 178.039 132.028C178.039 133.583 177.533 134.851 176.521 135.834C175.509 136.802 174.203 137.286 172.605 137.286C170.991 137.286 169.679 136.802 168.667 135.834C167.655 134.851 167.149 133.583 167.149 132.028C167.149 130.855 167.457 129.821 168.073 128.926L172.957 121.6H175.839L172.319 126.77H172.605ZM172.605 134.888C173.455 134.888 174.152 134.631 174.695 134.118C175.237 133.59 175.509 132.893 175.509 132.028C175.509 131.163 175.237 130.473 174.695 129.96C174.152 129.432 173.455 129.168 172.605 129.168C171.739 129.168 171.035 129.432 170.493 129.96C169.95 130.473 169.679 131.163 169.679 132.028C169.679 132.893 169.95 133.59 170.493 134.118C171.035 134.631 171.739 134.888 172.605 134.888Z" fill="white"/>
<path d="M158.413 141.4H178.589V142.5H158.413V141.4Z" fill="white"/>
<path d="M210.349 125.6H212.549V141H210.019V128.306L206.917 129.186L206.301 127.03L210.349 125.6ZM214.53 125.6H224.32V127.8L218.908 141H216.246L221.57 128.02H214.53V125.6Z" fill="white"/>
<path d="M206.015 145.4H224.98V146.5H206.015V145.4Z" fill="white"/>
<path d="M274.874 163V161.02L280.242 155.542C281.548 154.237 282.2 153.107 282.2 152.154C282.2 151.406 281.973 150.827 281.518 150.416C281.078 149.991 280.514 149.778 279.824 149.778C278.534 149.778 277.58 150.416 276.964 151.692L274.83 150.438C275.314 149.411 275.996 148.634 276.876 148.106C277.756 147.578 278.732 147.314 279.802 147.314C281.152 147.314 282.31 147.739 283.278 148.59C284.246 149.441 284.73 150.599 284.73 152.066C284.73 153.635 283.858 155.307 282.112 157.082L278.636 160.558H285.016V163H274.874ZM289.956 147.6H292.156V163H289.626V150.306L286.524 151.186L285.908 149.03L289.956 147.6Z" fill="white"/>
<path d="M274.192 167.4H293.806V168.5H274.192V167.4Z" fill="white"/>
<path d="M272.038 119V117.02L277.406 111.542C278.712 110.237 279.364 109.107 279.364 108.154C279.364 107.406 279.137 106.827 278.682 106.416C278.242 105.991 277.678 105.778 276.988 105.778C275.698 105.778 274.744 106.416 274.128 107.692L271.994 106.438C272.478 105.411 273.16 104.634 274.04 104.106C274.92 103.578 275.896 103.314 276.966 103.314C278.316 103.314 279.474 103.739 280.442 104.59C281.41 105.441 281.894 106.599 281.894 108.066C281.894 109.635 281.022 111.307 279.276 113.082L275.8 116.558H282.18V119H272.038ZM294.16 117.108C293.104 118.56 291.623 119.286 289.716 119.286C287.809 119.286 286.321 118.56 285.25 117.108C284.194 115.656 283.666 113.72 283.666 111.3C283.666 108.88 284.194 106.944 285.25 105.492C286.321 104.04 287.809 103.314 289.716 103.314C291.623 103.314 293.104 104.04 294.16 105.492C295.231 106.944 295.766 108.88 295.766 111.3C295.766 113.72 295.231 115.656 294.16 117.108ZM289.716 116.822C290.86 116.822 291.733 116.345 292.334 115.392C292.935 114.439 293.236 113.075 293.236 111.3C293.236 109.525 292.935 108.161 292.334 107.208C291.733 106.255 290.86 105.778 289.716 105.778C288.587 105.778 287.714 106.255 287.098 107.208C286.497 108.161 286.196 109.525 286.196 111.3C286.196 113.075 286.497 114.439 287.098 115.392C287.714 116.345 288.587 116.822 289.716 116.822Z" fill="white"/>
<path d="M271.356 123.4H296.646V124.5H271.356V123.4Z" fill="white"/>
<path d="M281.747 56.6H283.947V72H281.417V59.306L278.315 60.186L277.699 58.03L281.747 56.6ZM297.039 61.572C297.039 62.7453 296.731 63.7793 296.115 64.674L291.253 72H288.349L291.869 66.83H291.605C290.006 66.83 288.693 66.346 287.667 65.378C286.655 64.3953 286.149 63.1267 286.149 61.572C286.149 60.0173 286.655 58.756 287.667 57.788C288.693 56.8053 290.006 56.314 291.605 56.314C293.203 56.314 294.509 56.8053 295.521 57.788C296.533 58.756 297.039 60.0173 297.039 61.572ZM288.679 61.572C288.679 62.4227 288.95 63.112 289.493 63.64C290.05 64.168 290.754 64.432 291.605 64.432C292.455 64.432 293.152 64.1753 293.695 63.662C294.237 63.134 294.509 62.4373 294.509 61.572C294.509 60.7067 294.237 60.0173 293.695 59.504C293.152 58.976 292.455 58.712 291.605 58.712C290.754 58.712 290.05 58.976 289.493 59.504C288.95 60.0173 288.679 60.7067 288.679 61.572Z" fill="white"/>
<path d="M277.413 76.4H297.589V77.5H277.413V76.4Z" fill="white"/>
<path d="M285.575 5.6H287.775V21H285.245V8.306L282.143 9.186L281.527 7.03L285.575 5.6ZM298.733 12.992C300.243 13.828 300.999 15.0747 300.999 16.732C300.999 18.14 300.507 19.2547 299.525 20.076C298.542 20.8827 297.237 21.286 295.609 21.286C293.981 21.286 292.668 20.8827 291.671 20.076C290.688 19.2547 290.197 18.14 290.197 16.732C290.197 15.94 290.395 15.2213 290.791 14.576C291.187 13.916 291.744 13.388 292.463 12.992C291.304 12.2293 290.725 11.144 290.725 9.736C290.725 8.328 291.194 7.24267 292.133 6.48C293.071 5.70267 294.23 5.314 295.609 5.314C296.973 5.314 298.124 5.70267 299.063 6.48C300.016 7.24267 300.493 8.328 300.493 9.736C300.493 11.144 299.906 12.2293 298.733 12.992ZM295.609 7.712C294.919 7.712 294.355 7.89533 293.915 8.262C293.475 8.62867 293.255 9.15667 293.255 9.846C293.255 10.506 293.475 11.0267 293.915 11.408C294.369 11.7893 294.934 11.98 295.609 11.98C296.269 11.98 296.826 11.7893 297.281 11.408C297.735 11.0267 297.963 10.506 297.963 9.846C297.963 9.15667 297.735 8.62867 297.281 8.262C296.841 7.89533 296.283 7.712 295.609 7.712ZM295.609 18.888C296.459 18.888 297.149 18.6827 297.677 18.272C298.205 17.8467 298.469 17.2527 298.469 16.49C298.469 15.7273 298.205 15.1407 297.677 14.73C297.149 14.3047 296.459 14.092 295.609 14.092C294.743 14.092 294.047 14.3047 293.519 14.73C292.991 15.1407 292.727 15.7273 292.727 16.49C292.727 17.2527 292.991 17.8467 293.519 18.272C294.047 18.6827 294.743 18.888 295.609 18.888Z" fill="white"/>
<path d="M281.241 25.4H301.769V26.5H281.241V25.4Z" fill="white"/>
<path d="M412.711 13.992C414.222 14.828 414.977 16.0747 414.977 17.732C414.977 19.14 414.486 20.2547 413.503 21.076C412.521 21.8827 411.215 22.286 409.587 22.286C407.959 22.286 406.647 21.8827 405.649 21.076C404.667 20.2547 404.175 19.14 404.175 17.732C404.175 16.94 404.373 16.2213 404.769 15.576C405.165 14.916 405.723 14.388 406.441 13.992C405.283 13.2293 404.703 12.144 404.703 10.736C404.703 9.328 405.173 8.24267 406.111 7.48C407.05 6.70267 408.209 6.314 409.587 6.314C410.951 6.314 412.103 6.70267 413.041 7.48C413.995 8.24267 414.471 9.328 414.471 10.736C414.471 12.144 413.885 13.2293 412.711 13.992ZM409.587 8.712C408.898 8.712 408.333 8.89533 407.893 9.262C407.453 9.62867 407.233 10.1567 407.233 10.846C407.233 11.506 407.453 12.0267 407.893 12.408C408.348 12.7893 408.913 12.98 409.587 12.98C410.247 12.98 410.805 12.7893 411.259 12.408C411.714 12.0267 411.941 11.506 411.941 10.846C411.941 10.1567 411.714 9.62867 411.259 9.262C410.819 8.89533 410.262 8.712 409.587 8.712ZM409.587 19.888C410.438 19.888 411.127 19.6827 411.655 19.272C412.183 18.8467 412.447 18.2527 412.447 17.49C412.447 16.7273 412.183 16.1407 411.655 15.73C411.127 15.3047 410.438 15.092 409.587 15.092C408.722 15.092 408.025 15.3047 407.497 15.73C406.969 16.1407 406.705 16.7273 406.705 17.49C406.705 18.2527 406.969 18.8467 407.497 19.272C408.025 19.6827 408.722 19.888 409.587 19.888ZM427.111 20.108C426.055 21.56 424.574 22.286 422.667 22.286C420.761 22.286 419.272 21.56 418.201 20.108C417.145 18.656 416.617 16.72 416.617 14.3C416.617 11.88 417.145 9.944 418.201 8.492C419.272 7.04 420.761 6.314 422.667 6.314C424.574 6.314 426.055 7.04 427.111 8.492C428.182 9.944 428.717 11.88 428.717 14.3C428.717 16.72 428.182 18.656 427.111 20.108ZM422.667 19.822C423.811 19.822 424.684 19.3453 425.285 18.392C425.887 17.4387 426.187 16.0747 426.187 14.3C426.187 12.5253 425.887 11.1613 425.285 10.208C424.684 9.25467 423.811 8.778 422.667 8.778C421.538 8.778 420.665 9.25467 420.049 10.208C419.448 11.1613 419.147 12.5253 419.147 14.3C419.147 16.0747 419.448 17.4387 420.049 18.392C420.665 19.3453 421.538 19.822 422.667 19.822Z" fill="white"/>
<path d="M403.405 26.4H429.597V27.5H403.405V26.4Z" fill="white"/>
<path d="M521.762 17.992C523.273 18.828 524.028 20.0747 524.028 21.732C524.028 23.14 523.537 24.2547 522.554 25.076C521.571 25.8827 520.266 26.286 518.638 26.286C517.01 26.286 515.697 25.8827 514.7 25.076C513.717 24.2547 513.226 23.14 513.226 21.732C513.226 20.94 513.424 20.2213 513.82 19.576C514.216 18.916 514.773 18.388 515.492 17.992C514.333 17.2293 513.754 16.144 513.754 14.736C513.754 13.328 514.223 12.2427 515.162 11.48C516.101 10.7027 517.259 10.314 518.638 10.314C520.002 10.314 521.153 10.7027 522.092 11.48C523.045 12.2427 523.522 13.328 523.522 14.736C523.522 16.144 522.935 17.2293 521.762 17.992ZM518.638 12.712C517.949 12.712 517.384 12.8953 516.944 13.262C516.504 13.6287 516.284 14.1567 516.284 14.846C516.284 15.506 516.504 16.0267 516.944 16.408C517.399 16.7893 517.963 16.98 518.638 16.98C519.298 16.98 519.855 16.7893 520.31 16.408C520.765 16.0267 520.992 15.506 520.992 14.846C520.992 14.1567 520.765 13.6287 520.31 13.262C519.87 12.8953 519.313 12.712 518.638 12.712ZM518.638 23.888C519.489 23.888 520.178 23.6827 520.706 23.272C521.234 22.8467 521.498 22.2527 521.498 21.49C521.498 20.7273 521.234 20.1407 520.706 19.73C520.178 19.3047 519.489 19.092 518.638 19.092C517.773 19.092 517.076 19.3047 516.548 19.73C516.02 20.1407 515.756 20.7273 515.756 21.49C515.756 22.2527 516.02 22.8467 516.548 23.272C517.076 23.6827 517.773 23.888 518.638 23.888ZM528.692 10.6H530.892V26H528.362V13.306L525.26 14.186L524.644 12.03L528.692 10.6Z" fill="white"/>
<path d="M512.456 30.4H532.542V31.5H512.456V30.4Z" fill="white"/>
<path d="M628.425 24.992C629.936 25.828 630.691 27.0747 630.691 28.732C630.691 30.14 630.2 31.2547 629.217 32.076C628.234 32.8827 626.929 33.286 625.301 33.286C623.673 33.286 622.36 32.8827 621.363 32.076C620.38 31.2547 619.889 30.14 619.889 28.732C619.889 27.94 620.087 27.2213 620.483 26.576C620.879 25.916 621.436 25.388 622.155 24.992C620.996 24.2293 620.417 23.144 620.417 21.736C620.417 20.328 620.886 19.2427 621.825 18.48C622.764 17.7027 623.922 17.314 625.301 17.314C626.665 17.314 627.816 17.7027 628.755 18.48C629.708 19.2427 630.185 20.328 630.185 21.736C630.185 23.144 629.598 24.2293 628.425 24.992ZM625.301 19.712C624.612 19.712 624.047 19.8953 623.607 20.262C623.167 20.6287 622.947 21.1567 622.947 21.846C622.947 22.506 623.167 23.0267 623.607 23.408C624.062 23.7893 624.626 23.98 625.301 23.98C625.961 23.98 626.518 23.7893 626.973 23.408C627.428 23.0267 627.655 22.506 627.655 21.846C627.655 21.1567 627.428 20.6287 626.973 20.262C626.533 19.8953 625.976 19.712 625.301 19.712ZM625.301 30.888C626.152 30.888 626.841 30.6827 627.369 30.272C627.897 29.8467 628.161 29.2527 628.161 28.49C628.161 27.7273 627.897 27.1407 627.369 26.73C626.841 26.3047 626.152 26.092 625.301 26.092C624.436 26.092 623.739 26.3047 623.211 26.73C622.683 27.1407 622.419 27.7273 622.419 28.49C622.419 29.2527 622.683 29.8467 623.211 30.272C623.739 30.6827 624.436 30.888 625.301 30.888ZM631.918 33V31.02L637.286 25.542C638.592 24.2367 639.244 23.1073 639.244 22.154C639.244 21.406 639.017 20.8267 638.562 20.416C638.122 19.9907 637.558 19.778 636.868 19.778C635.578 19.778 634.624 20.416 634.008 21.692L631.874 20.438C632.358 19.4113 633.04 18.634 633.92 18.106C634.8 17.578 635.776 17.314 636.846 17.314C638.196 17.314 639.354 17.7393 640.322 18.59C641.29 19.4407 641.774 20.5993 641.774 22.066C641.774 23.6353 640.902 25.3073 639.156 27.082L635.68 30.558H642.06V33H631.918Z" fill="white"/>
<path d="M619.119 37.4H642.874V38.5H619.119V37.4Z" fill="white"/>
<path d="M729.361 24.992C730.871 25.828 731.627 27.0747 731.627 28.732C731.627 30.14 731.135 31.2547 730.153 32.076C729.17 32.8827 727.865 33.286 726.237 33.286C724.609 33.286 723.296 32.8827 722.299 32.076C721.316 31.2547 720.825 30.14 720.825 28.732C720.825 27.94 721.023 27.2213 721.419 26.576C721.815 25.916 722.372 25.388 723.091 24.992C721.932 24.2293 721.353 23.144 721.353 21.736C721.353 20.328 721.822 19.2427 722.761 18.48C723.699 17.7027 724.858 17.314 726.237 17.314C727.601 17.314 728.752 17.7027 729.691 18.48C730.644 19.2427 731.121 20.328 731.121 21.736C731.121 23.144 730.534 24.2293 729.361 24.992ZM726.237 19.712C725.547 19.712 724.983 19.8953 724.543 20.262C724.103 20.6287 723.883 21.1567 723.883 21.846C723.883 22.506 724.103 23.0267 724.543 23.408C724.997 23.7893 725.562 23.98 726.237 23.98C726.897 23.98 727.454 23.7893 727.909 23.408C728.363 23.0267 728.591 22.506 728.591 21.846C728.591 21.1567 728.363 20.6287 727.909 20.262C727.469 19.8953 726.911 19.712 726.237 19.712ZM726.237 30.888C727.087 30.888 727.777 30.6827 728.305 30.272C728.833 29.8467 729.097 29.2527 729.097 28.49C729.097 27.7273 728.833 27.1407 728.305 26.73C727.777 26.3047 727.087 26.092 726.237 26.092C725.371 26.092 724.675 26.3047 724.147 26.73C723.619 27.1407 723.355 27.7273 723.355 28.49C723.355 29.2527 723.619 29.8467 724.147 30.272C724.675 30.6827 725.371 30.888 726.237 30.888ZM739.412 23.892C740.527 24.156 741.429 24.6767 742.118 25.454C742.822 26.2167 743.174 27.1773 743.174 28.336C743.174 29.876 742.654 31.086 741.612 31.966C740.571 32.846 739.295 33.286 737.784 33.286C736.611 33.286 735.555 33.0147 734.616 32.472C733.692 31.9293 733.025 31.1373 732.614 30.096L734.77 28.842C735.225 30.162 736.23 30.822 737.784 30.822C738.664 30.822 739.361 30.602 739.874 30.162C740.388 29.7073 740.644 29.0987 740.644 28.336C740.644 27.5733 740.388 26.972 739.874 26.532C739.361 26.092 738.664 25.872 737.784 25.872H737.212L736.2 24.354L739.522 19.976H733.076V17.6H742.536V19.756L739.412 23.892Z" fill="white"/>
<path d="M720.055 37.4H743.944V38.5H720.055V37.4Z" fill="white"/>
<path d="M826.652 25.992C828.162 26.828 828.918 28.0747 828.918 29.732C828.918 31.14 828.426 32.2547 827.444 33.076C826.461 33.8827 825.156 34.286 823.528 34.286C821.9 34.286 820.587 33.8827 819.59 33.076C818.607 32.2547 818.116 31.14 818.116 29.732C818.116 28.94 818.314 28.2213 818.71 27.576C819.106 26.916 819.663 26.388 820.382 25.992C819.223 25.2293 818.644 24.144 818.644 22.736C818.644 21.328 819.113 20.2427 820.052 19.48C820.99 18.7027 822.149 18.314 823.528 18.314C824.892 18.314 826.043 18.7027 826.982 19.48C827.935 20.2427 828.412 21.328 828.412 22.736C828.412 24.144 827.825 25.2293 826.652 25.992ZM823.528 20.712C822.838 20.712 822.274 20.8953 821.834 21.262C821.394 21.6287 821.174 22.1567 821.174 22.846C821.174 23.506 821.394 24.0267 821.834 24.408C822.288 24.7893 822.853 24.98 823.528 24.98C824.188 24.98 824.745 24.7893 825.2 24.408C825.654 24.0267 825.882 23.506 825.882 22.846C825.882 22.1567 825.654 21.6287 825.2 21.262C824.76 20.8953 824.202 20.712 823.528 20.712ZM823.528 31.888C824.378 31.888 825.068 31.6827 825.596 31.272C826.124 30.8467 826.388 30.2527 826.388 29.49C826.388 28.7273 826.124 28.1407 825.596 27.73C825.068 27.3047 824.378 27.092 823.528 27.092C822.662 27.092 821.966 27.3047 821.438 27.73C820.91 28.1407 820.646 28.7273 820.646 29.49C820.646 30.2527 820.91 30.8467 821.438 31.272C821.966 31.6827 822.662 31.888 823.528 31.888ZM842.279 28.874V31.228H840.519V34H837.967V31.228H830.399V28.874L835.701 18.6H838.451L833.149 28.874H837.967V24.87H840.519V28.874H842.279Z" fill="white"/>
<path d="M817.346 38.4H842.653V39.5H817.346V38.4Z" fill="white"/>
<path d="M914.7 27.992C916.21 28.828 916.966 30.0747 916.966 31.732C916.966 33.14 916.474 34.2547 915.492 35.076C914.509 35.8827 913.204 36.286 911.576 36.286C909.948 36.286 908.635 35.8827 907.638 35.076C906.655 34.2547 906.164 33.14 906.164 31.732C906.164 30.94 906.362 30.2213 906.758 29.576C907.154 28.916 907.711 28.388 908.43 27.992C907.271 27.2293 906.692 26.144 906.692 24.736C906.692 23.328 907.161 22.2427 908.1 21.48C909.038 20.7027 910.197 20.314 911.576 20.314C912.94 20.314 914.091 20.7027 915.03 21.48C915.983 22.2427 916.46 23.328 916.46 24.736C916.46 26.144 915.873 27.2293 914.7 27.992ZM911.576 22.712C910.886 22.712 910.322 22.8953 909.882 23.262C909.442 23.6287 909.222 24.1567 909.222 24.846C909.222 25.506 909.442 26.0267 909.882 26.408C910.336 26.7893 910.901 26.98 911.576 26.98C912.236 26.98 912.793 26.7893 913.248 26.408C913.702 26.0267 913.93 25.506 913.93 24.846C913.93 24.1567 913.702 23.6287 913.248 23.262C912.808 22.8953 912.25 22.712 911.576 22.712ZM911.576 33.888C912.426 33.888 913.116 33.6827 913.644 33.272C914.172 32.8467 914.436 32.2527 914.436 31.49C914.436 30.7273 914.172 30.1407 913.644 29.73C913.116 29.3047 912.426 29.092 911.576 29.092C910.71 29.092 910.014 29.3047 909.486 29.73C908.958 30.1407 908.694 30.7273 908.694 31.49C908.694 32.2527 908.958 32.8467 909.486 33.272C910.014 33.6827 910.71 33.888 911.576 33.888ZM923.668 26.408C925.135 26.408 926.374 26.848 927.386 27.728C928.398 28.5933 928.904 29.796 928.904 31.336C928.904 32.876 928.383 34.086 927.342 34.966C926.301 35.846 925.025 36.286 923.514 36.286C922.297 36.286 921.219 36.0073 920.28 35.45C919.341 34.878 918.674 34.0567 918.278 32.986L920.456 31.732C920.867 33.1253 921.886 33.822 923.514 33.822C924.379 33.822 925.069 33.602 925.582 33.162C926.11 32.7073 926.374 32.0987 926.374 31.336C926.374 30.5733 926.117 29.972 925.604 29.532C925.091 29.092 924.409 28.872 923.558 28.872H919.07L919.664 20.6H928.244V22.976H921.996L921.732 26.408H923.668Z" fill="white"/>
<path d="M905.394 40.4H929.608V41.5H905.394V40.4Z" fill="white"/>
<path d="M1000.54 27.992C1002.05 28.828 1002.8 30.0747 1002.8 31.732C1002.8 33.14 1002.31 34.2547 1001.33 35.076C1000.35 35.8827 999.042 36.286 997.414 36.286C995.786 36.286 994.474 35.8827 993.476 35.076C992.494 34.2547 992.002 33.14 992.002 31.732C992.002 30.94 992.2 30.2213 992.596 29.576C992.992 28.916 993.55 28.388 994.268 27.992C993.11 27.2293 992.53 26.144 992.53 24.736C992.53 23.328 993 22.2427 993.938 21.48C994.877 20.7027 996.036 20.314 997.414 20.314C998.778 20.314 999.93 20.7027 1000.87 21.48C1001.82 22.2427 1002.3 23.328 1002.3 24.736C1002.3 26.144 1001.71 27.2293 1000.54 27.992ZM997.414 22.712C996.725 22.712 996.16 22.8953 995.72 23.262C995.28 23.6287 995.06 24.1567 995.06 24.846C995.06 25.506 995.28 26.0267 995.72 26.408C996.175 26.7893 996.74 26.98 997.414 26.98C998.074 26.98 998.632 26.7893 999.086 26.408C999.541 26.0267 999.768 25.506 999.768 24.846C999.768 24.1567 999.541 23.6287 999.086 23.262C998.646 22.8953 998.089 22.712 997.414 22.712ZM997.414 33.888C998.265 33.888 998.954 33.6827 999.482 33.272C1000.01 32.8467 1000.27 32.2527 1000.27 31.49C1000.27 30.7273 1000.01 30.1407 999.482 29.73C998.954 29.3047 998.265 29.092 997.414 29.092C996.549 29.092 995.852 29.3047 995.324 29.73C994.796 30.1407 994.532 30.7273 994.532 31.49C994.532 32.2527 994.796 32.8467 995.324 33.272C995.852 33.6827 996.549 33.888 997.414 33.888ZM1009.79 25.77C1011.38 25.77 1012.69 26.2613 1013.7 27.244C1014.71 28.212 1015.22 29.4733 1015.22 31.028C1015.22 32.5827 1014.71 33.8513 1013.7 34.834C1012.69 35.802 1011.38 36.286 1009.79 36.286C1008.17 36.286 1006.86 35.802 1005.85 34.834C1004.84 33.8513 1004.33 32.5827 1004.33 31.028C1004.33 29.8547 1004.64 28.8207 1005.25 27.926L1010.14 20.6H1013.02L1009.5 25.77H1009.79ZM1009.79 33.888C1010.64 33.888 1011.33 33.6313 1011.88 33.118C1012.42 32.59 1012.69 31.8933 1012.69 31.028C1012.69 30.1627 1012.42 29.4733 1011.88 28.96C1011.33 28.432 1010.64 28.168 1009.79 28.168C1008.92 28.168 1008.22 28.432 1007.67 28.96C1007.13 29.4733 1006.86 30.1627 1006.86 31.028C1006.86 31.8933 1007.13 32.59 1007.67 33.118C1008.22 33.6313 1008.92 33.888 1009.79 33.888Z" fill="white"/>
<path d="M991.232 40.4H1015.77V41.5H991.232V40.4Z" fill="white"/>
<path d="M1087.35 30.992C1088.87 31.828 1089.62 33.0747 1089.62 34.732C1089.62 36.14 1089.13 37.2547 1088.15 38.076C1087.16 38.8827 1085.86 39.286 1084.23 39.286C1082.6 39.286 1081.29 38.8827 1080.29 38.076C1079.31 37.2547 1078.82 36.14 1078.82 34.732C1078.82 33.94 1079.02 33.2213 1079.41 32.576C1079.81 31.916 1080.37 31.388 1081.08 30.992C1079.93 30.2293 1079.35 29.144 1079.35 27.736C1079.35 26.328 1079.82 25.2427 1080.75 24.48C1081.69 23.7027 1082.85 23.314 1084.23 23.314C1085.59 23.314 1086.75 23.7027 1087.68 24.48C1088.64 25.2427 1089.11 26.328 1089.11 27.736C1089.11 29.144 1088.53 30.2293 1087.35 30.992ZM1084.23 25.712C1083.54 25.712 1082.98 25.8953 1082.54 26.262C1082.1 26.6287 1081.88 27.1567 1081.88 27.846C1081.88 28.506 1082.1 29.0267 1082.54 29.408C1082.99 29.7893 1083.56 29.98 1084.23 29.98C1084.89 29.98 1085.45 29.7893 1085.9 29.408C1086.36 29.0267 1086.58 28.506 1086.58 27.846C1086.58 27.1567 1086.36 26.6287 1085.9 26.262C1085.46 25.8953 1084.91 25.712 1084.23 25.712ZM1084.23 36.888C1085.08 36.888 1085.77 36.6827 1086.3 36.272C1086.83 35.8467 1087.09 35.2527 1087.09 34.49C1087.09 33.7273 1086.83 33.1407 1086.3 32.73C1085.77 32.3047 1085.08 32.092 1084.23 32.092C1083.37 32.092 1082.67 32.3047 1082.14 32.73C1081.61 33.1407 1081.35 33.7273 1081.35 34.49C1081.35 35.2527 1081.61 35.8467 1082.14 36.272C1082.67 36.6827 1083.37 36.888 1084.23 36.888ZM1090.5 23.6H1100.29V25.8L1094.87 39H1092.21L1097.54 26.02H1090.5V23.6Z" fill="white"/>
<path d="M1078.05 43.4H1100.95V44.5H1078.05V43.4Z" fill="white"/>
<path d="M1174.47 36.992C1175.98 37.828 1176.74 39.0747 1176.74 40.732C1176.74 42.14 1176.25 43.2547 1175.27 44.076C1174.28 44.8827 1172.98 45.286 1171.35 45.286C1169.72 45.286 1168.41 44.8827 1167.41 44.076C1166.43 43.2547 1165.94 42.14 1165.94 40.732C1165.94 39.94 1166.14 39.2213 1166.53 38.576C1166.93 37.916 1167.49 37.388 1168.2 36.992C1167.05 36.2293 1166.47 35.144 1166.47 33.736C1166.47 32.328 1166.94 31.2427 1167.87 30.48C1168.81 29.7027 1169.97 29.314 1171.35 29.314C1172.71 29.314 1173.87 29.7027 1174.8 30.48C1175.76 31.2427 1176.23 32.328 1176.23 33.736C1176.23 35.144 1175.65 36.2293 1174.47 36.992ZM1171.35 31.712C1170.66 31.712 1170.1 31.8953 1169.66 32.262C1169.22 32.6287 1169 33.1567 1169 33.846C1169 34.506 1169.22 35.0267 1169.66 35.408C1170.11 35.7893 1170.68 35.98 1171.35 35.98C1172.01 35.98 1172.57 35.7893 1173.02 35.408C1173.48 35.0267 1173.7 34.506 1173.7 33.846C1173.7 33.1567 1173.48 32.6287 1173.02 32.262C1172.58 31.8953 1172.02 31.712 1171.35 31.712ZM1171.35 42.888C1172.2 42.888 1172.89 42.6827 1173.42 42.272C1173.95 41.8467 1174.21 41.2527 1174.21 40.49C1174.21 39.7273 1173.95 39.1407 1173.42 38.73C1172.89 38.3047 1172.2 38.092 1171.35 38.092C1170.48 38.092 1169.79 38.3047 1169.26 38.73C1168.73 39.1407 1168.47 39.7273 1168.47 40.49C1168.47 41.2527 1168.73 41.8467 1169.26 42.272C1169.79 42.6827 1170.48 42.888 1171.35 42.888ZM1186.81 36.992C1188.32 37.828 1189.07 39.0747 1189.07 40.732C1189.07 42.14 1188.58 43.2547 1187.6 44.076C1186.62 44.8827 1185.31 45.286 1183.68 45.286C1182.05 45.286 1180.74 44.8827 1179.74 44.076C1178.76 43.2547 1178.27 42.14 1178.27 40.732C1178.27 39.94 1178.47 39.2213 1178.86 38.576C1179.26 37.916 1179.82 37.388 1180.54 36.992C1179.38 36.2293 1178.8 35.144 1178.8 33.736C1178.8 32.328 1179.27 31.2427 1180.21 30.48C1181.14 29.7027 1182.3 29.314 1183.68 29.314C1185.05 29.314 1186.2 29.7027 1187.14 30.48C1188.09 31.2427 1188.57 32.328 1188.57 33.736C1188.57 35.144 1187.98 36.2293 1186.81 36.992ZM1183.68 31.712C1182.99 31.712 1182.43 31.8953 1181.99 32.262C1181.55 32.6287 1181.33 33.1567 1181.33 33.846C1181.33 34.506 1181.55 35.0267 1181.99 35.408C1182.44 35.7893 1183.01 35.98 1183.68 35.98C1184.34 35.98 1184.9 35.7893 1185.35 35.408C1185.81 35.0267 1186.04 34.506 1186.04 33.846C1186.04 33.1567 1185.81 32.6287 1185.35 32.262C1184.91 31.8953 1184.36 31.712 1183.68 31.712ZM1183.68 42.888C1184.53 42.888 1185.22 42.6827 1185.75 42.272C1186.28 41.8467 1186.54 41.2527 1186.54 40.49C1186.54 39.7273 1186.28 39.1407 1185.75 38.73C1185.22 38.3047 1184.53 38.092 1183.68 38.092C1182.82 38.092 1182.12 38.3047 1181.59 38.73C1181.06 39.1407 1180.8 39.7273 1180.8 40.49C1180.8 41.2527 1181.06 41.8467 1181.59 42.272C1182.12 42.6827 1182.82 42.888 1183.68 42.888Z" fill="white"/>
<path d="M1165.17 49.4H1189.84V50.5H1165.17V49.4Z" fill="white"/>
<path d="M1275.65 35.992C1277.16 36.828 1277.91 38.0747 1277.91 39.732C1277.91 41.14 1277.42 42.2547 1276.44 43.076C1275.46 43.8827 1274.15 44.286 1272.52 44.286C1270.89 44.286 1269.58 43.8827 1268.58 43.076C1267.6 42.2547 1267.11 41.14 1267.11 39.732C1267.11 38.94 1267.31 38.2213 1267.7 37.576C1268.1 36.916 1268.66 36.388 1269.38 35.992C1268.22 35.2293 1267.64 34.144 1267.64 32.736C1267.64 31.328 1268.11 30.2427 1269.05 29.48C1269.98 28.7027 1271.14 28.314 1272.52 28.314C1273.89 28.314 1275.04 28.7027 1275.98 29.48C1276.93 30.2427 1277.41 31.328 1277.41 32.736C1277.41 34.144 1276.82 35.2293 1275.65 35.992ZM1272.52 30.712C1271.83 30.712 1271.27 30.8953 1270.83 31.262C1270.39 31.6287 1270.17 32.1567 1270.17 32.846C1270.17 33.506 1270.39 34.0267 1270.83 34.408C1271.28 34.7893 1271.85 34.98 1272.52 34.98C1273.18 34.98 1273.74 34.7893 1274.19 34.408C1274.65 34.0267 1274.88 33.506 1274.88 32.846C1274.88 32.1567 1274.65 31.6287 1274.19 31.262C1273.75 30.8953 1273.2 30.712 1272.52 30.712ZM1272.52 41.888C1273.37 41.888 1274.06 41.6827 1274.59 41.272C1275.12 40.8467 1275.38 40.2527 1275.38 39.49C1275.38 38.7273 1275.12 38.1407 1274.59 37.73C1274.06 37.3047 1273.37 37.092 1272.52 37.092C1271.66 37.092 1270.96 37.3047 1270.43 37.73C1269.9 38.1407 1269.64 38.7273 1269.64 39.49C1269.64 40.2527 1269.9 40.8467 1270.43 41.272C1270.96 41.6827 1271.66 41.888 1272.52 41.888ZM1290.11 33.572C1290.11 34.7453 1289.8 35.7793 1289.19 36.674L1284.33 44H1281.42L1284.94 38.83H1284.68C1283.08 38.83 1281.77 38.346 1280.74 37.378C1279.73 36.3953 1279.22 35.1267 1279.22 33.572C1279.22 32.0173 1279.73 30.756 1280.74 29.788C1281.77 28.8053 1283.08 28.314 1284.68 28.314C1286.28 28.314 1287.58 28.8053 1288.59 29.788C1289.61 30.756 1290.11 32.0173 1290.11 33.572ZM1281.75 33.572C1281.75 34.4227 1282.02 35.112 1282.57 35.64C1283.12 36.168 1283.83 36.432 1284.68 36.432C1285.53 36.432 1286.23 36.1753 1286.77 35.662C1287.31 35.134 1287.58 34.4373 1287.58 33.572C1287.58 32.7067 1287.31 32.0173 1286.77 31.504C1286.23 30.976 1285.53 30.712 1284.68 30.712C1283.83 30.712 1283.12 30.976 1282.57 31.504C1282.02 32.0173 1281.75 32.7067 1281.75 33.572Z" fill="white"/>
<path d="M1266.34 48.4H1290.66V49.5H1266.34V48.4Z" fill="white"/>
<path d="M1277.52 117.572C1277.52 118.745 1277.21 119.779 1276.59 120.674L1271.73 128H1268.83L1272.35 122.83H1272.08C1270.48 122.83 1269.17 122.346 1268.15 121.378C1267.13 120.395 1266.63 119.127 1266.63 117.572C1266.63 116.017 1267.13 114.756 1268.15 113.788C1269.17 112.805 1270.48 112.314 1272.08 112.314C1273.68 112.314 1274.99 112.805 1276 113.788C1277.01 114.756 1277.52 116.017 1277.52 117.572ZM1269.16 117.572C1269.16 118.423 1269.43 119.112 1269.97 119.64C1270.53 120.168 1271.23 120.432 1272.08 120.432C1272.93 120.432 1273.63 120.175 1274.17 119.662C1274.72 119.134 1274.99 118.437 1274.99 117.572C1274.99 116.707 1274.72 116.017 1274.17 115.504C1273.63 114.976 1272.93 114.712 1272.08 114.712C1271.23 114.712 1270.53 114.976 1269.97 115.504C1269.43 116.017 1269.16 116.707 1269.16 117.572ZM1289.44 126.108C1288.38 127.56 1286.9 128.286 1285 128.286C1283.09 128.286 1281.6 127.56 1280.53 126.108C1279.47 124.656 1278.95 122.72 1278.95 120.3C1278.95 117.88 1279.47 115.944 1280.53 114.492C1281.6 113.04 1283.09 112.314 1285 112.314C1286.9 112.314 1288.38 113.04 1289.44 114.492C1290.51 115.944 1291.05 117.88 1291.05 120.3C1291.05 122.72 1290.51 124.656 1289.44 126.108ZM1285 125.822C1286.14 125.822 1287.01 125.345 1287.61 124.392C1288.21 123.439 1288.52 122.075 1288.52 120.3C1288.52 118.525 1288.21 117.161 1287.61 116.208C1287.01 115.255 1286.14 114.778 1285 114.778C1283.87 114.778 1282.99 115.255 1282.38 116.208C1281.78 117.161 1281.48 118.525 1281.48 120.3C1281.48 122.075 1281.78 123.439 1282.38 124.392C1282.99 125.345 1283.87 125.822 1285 125.822Z" fill="white"/>
<path d="M1266.08 132.4H1291.93V133.5H1266.08V132.4Z" fill="white"/>
<path d="M1279.85 180.572C1279.85 181.745 1279.55 182.779 1278.93 183.674L1274.07 191H1271.16L1274.68 185.83H1274.42C1272.82 185.83 1271.51 185.346 1270.48 184.378C1269.47 183.395 1268.96 182.127 1268.96 180.572C1268.96 179.017 1269.47 177.756 1270.48 176.788C1271.51 175.805 1272.82 175.314 1274.42 175.314C1276.02 175.314 1277.32 175.805 1278.34 176.788C1279.35 177.756 1279.85 179.017 1279.85 180.572ZM1271.49 180.572C1271.49 181.423 1271.76 182.112 1272.31 182.64C1272.86 183.168 1273.57 183.432 1274.42 183.432C1275.27 183.432 1275.97 183.175 1276.51 182.662C1277.05 182.134 1277.32 181.437 1277.32 180.572C1277.32 179.707 1277.05 179.017 1276.51 178.504C1275.97 177.976 1275.27 177.712 1274.42 177.712C1273.57 177.712 1272.86 177.976 1272.31 178.504C1271.76 179.017 1271.49 179.707 1271.49 180.572ZM1284.74 175.6H1286.94V191H1284.41V178.306L1281.3 179.186L1280.69 177.03L1284.74 175.6Z" fill="white"/>
<path d="M1268.41 195.4H1288.59V196.5H1268.41V195.4Z" fill="white"/>
<path d="M1215.68 247.572C1215.68 248.745 1215.37 249.779 1214.75 250.674L1209.89 258H1206.99L1210.51 252.83H1210.24C1208.64 252.83 1207.33 252.346 1206.31 251.378C1205.29 250.395 1204.79 249.127 1204.79 247.572C1204.79 246.017 1205.29 244.756 1206.31 243.788C1207.33 242.805 1208.64 242.314 1210.24 242.314C1211.84 242.314 1213.15 242.805 1214.16 243.788C1215.17 244.756 1215.68 246.017 1215.68 247.572ZM1207.32 247.572C1207.32 248.423 1207.59 249.112 1208.13 249.64C1208.69 250.168 1209.39 250.432 1210.24 250.432C1211.09 250.432 1211.79 250.175 1212.33 249.662C1212.88 249.134 1213.15 248.437 1213.15 247.572C1213.15 246.707 1212.88 246.017 1212.33 245.504C1211.79 244.976 1211.09 244.712 1210.24 244.712C1209.39 244.712 1208.69 244.976 1208.13 245.504C1207.59 246.017 1207.32 246.707 1207.32 247.572ZM1216.8 258V256.02L1222.17 250.542C1223.47 249.237 1224.13 248.107 1224.13 247.154C1224.13 246.406 1223.9 245.827 1223.44 245.416C1223 244.991 1222.44 244.778 1221.75 244.778C1220.46 244.778 1219.51 245.416 1218.89 246.692L1216.76 245.438C1217.24 244.411 1217.92 243.634 1218.8 243.106C1219.68 242.578 1220.66 242.314 1221.73 242.314C1223.08 242.314 1224.24 242.739 1225.2 243.59C1226.17 244.441 1226.66 245.599 1226.66 247.066C1226.66 248.635 1225.78 250.307 1224.04 252.082L1220.56 255.558H1226.94V258H1216.8Z" fill="white"/>
<path d="M1204.24 262.4H1227.76V263.5H1204.24V262.4Z" fill="white"/>
<path d="M1157.17 371.408C1158.64 371.408 1159.88 371.848 1160.89 372.728C1161.9 373.593 1162.41 374.796 1162.41 376.336C1162.41 377.876 1161.88 379.086 1160.84 379.966C1159.8 380.846 1158.53 381.286 1157.02 381.286C1155.8 381.286 1154.72 381.007 1153.78 380.45C1152.84 379.878 1152.18 379.057 1151.78 377.986L1153.96 376.732C1154.37 378.125 1155.39 378.822 1157.02 378.822C1157.88 378.822 1158.57 378.602 1159.08 378.162C1159.61 377.707 1159.88 377.099 1159.88 376.336C1159.88 375.573 1159.62 374.972 1159.11 374.532C1158.59 374.092 1157.91 373.872 1157.06 373.872H1152.57L1153.17 365.6H1161.75V367.976H1155.5L1155.23 371.408H1157.17ZM1168.94 371.408C1170.41 371.408 1171.65 371.848 1172.66 372.728C1173.67 373.593 1174.18 374.796 1174.18 376.336C1174.18 377.876 1173.66 379.086 1172.62 379.966C1171.58 380.846 1170.3 381.286 1168.79 381.286C1167.57 381.286 1166.49 381.007 1165.55 380.45C1164.62 379.878 1163.95 379.057 1163.55 377.986L1165.73 376.732C1166.14 378.125 1167.16 378.822 1168.79 378.822C1169.65 378.822 1170.34 378.602 1170.86 378.162C1171.38 377.707 1171.65 377.099 1171.65 376.336C1171.65 375.573 1171.39 374.972 1170.88 374.532C1170.37 374.092 1169.68 373.872 1168.83 373.872H1164.34L1164.94 365.6H1173.52V367.976H1167.27L1167.01 371.408H1168.94Z" fill="white"/>
<path d="M1151.12 385.4H1174.88V386.5H1151.12V385.4Z" fill="white"/>
<path d="M1152.17 440.408C1153.64 440.408 1154.88 440.848 1155.89 441.728C1156.9 442.593 1157.41 443.796 1157.41 445.336C1157.41 446.876 1156.89 448.086 1155.85 448.966C1154.81 449.846 1153.53 450.286 1152.02 450.286C1150.8 450.286 1149.73 450.007 1148.79 449.45C1147.85 448.878 1147.18 448.057 1146.78 446.986L1148.96 445.732C1149.37 447.125 1150.39 447.822 1152.02 447.822C1152.89 447.822 1153.58 447.602 1154.09 447.162C1154.62 446.707 1154.88 446.099 1154.88 445.336C1154.88 444.573 1154.62 443.972 1154.11 443.532C1153.6 443.092 1152.92 442.872 1152.06 442.872H1147.58L1148.17 434.6H1156.75V436.976H1150.5L1150.24 440.408H1152.17ZM1170.5 444.874V447.228H1168.74V450H1166.19V447.228H1158.62V444.874L1163.92 434.6H1166.67L1161.37 444.874H1166.19V440.87H1168.74V444.874H1170.5Z" fill="white"/>
<path d="M1146.12 454.4H1170.87V455.5H1146.12V454.4Z" fill="white"/>
<path d="M1133.05 496.408C1134.52 496.408 1135.76 496.848 1136.77 497.728C1137.78 498.593 1138.29 499.796 1138.29 501.336C1138.29 502.876 1137.77 504.086 1136.72 504.966C1135.68 505.846 1134.41 506.286 1132.9 506.286C1131.68 506.286 1130.6 506.007 1129.66 505.45C1128.72 504.878 1128.06 504.057 1127.66 502.986L1129.84 501.732C1130.25 503.125 1131.27 503.822 1132.9 503.822C1133.76 503.822 1134.45 503.602 1134.96 503.162C1135.49 502.707 1135.76 502.099 1135.76 501.336C1135.76 500.573 1135.5 499.972 1134.99 499.532C1134.47 499.092 1133.79 498.872 1132.94 498.872H1128.45L1129.05 490.6H1137.63V492.976H1131.38L1131.11 496.408H1133.05ZM1146.12 496.892C1147.24 497.156 1148.14 497.677 1148.83 498.454C1149.53 499.217 1149.88 500.177 1149.88 501.336C1149.88 502.876 1149.36 504.086 1148.32 504.966C1147.28 505.846 1146 506.286 1144.49 506.286C1143.32 506.286 1142.26 506.015 1141.33 505.472C1140.4 504.929 1139.73 504.137 1139.32 503.096L1141.48 501.842C1141.93 503.162 1142.94 503.822 1144.49 503.822C1145.37 503.822 1146.07 503.602 1146.58 503.162C1147.1 502.707 1147.35 502.099 1147.35 501.336C1147.35 500.573 1147.1 499.972 1146.58 499.532C1146.07 499.092 1145.37 498.872 1144.49 498.872H1143.92L1142.91 497.354L1146.23 492.976H1139.79V490.6H1149.25V492.756L1146.12 496.892Z" fill="white"/>
<path d="M1127 510.4H1150.65V511.5H1127V510.4Z" fill="white"/>
<path d="M1098.39 568.408C1099.86 568.408 1101.1 568.848 1102.11 569.728C1103.12 570.593 1103.63 571.796 1103.63 573.336C1103.63 574.876 1103.11 576.086 1102.07 576.966C1101.03 577.846 1099.75 578.286 1098.24 578.286C1097.02 578.286 1095.95 578.007 1095.01 577.45C1094.07 576.878 1093.4 576.057 1093 574.986L1095.18 573.732C1095.59 575.125 1096.61 575.822 1098.24 575.822C1099.11 575.822 1099.8 575.602 1100.31 575.162C1100.84 574.707 1101.1 574.099 1101.1 573.336C1101.1 572.573 1100.84 571.972 1100.33 571.532C1099.82 571.092 1099.14 570.872 1098.28 570.872H1093.8L1094.39 562.6H1102.97V564.976H1096.72L1096.46 568.408H1098.39ZM1104.69 578V576.02L1110.06 570.542C1111.37 569.237 1112.02 568.107 1112.02 567.154C1112.02 566.406 1111.79 565.827 1111.34 565.416C1110.9 564.991 1110.33 564.778 1109.64 564.778C1108.35 564.778 1107.4 565.416 1106.78 566.692L1104.65 565.438C1105.13 564.411 1105.81 563.634 1106.69 563.106C1107.57 562.578 1108.55 562.314 1109.62 562.314C1110.97 562.314 1112.13 562.739 1113.1 563.59C1114.06 564.441 1114.55 565.599 1114.55 567.066C1114.55 568.635 1113.68 570.307 1111.93 572.082L1108.45 575.558H1114.83V578H1104.69Z" fill="white"/>
<path d="M1092.34 582.4H1115.65V583.5H1092.34V582.4Z" fill="white"/>
<path d="M1010.05 531.408C1011.52 531.408 1012.76 531.848 1013.77 532.728C1014.78 533.593 1015.29 534.796 1015.29 536.336C1015.29 537.876 1014.77 539.086 1013.72 539.966C1012.68 540.846 1011.41 541.286 1009.9 541.286C1008.68 541.286 1007.6 541.007 1006.66 540.45C1005.72 539.878 1005.06 539.057 1004.66 537.986L1006.84 536.732C1007.25 538.125 1008.27 538.822 1009.9 538.822C1010.76 538.822 1011.45 538.602 1011.96 538.162C1012.49 537.707 1012.76 537.099 1012.76 536.336C1012.76 535.573 1012.5 534.972 1011.99 534.532C1011.47 534.092 1010.79 533.872 1009.94 533.872H1005.45L1006.05 525.6H1014.63V527.976H1008.38L1008.11 531.408H1010.05ZM1020 525.6H1022.2V541H1019.67V528.306L1016.57 529.186L1015.95 527.03L1020 525.6Z" fill="white"/>
<path d="M1004 545.4H1023.85V546.5H1004V545.4Z" fill="white"/>
<path d="M905.213 506.408C906.68 506.408 907.919 506.848 908.931 507.728C909.943 508.593 910.449 509.796 910.449 511.336C910.449 512.876 909.928 514.086 908.887 514.966C907.846 515.846 906.57 516.286 905.059 516.286C903.842 516.286 902.764 516.007 901.825 515.45C900.886 514.878 900.219 514.057 899.823 512.986L902.001 511.732C902.412 513.125 903.431 513.822 905.059 513.822C905.924 513.822 906.614 513.602 907.127 513.162C907.655 512.707 907.919 512.099 907.919 511.336C907.919 510.573 907.662 509.972 907.149 509.532C906.636 509.092 905.954 508.872 905.103 508.872H900.615L901.209 500.6H909.789V502.976H903.541L903.277 506.408H905.213ZM922.353 514.108C921.297 515.56 919.816 516.286 917.909 516.286C916.003 516.286 914.514 515.56 913.443 514.108C912.387 512.656 911.859 510.72 911.859 508.3C911.859 505.88 912.387 503.944 913.443 502.492C914.514 501.04 916.003 500.314 917.909 500.314C919.816 500.314 921.297 501.04 922.353 502.492C923.424 503.944 923.959 505.88 923.959 508.3C923.959 510.72 923.424 512.656 922.353 514.108ZM917.909 513.822C919.053 513.822 919.926 513.345 920.527 512.392C921.129 511.439 921.429 510.075 921.429 508.3C921.429 506.525 921.129 505.161 920.527 504.208C919.926 503.255 919.053 502.778 917.909 502.778C916.78 502.778 915.907 503.255 915.291 504.208C914.69 505.161 914.389 506.525 914.389 508.3C914.389 510.075 914.69 511.439 915.291 512.392C915.907 513.345 916.78 513.822 917.909 513.822Z" fill="white"/>
<path d="M899.163 520.4H924.839V521.5H899.163V520.4Z" fill="white"/>
<path d="M790.726 474.874V477.228H788.966V480H786.414V477.228H778.846V474.874L784.148 464.6H786.898L781.596 474.874H786.414V470.87H788.966V474.874H790.726ZM802.112 469.572C802.112 470.745 801.804 471.779 801.188 472.674L796.326 480H793.422L796.942 474.83H796.678C795.079 474.83 793.767 474.346 792.74 473.378C791.728 472.395 791.222 471.127 791.222 469.572C791.222 468.017 791.728 466.756 792.74 465.788C793.767 464.805 795.079 464.314 796.678 464.314C798.277 464.314 799.582 464.805 800.594 465.788C801.606 466.756 802.112 468.017 802.112 469.572ZM793.752 469.572C793.752 470.423 794.023 471.112 794.566 471.64C795.123 472.168 795.827 472.432 796.678 472.432C797.529 472.432 798.225 472.175 798.768 471.662C799.311 471.134 799.582 470.437 799.582 469.572C799.582 468.707 799.311 468.017 798.768 467.504C798.225 466.976 797.529 466.712 796.678 466.712C795.827 466.712 795.123 466.976 794.566 467.504C794.023 468.017 793.752 468.707 793.752 469.572Z" fill="white"/>
<path d="M778.34 484.4H802.662V485.5H778.34V484.4Z" fill="white"/>
<path d="M676.386 447.874V450.228H674.626V453H672.074V450.228H664.506V447.874L669.808 437.6H672.558L667.256 447.874H672.074V443.87H674.626V447.874H676.386ZM686.175 444.992C687.686 445.828 688.441 447.075 688.441 448.732C688.441 450.14 687.95 451.255 686.967 452.076C685.984 452.883 684.679 453.286 683.051 453.286C681.423 453.286 680.11 452.883 679.113 452.076C678.13 451.255 677.639 450.14 677.639 448.732C677.639 447.94 677.837 447.221 678.233 446.576C678.629 445.916 679.186 445.388 679.905 444.992C678.746 444.229 678.167 443.144 678.167 441.736C678.167 440.328 678.636 439.243 679.575 438.48C680.514 437.703 681.672 437.314 683.051 437.314C684.415 437.314 685.566 437.703 686.505 438.48C687.458 439.243 687.935 440.328 687.935 441.736C687.935 443.144 687.348 444.229 686.175 444.992ZM683.051 439.712C682.362 439.712 681.797 439.895 681.357 440.262C680.917 440.629 680.697 441.157 680.697 441.846C680.697 442.506 680.917 443.027 681.357 443.408C681.812 443.789 682.376 443.98 683.051 443.98C683.711 443.98 684.268 443.789 684.723 443.408C685.178 443.027 685.405 442.506 685.405 441.846C685.405 441.157 685.178 440.629 684.723 440.262C684.283 439.895 683.726 439.712 683.051 439.712ZM683.051 450.888C683.902 450.888 684.591 450.683 685.119 450.272C685.647 449.847 685.911 449.253 685.911 448.49C685.911 447.727 685.647 447.141 685.119 446.73C684.591 446.305 683.902 446.092 683.051 446.092C682.186 446.092 681.489 446.305 680.961 446.73C680.433 447.141 680.169 447.727 680.169 448.49C680.169 449.253 680.433 449.847 680.961 450.272C681.489 450.683 682.186 450.888 683.051 450.888Z" fill="white"/>
<path d="M664 457.4H689.211V458.5H664V457.4Z" fill="white"/>
<path d="M558.827 418.874V421.228H557.067V424H554.515V421.228H546.947V418.874L552.249 408.6H554.999L549.697 418.874H554.515V414.87H557.067V418.874H558.827ZM559.103 408.6H568.893V410.8L563.481 424H560.819L566.143 411.02H559.103V408.6Z" fill="white"/>
<path d="M546.441 428.4H569.553V429.5H546.441V428.4Z" fill="white"/>
<path d="M433.85 391.874V394.228H432.09V397H429.538V394.228H421.97V391.874L427.272 381.6H430.022L424.72 391.874H429.538V387.87H432.09V391.874H433.85ZM440.554 386.77C442.153 386.77 443.458 387.261 444.47 388.244C445.482 389.212 445.988 390.473 445.988 392.028C445.988 393.583 445.482 394.851 444.47 395.834C443.458 396.802 442.153 397.286 440.554 397.286C438.941 397.286 437.628 396.802 436.616 395.834C435.604 394.851 435.098 393.583 435.098 392.028C435.098 390.855 435.406 389.821 436.022 388.926L440.906 381.6H443.788L440.268 386.77H440.554ZM440.554 394.888C441.405 394.888 442.101 394.631 442.644 394.118C443.187 393.59 443.458 392.893 443.458 392.028C443.458 391.163 443.187 390.473 442.644 389.96C442.101 389.432 441.405 389.168 440.554 389.168C439.689 389.168 438.985 389.432 438.442 389.96C437.899 390.473 437.628 391.163 437.628 392.028C437.628 392.893 437.899 393.59 438.442 394.118C438.985 394.631 439.689 394.888 440.554 394.888Z" fill="white"/>
<path d="M421.464 401.4H446.538V402.5H421.464V401.4Z" fill="white"/>
<path d="M520.682 338V336.02L526.05 330.542C527.355 329.237 528.008 328.107 528.008 327.154C528.008 326.406 527.781 325.827 527.326 325.416C526.886 324.991 526.321 324.778 525.632 324.778C524.341 324.778 523.388 325.416 522.772 326.692L520.638 325.438C521.122 324.411 521.804 323.634 522.684 323.106C523.564 322.578 524.539 322.314 525.61 322.314C526.959 322.314 528.118 322.739 529.086 323.59C530.054 324.441 530.538 325.599 530.538 327.066C530.538 328.635 529.665 330.307 527.92 332.082L524.444 335.558H530.824V338H520.682ZM531.545 322.6H541.335V324.8L535.923 338H533.261L538.585 325.02H531.545V322.6Z" fill="white"/>
<path d="M520 342.4H541.995V343.5H520V342.4Z" fill="white"/>
<path d="M453.973 325V323.02L459.341 317.542C460.646 316.237 461.299 315.107 461.299 314.154C461.299 313.406 461.072 312.827 460.617 312.416C460.177 311.991 459.612 311.778 458.923 311.778C457.632 311.778 456.679 312.416 456.063 313.692L453.929 312.438C454.413 311.411 455.095 310.634 455.975 310.106C456.855 309.578 457.83 309.314 458.901 309.314C460.25 309.314 461.409 309.739 462.377 310.59C463.345 311.441 463.829 312.599 463.829 314.066C463.829 315.635 462.956 317.307 461.211 319.082L457.735 322.558H464.115V325H453.973ZM470.771 315.408C472.237 315.408 473.477 315.848 474.489 316.728C475.501 317.593 476.007 318.796 476.007 320.336C476.007 321.876 475.486 323.086 474.445 323.966C473.403 324.846 472.127 325.286 470.617 325.286C469.399 325.286 468.321 325.007 467.383 324.45C466.444 323.878 465.777 323.057 465.381 321.986L467.559 320.732C467.969 322.125 468.989 322.822 470.617 322.822C471.482 322.822 472.171 322.602 472.685 322.162C473.213 321.707 473.477 321.099 473.477 320.336C473.477 319.573 473.22 318.972 472.707 318.532C472.193 318.092 471.511 317.872 470.661 317.872H466.173L466.767 309.6H475.347V311.976H469.099L468.835 315.408H470.771Z" fill="white"/>
<path d="M453.291 329.4H476.711V330.5H453.291V329.4Z" fill="white"/>
<path d="M384.027 310V308.02L389.395 302.542C390.7 301.237 391.353 300.107 391.353 299.154C391.353 298.406 391.125 297.827 390.671 297.416C390.231 296.991 389.666 296.778 388.977 296.778C387.686 296.778 386.733 297.416 386.117 298.692L383.983 297.438C384.467 296.411 385.149 295.634 386.029 295.106C386.909 294.578 387.884 294.314 388.955 294.314C390.304 294.314 391.463 294.739 392.431 295.59C393.399 296.441 393.883 297.599 393.883 299.066C393.883 300.635 393.01 302.307 391.265 304.082L387.789 307.558H394.169V310H384.027ZM402.122 300.892C403.237 301.156 404.139 301.677 404.828 302.454C405.532 303.217 405.884 304.177 405.884 305.336C405.884 306.876 405.364 308.086 404.322 308.966C403.281 309.846 402.005 310.286 400.494 310.286C399.321 310.286 398.265 310.015 397.326 309.472C396.402 308.929 395.735 308.137 395.324 307.096L397.48 305.842C397.935 307.162 398.94 307.822 400.494 307.822C401.374 307.822 402.071 307.602 402.584 307.162C403.098 306.707 403.354 306.099 403.354 305.336C403.354 304.573 403.098 303.972 402.584 303.532C402.071 303.092 401.374 302.872 400.494 302.872H399.922L398.91 301.354L402.232 296.976H395.786V294.6H405.246V296.756L402.122 300.892Z" fill="white"/>
<path d="M383.345 314.4H406.654V315.5H383.345V314.4Z" fill="white"/>
<path d="M386.037 255V253.02L391.405 247.542C392.711 246.237 393.363 245.107 393.363 244.154C393.363 243.406 393.136 242.827 392.681 242.416C392.241 241.991 391.677 241.778 390.987 241.778C389.697 241.778 388.743 242.416 388.127 243.692L385.993 242.438C386.477 241.411 387.159 240.634 388.039 240.106C388.919 239.578 389.895 239.314 390.965 239.314C392.315 239.314 393.473 239.739 394.441 240.59C395.409 241.441 395.893 242.599 395.893 244.066C395.893 245.635 395.021 247.307 393.275 249.082L389.799 252.558H396.179V255H386.037ZM397.682 255V253.02L403.05 247.542C404.355 246.237 405.008 245.107 405.008 244.154C405.008 243.406 404.781 242.827 404.326 242.416C403.886 241.991 403.321 241.778 402.632 241.778C401.341 241.778 400.388 242.416 399.772 243.692L397.638 242.438C398.122 241.411 398.804 240.634 399.684 240.106C400.564 239.578 401.539 239.314 402.61 239.314C403.959 239.314 405.118 239.739 406.086 240.59C407.054 241.441 407.538 242.599 407.538 244.066C407.538 245.635 406.665 247.307 404.92 249.082L401.444 252.558H407.824V255H397.682Z" fill="white"/>
<path d="M385.355 259.4H408.638V260.5H385.355V259.4Z" fill="white"/>
<path d="M463.14 269V267.02L468.508 261.542C469.813 260.237 470.466 259.107 470.466 258.154C470.466 257.406 470.239 256.827 469.784 256.416C469.344 255.991 468.779 255.778 468.09 255.778C466.799 255.778 465.846 256.416 465.23 257.692L463.096 256.438C463.58 255.411 464.262 254.634 465.142 254.106C466.022 253.578 466.997 253.314 468.068 253.314C469.417 253.314 470.576 253.739 471.544 254.59C472.512 255.441 472.996 256.599 472.996 258.066C472.996 259.635 472.123 261.307 470.378 263.082L466.902 266.558H473.282V269H463.14ZM486.166 263.874V266.228H484.406V269H481.854V266.228H474.286V263.874L479.588 253.6H482.338L477.036 263.874H481.854V259.87H484.406V263.874H486.166Z" fill="white"/>
<path d="M462.458 273.4H486.54V274.5H462.458V273.4Z" fill="white"/>
<path d="M532.027 278V276.02L537.395 270.542C538.7 269.237 539.353 268.107 539.353 267.154C539.353 266.406 539.125 265.827 538.671 265.416C538.231 264.991 537.666 264.778 536.977 264.778C535.686 264.778 534.733 265.416 534.117 266.692L531.983 265.438C532.467 264.411 533.149 263.634 534.029 263.106C534.909 262.578 535.884 262.314 536.955 262.314C538.304 262.314 539.463 262.739 540.431 263.59C541.399 264.441 541.883 265.599 541.883 267.066C541.883 268.635 541.01 270.307 539.265 272.082L535.789 275.558H542.169V278H532.027ZM548.673 267.77C550.272 267.77 551.577 268.261 552.589 269.244C553.601 270.212 554.107 271.473 554.107 273.028C554.107 274.583 553.601 275.851 552.589 276.834C551.577 277.802 550.272 278.286 548.673 278.286C547.06 278.286 545.747 277.802 544.735 276.834C543.723 275.851 543.217 274.583 543.217 273.028C543.217 271.855 543.525 270.821 544.141 269.926L549.025 262.6H551.907L548.387 267.77H548.673ZM548.673 275.888C549.524 275.888 550.22 275.631 550.763 275.118C551.306 274.59 551.577 273.893 551.577 273.028C551.577 272.163 551.306 271.473 550.763 270.96C550.22 270.432 549.524 270.168 548.673 270.168C547.808 270.168 547.104 270.432 546.561 270.96C546.018 271.473 545.747 272.163 545.747 273.028C545.747 273.893 546.018 274.59 546.561 275.118C547.104 275.631 547.808 275.888 548.673 275.888Z" fill="white"/>
<path d="M531.345 282.4H554.657V283.5H531.345V282.4Z" fill="white"/>
<path d="M669.479 290.892C670.594 291.156 671.496 291.677 672.185 292.454C672.889 293.217 673.241 294.177 673.241 295.336C673.241 296.876 672.72 298.086 671.679 298.966C670.638 299.846 669.362 300.286 667.851 300.286C666.678 300.286 665.622 300.015 664.683 299.472C663.759 298.929 663.092 298.137 662.681 297.096L664.837 295.842C665.292 297.162 666.296 297.822 667.851 297.822C668.731 297.822 669.428 297.602 669.941 297.162C670.454 296.707 670.711 296.099 670.711 295.336C670.711 294.573 670.454 293.972 669.941 293.532C669.428 293.092 668.731 292.872 667.851 292.872H667.279L666.267 291.354L669.589 286.976H663.143V284.6H672.603V286.756L669.479 290.892ZM685.386 298.108C684.33 299.56 682.848 300.286 680.942 300.286C679.035 300.286 677.546 299.56 676.476 298.108C675.42 296.656 674.892 294.72 674.892 292.3C674.892 289.88 675.42 287.944 676.476 286.492C677.546 285.04 679.035 284.314 680.942 284.314C682.848 284.314 684.33 285.04 685.386 286.492C686.456 287.944 686.992 289.88 686.992 292.3C686.992 294.72 686.456 296.656 685.386 298.108ZM680.942 297.822C682.086 297.822 682.958 297.345 683.56 296.392C684.161 295.439 684.462 294.075 684.462 292.3C684.462 290.525 684.161 289.161 683.56 288.208C682.958 287.255 682.086 286.778 680.942 286.778C679.812 286.778 678.94 287.255 678.324 288.208C677.722 289.161 677.422 290.525 677.422 292.3C677.422 294.075 677.722 295.439 678.324 296.392C678.94 297.345 679.812 297.822 680.942 297.822Z" fill="white"/>
<path d="M662.131 304.4H687.872V305.5H662.131V304.4Z" fill="white"/>
<path d="M732.639 299.892C733.754 300.156 734.656 300.677 735.345 301.454C736.049 302.217 736.401 303.177 736.401 304.336C736.401 305.876 735.88 307.086 734.839 307.966C733.798 308.846 732.522 309.286 731.011 309.286C729.838 309.286 728.782 309.015 727.843 308.472C726.919 307.929 726.252 307.137 725.841 306.096L727.997 304.842C728.452 306.162 729.456 306.822 731.011 306.822C731.891 306.822 732.588 306.602 733.101 306.162C733.614 305.707 733.871 305.099 733.871 304.336C733.871 303.573 733.614 302.972 733.101 302.532C732.588 302.092 731.891 301.872 731.011 301.872H730.439L729.427 300.354L732.749 295.976H726.303V293.6H735.763V295.756L732.639 299.892ZM737.746 309V307.02L743.114 301.542C744.42 300.237 745.072 299.107 745.072 298.154C745.072 297.406 744.845 296.827 744.39 296.416C743.95 295.991 743.386 295.778 742.696 295.778C741.406 295.778 740.452 296.416 739.836 297.692L737.702 296.438C738.186 295.411 738.868 294.634 739.748 294.106C740.628 293.578 741.604 293.314 742.674 293.314C744.024 293.314 745.182 293.739 746.15 294.59C747.118 295.441 747.602 296.599 747.602 298.066C747.602 299.635 746.73 301.307 744.984 303.082L741.508 306.558H747.888V309H737.746Z" fill="white"/>
<path d="M725.291 313.4H748.702V314.5H725.291V313.4Z" fill="white"/>
<path d="M795.419 310.892C796.534 311.156 797.436 311.677 798.125 312.454C798.829 313.217 799.181 314.177 799.181 315.336C799.181 316.876 798.661 318.086 797.619 318.966C796.578 319.846 795.302 320.286 793.791 320.286C792.618 320.286 791.562 320.015 790.623 319.472C789.699 318.929 789.032 318.137 788.621 317.096L790.777 315.842C791.232 317.162 792.237 317.822 793.791 317.822C794.671 317.822 795.368 317.602 795.881 317.162C796.395 316.707 796.651 316.099 796.651 315.336C796.651 314.573 796.395 313.972 795.881 313.532C795.368 313.092 794.671 312.872 793.791 312.872H793.219L792.207 311.354L795.529 306.976H789.083V304.6H798.543V306.756L795.419 310.892ZM812.553 314.874V317.228H810.793V320H808.241V317.228H800.673V314.874L805.975 304.6H808.725L803.423 314.874H808.241V310.87H810.793V314.874H812.553Z" fill="white"/>
<path d="M788.071 324.4H812.927V325.5H788.071V324.4Z" fill="white"/>
<path d="M779.467 379.892C780.582 380.156 781.484 380.677 782.173 381.454C782.877 382.217 783.229 383.177 783.229 384.336C783.229 385.876 782.708 387.086 781.667 387.966C780.626 388.846 779.35 389.286 777.839 389.286C776.666 389.286 775.61 389.015 774.671 388.472C773.747 387.929 773.08 387.137 772.669 386.096L774.825 384.842C775.28 386.162 776.284 386.822 777.839 386.822C778.719 386.822 779.416 386.602 779.929 386.162C780.442 385.707 780.699 385.099 780.699 384.336C780.699 383.573 780.442 382.972 779.929 382.532C779.416 382.092 778.719 381.872 777.839 381.872H777.267L776.255 380.354L779.577 375.976H773.131V373.6H782.591V375.756L779.467 379.892ZM789.943 379.408C791.409 379.408 792.649 379.848 793.661 380.728C794.673 381.593 795.179 382.796 795.179 384.336C795.179 385.876 794.658 387.086 793.617 387.966C792.575 388.846 791.299 389.286 789.789 389.286C788.571 389.286 787.493 389.007 786.555 388.45C785.616 387.878 784.949 387.057 784.553 385.986L786.731 384.732C787.141 386.125 788.161 386.822 789.789 386.822C790.654 386.822 791.343 386.602 791.857 386.162C792.385 385.707 792.649 385.099 792.649 384.336C792.649 383.573 792.392 382.972 791.879 382.532C791.365 382.092 790.683 381.872 789.833 381.872H785.345L785.939 373.6H794.519V375.976H788.271L788.007 379.408H789.943Z" fill="white"/>
<path d="M772.119 393.4H795.883V394.5H772.119V393.4Z" fill="white"/>
<path d="M718.575 369.892C719.689 370.156 720.591 370.677 721.281 371.454C721.985 372.217 722.337 373.177 722.337 374.336C722.337 375.876 721.816 377.086 720.775 377.966C719.733 378.846 718.457 379.286 716.947 379.286C715.773 379.286 714.717 379.015 713.779 378.472C712.855 377.929 712.187 377.137 711.777 376.096L713.933 374.842C714.387 376.162 715.392 376.822 716.947 376.822C717.827 376.822 718.523 376.602 719.037 376.162C719.55 375.707 719.807 375.099 719.807 374.336C719.807 373.573 719.55 372.972 719.037 372.532C718.523 372.092 717.827 371.872 716.947 371.872H716.375L715.363 370.354L718.685 365.976H712.239V363.6H721.699V365.756L718.575 369.892ZM730.241 369.892C731.355 370.156 732.257 370.677 732.947 371.454C733.651 372.217 734.003 373.177 734.003 374.336C734.003 375.876 733.482 377.086 732.441 377.966C731.399 378.846 730.123 379.286 728.613 379.286C727.439 379.286 726.383 379.015 725.445 378.472C724.521 377.929 723.853 377.137 723.443 376.096L725.599 374.842C726.053 376.162 727.058 376.822 728.613 376.822C729.493 376.822 730.189 376.602 730.703 376.162C731.216 375.707 731.473 375.099 731.473 374.336C731.473 373.573 731.216 372.972 730.703 372.532C730.189 372.092 729.493 371.872 728.613 371.872H728.041L727.029 370.354L730.351 365.976H723.905V363.6H733.365V365.756L730.241 369.892Z" fill="white"/>
<path d="M711.227 383.4H734.773V384.5H711.227V383.4Z" fill="white"/>
<path d="M658.476 358.892C659.591 359.156 660.493 359.677 661.182 360.454C661.886 361.217 662.238 362.177 662.238 363.336C662.238 364.876 661.717 366.086 660.676 366.966C659.635 367.846 658.359 368.286 656.848 368.286C655.675 368.286 654.619 368.015 653.68 367.472C652.756 366.929 652.089 366.137 651.678 365.096L653.834 363.842C654.289 365.162 655.293 365.822 656.848 365.822C657.728 365.822 658.425 365.602 658.938 365.162C659.451 364.707 659.708 364.099 659.708 363.336C659.708 362.573 659.451 361.972 658.938 361.532C658.425 361.092 657.728 360.872 656.848 360.872H656.276L655.264 359.354L658.586 354.976H652.14V352.6H661.6V354.756L658.476 358.892ZM667.021 352.6H669.221V368H666.691V355.306L663.589 356.186L662.973 354.03L667.021 352.6Z" fill="white"/>
<path d="M651.128 372.4H670.871V373.5H651.128V372.4Z" fill="white"/>
<path d="M858.515 386.892C859.63 387.156 860.532 387.677 861.221 388.454C861.925 389.217 862.277 390.177 862.277 391.336C862.277 392.876 861.756 394.086 860.715 394.966C859.674 395.846 858.398 396.286 856.887 396.286C855.714 396.286 854.658 396.015 853.719 395.472C852.795 394.929 852.128 394.137 851.717 393.096L853.873 391.842C854.328 393.162 855.332 393.822 856.887 393.822C857.767 393.822 858.464 393.602 858.977 393.162C859.49 392.707 859.747 392.099 859.747 391.336C859.747 390.573 859.49 389.972 858.977 389.532C858.464 389.092 857.767 388.872 856.887 388.872H856.315L855.303 387.354L858.625 382.976H852.179V380.6H861.639V382.756L858.515 386.892ZM863.378 380.6H873.168V382.8L867.756 396H865.094L870.418 383.02H863.378V380.6Z" fill="white"/>
<path d="M851.167 400.4H873.828V401.5H851.167V400.4Z" fill="white"/>
<path d="M874.413 310.892C875.528 311.156 876.43 311.677 877.119 312.454C877.823 313.217 878.175 314.177 878.175 315.336C878.175 316.876 877.655 318.086 876.613 318.966C875.572 319.846 874.296 320.286 872.785 320.286C871.612 320.286 870.556 320.015 869.617 319.472C868.693 318.929 868.026 318.137 867.615 317.096L869.771 315.842C870.226 317.162 871.231 317.822 872.785 317.822C873.665 317.822 874.362 317.602 874.875 317.162C875.389 316.707 875.645 316.099 875.645 315.336C875.645 314.573 875.389 313.972 874.875 313.532C874.362 313.092 873.665 312.872 872.785 312.872H872.213L871.201 311.354L874.523 306.976H868.077V304.6H877.537V306.756L874.413 310.892ZM884.952 309.77C886.551 309.77 887.856 310.261 888.868 311.244C889.88 312.212 890.386 313.473 890.386 315.028C890.386 316.583 889.88 317.851 888.868 318.834C887.856 319.802 886.551 320.286 884.952 320.286C883.339 320.286 882.026 319.802 881.014 318.834C880.002 317.851 879.496 316.583 879.496 315.028C879.496 313.855 879.804 312.821 880.42 311.926L885.304 304.6H888.186L884.666 309.77H884.952ZM884.952 317.888C885.803 317.888 886.5 317.631 887.042 317.118C887.585 316.59 887.856 315.893 887.856 315.028C887.856 314.163 887.585 313.473 887.042 312.96C886.5 312.432 885.803 312.168 884.952 312.168C884.087 312.168 883.383 312.432 882.84 312.96C882.298 313.473 882.026 314.163 882.026 315.028C882.026 315.893 882.298 316.59 882.84 317.118C883.383 317.631 884.087 317.888 884.952 317.888Z" fill="white"/>
<path d="M867.065 324.4H890.936V325.5H867.065V324.4Z" fill="white"/>
<path d="M938.742 331.892C939.856 332.156 940.758 332.677 941.448 333.454C942.152 334.217 942.504 335.177 942.504 336.336C942.504 337.876 941.983 339.086 940.942 339.966C939.9 340.846 938.624 341.286 937.114 341.286C935.94 341.286 934.884 341.015 933.946 340.472C933.022 339.929 932.354 339.137 931.944 338.096L934.1 336.842C934.554 338.162 935.559 338.822 937.114 338.822C937.994 338.822 938.69 338.602 939.204 338.162C939.717 337.707 939.974 337.099 939.974 336.336C939.974 335.573 939.717 334.972 939.204 334.532C938.69 334.092 937.994 333.872 937.114 333.872H936.542L935.53 332.354L938.852 327.976H932.406V325.6H941.866V327.756L938.742 331.892ZM952.58 332.992C954.091 333.828 954.846 335.075 954.846 336.732C954.846 338.14 954.355 339.255 953.372 340.076C952.39 340.883 951.084 341.286 949.456 341.286C947.828 341.286 946.516 340.883 945.518 340.076C944.536 339.255 944.044 338.14 944.044 336.732C944.044 335.94 944.242 335.221 944.638 334.576C945.034 333.916 945.592 333.388 946.31 332.992C945.152 332.229 944.572 331.144 944.572 329.736C944.572 328.328 945.042 327.243 945.98 326.48C946.919 325.703 948.078 325.314 949.456 325.314C950.82 325.314 951.972 325.703 952.91 326.48C953.864 327.243 954.34 328.328 954.34 329.736C954.34 331.144 953.754 332.229 952.58 332.992ZM949.456 327.712C948.767 327.712 948.202 327.895 947.762 328.262C947.322 328.629 947.102 329.157 947.102 329.846C947.102 330.506 947.322 331.027 947.762 331.408C948.217 331.789 948.782 331.98 949.456 331.98C950.116 331.98 950.674 331.789 951.128 331.408C951.583 331.027 951.81 330.506 951.81 329.846C951.81 329.157 951.583 328.629 951.128 328.262C950.688 327.895 950.131 327.712 949.456 327.712ZM949.456 338.888C950.307 338.888 950.996 338.683 951.524 338.272C952.052 337.847 952.316 337.253 952.316 336.49C952.316 335.727 952.052 335.141 951.524 334.73C950.996 334.305 950.307 334.092 949.456 334.092C948.591 334.092 947.894 334.305 947.366 334.73C946.838 335.141 946.574 335.727 946.574 336.49C946.574 337.253 946.838 337.847 947.366 338.272C947.894 338.683 948.591 338.888 949.456 338.888Z" fill="white"/>
<path d="M931.394 345.4H955.616V346.5H931.394V345.4Z" fill="white"/>
<path d="M986.576 342.874V345.228H984.816V348H982.264V345.228H974.696V342.874L979.998 332.6H982.748L977.446 342.874H982.264V338.87H984.816V342.874H986.576ZM998.326 346.108C997.27 347.56 995.789 348.286 993.882 348.286C991.975 348.286 990.487 347.56 989.416 346.108C988.36 344.656 987.832 342.72 987.832 340.3C987.832 337.88 988.36 335.944 989.416 334.492C990.487 333.04 991.975 332.314 993.882 332.314C995.789 332.314 997.27 333.04 998.326 334.492C999.397 335.944 999.932 337.88 999.932 340.3C999.932 342.72 999.397 344.656 998.326 346.108ZM993.882 345.822C995.026 345.822 995.899 345.345 996.5 344.392C997.101 343.439 997.402 342.075 997.402 340.3C997.402 338.525 997.101 337.161 996.5 336.208C995.899 335.255 995.026 334.778 993.882 334.778C992.753 334.778 991.88 335.255 991.264 336.208C990.663 337.161 990.362 338.525 990.362 340.3C990.362 342.075 990.663 343.439 991.264 344.392C991.88 345.345 992.753 345.822 993.882 345.822Z" fill="white"/>
<path d="M974.19 352.4H1000.81V353.5H974.19V352.4Z" fill="white"/>
<path d="M1033.68 352.874V355.228H1031.92V358H1029.37V355.228H1021.8V352.874L1027.1 342.6H1029.85L1024.55 352.874H1029.37V348.87H1031.92V352.874H1033.68ZM1034.74 358V356.02L1040.11 350.542C1041.41 349.237 1042.07 348.107 1042.07 347.154C1042.07 346.406 1041.84 345.827 1041.38 345.416C1040.94 344.991 1040.38 344.778 1039.69 344.778C1038.4 344.778 1037.45 345.416 1036.83 346.692L1034.7 345.438C1035.18 344.411 1035.86 343.634 1036.74 343.106C1037.62 342.578 1038.6 342.314 1039.67 342.314C1041.02 342.314 1042.18 342.739 1043.14 343.59C1044.11 344.441 1044.6 345.599 1044.6 347.066C1044.6 348.635 1043.72 350.307 1041.98 352.082L1038.5 355.558H1044.88V358H1034.74Z" fill="white"/>
<path d="M1021.3 362.4H1045.7V363.5H1021.3V362.4Z" fill="white"/>
<path d="M1085.52 359.874V362.228H1083.76V365H1081.2V362.228H1073.64V359.874L1078.94 349.6H1081.69L1076.39 359.874H1081.2V355.87H1083.76V359.874H1085.52ZM1098.49 359.874V362.228H1096.73V365H1094.18V362.228H1086.61V359.874L1091.92 349.6H1094.67L1089.36 359.874H1094.18V355.87H1096.73V359.874H1098.49Z" fill="white"/>
<path d="M1073.13 369.4H1098.87V370.5H1073.13V369.4Z" fill="white"/>
<path d="M1059.51 441.874V444.228H1057.75V447H1055.2V444.228H1047.63V441.874L1052.93 431.6H1055.68L1050.38 441.874H1055.2V437.87H1057.75V441.874H1059.51ZM1065.94 437.408C1067.4 437.408 1068.64 437.848 1069.65 438.728C1070.67 439.593 1071.17 440.796 1071.17 442.336C1071.17 443.876 1070.65 445.086 1069.61 445.966C1068.57 446.846 1067.29 447.286 1065.78 447.286C1064.57 447.286 1063.49 447.007 1062.55 446.45C1061.61 445.878 1060.94 445.057 1060.55 443.986L1062.72 442.732C1063.14 444.125 1064.15 444.822 1065.78 444.822C1066.65 444.822 1067.34 444.602 1067.85 444.162C1068.38 443.707 1068.64 443.099 1068.64 442.336C1068.64 441.573 1068.39 440.972 1067.87 440.532C1067.36 440.092 1066.68 439.872 1065.83 439.872H1061.34L1061.93 431.6H1070.51V433.976H1064.26L1064 437.408H1065.94Z" fill="white"/>
<path d="M1047.12 451.4H1071.88V452.5H1047.12V451.4Z" fill="white"/>
<path d="M1015.39 432.874V435.228H1013.63V438H1011.07V435.228H1003.51V432.874L1008.81 422.6H1011.56L1006.26 432.874H1011.07V428.87H1013.63V432.874H1015.39ZM1023.11 428.892C1024.22 429.156 1025.13 429.677 1025.82 430.454C1026.52 431.217 1026.87 432.177 1026.87 433.336C1026.87 434.876 1026.35 436.086 1025.31 436.966C1024.27 437.846 1022.99 438.286 1021.48 438.286C1020.31 438.286 1019.25 438.015 1018.31 437.472C1017.39 436.929 1016.72 436.137 1016.31 435.096L1018.47 433.842C1018.92 435.162 1019.93 435.822 1021.48 435.822C1022.36 435.822 1023.06 435.602 1023.57 435.162C1024.09 434.707 1024.34 434.099 1024.34 433.336C1024.34 432.573 1024.09 431.972 1023.57 431.532C1023.06 431.092 1022.36 430.872 1021.48 430.872H1020.91L1019.9 429.354L1023.22 424.976H1016.77V422.6H1026.23V424.756L1023.11 428.892Z" fill="white"/>
<path d="M1003 442.4H1027.64V443.5H1003V442.4Z" fill="white"/>
<path d="M971.692 421.874V424.228H969.932V427H967.38V424.228H959.812V421.874L965.114 411.6H967.864L962.562 421.874H967.38V417.87H969.932V421.874H971.692ZM975.843 411.6H978.043V427H975.513V414.306L972.411 415.186L971.795 413.03L975.843 411.6Z" fill="white"/>
<path d="M959.306 431.4H979.693V432.5H959.306V431.4Z" fill="white"/>
<path d="M920.575 406.892C921.689 407.156 922.591 407.677 923.281 408.454C923.985 409.217 924.337 410.177 924.337 411.336C924.337 412.876 923.816 414.086 922.775 414.966C921.733 415.846 920.457 416.286 918.947 416.286C917.773 416.286 916.717 416.015 915.779 415.472C914.855 414.929 914.187 414.137 913.777 413.096L915.933 411.842C916.387 413.162 917.392 413.822 918.947 413.822C919.827 413.822 920.523 413.602 921.037 413.162C921.55 412.707 921.807 412.099 921.807 411.336C921.807 410.573 921.55 409.972 921.037 409.532C920.523 409.092 919.827 408.872 918.947 408.872H918.375L917.363 407.354L920.685 402.976H914.239V400.6H923.699V402.756L920.575 406.892ZM936.225 405.572C936.225 406.745 935.917 407.779 935.301 408.674L930.439 416H927.535L931.055 410.83H930.791C929.192 410.83 927.88 410.346 926.853 409.378C925.841 408.395 925.335 407.127 925.335 405.572C925.335 404.017 925.841 402.756 926.853 401.788C927.88 400.805 929.192 400.314 930.791 400.314C932.39 400.314 933.695 400.805 934.707 401.788C935.719 402.756 936.225 404.017 936.225 405.572ZM927.865 405.572C927.865 406.423 928.136 407.112 928.679 407.64C929.236 408.168 929.94 408.432 930.791 408.432C931.642 408.432 932.338 408.175 932.881 407.662C933.424 407.134 933.695 406.437 933.695 405.572C933.695 404.707 933.424 404.017 932.881 403.504C932.338 402.976 931.642 402.712 930.791 402.712C929.94 402.712 929.236 402.976 928.679 403.504C928.136 404.017 927.865 404.707 927.865 405.572Z" fill="white"/>
<path d="M913.227 420.4H936.775V421.5H913.227V420.4Z" fill="white"/>
<path d="M691.776 112.6H701.566V114.8L696.154 128H693.492L698.816 115.02H691.776V112.6ZM707.615 118.408C709.082 118.408 710.321 118.848 711.333 119.728C712.345 120.593 712.851 121.796 712.851 123.336C712.851 124.876 712.331 126.086 711.289 126.966C710.248 127.846 708.972 128.286 707.461 128.286C706.244 128.286 705.166 128.007 704.227 127.45C703.289 126.878 702.621 126.057 702.225 124.986L704.403 123.732C704.814 125.125 705.833 125.822 707.461 125.822C708.327 125.822 709.016 125.602 709.529 125.162C710.057 124.707 710.321 124.099 710.321 123.336C710.321 122.573 710.065 121.972 709.551 121.532C709.038 121.092 708.356 120.872 707.505 120.872H703.017L703.611 112.6H712.191V114.976H705.943L705.679 118.408H707.615Z" fill="white"/>
<path d="M691.446 132.4H713.555V133.5H691.446V132.4Z" fill="white"/>
<path d="M763.712 115.6H773.502V117.8L768.09 131H765.428L770.752 118.02H763.712V115.6ZM785.242 125.874V128.228H783.482V131H780.93V128.228H773.362V125.874L778.664 115.6H781.414L776.112 125.874H780.93V121.87H783.482V125.874H785.242Z" fill="white"/>
<path d="M763.382 135.4H785.616V136.5H763.382V135.4Z" fill="white"/>
<path d="M835.497 120.6H845.287V122.8L839.875 136H837.213L842.537 123.02H835.497V120.6ZM853.3 126.892C854.415 127.156 855.317 127.677 856.006 128.454C856.71 129.217 857.062 130.177 857.062 131.336C857.062 132.876 856.541 134.086 855.5 134.966C854.459 135.846 853.183 136.286 851.672 136.286C850.499 136.286 849.443 136.015 848.504 135.472C847.58 134.929 846.913 134.137 846.502 133.096L848.658 131.842C849.113 133.162 850.117 133.822 851.672 133.822C852.552 133.822 853.249 133.602 853.762 133.162C854.275 132.707 854.532 132.099 854.532 131.336C854.532 130.573 854.275 129.972 853.762 129.532C853.249 129.092 852.552 128.872 851.672 128.872H851.1L850.088 127.354L853.41 122.976H846.964V120.6H856.424V122.756L853.3 126.892Z" fill="white"/>
<path d="M835.167 140.4H857.832V141.5H835.167V140.4Z" fill="white"/>
<path d="M905.723 125.6H915.513V127.8L910.101 141H907.439L912.763 128.02H905.723V125.6ZM916.645 141V139.02L922.013 133.542C923.318 132.237 923.971 131.107 923.971 130.154C923.971 129.406 923.744 128.827 923.289 128.416C922.849 127.991 922.284 127.778 921.595 127.778C920.304 127.778 919.351 128.416 918.735 129.692L916.601 128.438C917.085 127.411 917.767 126.634 918.647 126.106C919.527 125.578 920.502 125.314 921.573 125.314C922.922 125.314 924.081 125.739 925.049 126.59C926.017 127.441 926.501 128.599 926.501 130.066C926.501 131.635 925.628 133.307 923.883 135.082L920.407 138.558H926.787V141H916.645Z" fill="white"/>
<path d="M905.393 145.4H927.601V146.5H905.393V145.4Z" fill="white"/>
<path d="M978.791 128.6H988.581V130.8L983.169 144H980.507L985.831 131.02H978.791V128.6ZM993.688 128.6H995.888V144H993.358V131.306L990.256 132.186L989.64 130.03L993.688 128.6Z" fill="white"/>
<path d="M978.461 148.4H997.538V149.5H978.461V148.4Z" fill="white"/>
<path d="M1049.72 134.6H1059.51V136.8L1054.1 150H1051.44L1056.76 137.02H1049.72V134.6ZM1071.12 148.108C1070.07 149.56 1068.59 150.286 1066.68 150.286C1064.77 150.286 1063.28 149.56 1062.21 148.108C1061.16 146.656 1060.63 144.72 1060.63 142.3C1060.63 139.88 1061.16 137.944 1062.21 136.492C1063.28 135.04 1064.77 134.314 1066.68 134.314C1068.59 134.314 1070.07 135.04 1071.12 136.492C1072.19 137.944 1072.73 139.88 1072.73 142.3C1072.73 144.72 1072.19 146.656 1071.12 148.108ZM1066.68 147.822C1067.82 147.822 1068.7 147.345 1069.3 146.392C1069.9 145.439 1070.2 144.075 1070.2 142.3C1070.2 140.525 1069.9 139.161 1069.3 138.208C1068.7 137.255 1067.82 136.778 1066.68 136.778C1065.55 136.778 1064.68 137.255 1064.06 138.208C1063.46 139.161 1063.16 140.525 1063.16 142.3C1063.16 144.075 1063.46 145.439 1064.06 146.392C1064.68 147.345 1065.55 147.822 1066.68 147.822Z" fill="white"/>
<path d="M1049.39 154.4H1073.61V155.5H1049.39V154.4Z" fill="white"/>
<path d="M1118.35 143.77C1119.95 143.77 1121.25 144.261 1122.27 145.244C1123.28 146.212 1123.78 147.473 1123.78 149.028C1123.78 150.583 1123.28 151.851 1122.27 152.834C1121.25 153.802 1119.95 154.286 1118.35 154.286C1116.74 154.286 1115.42 153.802 1114.41 152.834C1113.4 151.851 1112.89 150.583 1112.89 149.028C1112.89 147.855 1113.2 146.821 1113.82 145.926L1118.7 138.6H1121.58L1118.06 143.77H1118.35ZM1118.35 151.888C1119.2 151.888 1119.9 151.631 1120.44 151.118C1120.98 150.59 1121.25 149.893 1121.25 149.028C1121.25 148.163 1120.98 147.473 1120.44 146.96C1119.9 146.432 1119.2 146.168 1118.35 146.168C1117.49 146.168 1116.78 146.432 1116.24 146.96C1115.7 147.473 1115.42 148.163 1115.42 149.028C1115.42 149.893 1115.7 150.59 1116.24 151.118C1116.78 151.631 1117.49 151.888 1118.35 151.888ZM1135.11 143.572C1135.11 144.745 1134.8 145.779 1134.18 146.674L1129.32 154H1126.42L1129.94 148.83H1129.67C1128.07 148.83 1126.76 148.346 1125.73 147.378C1124.72 146.395 1124.22 145.127 1124.22 143.572C1124.22 142.017 1124.72 140.756 1125.73 139.788C1126.76 138.805 1128.07 138.314 1129.67 138.314C1131.27 138.314 1132.58 138.805 1133.59 139.788C1134.6 140.756 1135.11 142.017 1135.11 143.572ZM1126.75 143.572C1126.75 144.423 1127.02 145.112 1127.56 145.64C1128.12 146.168 1128.82 146.432 1129.67 146.432C1130.52 146.432 1131.22 146.175 1131.76 145.662C1132.31 145.134 1132.58 144.437 1132.58 143.572C1132.58 142.707 1132.31 142.017 1131.76 141.504C1131.22 140.976 1130.52 140.712 1129.67 140.712C1128.82 140.712 1128.12 140.976 1127.56 141.504C1127.02 142.017 1126.75 142.707 1126.75 143.572Z" fill="white"/>
<path d="M1112.34 158.4H1135.66V159.5H1112.34V158.4Z" fill="white"/>
<path d="M1173.35 147.77C1174.94 147.77 1176.25 148.261 1177.26 149.244C1178.27 150.212 1178.78 151.473 1178.78 153.028C1178.78 154.583 1178.27 155.851 1177.26 156.834C1176.25 157.802 1174.94 158.286 1173.35 158.286C1171.73 158.286 1170.42 157.802 1169.41 156.834C1168.4 155.851 1167.89 154.583 1167.89 153.028C1167.89 151.855 1168.2 150.821 1168.81 149.926L1173.7 142.6H1176.58L1173.06 147.77H1173.35ZM1173.35 155.888C1174.2 155.888 1174.89 155.631 1175.44 155.118C1175.98 154.59 1176.25 153.893 1176.25 153.028C1176.25 152.163 1175.98 151.473 1175.44 150.96C1174.89 150.432 1174.2 150.168 1173.35 150.168C1172.48 150.168 1171.78 150.432 1171.23 150.96C1170.69 151.473 1170.42 152.163 1170.42 153.028C1170.42 153.893 1170.69 154.59 1171.23 155.118C1171.78 155.631 1172.48 155.888 1173.35 155.888ZM1188.63 149.992C1190.14 150.828 1190.9 152.075 1190.9 153.732C1190.9 155.14 1190.41 156.255 1189.43 157.076C1188.44 157.883 1187.14 158.286 1185.51 158.286C1183.88 158.286 1182.57 157.883 1181.57 157.076C1180.59 156.255 1180.1 155.14 1180.1 153.732C1180.1 152.94 1180.3 152.221 1180.69 151.576C1181.09 150.916 1181.65 150.388 1182.36 149.992C1181.21 149.229 1180.63 148.144 1180.63 146.736C1180.63 145.328 1181.1 144.243 1182.03 143.48C1182.97 142.703 1184.13 142.314 1185.51 142.314C1186.87 142.314 1188.03 142.703 1188.96 143.48C1189.92 144.243 1190.39 145.328 1190.39 146.736C1190.39 148.144 1189.81 149.229 1188.63 149.992ZM1185.51 144.712C1184.82 144.712 1184.26 144.895 1183.82 145.262C1183.38 145.629 1183.16 146.157 1183.16 146.846C1183.16 147.506 1183.38 148.027 1183.82 148.408C1184.27 148.789 1184.84 148.98 1185.51 148.98C1186.17 148.98 1186.73 148.789 1187.18 148.408C1187.64 148.027 1187.86 147.506 1187.86 146.846C1187.86 146.157 1187.64 145.629 1187.18 145.262C1186.74 144.895 1186.18 144.712 1185.51 144.712ZM1185.51 155.888C1186.36 155.888 1187.05 155.683 1187.58 155.272C1188.11 154.847 1188.37 154.253 1188.37 153.49C1188.37 152.727 1188.11 152.141 1187.58 151.73C1187.05 151.305 1186.36 151.092 1185.51 151.092C1184.64 151.092 1183.95 151.305 1183.42 151.73C1182.89 152.141 1182.63 152.727 1182.63 153.49C1182.63 154.253 1182.89 154.847 1183.42 155.272C1183.95 155.683 1184.64 155.888 1185.51 155.888Z" fill="white"/>
<path d="M1167.34 162.4H1191.67V163.5H1167.34V162.4Z" fill="white"/>
<path d="M1134.45 212.77C1136.05 212.77 1137.36 213.261 1138.37 214.244C1139.38 215.212 1139.89 216.473 1139.89 218.028C1139.89 219.583 1139.38 220.851 1138.37 221.834C1137.36 222.802 1136.05 223.286 1134.45 223.286C1132.84 223.286 1131.53 222.802 1130.51 221.834C1129.5 220.851 1129 219.583 1129 218.028C1129 216.855 1129.3 215.821 1129.92 214.926L1134.8 207.6H1137.69L1134.17 212.77H1134.45ZM1134.45 220.888C1135.3 220.888 1136 220.631 1136.54 220.118C1137.08 219.59 1137.36 218.893 1137.36 218.028C1137.36 217.163 1137.08 216.473 1136.54 215.96C1136 215.432 1135.3 215.168 1134.45 215.168C1133.59 215.168 1132.88 215.432 1132.34 215.96C1131.8 216.473 1131.53 217.163 1131.53 218.028C1131.53 218.893 1131.8 219.59 1132.34 220.118C1132.88 220.631 1133.59 220.888 1134.45 220.888ZM1140.1 207.6H1149.89V209.8L1144.48 223H1141.81L1147.14 210.02H1140.1V207.6Z" fill="white"/>
<path d="M1128.45 227.4H1150.55V228.5H1128.45V227.4Z" fill="white"/>
<path d="M1117.02 257.77C1118.62 257.77 1119.92 258.261 1120.93 259.244C1121.95 260.212 1122.45 261.473 1122.45 263.028C1122.45 264.583 1121.95 265.851 1120.93 266.834C1119.92 267.802 1118.62 268.286 1117.02 268.286C1115.4 268.286 1114.09 267.802 1113.08 266.834C1112.07 265.851 1111.56 264.583 1111.56 263.028C1111.56 261.855 1111.87 260.821 1112.49 259.926L1117.37 252.6H1120.25L1116.73 257.77H1117.02ZM1117.02 265.888C1117.87 265.888 1118.57 265.631 1119.11 265.118C1119.65 264.59 1119.92 263.893 1119.92 263.028C1119.92 262.163 1119.65 261.473 1119.11 260.96C1118.57 260.432 1117.87 260.168 1117.02 260.168C1116.15 260.168 1115.45 260.432 1114.91 260.96C1114.36 261.473 1114.09 262.163 1114.09 263.028C1114.09 263.893 1114.36 264.59 1114.91 265.118C1115.45 265.631 1116.15 265.888 1117.02 265.888ZM1129.01 257.77C1130.6 257.77 1131.91 258.261 1132.92 259.244C1133.93 260.212 1134.44 261.473 1134.44 263.028C1134.44 264.583 1133.93 265.851 1132.92 266.834C1131.91 267.802 1130.6 268.286 1129.01 268.286C1127.39 268.286 1126.08 267.802 1125.07 266.834C1124.06 265.851 1123.55 264.583 1123.55 263.028C1123.55 261.855 1123.86 260.821 1124.47 259.926L1129.36 252.6H1132.24L1128.72 257.77H1129.01ZM1129.01 265.888C1129.86 265.888 1130.55 265.631 1131.1 265.118C1131.64 264.59 1131.91 263.893 1131.91 263.028C1131.91 262.163 1131.64 261.473 1131.1 260.96C1130.55 260.432 1129.86 260.168 1129.01 260.168C1128.14 260.168 1127.44 260.432 1126.89 260.96C1126.35 261.473 1126.08 262.163 1126.08 263.028C1126.08 263.893 1126.35 264.59 1126.89 265.118C1127.44 265.631 1128.14 265.888 1129.01 265.888Z" fill="white"/>
<path d="M1111.01 272.4H1134.99V273.5H1111.01V272.4Z" fill="white"/>
<path d="M1047.13 225.77C1048.72 225.77 1050.03 226.261 1051.04 227.244C1052.05 228.212 1052.56 229.473 1052.56 231.028C1052.56 232.583 1052.05 233.851 1051.04 234.834C1050.03 235.802 1048.72 236.286 1047.13 236.286C1045.51 236.286 1044.2 235.802 1043.19 234.834C1042.18 233.851 1041.67 232.583 1041.67 231.028C1041.67 229.855 1041.98 228.821 1042.59 227.926L1047.48 220.6H1050.36L1046.84 225.77H1047.13ZM1047.13 233.888C1047.98 233.888 1048.67 233.631 1049.22 233.118C1049.76 232.59 1050.03 231.893 1050.03 231.028C1050.03 230.163 1049.76 229.473 1049.22 228.96C1048.67 228.432 1047.98 228.168 1047.13 228.168C1046.26 228.168 1045.56 228.432 1045.01 228.96C1044.47 229.473 1044.2 230.163 1044.2 231.028C1044.2 231.893 1044.47 232.59 1045.01 233.118C1045.56 233.631 1046.26 233.888 1047.13 233.888ZM1058.94 226.408C1060.41 226.408 1061.65 226.848 1062.66 227.728C1063.67 228.593 1064.18 229.796 1064.18 231.336C1064.18 232.876 1063.66 234.086 1062.62 234.966C1061.58 235.846 1060.3 236.286 1058.79 236.286C1057.57 236.286 1056.49 236.007 1055.55 235.45C1054.62 234.878 1053.95 234.057 1053.55 232.986L1055.73 231.732C1056.14 233.125 1057.16 233.822 1058.79 233.822C1059.65 233.822 1060.34 233.602 1060.86 233.162C1061.38 232.707 1061.65 232.099 1061.65 231.336C1061.65 230.573 1061.39 229.972 1060.88 229.532C1060.37 229.092 1059.68 228.872 1058.83 228.872H1054.34L1054.94 220.6H1063.52V222.976H1057.27L1057.01 226.408H1058.94Z" fill="white"/>
<path d="M1041.12 240.4H1064.88V241.5H1041.12V240.4Z" fill="white"/>
<path d="M974.024 216.77C975.622 216.77 976.928 217.261 977.94 218.244C978.952 219.212 979.458 220.473 979.458 222.028C979.458 223.583 978.952 224.851 977.94 225.834C976.928 226.802 975.622 227.286 974.024 227.286C972.41 227.286 971.098 226.802 970.086 225.834C969.074 224.851 968.568 223.583 968.568 222.028C968.568 220.855 968.876 219.821 969.492 218.926L974.376 211.6H977.258L973.738 216.77H974.024ZM974.024 224.888C974.874 224.888 975.571 224.631 976.114 224.118C976.656 223.59 976.928 222.893 976.928 222.028C976.928 221.163 976.656 220.473 976.114 219.96C975.571 219.432 974.874 219.168 974.024 219.168C973.158 219.168 972.454 219.432 971.912 219.96C971.369 220.473 971.098 221.163 971.098 222.028C971.098 222.893 971.369 223.59 971.912 224.118C972.454 224.631 973.158 224.888 974.024 224.888ZM992.607 221.874V224.228H990.847V227H988.295V224.228H980.727V221.874L986.029 211.6H988.779L983.477 221.874H988.295V217.87H990.847V221.874H992.607Z" fill="white"/>
<path d="M968.018 231.4H992.981V232.5H968.018V231.4Z" fill="white"/>
<path d="M904.125 210.77C905.724 210.77 907.029 211.261 908.041 212.244C909.053 213.212 909.559 214.473 909.559 216.028C909.559 217.583 909.053 218.851 908.041 219.834C907.029 220.802 905.724 221.286 904.125 221.286C902.512 221.286 901.199 220.802 900.187 219.834C899.175 218.851 898.669 217.583 898.669 216.028C898.669 214.855 898.977 213.821 899.593 212.926L904.477 205.6H907.359L903.839 210.77H904.125ZM904.125 218.888C904.976 218.888 905.672 218.631 906.215 218.118C906.758 217.59 907.029 216.893 907.029 216.028C907.029 215.163 906.758 214.473 906.215 213.96C905.672 213.432 904.976 213.168 904.125 213.168C903.26 213.168 902.556 213.432 902.013 213.96C901.47 214.473 901.199 215.163 901.199 216.028C901.199 216.893 901.47 217.59 902.013 218.118C902.556 218.631 903.26 218.888 904.125 218.888ZM917.348 211.892C918.463 212.156 919.365 212.677 920.054 213.454C920.758 214.217 921.11 215.177 921.11 216.336C921.11 217.876 920.589 219.086 919.548 219.966C918.507 220.846 917.231 221.286 915.72 221.286C914.547 221.286 913.491 221.015 912.552 220.472C911.628 219.929 910.961 219.137 910.55 218.096L912.706 216.842C913.161 218.162 914.165 218.822 915.72 218.822C916.6 218.822 917.297 218.602 917.81 218.162C918.323 217.707 918.58 217.099 918.58 216.336C918.58 215.573 918.323 214.972 917.81 214.532C917.297 214.092 916.6 213.872 915.72 213.872H915.148L914.136 212.354L917.458 207.976H911.012V205.6H920.472V207.756L917.348 211.892Z" fill="white"/>
<path d="M898.119 225.4H921.88V226.5H898.119V225.4Z" fill="white"/>
<path d="M833.351 203.77C834.949 203.77 836.255 204.261 837.267 205.244C838.279 206.212 838.785 207.473 838.785 209.028C838.785 210.583 838.279 211.851 837.267 212.834C836.255 213.802 834.949 214.286 833.351 214.286C831.737 214.286 830.425 213.802 829.413 212.834C828.401 211.851 827.895 210.583 827.895 209.028C827.895 207.855 828.203 206.821 828.819 205.926L833.703 198.6H836.585L833.065 203.77H833.351ZM833.351 211.888C834.201 211.888 834.898 211.631 835.441 211.118C835.983 210.59 836.255 209.893 836.255 209.028C836.255 208.163 835.983 207.473 835.441 206.96C834.898 206.432 834.201 206.168 833.351 206.168C832.485 206.168 831.781 206.432 831.239 206.96C830.696 207.473 830.425 208.163 830.425 209.028C830.425 209.893 830.696 210.59 831.239 211.118C831.781 211.631 832.485 211.888 833.351 211.888ZM839.693 214V212.02L845.061 206.542C846.366 205.237 847.019 204.107 847.019 203.154C847.019 202.406 846.791 201.827 846.337 201.416C845.897 200.991 845.332 200.778 844.643 200.778C843.352 200.778 842.399 201.416 841.783 202.692L839.649 201.438C840.133 200.411 840.815 199.634 841.695 199.106C842.575 198.578 843.55 198.314 844.621 198.314C845.97 198.314 847.129 198.739 848.097 199.59C849.065 200.441 849.549 201.599 849.549 203.066C849.549 204.635 848.676 206.307 846.931 208.082L843.455 211.558H849.835V214H839.693Z" fill="white"/>
<path d="M827.345 218.4H850.649V219.5H827.345V218.4Z" fill="white"/>
<path d="M765.36 195.77C766.958 195.77 768.264 196.261 769.276 197.244C770.288 198.212 770.794 199.473 770.794 201.028C770.794 202.583 770.288 203.851 769.276 204.834C768.264 205.802 766.958 206.286 765.36 206.286C763.746 206.286 762.434 205.802 761.422 204.834C760.41 203.851 759.904 202.583 759.904 201.028C759.904 199.855 760.212 198.821 760.828 197.926L765.712 190.6H768.594L765.074 195.77H765.36ZM765.36 203.888C766.21 203.888 766.907 203.631 767.45 203.118C767.992 202.59 768.264 201.893 768.264 201.028C768.264 200.163 767.992 199.473 767.45 198.96C766.907 198.432 766.21 198.168 765.36 198.168C764.494 198.168 763.79 198.432 763.248 198.96C762.705 199.473 762.434 200.163 762.434 201.028C762.434 201.893 762.705 202.59 763.248 203.118C763.79 203.631 764.494 203.888 765.36 203.888ZM774.795 190.6H776.995V206H774.465V193.306L771.363 194.186L770.747 192.03L774.795 190.6Z" fill="white"/>
<path d="M759.354 210.4H778.645V211.5H759.354V210.4Z" fill="white"/>
<path d="M691.083 186.77C692.682 186.77 693.987 187.261 694.999 188.244C696.011 189.212 696.517 190.473 696.517 192.028C696.517 193.583 696.011 194.851 694.999 195.834C693.987 196.802 692.682 197.286 691.083 197.286C689.47 197.286 688.157 196.802 687.145 195.834C686.133 194.851 685.627 193.583 685.627 192.028C685.627 190.855 685.935 189.821 686.551 188.926L691.435 181.6H694.317L690.797 186.77H691.083ZM691.083 194.888C691.934 194.888 692.63 194.631 693.173 194.118C693.716 193.59 693.987 192.893 693.987 192.028C693.987 191.163 693.716 190.473 693.173 189.96C692.63 189.432 691.934 189.168 691.083 189.168C690.218 189.168 689.514 189.432 688.971 189.96C688.428 190.473 688.157 191.163 688.157 192.028C688.157 192.893 688.428 193.59 688.971 194.118C689.514 194.631 690.218 194.888 691.083 194.888ZM708.439 195.108C707.383 196.56 705.902 197.286 703.995 197.286C702.089 197.286 700.6 196.56 699.529 195.108C698.473 193.656 697.945 191.72 697.945 189.3C697.945 186.88 698.473 184.944 699.529 183.492C700.6 182.04 702.089 181.314 703.995 181.314C705.902 181.314 707.383 182.04 708.439 183.492C709.51 184.944 710.045 186.88 710.045 189.3C710.045 191.72 709.51 193.656 708.439 195.108ZM703.995 194.822C705.139 194.822 706.012 194.345 706.613 193.392C707.215 192.439 707.515 191.075 707.515 189.3C707.515 187.525 707.215 186.161 706.613 185.208C706.012 184.255 705.139 183.778 703.995 183.778C702.866 183.778 701.993 184.255 701.377 185.208C700.776 186.161 700.475 187.525 700.475 189.3C700.475 191.075 700.776 192.439 701.377 193.392C701.993 194.345 702.866 194.822 703.995 194.822Z" fill="white"/>
<path d="M685.077 201.4H710.925V202.5H685.077V201.4Z" fill="white"/>
<path d="M549.39 173.408C550.857 173.408 552.096 173.848 553.108 174.728C554.12 175.593 554.626 176.796 554.626 178.336C554.626 179.876 554.105 181.086 553.064 181.966C552.023 182.846 550.747 183.286 549.236 183.286C548.019 183.286 546.941 183.007 546.002 182.45C545.063 181.878 544.396 181.057 544 179.986L546.178 178.732C546.589 180.125 547.608 180.822 549.236 180.822C550.101 180.822 550.791 180.602 551.304 180.162C551.832 179.707 552.096 179.099 552.096 178.336C552.096 177.573 551.839 176.972 551.326 176.532C550.813 176.092 550.131 175.872 549.28 175.872H544.792L545.386 167.6H553.966V169.976H547.718L547.454 173.408H549.39ZM564.634 174.992C566.145 175.828 566.9 177.075 566.9 178.732C566.9 180.14 566.409 181.255 565.426 182.076C564.443 182.883 563.138 183.286 561.51 183.286C559.882 183.286 558.569 182.883 557.572 182.076C556.589 181.255 556.098 180.14 556.098 178.732C556.098 177.94 556.296 177.221 556.692 176.576C557.088 175.916 557.645 175.388 558.364 174.992C557.205 174.229 556.626 173.144 556.626 171.736C556.626 170.328 557.095 169.243 558.034 168.48C558.973 167.703 560.131 167.314 561.51 167.314C562.874 167.314 564.025 167.703 564.964 168.48C565.917 169.243 566.394 170.328 566.394 171.736C566.394 173.144 565.807 174.229 564.634 174.992ZM561.51 169.712C560.821 169.712 560.256 169.895 559.816 170.262C559.376 170.629 559.156 171.157 559.156 171.846C559.156 172.506 559.376 173.027 559.816 173.408C560.271 173.789 560.835 173.98 561.51 173.98C562.17 173.98 562.727 173.789 563.182 173.408C563.637 173.027 563.864 172.506 563.864 171.846C563.864 171.157 563.637 170.629 563.182 170.262C562.742 169.895 562.185 169.712 561.51 169.712ZM561.51 180.888C562.361 180.888 563.05 180.683 563.578 180.272C564.106 179.847 564.37 179.253 564.37 178.49C564.37 177.727 564.106 177.141 563.578 176.73C563.05 176.305 562.361 176.092 561.51 176.092C560.645 176.092 559.948 176.305 559.42 176.73C558.892 177.141 558.628 177.727 558.628 178.49C558.628 179.253 558.892 179.847 559.42 180.272C559.948 180.683 560.645 180.888 561.51 180.888Z" fill="white"/>
<path d="M543.34 187.4H567.67V188.5H543.34V187.4Z" fill="white"/>
<path d="M549.545 102.6H559.335V104.8L553.923 118H551.261L556.585 105.02H549.545V102.6ZM560.33 102.6H570.12V104.8L564.708 118H562.046L567.37 105.02H560.33V102.6Z" fill="white"/>
<path d="M549.215 122.4H570.78V123.5H549.215V122.4Z" fill="white"/>
<path d="M470.486 97.6H480.276V99.8L474.864 113H472.202L477.526 100.02H470.486V97.6ZM489.818 104.992C491.328 105.828 492.084 107.075 492.084 108.732C492.084 110.14 491.592 111.255 490.61 112.076C489.627 112.883 488.322 113.286 486.694 113.286C485.066 113.286 483.753 112.883 482.756 112.076C481.773 111.255 481.282 110.14 481.282 108.732C481.282 107.94 481.48 107.221 481.876 106.576C482.272 105.916 482.829 105.388 483.548 104.992C482.389 104.229 481.81 103.144 481.81 101.736C481.81 100.328 482.279 99.2427 483.218 98.48C484.156 97.7027 485.315 97.314 486.694 97.314C488.058 97.314 489.209 97.7027 490.148 98.48C491.101 99.2427 491.578 100.328 491.578 101.736C491.578 103.144 490.991 104.229 489.818 104.992ZM486.694 99.712C486.004 99.712 485.44 99.8953 485 100.262C484.56 100.629 484.34 101.157 484.34 101.846C484.34 102.506 484.56 103.027 485 103.408C485.454 103.789 486.019 103.98 486.694 103.98C487.354 103.98 487.911 103.789 488.366 103.408C488.82 103.027 489.048 102.506 489.048 101.846C489.048 101.157 488.82 100.629 488.366 100.262C487.926 99.8953 487.368 99.712 486.694 99.712ZM486.694 110.888C487.544 110.888 488.234 110.683 488.762 110.272C489.29 109.847 489.554 109.253 489.554 108.49C489.554 107.727 489.29 107.141 488.762 106.73C488.234 106.305 487.544 106.092 486.694 106.092C485.828 106.092 485.132 106.305 484.604 106.73C484.076 107.141 483.812 107.727 483.812 108.49C483.812 109.253 484.076 109.847 484.604 110.272C485.132 110.683 485.828 110.888 486.694 110.888Z" fill="white"/>
<path d="M470.156 117.4H492.854V118.5H470.156V117.4Z" fill="white"/>
<path d="M471.271 167.408C472.737 167.408 473.977 167.848 474.989 168.728C476.001 169.593 476.507 170.796 476.507 172.336C476.507 173.876 475.986 175.086 474.945 175.966C473.903 176.846 472.627 177.286 471.117 177.286C469.899 177.286 468.821 177.007 467.883 176.45C466.944 175.878 466.277 175.057 465.881 173.986L468.059 172.732C468.469 174.125 469.489 174.822 471.117 174.822C471.982 174.822 472.671 174.602 473.185 174.162C473.713 173.707 473.977 173.099 473.977 172.336C473.977 171.573 473.72 170.972 473.207 170.532C472.693 170.092 472.011 169.872 471.161 169.872H466.673L467.267 161.6H475.847V163.976H469.599L469.335 167.408H471.271ZM477.324 161.6H487.114V163.8L481.702 177H479.04L484.364 164.02H477.324V161.6Z" fill="white"/>
<path d="M465.221 181.4H487.774V182.5H465.221V181.4Z" fill="white"/>
<path d="M393.062 156.408C394.528 156.408 395.768 156.848 396.78 157.728C397.792 158.593 398.298 159.796 398.298 161.336C398.298 162.876 397.777 164.086 396.736 164.966C395.694 165.846 394.418 166.286 392.908 166.286C391.69 166.286 390.612 166.007 389.674 165.45C388.735 164.878 388.068 164.057 387.672 162.986L389.85 161.732C390.26 163.125 391.28 163.822 392.908 163.822C393.773 163.822 394.462 163.602 394.976 163.162C395.504 162.707 395.768 162.099 395.768 161.336C395.768 160.573 395.511 159.972 394.998 159.532C394.484 159.092 393.802 158.872 392.952 158.872H388.464L389.058 150.6H397.638V152.976H391.39L391.126 156.408H393.062ZM405.006 155.77C406.605 155.77 407.91 156.261 408.922 157.244C409.934 158.212 410.44 159.473 410.44 161.028C410.44 162.583 409.934 163.851 408.922 164.834C407.91 165.802 406.605 166.286 405.006 166.286C403.393 166.286 402.08 165.802 401.068 164.834C400.056 163.851 399.55 162.583 399.55 161.028C399.55 159.855 399.858 158.821 400.474 157.926L405.358 150.6H408.24L404.72 155.77H405.006ZM405.006 163.888C405.857 163.888 406.553 163.631 407.096 163.118C407.639 162.59 407.91 161.893 407.91 161.028C407.91 160.163 407.639 159.473 407.096 158.96C406.553 158.432 405.857 158.168 405.006 158.168C404.141 158.168 403.437 158.432 402.894 158.96C402.351 159.473 402.08 160.163 402.08 161.028C402.08 161.893 402.351 162.59 402.894 163.118C403.437 163.631 404.141 163.888 405.006 163.888Z" fill="white"/>
<path d="M387.012 170.4H410.99V171.5H387.012V170.4Z" fill="white"/>
<path d="M390.33 92.6H400.12V94.8L394.708 108H392.046L397.37 95.02H390.33V92.6ZM412.225 97.572C412.225 98.7453 411.917 99.7793 411.301 100.674L406.439 108H403.535L407.055 102.83H406.791C405.192 102.83 403.88 102.346 402.853 101.378C401.841 100.395 401.335 99.1267 401.335 97.572C401.335 96.0173 401.841 94.756 402.853 93.788C403.88 92.8053 405.192 92.314 406.791 92.314C408.39 92.314 409.695 92.8053 410.707 93.788C411.719 94.756 412.225 96.0173 412.225 97.572ZM403.865 97.572C403.865 98.4227 404.136 99.112 404.679 99.64C405.236 100.168 405.94 100.432 406.791 100.432C407.642 100.432 408.338 100.175 408.881 99.662C409.424 99.134 409.695 98.4373 409.695 97.572C409.695 96.7067 409.424 96.0173 408.881 95.504C408.338 94.976 407.642 94.712 406.791 94.712C405.94 94.712 405.236 94.976 404.679 95.504C404.136 96.0173 403.865 96.7067 403.865 97.572Z" fill="white"/>
<path d="M390 112.4H412.775V113.5H390V112.4Z" fill="white"/>
<path d="M290.012 264.77C291.611 264.77 292.916 265.261 293.928 266.244C294.94 267.212 295.446 268.473 295.446 270.028C295.446 271.583 294.94 272.851 293.928 273.834C292.916 274.802 291.611 275.286 290.012 275.286C288.399 275.286 287.086 274.802 286.074 273.834C285.062 272.851 284.556 271.583 284.556 270.028C284.556 268.855 284.864 267.821 285.48 266.926L290.364 259.6H293.246L289.726 264.77H290.012ZM290.012 272.888C290.863 272.888 291.559 272.631 292.102 272.118C292.645 271.59 292.916 270.893 292.916 270.028C292.916 269.163 292.645 268.473 292.102 267.96C291.559 267.432 290.863 267.168 290.012 267.168C289.147 267.168 288.443 267.432 287.9 267.96C287.357 268.473 287.086 269.163 287.086 270.028C287.086 270.893 287.357 271.59 287.9 272.118C288.443 272.631 289.147 272.888 290.012 272.888Z" fill="white"/>
<path d="M284.006 279.4H295.996V280.5H284.006V279.4Z" fill="white"/>
<path d="M211.056 252.408C212.523 252.408 213.762 252.848 214.774 253.728C215.786 254.593 216.292 255.796 216.292 257.336C216.292 258.876 215.771 260.086 214.73 260.966C213.689 261.846 212.413 262.286 210.902 262.286C209.685 262.286 208.607 262.007 207.668 261.45C206.729 260.878 206.062 260.057 205.666 258.986L207.844 257.732C208.255 259.125 209.274 259.822 210.902 259.822C211.767 259.822 212.457 259.602 212.97 259.162C213.498 258.707 213.762 258.099 213.762 257.336C213.762 256.573 213.505 255.972 212.992 255.532C212.479 255.092 211.797 254.872 210.946 254.872H206.458L207.052 246.6H215.632V248.976H209.384L209.12 252.408H211.056Z" fill="white"/>
<path d="M205.006 266.4H216.996V267.5H205.006V266.4Z" fill="white"/>
<path d="M133.505 248.874V251.228H131.745V254H129.193V251.228H121.625V248.874L126.927 238.6H129.677L124.375 248.874H129.193V244.87H131.745V248.874H133.505Z" fill="white"/>
<path d="M121.119 258.4H133.879V259.5H121.119V258.4Z" fill="white"/>
<path d="M34.389 238.892C35.5037 239.156 36.4057 239.677 37.095 240.454C37.799 241.217 38.151 242.177 38.151 243.336C38.151 244.876 37.6303 246.086 36.589 246.966C35.5477 247.846 34.2717 248.286 32.761 248.286C31.5877 248.286 30.5317 248.015 29.593 247.472C28.669 246.929 28.0017 246.137 27.591 245.096L29.747 243.842C30.2017 245.162 31.2063 245.822 32.761 245.822C33.641 245.822 34.3377 245.602 34.851 245.162C35.3643 244.707 35.621 244.099 35.621 243.336C35.621 242.573 35.3643 241.972 34.851 241.532C34.3377 241.092 33.641 240.872 32.761 240.872H32.189L31.177 239.354L34.499 234.976H28.053V232.6H37.513V234.756L34.389 238.892Z" fill="white"/>
<path d="M27.041 252.4H38.921V253.5H27.041V252.4Z" fill="white"/>
</svg>
