<svg width="1431" height="480" viewBox="0 0 1431 480" fill="none" xmlns="http://www.w3.org/2000/svg">
<path d="M50.688 380.792C50.688 381.941 50.3865 382.953 49.7836 383.829L45.0242 391H42.1815L45.6272 385.939H45.3688C43.8039 385.939 42.5189 385.465 41.5139 384.518C40.5233 383.556 40.028 382.314 40.028 380.792C40.028 379.27 40.5233 378.036 41.5139 377.088C42.5189 376.126 43.8039 375.645 45.3688 375.645C46.9337 375.645 48.2115 376.126 49.2021 377.088C50.1927 378.036 50.688 379.27 50.688 380.792ZM42.5046 380.792C42.5046 381.625 42.7702 382.3 43.3014 382.817C43.8469 383.333 44.5361 383.592 45.3688 383.592C46.2015 383.592 46.8834 383.341 47.4146 382.838C47.9459 382.321 48.2115 381.639 48.2115 380.792C48.2115 379.945 47.9459 379.27 47.4146 378.768C46.8834 378.251 46.2015 377.993 45.3688 377.993C44.5361 377.993 43.8469 378.251 43.3014 378.768C42.7702 379.27 42.5046 379.945 42.5046 380.792ZM57.7656 382.084C58.8568 382.343 59.7397 382.852 60.4145 383.613C61.1036 384.36 61.4482 385.3 61.4482 386.434C61.4482 387.942 60.9385 389.126 59.9192 389.988C58.8998 390.849 57.6508 391.28 56.172 391.28C55.0235 391.28 53.9898 391.014 53.0709 390.483C52.1664 389.952 51.5132 389.177 51.1112 388.157L53.2217 386.93C53.6667 388.222 54.6502 388.868 56.172 388.868C57.0334 388.868 57.7154 388.653 58.2179 388.222C58.7204 387.777 58.9716 387.181 58.9716 386.434C58.9716 385.688 58.7204 385.099 58.2179 384.669C57.7154 384.238 57.0334 384.023 56.172 384.023H55.6121L54.6215 382.537L57.8733 378.251H51.5634V375.925H60.8237V378.036L57.7656 382.084Z" fill="white"/>
<path d="M199.04 282.925H201.194V298H198.717V285.574L195.681 286.435L195.078 284.325L199.04 282.925ZM207.053 282.925H209.206V298H206.73V285.574L203.693 286.435L203.09 284.325L207.053 282.925ZM219.933 290.161C221.411 290.979 222.151 292.2 222.151 293.822C222.151 295.2 221.67 296.292 220.708 297.096C219.746 297.885 218.468 298.28 216.875 298.28C215.281 298.28 213.996 297.885 213.02 297.096C212.058 296.292 211.577 295.2 211.577 293.822C211.577 293.047 211.771 292.343 212.158 291.712C212.546 291.066 213.091 290.549 213.795 290.161C212.661 289.415 212.094 288.352 212.094 286.974C212.094 285.596 212.553 284.533 213.472 283.787C214.391 283.026 215.525 282.645 216.875 282.645C218.21 282.645 219.337 283.026 220.256 283.787C221.189 284.533 221.655 285.596 221.655 286.974C221.655 288.352 221.081 289.415 219.933 290.161ZM216.875 284.993C216.2 284.993 215.647 285.172 215.216 285.531C214.786 285.89 214.57 286.407 214.57 287.082C214.57 287.728 214.786 288.237 215.216 288.611C215.661 288.984 216.214 289.17 216.875 289.17C217.521 289.17 218.066 288.984 218.511 288.611C218.956 288.237 219.179 287.728 219.179 287.082C219.179 286.407 218.956 285.89 218.511 285.531C218.081 285.172 217.535 284.993 216.875 284.993ZM216.875 295.933C217.707 295.933 218.382 295.732 218.899 295.33C219.416 294.913 219.674 294.332 219.674 293.585C219.674 292.839 219.416 292.264 218.899 291.862C218.382 291.446 217.707 291.238 216.875 291.238C216.027 291.238 215.346 291.446 214.829 291.862C214.312 292.264 214.053 292.839 214.053 293.585C214.053 294.332 214.312 294.913 214.829 295.33C215.346 295.732 216.027 295.933 216.875 295.933Z" fill="white"/>
<path d="M219.314 410.792C219.314 411.941 219.012 412.953 218.409 413.829L213.65 421H210.807L214.253 415.939H213.994C212.429 415.939 211.144 415.465 210.139 414.518C209.149 413.556 208.654 412.314 208.654 410.792C208.654 409.27 209.149 408.036 210.139 407.088C211.144 406.126 212.429 405.645 213.994 405.645C215.559 405.645 216.837 406.126 217.828 407.088C218.818 408.036 219.314 409.27 219.314 410.792ZM211.13 410.792C211.13 411.625 211.396 412.3 211.927 412.817C212.473 413.333 213.162 413.592 213.994 413.592C214.827 413.592 215.509 413.341 216.04 412.838C216.571 412.321 216.837 411.639 216.837 410.792C216.837 409.945 216.571 409.27 216.04 408.768C215.509 408.251 214.827 407.993 213.994 407.993C213.162 407.993 212.473 408.251 211.927 408.768C211.396 409.27 211.13 409.945 211.13 410.792ZM231.554 415.982V418.287H229.831V421H227.333V418.287H219.925V415.982L225.115 405.925H227.807L222.617 415.982H227.333V412.063H229.831V415.982H231.554Z" fill="white"/>
<path d="M410.02 382.792C410.02 383.941 409.718 384.953 409.115 385.829L404.356 393H401.513L404.959 387.939H404.701C403.136 387.939 401.851 387.465 400.846 386.518C399.855 385.556 399.36 384.314 399.36 382.792C399.36 381.27 399.855 380.036 400.846 379.088C401.851 378.126 403.136 377.645 404.701 377.645C406.265 377.645 407.543 378.126 408.534 379.088C409.524 380.036 410.02 381.27 410.02 382.792ZM401.836 382.792C401.836 383.625 402.102 384.3 402.633 384.817C403.179 385.333 403.868 385.592 404.701 385.592C405.533 385.592 406.215 385.341 406.746 384.838C407.278 384.321 407.543 383.639 407.543 382.792C407.543 381.945 407.278 381.27 406.746 380.768C406.215 380.251 405.533 379.993 404.701 379.993C403.868 379.993 403.179 380.251 402.633 380.768C402.102 381.27 401.836 381.945 401.836 382.792ZM416.058 383.611C417.494 383.611 418.707 384.041 419.698 384.903C420.688 385.75 421.184 386.927 421.184 388.434C421.184 389.942 420.674 391.126 419.655 391.988C418.635 392.849 417.386 393.28 415.907 393.28C414.716 393.28 413.661 393.007 412.742 392.462C411.823 391.902 411.17 391.098 410.782 390.05L412.914 388.822C413.316 390.186 414.314 390.868 415.907 390.868C416.754 390.868 417.429 390.653 417.932 390.222C418.449 389.777 418.707 389.181 418.707 388.434C418.707 387.688 418.456 387.099 417.953 386.669C417.451 386.238 416.783 386.023 415.95 386.023H411.557L412.139 377.925H420.538V380.251H414.421L414.163 383.611H416.058Z" fill="white"/>
<path d="M311.797 242.925H313.951V258H311.474V245.574L308.438 246.435L307.835 244.325L311.797 242.925ZM319.81 242.925H321.964V258H319.487V245.574L316.45 246.435L315.847 244.325L319.81 242.925ZM323.903 242.925H333.487V245.079L328.189 258H325.583L330.795 245.294H323.903V242.925Z" fill="white"/>
<path d="M419.381 209.925H421.535V225H419.058V212.574L416.022 213.435L415.419 211.325L419.381 209.925ZM427.394 209.925H429.548V225H427.071V212.574L424.034 213.435L423.431 211.325L427.394 209.925ZM437.043 214.986C438.608 214.986 439.886 215.467 440.877 216.429C441.867 217.376 442.363 218.611 442.363 220.133C442.363 221.655 441.867 222.897 440.877 223.859C439.886 224.806 438.608 225.28 437.043 225.28C435.464 225.28 434.179 224.806 433.189 223.859C432.198 222.897 431.703 221.655 431.703 220.133C431.703 218.984 432.004 217.972 432.607 217.096L437.388 209.925H440.209L436.763 214.986H437.043ZM437.043 222.933C437.876 222.933 438.558 222.681 439.089 222.179C439.62 221.662 439.886 220.98 439.886 220.133C439.886 219.286 439.62 218.611 439.089 218.109C438.558 217.592 437.876 217.333 437.043 217.333C436.196 217.333 435.507 217.592 434.976 218.109C434.445 218.611 434.179 219.286 434.179 220.133C434.179 220.98 434.445 221.662 434.976 222.179C435.507 222.681 436.196 222.933 437.043 222.933Z" fill="white"/>
<path d="M530.708 168.925H532.861V184H530.385V171.574L527.348 172.435L526.745 170.325L530.708 168.925ZM538.721 168.925H540.874V184H538.398V171.574L535.361 172.435L534.758 170.325L538.721 168.925ZM548.413 174.611C549.849 174.611 551.062 175.041 552.053 175.903C553.043 176.75 553.539 177.927 553.539 179.434C553.539 180.942 553.029 182.126 552.01 182.988C550.99 183.849 549.741 184.28 548.262 184.28C547.071 184.28 546.015 184.007 545.097 183.462C544.178 182.902 543.525 182.098 543.137 181.05L545.269 179.822C545.671 181.186 546.669 181.868 548.262 181.868C549.109 181.868 549.784 181.653 550.287 181.222C550.804 180.777 551.062 180.181 551.062 179.434C551.062 178.688 550.811 178.099 550.308 177.669C549.806 177.238 549.138 177.023 548.305 177.023H543.912L544.494 168.925H552.892V171.251H546.776L546.518 174.611H548.413Z" fill="white"/>
<path d="M643.849 137.925H646.002V153H643.526V140.574L640.489 141.435L639.886 139.325L643.849 137.925ZM651.862 137.925H654.015V153H651.539V140.574L648.502 141.435L647.899 139.325L651.862 137.925ZM667.756 147.982V150.287H666.033V153H663.535V150.287H656.127V147.982L661.317 137.925H664.009L658.819 147.982H663.535V144.063H666.033V147.982H667.756Z" fill="white"/>
<path d="M790.433 202.925H792.587V218H790.11V205.574L787.074 206.435L786.471 204.325L790.433 202.925ZM798.446 202.925H800.6V218H798.123V205.574L795.087 206.435L794.484 204.325L798.446 202.925ZM809.409 209.084C810.5 209.343 811.383 209.852 812.058 210.613C812.747 211.36 813.092 212.3 813.092 213.434C813.092 214.942 812.582 216.126 811.563 216.988C810.543 217.849 809.294 218.28 807.815 218.28C806.667 218.28 805.633 218.014 804.714 217.483C803.81 216.952 803.157 216.177 802.755 215.157L804.865 213.93C805.31 215.222 806.294 215.868 807.815 215.868C808.677 215.868 809.359 215.653 809.861 215.222C810.364 214.777 810.615 214.181 810.615 213.434C810.615 212.688 810.364 212.099 809.861 211.669C809.359 211.238 808.677 211.023 807.815 211.023H807.256L806.265 209.537L809.517 205.251H803.207V202.925H812.467V205.036L809.409 209.084Z" fill="white"/>
<path d="M984.723 175.925H986.877V191H984.4V178.574L981.364 179.435L980.761 177.325L984.723 175.925ZM992.736 175.925H994.89V191H992.413V178.574L989.377 179.435L988.774 177.325L992.736 175.925ZM1000.75 175.925H1002.9V191H1000.43V178.574L997.389 179.435L996.786 177.325L1000.75 175.925Z" fill="white"/>
<path d="M1174.61 153.925H1176.76V169H1174.28V156.574L1171.25 157.435L1170.64 155.325L1174.61 153.925ZM1189.51 167.148C1188.48 168.569 1187.03 169.28 1185.16 169.28C1183.29 169.28 1181.84 168.569 1180.79 167.148C1179.75 165.727 1179.24 163.831 1179.24 161.463C1179.24 159.094 1179.75 157.199 1180.79 155.777C1181.84 154.356 1183.29 153.645 1185.16 153.645C1187.03 153.645 1188.48 154.356 1189.51 155.777C1190.56 157.199 1191.08 159.094 1191.08 161.463C1191.08 163.831 1190.56 165.727 1189.51 167.148ZM1185.16 166.868C1186.28 166.868 1187.13 166.401 1187.72 165.468C1188.31 164.535 1188.61 163.2 1188.61 161.463C1188.61 159.725 1188.31 158.39 1187.72 157.457C1187.13 156.524 1186.28 156.057 1185.16 156.057C1184.05 156.057 1183.2 156.524 1182.6 157.457C1182.01 158.39 1181.71 159.725 1181.71 161.463C1181.71 163.2 1182.01 164.535 1182.6 165.468C1183.2 166.401 1184.05 166.868 1185.16 166.868ZM1203.14 158.792C1203.14 159.941 1202.84 160.953 1202.23 161.829L1197.48 169H1194.63L1198.08 163.939H1197.82C1196.25 163.939 1194.97 163.465 1193.97 162.518C1192.97 161.556 1192.48 160.314 1192.48 158.792C1192.48 157.27 1192.97 156.036 1193.97 155.088C1194.97 154.126 1196.25 153.645 1197.82 153.645C1199.38 153.645 1200.66 154.126 1201.65 155.088C1202.64 156.036 1203.14 157.27 1203.14 158.792ZM1194.96 158.792C1194.96 159.625 1195.22 160.3 1195.75 160.817C1196.3 161.333 1196.99 161.592 1197.82 161.592C1198.65 161.592 1199.33 161.341 1199.87 160.838C1200.4 160.321 1200.66 159.639 1200.66 158.792C1200.66 157.945 1200.4 157.27 1199.87 156.768C1199.33 156.251 1198.65 155.993 1197.82 155.993C1196.99 155.993 1196.3 156.251 1195.75 156.768C1195.22 157.27 1194.96 157.945 1194.96 158.792Z" fill="white"/>
<path d="M1167.25 71.9252H1169.41V87H1166.93V74.574L1163.89 75.4354L1163.29 73.325L1167.25 71.9252ZM1182.16 85.1479C1181.12 86.5693 1179.67 87.28 1177.81 87.28C1175.94 87.28 1174.48 86.5693 1173.43 85.1479C1172.4 83.7266 1171.88 81.8315 1171.88 79.4626C1171.88 77.0937 1172.4 75.1986 1173.43 73.7772C1174.48 72.3559 1175.94 71.6452 1177.81 71.6452C1179.67 71.6452 1181.12 72.3559 1182.16 73.7772C1183.2 75.1986 1183.73 77.0937 1183.73 79.4626C1183.73 81.8315 1183.2 83.7266 1182.16 85.1479ZM1177.81 84.868C1178.93 84.868 1179.78 84.4014 1180.37 83.4682C1180.96 82.535 1181.25 81.1998 1181.25 79.4626C1181.25 77.7254 1180.96 76.3902 1180.37 75.457C1179.78 74.5238 1178.93 74.0572 1177.81 74.0572C1176.7 74.0572 1175.85 74.5238 1175.24 75.457C1174.65 76.3902 1174.36 77.7254 1174.36 79.4626C1174.36 81.1998 1174.65 82.535 1175.24 83.4682C1175.85 84.4014 1176.7 84.868 1177.81 84.868ZM1193.7 79.1611C1195.18 79.9794 1195.91 81.1998 1195.91 82.8221C1195.91 84.2004 1195.43 85.2915 1194.47 86.0955C1193.51 86.8851 1192.23 87.28 1190.64 87.28C1189.04 87.28 1187.76 86.8851 1186.78 86.0955C1185.82 85.2915 1185.34 84.2004 1185.34 82.8221C1185.34 82.0468 1185.53 81.3433 1185.92 80.7116C1186.31 80.0656 1186.86 79.5487 1187.56 79.1611C1186.42 78.4145 1185.86 77.3521 1185.86 75.9738C1185.86 74.5956 1186.32 73.5331 1187.24 72.7866C1188.15 72.0257 1189.29 71.6452 1190.64 71.6452C1191.97 71.6452 1193.1 72.0257 1194.02 72.7866C1194.95 73.5331 1195.42 74.5956 1195.42 75.9738C1195.42 77.3521 1194.85 78.4145 1193.7 79.1611ZM1190.64 73.9926C1189.96 73.9926 1189.41 74.172 1188.98 74.531C1188.55 74.8899 1188.33 75.4067 1188.33 76.0815C1188.33 76.7276 1188.55 77.2373 1188.98 77.6105C1189.43 77.9838 1189.98 78.1705 1190.64 78.1705C1191.28 78.1705 1191.83 77.9838 1192.28 77.6105C1192.72 77.2373 1192.94 76.7276 1192.94 76.0815C1192.94 75.4067 1192.72 74.8899 1192.28 74.531C1191.84 74.172 1191.3 73.9926 1190.64 73.9926ZM1190.64 84.9326C1191.47 84.9326 1192.15 84.7316 1192.66 84.3296C1193.18 83.9132 1193.44 83.3318 1193.44 82.5852C1193.44 81.8387 1193.18 81.2644 1192.66 80.8624C1192.15 80.446 1191.47 80.2379 1190.64 80.2379C1189.79 80.2379 1189.11 80.446 1188.59 80.8624C1188.08 81.2644 1187.82 81.8387 1187.82 82.5852C1187.82 83.3318 1188.08 83.9132 1188.59 84.3296C1189.11 84.7316 1189.79 84.9326 1190.64 84.9326Z" fill="white"/>
<path d="M1299.59 4.92517H1301.74V20H1299.26V7.57403L1296.23 8.43545L1295.62 6.32497L1299.59 4.92517ZM1314.49 18.1479C1313.46 19.5693 1312.01 20.28 1310.14 20.28C1308.27 20.28 1306.82 19.5693 1305.77 18.1479C1304.73 16.7266 1304.22 14.8315 1304.22 12.4626C1304.22 10.0937 1304.73 8.19856 1305.77 6.77722C1306.82 5.35588 1308.27 4.6452 1310.14 4.6452C1312.01 4.6452 1313.46 5.35588 1314.49 6.77722C1315.54 8.19856 1316.06 10.0937 1316.06 12.4626C1316.06 14.8315 1315.54 16.7266 1314.49 18.1479ZM1310.14 17.868C1311.26 17.868 1312.11 17.4014 1312.7 16.4682C1313.29 15.535 1313.59 14.1998 1313.59 12.4626C1313.59 10.7254 1313.29 9.39019 1312.7 8.45698C1312.11 7.52378 1311.26 7.05718 1310.14 7.05718C1309.03 7.05718 1308.18 7.52378 1307.58 8.45698C1306.99 9.39019 1306.69 10.7254 1306.69 12.4626C1306.69 14.1998 1306.99 15.535 1307.58 16.4682C1308.18 17.4014 1309.03 17.868 1310.14 17.868ZM1322.8 9.986C1324.37 9.986 1325.64 10.467 1326.63 11.4289C1327.62 12.3764 1328.12 13.6111 1328.12 15.133C1328.12 16.6548 1327.62 17.8967 1326.63 18.8586C1325.64 19.8062 1324.37 20.28 1322.8 20.28C1321.22 20.28 1319.94 19.8062 1318.95 18.8586C1317.95 17.8967 1317.46 16.6548 1317.46 15.133C1317.46 13.9844 1317.76 12.9723 1318.36 12.0965L1323.14 4.92517H1325.97L1322.52 9.986H1322.8ZM1322.8 17.9326C1323.63 17.9326 1324.32 17.6813 1324.85 17.1789C1325.38 16.662 1325.64 15.98 1325.64 15.133C1325.64 14.2859 1325.38 13.6111 1324.85 13.1086C1324.32 12.5918 1323.63 12.3334 1322.8 12.3334C1321.95 12.3334 1321.26 12.5918 1320.73 13.1086C1320.2 13.6111 1319.94 14.2859 1319.94 15.133C1319.94 15.98 1320.2 16.662 1320.73 17.1789C1321.26 17.6813 1321.95 17.9326 1322.8 17.9326Z" fill="white"/>
<path d="M1381.39 126.925H1383.54V142H1381.06V129.574L1378.03 130.435L1377.42 128.325L1381.39 126.925ZM1396.29 140.148C1395.26 141.569 1393.81 142.28 1391.94 142.28C1390.07 142.28 1388.62 141.569 1387.57 140.148C1386.53 138.727 1386.02 136.831 1386.02 134.463C1386.02 132.094 1386.53 130.199 1387.57 128.777C1388.62 127.356 1390.07 126.645 1391.94 126.645C1393.81 126.645 1395.26 127.356 1396.29 128.777C1397.34 130.199 1397.86 132.094 1397.86 134.463C1397.86 136.831 1397.34 138.727 1396.29 140.148ZM1391.94 139.868C1393.06 139.868 1393.91 139.401 1394.5 138.468C1395.09 137.535 1395.38 136.2 1395.38 134.463C1395.38 132.725 1395.09 131.39 1394.5 130.457C1393.91 129.524 1393.06 129.057 1391.94 129.057C1390.83 129.057 1389.98 129.524 1389.38 130.457C1388.79 131.39 1388.49 132.725 1388.49 134.463C1388.49 136.2 1388.79 137.535 1389.38 138.468C1389.98 139.401 1390.83 139.868 1391.94 139.868ZM1398.62 126.925H1408.21V129.079L1402.91 142H1400.3L1405.51 129.294H1398.62V126.925Z" fill="white"/>
<path d="M1401.64 237.925H1403.79V253H1401.32V240.574L1398.28 241.435L1397.68 239.325L1401.64 237.925ZM1416.54 251.148C1415.51 252.569 1414.06 253.28 1412.19 253.28C1410.33 253.28 1408.87 252.569 1407.82 251.148C1406.79 249.727 1406.27 247.831 1406.27 245.463C1406.27 243.094 1406.79 241.199 1407.82 239.777C1408.87 238.356 1410.33 237.645 1412.19 237.645C1414.06 237.645 1415.51 238.356 1416.54 239.777C1417.59 241.199 1418.11 243.094 1418.11 245.463C1418.11 247.831 1417.59 249.727 1416.54 251.148ZM1412.19 250.868C1413.31 250.868 1414.17 250.401 1414.76 249.468C1415.34 248.535 1415.64 247.2 1415.64 245.463C1415.64 243.725 1415.34 242.39 1414.76 241.457C1414.17 240.524 1413.31 240.057 1412.19 240.057C1411.09 240.057 1410.23 240.524 1409.63 241.457C1409.04 242.39 1408.75 243.725 1408.75 245.463C1408.75 247.2 1409.04 248.535 1409.63 249.468C1410.23 250.401 1411.09 250.868 1412.19 250.868ZM1424.79 243.611C1426.23 243.611 1427.44 244.041 1428.43 244.903C1429.42 245.75 1429.92 246.927 1429.92 248.434C1429.92 249.942 1429.41 251.126 1428.39 251.988C1427.37 252.849 1426.12 253.28 1424.64 253.28C1423.45 253.28 1422.39 253.007 1421.47 252.462C1420.56 251.902 1419.9 251.098 1419.51 250.05L1421.65 248.822C1422.05 250.186 1423.05 250.868 1424.64 250.868C1425.49 250.868 1426.16 250.653 1426.66 250.222C1427.18 249.777 1427.44 249.181 1427.44 248.434C1427.44 247.688 1427.19 247.099 1426.69 246.669C1426.18 246.238 1425.52 246.023 1424.68 246.023H1420.29L1420.87 237.925H1429.27V240.251H1423.15L1422.9 243.611H1424.79Z" fill="white"/>
<path d="M1190.41 281.925H1192.57V297H1190.09V284.574L1187.05 285.435L1186.45 283.325L1190.41 281.925ZM1205.32 295.148C1204.28 296.569 1202.83 297.28 1200.97 297.28C1199.1 297.28 1197.64 296.569 1196.59 295.148C1195.56 293.727 1195.04 291.831 1195.04 289.463C1195.04 287.094 1195.56 285.199 1196.59 283.777C1197.64 282.356 1199.1 281.645 1200.97 281.645C1202.83 281.645 1204.28 282.356 1205.32 283.777C1206.36 285.199 1206.89 287.094 1206.89 289.463C1206.89 291.831 1206.36 293.727 1205.32 295.148ZM1200.97 294.868C1202.09 294.868 1202.94 294.401 1203.53 293.468C1204.12 292.535 1204.41 291.2 1204.41 289.463C1204.41 287.725 1204.12 286.39 1203.53 285.457C1202.94 284.524 1202.09 284.057 1200.97 284.057C1199.86 284.057 1199.01 284.524 1198.4 285.457C1197.81 286.39 1197.52 287.725 1197.52 289.463C1197.52 291.2 1197.81 292.535 1198.4 293.468C1199.01 294.401 1199.86 294.868 1200.97 294.868ZM1208.1 297V295.062L1213.35 289.699C1214.63 288.422 1215.27 287.316 1215.27 286.383C1215.27 285.651 1215.05 285.084 1214.6 284.682C1214.17 284.265 1213.62 284.057 1212.94 284.057C1211.68 284.057 1210.75 284.682 1210.15 285.931L1208.06 284.703C1208.53 283.698 1209.2 282.937 1210.06 282.42C1210.92 281.904 1211.88 281.645 1212.92 281.645C1214.24 281.645 1215.38 282.062 1216.33 282.894C1217.27 283.727 1217.75 284.861 1217.75 286.297C1217.75 287.833 1216.89 289.47 1215.18 291.207L1211.78 294.61H1218.03V297H1208.1Z" fill="white"/>
<path d="M1202.41 363.925H1204.57V379H1202.09V366.574L1199.05 367.435L1198.45 365.325L1202.41 363.925ZM1217.32 377.148C1216.28 378.569 1214.83 379.28 1212.97 379.28C1211.1 379.28 1209.64 378.569 1208.59 377.148C1207.56 375.727 1207.04 373.831 1207.04 371.463C1207.04 369.094 1207.56 367.199 1208.59 365.777C1209.64 364.356 1211.1 363.645 1212.97 363.645C1214.83 363.645 1216.28 364.356 1217.32 365.777C1218.36 367.199 1218.89 369.094 1218.89 371.463C1218.89 373.831 1218.36 375.727 1217.32 377.148ZM1212.97 376.868C1214.09 376.868 1214.94 376.401 1215.53 375.468C1216.12 374.535 1216.41 373.2 1216.41 371.463C1216.41 369.725 1216.12 368.39 1215.53 367.457C1214.94 366.524 1214.09 366.057 1212.97 366.057C1211.86 366.057 1211.01 366.524 1210.4 367.457C1209.81 368.39 1209.52 369.725 1209.52 371.463C1209.52 373.2 1209.81 374.535 1210.4 375.468C1211.01 376.401 1211.86 376.868 1212.97 376.868ZM1226.39 370.084C1227.48 370.343 1228.37 370.852 1229.04 371.613C1229.73 372.36 1230.08 373.3 1230.08 374.434C1230.08 375.942 1229.57 377.126 1228.55 377.988C1227.53 378.849 1226.28 379.28 1224.8 379.28C1223.65 379.28 1222.62 379.014 1221.7 378.483C1220.79 377.952 1220.14 377.177 1219.74 376.157L1221.85 374.93C1222.29 376.222 1223.28 376.868 1224.8 376.868C1225.66 376.868 1226.34 376.653 1226.85 376.222C1227.35 375.777 1227.6 375.181 1227.6 374.434C1227.6 373.688 1227.35 373.099 1226.85 372.669C1226.34 372.238 1225.66 372.023 1224.8 372.023H1224.24L1223.25 370.537L1226.5 366.251H1220.19V363.925H1229.45V366.036L1226.39 370.084Z" fill="white"/>
<path d="M1008.68 389.925H1010.83V405H1008.35V392.574L1005.32 393.435L1004.71 391.325L1008.68 389.925ZM1023.58 403.148C1022.55 404.569 1021.1 405.28 1019.23 405.28C1017.36 405.28 1015.91 404.569 1014.86 403.148C1013.82 401.727 1013.31 399.831 1013.31 397.463C1013.31 395.094 1013.82 393.199 1014.86 391.777C1015.91 390.356 1017.36 389.645 1019.23 389.645C1021.1 389.645 1022.55 390.356 1023.58 391.777C1024.63 393.199 1025.15 395.094 1025.15 397.463C1025.15 399.831 1024.63 401.727 1023.58 403.148ZM1019.23 402.868C1020.35 402.868 1021.2 402.401 1021.79 401.468C1022.38 400.535 1022.68 399.2 1022.68 397.463C1022.68 395.725 1022.38 394.39 1021.79 393.457C1021.2 392.524 1020.35 392.057 1019.23 392.057C1018.12 392.057 1017.27 392.524 1016.67 393.457C1016.08 394.39 1015.78 395.725 1015.78 397.463C1015.78 399.2 1016.08 400.535 1016.67 401.468C1017.27 402.401 1018.12 402.868 1019.23 402.868ZM1029.83 389.925H1031.99V405H1029.51V392.574L1026.47 393.435L1025.87 391.325L1029.83 389.925Z" fill="white"/>
<path d="M811.641 335.792C811.641 336.941 811.34 337.953 810.737 338.829L805.977 346H803.135L806.58 340.939H806.322C804.757 340.939 803.472 340.465 802.467 339.518C801.476 338.556 800.981 337.314 800.981 335.792C800.981 334.27 801.476 333.036 802.467 332.088C803.472 331.126 804.757 330.645 806.322 330.645C807.887 330.645 809.165 331.126 810.155 332.088C811.146 333.036 811.641 334.27 811.641 335.792ZM803.458 335.792C803.458 336.625 803.723 337.3 804.255 337.817C804.8 338.333 805.489 338.592 806.322 338.592C807.155 338.592 807.837 338.341 808.368 337.838C808.899 337.321 809.165 336.639 809.165 335.792C809.165 334.945 808.899 334.27 808.368 333.768C807.837 333.251 807.155 332.993 806.322 332.993C805.489 332.993 804.8 333.251 804.255 333.768C803.723 334.27 803.458 334.945 803.458 335.792ZM821.287 338.161C822.766 338.979 823.506 340.2 823.506 341.822C823.506 343.2 823.025 344.292 822.063 345.096C821.101 345.885 819.823 346.28 818.229 346.28C816.636 346.28 815.351 345.885 814.375 345.096C813.413 344.292 812.932 343.2 812.932 341.822C812.932 341.047 813.126 340.343 813.513 339.712C813.901 339.066 814.446 338.549 815.15 338.161C814.016 337.415 813.449 336.352 813.449 334.974C813.449 333.596 813.908 332.533 814.827 331.787C815.746 331.026 816.88 330.645 818.229 330.645C819.565 330.645 820.692 331.026 821.61 331.787C822.544 332.533 823.01 333.596 823.01 334.974C823.01 336.352 822.436 337.415 821.287 338.161ZM818.229 332.993C817.555 332.993 817.002 333.172 816.571 333.531C816.14 333.89 815.925 334.407 815.925 335.082C815.925 335.728 816.14 336.237 816.571 336.611C817.016 336.984 817.569 337.17 818.229 337.17C818.875 337.17 819.421 336.984 819.866 336.611C820.311 336.237 820.534 335.728 820.534 335.082C820.534 334.407 820.311 333.89 819.866 333.531C819.435 333.172 818.89 332.993 818.229 332.993ZM818.229 343.933C819.062 343.933 819.737 343.732 820.254 343.33C820.771 342.913 821.029 342.332 821.029 341.585C821.029 340.839 820.771 340.264 820.254 339.862C819.737 339.446 819.062 339.238 818.229 339.238C817.382 339.238 816.7 339.446 816.184 339.862C815.667 340.264 815.408 340.839 815.408 341.585C815.408 342.332 815.667 342.913 816.184 343.33C816.7 343.732 817.382 343.933 818.229 343.933Z" fill="white"/>
<path d="M669.331 350.792C669.331 351.941 669.029 352.953 668.426 353.829L663.667 361H660.824L664.27 355.939H664.011C662.446 355.939 661.162 355.465 660.157 354.518C659.166 353.556 658.671 352.314 658.671 350.792C658.671 349.27 659.166 348.036 660.157 347.088C661.162 346.126 662.446 345.645 664.011 345.645C665.576 345.645 666.854 346.126 667.845 347.088C668.835 348.036 669.331 349.27 669.331 350.792ZM661.147 350.792C661.147 351.625 661.413 352.3 661.944 352.817C662.49 353.333 663.179 353.592 664.011 353.592C664.844 353.592 665.526 353.341 666.057 352.838C666.588 352.321 666.854 351.639 666.854 350.792C666.854 349.945 666.588 349.27 666.057 348.768C665.526 348.251 664.844 347.993 664.011 347.993C663.179 347.993 662.49 348.251 661.944 348.768C661.413 349.27 661.147 349.945 661.147 350.792ZM669.98 345.925H679.563V348.079L674.266 361H671.66L676.871 348.294H669.98V345.925Z" fill="white"/>
<path d="M546.02 366.792C546.02 367.941 545.718 368.953 545.115 369.829L540.356 377H537.513L540.959 371.939H540.701C539.136 371.939 537.851 371.465 536.846 370.518C535.855 369.556 535.36 368.314 535.36 366.792C535.36 365.27 535.855 364.036 536.846 363.088C537.851 362.126 539.136 361.645 540.701 361.645C542.265 361.645 543.543 362.126 544.534 363.088C545.524 364.036 546.02 365.27 546.02 366.792ZM537.836 366.792C537.836 367.625 538.102 368.3 538.633 368.817C539.179 369.333 539.868 369.592 540.701 369.592C541.533 369.592 542.215 369.341 542.746 368.838C543.278 368.321 543.543 367.639 543.543 366.792C543.543 365.945 543.278 365.27 542.746 364.768C542.215 364.251 541.533 363.993 540.701 363.993C539.868 363.993 539.179 364.251 538.633 364.768C538.102 365.27 537.836 365.945 537.836 366.792ZM552.015 366.986C553.58 366.986 554.858 367.467 555.848 368.429C556.839 369.376 557.334 370.611 557.334 372.133C557.334 373.655 556.839 374.897 555.848 375.859C554.858 376.806 553.58 377.28 552.015 377.28C550.436 377.28 549.151 376.806 548.16 375.859C547.17 374.897 546.674 373.655 546.674 372.133C546.674 370.984 546.976 369.972 547.579 369.096L552.36 361.925H555.181L551.735 366.986H552.015ZM552.015 374.933C552.848 374.933 553.53 374.681 554.061 374.179C554.592 373.662 554.858 372.98 554.858 372.133C554.858 371.286 554.592 370.611 554.061 370.109C553.53 369.592 552.848 369.333 552.015 369.333C551.168 369.333 550.479 369.592 549.948 370.109C549.416 370.611 549.151 371.286 549.151 372.133C549.151 372.98 549.416 373.662 549.948 374.179C550.479 374.681 551.168 374.933 552.015 374.933Z" fill="white"/>
<path d="M826.26 415.792C826.26 416.941 825.958 417.953 825.355 418.829L820.596 426H817.753L821.199 420.939H820.94C819.375 420.939 818.09 420.465 817.085 419.518C816.095 418.556 815.599 417.314 815.599 415.792C815.599 414.27 816.095 413.036 817.085 412.088C818.09 411.126 819.375 410.645 820.94 410.645C822.505 410.645 823.783 411.126 824.774 412.088C825.764 413.036 826.26 414.27 826.26 415.792ZM818.076 415.792C818.076 416.625 818.342 417.3 818.873 417.817C819.418 418.333 820.108 418.592 820.94 418.592C821.773 418.592 822.455 418.341 822.986 417.838C823.517 417.321 823.783 416.639 823.783 415.792C823.783 414.945 823.517 414.27 822.986 413.768C822.455 413.251 821.773 412.993 820.94 412.993C820.108 412.993 819.418 413.251 818.873 413.768C818.342 414.27 818.076 414.945 818.076 415.792ZM837.995 415.792C837.995 416.941 837.693 417.953 837.09 418.829L832.331 426H829.488L832.934 420.939H832.675C831.111 420.939 829.826 420.465 828.821 419.518C827.83 418.556 827.335 417.314 827.335 415.792C827.335 414.27 827.83 413.036 828.821 412.088C829.826 411.126 831.111 410.645 832.675 410.645C834.24 410.645 835.518 411.126 836.509 412.088C837.499 413.036 837.995 414.27 837.995 415.792ZM829.811 415.792C829.811 416.625 830.077 417.3 830.608 417.817C831.154 418.333 831.843 418.592 832.675 418.592C833.508 418.592 834.19 418.341 834.721 417.838C835.253 417.321 835.518 416.639 835.518 415.792C835.518 414.945 835.253 414.27 834.721 413.768C834.19 413.251 833.508 412.993 832.675 412.993C831.843 412.993 831.154 413.251 830.608 413.768C830.077 414.27 829.811 414.945 829.811 415.792Z" fill="white"/>
<path d="M1000.36 303.925H1002.52V319H1000.04V306.574L997.004 307.435L996.401 305.325L1000.36 303.925ZM1015.27 317.148C1014.23 318.569 1012.78 319.28 1010.92 319.28C1009.05 319.28 1007.59 318.569 1006.55 317.148C1005.51 315.727 1005 313.831 1005 311.463C1005 309.094 1005.51 307.199 1006.55 305.777C1007.59 304.356 1009.05 303.645 1010.92 303.645C1012.78 303.645 1014.23 304.356 1015.27 305.777C1016.32 307.199 1016.84 309.094 1016.84 311.463C1016.84 313.831 1016.32 315.727 1015.27 317.148ZM1010.92 316.868C1012.04 316.868 1012.89 316.401 1013.48 315.468C1014.07 314.535 1014.36 313.2 1014.36 311.463C1014.36 309.725 1014.07 308.39 1013.48 307.457C1012.89 306.524 1012.04 306.057 1010.92 306.057C1009.81 306.057 1008.96 306.524 1008.35 307.457C1007.77 308.39 1007.47 309.725 1007.47 311.463C1007.47 313.2 1007.77 314.535 1008.35 315.468C1008.96 316.401 1009.81 316.868 1010.92 316.868ZM1028.83 317.148C1027.8 318.569 1026.35 319.28 1024.48 319.28C1022.62 319.28 1021.16 318.569 1020.11 317.148C1019.08 315.727 1018.56 313.831 1018.56 311.463C1018.56 309.094 1019.08 307.199 1020.11 305.777C1021.16 304.356 1022.62 303.645 1024.48 303.645C1026.35 303.645 1027.8 304.356 1028.83 305.777C1029.88 307.199 1030.4 309.094 1030.4 311.463C1030.4 313.831 1029.88 315.727 1028.83 317.148ZM1024.48 316.868C1025.6 316.868 1026.46 316.401 1027.05 315.468C1027.63 314.535 1027.93 313.2 1027.93 311.463C1027.93 309.725 1027.63 308.39 1027.05 307.457C1026.46 306.524 1025.6 306.057 1024.48 306.057C1023.38 306.057 1022.52 306.524 1021.92 307.457C1021.33 308.39 1021.04 309.725 1021.04 311.463C1021.04 313.2 1021.33 314.535 1021.92 315.468C1022.52 316.401 1023.38 316.868 1024.48 316.868Z" fill="white"/>
<path d="M1398.71 342.925H1400.86V358H1398.38V345.574L1395.35 346.435L1394.75 344.325L1398.71 342.925ZM1413.61 356.148C1412.58 357.569 1411.13 358.28 1409.26 358.28C1407.4 358.28 1405.94 357.569 1404.89 356.148C1403.86 354.727 1403.34 352.831 1403.34 350.463C1403.34 348.094 1403.86 346.199 1404.89 344.777C1405.94 343.356 1407.4 342.645 1409.26 342.645C1411.13 342.645 1412.58 343.356 1413.61 344.777C1414.66 346.199 1415.18 348.094 1415.18 350.463C1415.18 352.831 1414.66 354.727 1413.61 356.148ZM1409.26 355.868C1410.38 355.868 1411.24 355.401 1411.82 354.468C1412.41 353.535 1412.71 352.2 1412.71 350.463C1412.71 348.725 1412.41 347.39 1411.82 346.457C1411.24 345.524 1410.38 345.057 1409.26 345.057C1408.16 345.057 1407.3 345.524 1406.7 346.457C1406.11 347.39 1405.82 348.725 1405.82 350.463C1405.82 352.2 1406.11 353.535 1406.7 354.468C1407.3 355.401 1408.16 355.868 1409.26 355.868ZM1428.17 352.982V355.287H1426.44V358H1423.95V355.287H1416.54V352.982L1421.73 342.925H1424.42L1419.23 352.982H1423.95V349.063H1426.44V352.982H1428.17Z" fill="white"/>
<path d="M778.549 91.9252H780.703V107H778.226V94.574L775.19 95.4354L774.587 93.325L778.549 91.9252ZM786.562 91.9252H788.716V107H786.239V94.574L783.203 95.4354L782.6 93.325L786.562 91.9252ZM791 107V105.062L796.255 99.6995C797.532 98.4217 798.171 97.3162 798.171 96.383C798.171 95.6508 797.949 95.0837 797.504 94.6817C797.073 94.2654 796.52 94.0572 795.846 94.0572C794.582 94.0572 793.649 94.6817 793.046 95.9308L790.957 94.7032C791.431 93.6983 792.098 92.9373 792.96 92.4205C793.821 91.9036 794.776 91.6452 795.824 91.6452C797.145 91.6452 798.279 92.0616 799.227 92.8943C800.174 93.727 800.648 94.8612 800.648 96.2969C800.648 97.8331 799.794 99.4698 798.085 101.207L794.683 104.61H800.928V107H791Z" fill="white"/>
<path d="M970.447 84.9252H972.601V100H970.124V87.574L967.088 88.4354L966.485 86.325L970.447 84.9252ZM978.46 84.9252H980.614V100H978.137V87.574L975.101 88.4354L974.498 86.325L978.46 84.9252ZM993.364 98.1479C992.33 99.5693 990.88 100.28 989.014 100.28C987.148 100.28 985.69 99.5693 984.642 98.1479C983.609 96.7266 983.092 94.8315 983.092 92.4626C983.092 90.0937 983.609 88.1986 984.642 86.7772C985.69 85.3559 987.148 84.6452 989.014 84.6452C990.88 84.6452 992.33 85.3559 993.364 86.7772C994.412 88.1986 994.936 90.0937 994.936 92.4626C994.936 94.8315 994.412 96.7266 993.364 98.1479ZM989.014 97.868C990.134 97.868 990.988 97.4014 991.577 96.4682C992.165 95.535 992.46 94.1998 992.46 92.4626C992.46 90.7254 992.165 89.3902 991.577 88.457C990.988 87.5238 990.134 87.0572 989.014 87.0572C987.908 87.0572 987.054 87.5238 986.451 88.457C985.863 89.3902 985.568 90.7254 985.568 92.4626C985.568 94.1998 985.863 95.535 986.451 96.4682C987.054 97.4014 987.908 97.868 989.014 97.868Z" fill="white"/>
<g filter="url(#filter0_d_14_38)">
<path d="M15.5636 414.346L47.4998 410.354L51.1846 441.676L35.8307 442.904L36.4449 450.888L6.04416 453.345L3.28048 426.629L16.7919 425.093L15.5636 414.346Z" fill="#C4C4C4"/>
</g>
<g filter="url(#filter1_d_14_38)">
<path d="M18.6344 414.039L47.4998 410.354L49.9563 432.463L34.9095 433.999L35.5237 440.447L26.3113 441.061L27.2325 451.809L6.04415 453.344L3.28046 426.629L19.8627 424.786L18.6344 414.039Z" fill="url(#paint0_linear_14_38)"/>
</g>
<g filter="url(#filter2_d_14_38)">
<path d="M163.431 338.522L193.98 334.647L195.579 346.95L165.03 350.826L163.431 338.522Z" fill="#C4C4C4"/>
</g>
<g filter="url(#filter3_d_14_38)">
<rect x="142" y="310.875" width="30.7936" height="30.7936" transform="rotate(-7.22971 142 310.875)" fill="url(#paint1_linear_14_38)"/>
</g>
<rect x="490.188" y="396.761" width="29.8862" height="29.8862" transform="rotate(-7.22971 490.188 396.761)" fill="#C4C4C4"/>
<g filter="url(#filter4_d_14_38)">
<path d="M500.8 424.952L530.448 421.191L532 433.132L502.351 436.893L500.8 424.952Z" fill="#C4C4C4"/>
</g>
<g filter="url(#filter5_d_14_38)">
<rect x="480" y="398.12" width="29.8862" height="29.8862" transform="rotate(-7.22971 480 398.12)" fill="url(#paint2_linear_14_38)"/>
</g>
<rect x="1104.91" y="178.027" width="31.9986" height="31.9986" transform="rotate(-7.22971 1104.91 178.027)" fill="#C4C4C4"/>
<g filter="url(#filter6_d_14_38)">
<path d="M1116.27 208.21L1148.01 204.183L1149.68 216.968L1117.93 220.995L1116.27 208.21Z" fill="#C4C4C4"/>
</g>
<g filter="url(#filter7_d_14_38)">
<rect x="1094" y="179.481" width="31.9986" height="31.9986" transform="rotate(-7.22971 1094 179.481)" fill="url(#paint3_linear_14_38)"/>
</g>
<g filter="url(#filter8_d_14_38)">
<rect x="270" y="285.203" width="39.3679" height="31.3482" transform="rotate(-7.22971 270 285.203)" fill="#C4C4C4"/>
</g>
<g filter="url(#filter9_d_14_38)">
<path d="M270.106 284.899L308.723 280L311.163 299.229L302.144 300.442L303.793 312.393L294.314 313.629L284.66 314.854L282.775 302.915L272.545 304.127L270.106 284.899Z" fill="url(#paint4_linear_14_38)"/>
</g>
<g filter="url(#filter10_d_14_38)">
<rect x="783.866" y="377.825" width="37.6996" height="30.0197" transform="rotate(173.475 783.866 377.825)" fill="#C4C4C4"/>
</g>
<g filter="url(#filter11_d_14_38)">
<path d="M783.762 378.115L746.726 382.351L744.617 363.91L753.266 362.854L751.829 351.391L760.92 350.319L770.178 349.26L771.842 360.715L781.653 359.674L783.762 378.115Z" fill="url(#paint5_linear_14_38)"/>
</g>
<g filter="url(#filter12_d_14_38)">
<rect x="720" y="130.712" width="53.335" height="29.6866" transform="rotate(-7.22971 720 130.712)" fill="#C4C4C4"/>
</g>
<g filter="url(#filter13_d_14_38)">
<path d="M727.016 129.547L763.586 124.908L765.896 143.117L757.356 144.266L758.917 155.584L749.941 156.754L740.798 157.914L739.014 146.608L729.326 147.756L727.016 129.547Z" fill="url(#paint6_linear_14_38)"/>
</g>
<g filter="url(#filter14_d_14_38)">
<rect x="625.336" y="435.061" width="55.3481" height="30.8072" transform="rotate(-95.5327 625.336 435.061)" fill="#C4C4C4"/>
</g>
<g filter="url(#filter15_d_14_38)">
<path d="M624.343 427.748L620.655 389.671L639.614 387.834L640.544 396.728L652.332 395.457L653.27 404.803L654.192 414.323L642.409 415.826L643.303 425.911L624.343 427.748Z" fill="url(#paint7_linear_14_38)"/>
</g>
<g filter="url(#filter16_d_14_38)">
<rect x="984.698" y="353.371" width="56.6791" height="31.548" transform="rotate(173.928 984.698 353.371)" fill="#C4C4C4"/>
</g>
<g filter="url(#filter17_d_14_38)">
<path d="M977.219 354.458L938.264 358.603L936.201 339.206L945.299 338.168L943.884 326.11L953.446 325.059L963.184 324.023L964.838 336.074L975.156 335.062L977.219 354.458Z" fill="url(#paint8_linear_14_38)"/>
</g>
<g filter="url(#filter18_d_14_38)">
<rect width="56.531" height="31.4655" transform="matrix(-0.995662 0.0930442 0.0930442 0.995662 1172.29 387)" fill="#C4C4C4"/>
</g>
<g filter="url(#filter19_d_14_38)">
<path d="M1164.76 387.412L1125.86 391.048L1127.67 410.419L1136.77 409.638L1137.76 421.706L1147.32 420.847L1157.04 419.938L1156.28 407.83L1166.57 406.783L1164.76 387.412Z" fill="url(#paint9_linear_14_38)"/>
</g>
<g filter="url(#filter20_d_14_38)">
<rect x="196.398" y="459.586" width="51.6467" height="28.7469" transform="rotate(173.928 196.398 459.586)" fill="#C4C4C4"/>
</g>
<g filter="url(#filter21_d_14_38)">
<path d="M189.583 460.577L154.087 464.353L152.206 446.678L160.497 445.733L159.207 434.745L167.92 433.787L176.794 432.843L178.301 443.825L187.703 442.902L189.583 460.577Z" fill="url(#paint10_linear_14_38)"/>
</g>
<g filter="url(#filter22_d_14_38)">
<rect x="889.28" y="113.092" width="53.2577" height="29.6436" transform="rotate(-7.22971 889.28 113.092)" fill="#C4C4C4"/>
</g>
<g filter="url(#filter23_d_14_38)">
<path d="M889.28 113.015L942.279 106L944.586 124.183L926.582 126.626L928.141 137.928L919.178 139.097L910.048 140.255L907.206 121.978L890.449 124.183L889.28 113.015Z" fill="url(#paint11_linear_14_38)"/>
</g>
<g filter="url(#filter24_d_14_38)">
<rect x="1383.97" y="298.165" width="58.0323" height="32.3012" transform="rotate(174.736 1383.97 298.165)" fill="#C4C4C4"/>
</g>
<g filter="url(#filter25_d_14_38)">
<path d="M1383.97 298.249L1325.99 303.908L1324.16 284.02L1343.86 282.032L1342.58 269.666L1352.39 268.728L1362.37 267.808L1364.78 287.818L1383.11 286.043L1383.97 298.249Z" fill="url(#paint12_linear_14_38)"/>
</g>
<g filter="url(#filter26_d_14_38)">
<rect x="804.433" y="467.056" width="54.3084" height="30.2284" transform="rotate(173.869 804.433 467.056)" fill="#C4C4C4"/>
</g>
<g filter="url(#filter27_d_14_38)">
<path d="M804.431 467.134L750.259 473.25L748.263 454.667L766.667 452.528L765.298 440.975L774.459 439.958L783.79 438.956L786.33 457.646L803.458 455.725L804.431 467.134Z" fill="url(#paint13_linear_14_38)"/>
</g>
<g filter="url(#filter28_d_14_38)">
<path d="M648.145 185.18L651.901 216.103L653.779 231.564L655.658 247.025L631.596 249.948L607.534 252.871L605.656 237.41L619.675 235.769L613.852 189.184L648.145 185.18Z" fill="#C4C4C4"/>
</g>
<g filter="url(#filter29_d_14_38)">
<path d="M648.145 185.18L651.703 215.388L646.971 216.116L648.145 224.123L650.611 223.759L653.522 247.416L631.596 249.948L607.534 252.871L606.209 240.5L625.862 237.953L619.675 188.456L648.145 185.18Z" fill="url(#paint14_linear_14_38)"/>
</g>
<g filter="url(#filter30_d_14_38)">
<path d="M976.406 441.499L950.393 444.244L937.387 445.616L924.38 446.989L922.245 426.747L920.109 406.506L933.115 405.133L934.307 416.926L973.498 412.652L976.406 441.499Z" fill="#C4C4C4"/>
</g>
<g filter="url(#filter31_d_14_38)">
<path d="M976.406 441.499L950.996 444.086L950.447 440.104L943.709 440.984L943.982 443.059L924.081 445.191L922.245 426.747L920.109 406.506L930.513 405.557L932.392 422.092L974.033 417.551L976.406 441.499Z" fill="url(#paint15_linear_14_38)"/>
</g>
<g filter="url(#filter32_d_14_38)">
<rect x="419.863" y="252" width="40.3082" height="32.0969" transform="rotate(83.0739 419.863 252)" fill="#C4C4C4"/>
</g>
<g filter="url(#filter33_d_14_38)">
<path d="M420.174 252.11L424.98 291.676L399.171 294.979L397.978 285.739L391.84 286.452L390.626 276.74L389.424 266.849L401.659 264.984L400.088 254.514L420.174 252.11Z" fill="url(#paint16_linear_14_38)"/>
</g>
<g filter="url(#filter34_d_14_38)">
<rect width="43.5399" height="34.6702" transform="matrix(0.0885717 0.99607 0.99607 -0.0885717 350.307 406.071)" fill="#C4C4C4"/>
</g>
<g filter="url(#filter35_d_14_38)">
<path d="M350.003 406.257L353.817 449.14L381.827 446.83L381.011 436.799L387.656 436.173L386.757 425.64L385.803 414.919L372.458 415.698L371.765 404.284L350.003 406.257Z" fill="url(#paint17_linear_14_38)"/>
</g>
<g filter="url(#filter36_d_14_38)">
<rect width="39.4411" height="31.4064" transform="matrix(-0.990449 0.137881 0.137881 0.990449 952.064 201.271)" fill="#C4C4C4"/>
</g>
<g filter="url(#filter37_d_14_38)">
<path d="M951.882 201.005L913.256 206.382L916.604 231.62L925.643 230.431L926.508 236.415L935.997 235.128L945.654 233.784L944.349 221.745L954.646 220.605L951.882 201.005Z" fill="url(#paint18_linear_14_38)"/>
</g>
<g filter="url(#filter38_d_14_38)">
<rect x="747.811" y="264" width="39.8987" height="28.1327" transform="rotate(-96.9261 747.811 264)" fill="#C4C4C4"/>
</g>
<g filter="url(#filter39_d_14_38)">
<path d="M747.539 263.904L743.326 229.225L765.947 226.329L766.993 234.428L772.373 233.803L773.437 242.315L774.491 250.985L763.767 252.62L765.144 261.796L747.539 263.904Z" fill="url(#paint19_linear_14_38)"/>
</g>
<g filter="url(#filter40_d_14_38)">
<rect width="48.5691" height="34.2462" transform="matrix(-0.130927 -0.991392 -0.991392 0.130927 1370.31 408.67)" fill="#C4C4C4"/>
</g>
<g filter="url(#filter41_d_14_38)">
<path d="M1370.6 408.474L1365.03 366.314L1337.49 369.772L1338.72 379.637L1332.18 380.534L1333.52 390.892L1334.91 401.431L1348.05 400.101L1349.21 411.337L1370.6 408.474Z" fill="url(#paint20_linear_14_38)"/>
</g>
<g filter="url(#filter42_d_14_38)">
<rect width="44.9321" height="31.6818" transform="matrix(-0.993252 0.115978 0.115978 0.993252 1339.63 39.2769)" fill="#C4C4C4"/>
</g>
<g filter="url(#filter43_d_14_38)">
<path d="M1339.45 39.004L1300.38 43.5667L1303.19 69.0946L1312.33 68.0971L1313.07 74.1511L1322.67 73.0645L1332.44 71.9238L1331.39 59.7529L1341.8 58.8329L1339.45 39.004Z" fill="url(#paint21_linear_14_38)"/>
</g>
<g filter="url(#filter44_d_14_38)">
<rect width="43.774" height="30.8652" transform="matrix(-0.993252 0.115978 0.115978 0.993252 1131.48 89.2844)" fill="#C4C4C4"/>
</g>
<g filter="url(#filter45_d_14_38)">
<path d="M1131.31 89.0187L1093.24 93.4638L1095.98 118.334L1104.89 117.362L1105.61 123.26L1114.96 122.201L1124.47 121.09L1135.07 119.852L1133.59 108.336L1131.31 89.0187Z" fill="url(#paint22_linear_14_38)"/>
</g>
<g filter="url(#filter46_d_14_38)">
<path d="M529.2 206.004L533.465 241.109L535.597 258.662L537.729 276.215L522.129 278.11L506.529 280.005L498 209.794L529.2 206.004Z" fill="#C4C4C4"/>
</g>
<g filter="url(#filter47_d_14_38)">
<path d="M529.404 206.038L537.665 273.766L528.162 275.005L527.336 268.394L511.222 270.46L507.67 238.968L501.66 239.666L500.471 230.157L499.294 220.471L511.275 218.645L509.736 208.393L529.404 206.038Z" fill="url(#paint23_linear_14_38)"/>
</g>
<g filter="url(#filter48_d_14_38)">
<path d="M1307 164.974L1338.53 161.487L1354.3 159.744L1370.07 158L1371.62 172.013L1373.17 186.026L1310.1 193L1307 164.974Z" fill="#C4C4C4"/>
</g>
<g filter="url(#filter49_d_14_38)">
<path d="M1307.03 164.792L1367.87 158.034L1368.89 166.571L1362.95 167.248L1364.65 181.724L1336.36 184.606L1336.93 190.005L1328.39 190.98L1319.69 191.942L1318.17 181.177L1308.96 182.458L1307.03 164.792Z" fill="url(#paint24_linear_14_38)"/>
</g>
<g filter="url(#filter50_d_14_38)">
<path d="M1104 332.192L1136 328.816L1152 327.128L1168 325.441L1166.5 311.22L1165 297L1101 303.751L1104 332.192Z" fill="#C4C4C4"/>
</g>
<g filter="url(#filter51_d_14_38)">
<path d="M1104.07 332.365L1165.82 325.883L1164.98 317.203L1158.95 317.818L1157.49 303.107L1128.84 306.378L1128.24 300.906L1119.56 301.79L1110.73 302.722L1111.55 313.718L1102.15 314.444L1104.07 332.365Z" fill="url(#paint25_linear_14_38)"/>
</g>
<defs>
<filter id="filter0_d_14_38" x="0.823897" y="410.354" width="52.8173" height="47.9041" filterUnits="userSpaceOnUse" color-interpolation-filters="sRGB">
<feFlood flood-opacity="0" result="BackgroundImageFix"/>
<feColorMatrix in="SourceAlpha" type="matrix" values="0 0 0 0 0 0 0 0 0 0 0 0 0 0 0 0 0 0 127 0" result="hardAlpha"/>
<feOffset dy="2.45662"/>
<feGaussianBlur stdDeviation="1.22831"/>
<feColorMatrix type="matrix" values="0 0 0 0 0 0 0 0 0 0 0 0 0 0 0 0 0 0 0.25 0"/>
<feBlend mode="normal" in2="BackgroundImageFix" result="effect1_dropShadow_14_38"/>
<feBlend mode="normal" in="SourceGraphic" in2="effect1_dropShadow_14_38" result="shape"/>
</filter>
<filter id="filter1_d_14_38" x="0.823897" y="410.354" width="51.589" height="47.9041" filterUnits="userSpaceOnUse" color-interpolation-filters="sRGB">
<feFlood flood-opacity="0" result="BackgroundImageFix"/>
<feColorMatrix in="SourceAlpha" type="matrix" values="0 0 0 0 0 0 0 0 0 0 0 0 0 0 0 0 0 0 127 0" result="hardAlpha"/>
<feOffset dy="2.45662"/>
<feGaussianBlur stdDeviation="1.22831"/>
<feColorMatrix type="matrix" values="0 0 0 0 0 0 0 0 0 0 0 0 0 0 0 0 0 0 0.25 0"/>
<feBlend mode="normal" in2="BackgroundImageFix" result="effect1_dropShadow_14_38"/>
<feBlend mode="normal" in="SourceGraphic" in2="effect1_dropShadow_14_38" result="shape"/>
</filter>
<filter id="filter2_d_14_38" x="160.256" y="334.647" width="38.4976" height="22.5287" filterUnits="userSpaceOnUse" color-interpolation-filters="sRGB">
<feFlood flood-opacity="0" result="BackgroundImageFix"/>
<feColorMatrix in="SourceAlpha" type="matrix" values="0 0 0 0 0 0 0 0 0 0 0 0 0 0 0 0 0 0 127 0" result="hardAlpha"/>
<feOffset dy="3.17505"/>
<feGaussianBlur stdDeviation="1.58752"/>
<feColorMatrix type="matrix" values="0 0 0 0 0 0 0 0 0 0 0 0 0 0 0 0 0 0 0.25 0"/>
<feBlend mode="normal" in2="BackgroundImageFix" result="effect1_dropShadow_14_38"/>
<feBlend mode="normal" in="SourceGraphic" in2="effect1_dropShadow_14_38" result="shape"/>
</filter>
<filter id="filter3_d_14_38" x="138.825" y="307" width="40.7742" height="40.7742" filterUnits="userSpaceOnUse" color-interpolation-filters="sRGB">
<feFlood flood-opacity="0" result="BackgroundImageFix"/>
<feColorMatrix in="SourceAlpha" type="matrix" values="0 0 0 0 0 0 0 0 0 0 0 0 0 0 0 0 0 0 127 0" result="hardAlpha"/>
<feOffset dy="3.17505"/>
<feGaussianBlur stdDeviation="1.58752"/>
<feColorMatrix type="matrix" values="0 0 0 0 0 0 0 0 0 0 0 0 0 0 0 0 0 0 0.25 0"/>
<feBlend mode="normal" in2="BackgroundImageFix" result="effect1_dropShadow_14_38"/>
<feBlend mode="normal" in="SourceGraphic" in2="effect1_dropShadow_14_38" result="shape"/>
</filter>
<filter id="filter4_d_14_38" x="497.718" y="421.191" width="37.3632" height="21.8649" filterUnits="userSpaceOnUse" color-interpolation-filters="sRGB">
<feFlood flood-opacity="0" result="BackgroundImageFix"/>
<feColorMatrix in="SourceAlpha" type="matrix" values="0 0 0 0 0 0 0 0 0 0 0 0 0 0 0 0 0 0 127 0" result="hardAlpha"/>
<feOffset dy="3.08148"/>
<feGaussianBlur stdDeviation="1.54074"/>
<feColorMatrix type="matrix" values="0 0 0 0 0 0 0 0 0 0 0 0 0 0 0 0 0 0 0.25 0"/>
<feBlend mode="normal" in2="BackgroundImageFix" result="effect1_dropShadow_14_38"/>
<feBlend mode="normal" in="SourceGraphic" in2="effect1_dropShadow_14_38" result="shape"/>
</filter>
<filter id="filter5_d_14_38" x="476.919" y="394.359" width="39.5726" height="39.5726" filterUnits="userSpaceOnUse" color-interpolation-filters="sRGB">
<feFlood flood-opacity="0" result="BackgroundImageFix"/>
<feColorMatrix in="SourceAlpha" type="matrix" values="0 0 0 0 0 0 0 0 0 0 0 0 0 0 0 0 0 0 127 0" result="hardAlpha"/>
<feOffset dy="3.08148"/>
<feGaussianBlur stdDeviation="1.54074"/>
<feColorMatrix type="matrix" values="0 0 0 0 0 0 0 0 0 0 0 0 0 0 0 0 0 0 0.25 0"/>
<feBlend mode="normal" in2="BackgroundImageFix" result="effect1_dropShadow_14_38"/>
<feBlend mode="normal" in="SourceGraphic" in2="effect1_dropShadow_14_38" result="shape"/>
</filter>
<filter id="filter6_d_14_38" x="1112.97" y="204.183" width="40.0041" height="23.4104" filterUnits="userSpaceOnUse" color-interpolation-filters="sRGB">
<feFlood flood-opacity="0" result="BackgroundImageFix"/>
<feColorMatrix in="SourceAlpha" type="matrix" values="0 0 0 0 0 0 0 0 0 0 0 0 0 0 0 0 0 0 127 0" result="hardAlpha"/>
<feOffset dy="3.29929"/>
<feGaussianBlur stdDeviation="1.64965"/>
<feColorMatrix type="matrix" values="0 0 0 0 0 0 0 0 0 0 0 0 0 0 0 0 0 0 0.25 0"/>
<feBlend mode="normal" in2="BackgroundImageFix" result="effect1_dropShadow_14_38"/>
<feBlend mode="normal" in="SourceGraphic" in2="effect1_dropShadow_14_38" result="shape"/>
</filter>
<filter id="filter7_d_14_38" x="1090.7" y="175.454" width="42.3698" height="42.3698" filterUnits="userSpaceOnUse" color-interpolation-filters="sRGB">
<feFlood flood-opacity="0" result="BackgroundImageFix"/>
<feColorMatrix in="SourceAlpha" type="matrix" values="0 0 0 0 0 0 0 0 0 0 0 0 0 0 0 0 0 0 127 0" result="hardAlpha"/>
<feOffset dy="3.29929"/>
<feGaussianBlur stdDeviation="1.64965"/>
<feColorMatrix type="matrix" values="0 0 0 0 0 0 0 0 0 0 0 0 0 0 0 0 0 0 0.25 0"/>
<feBlend mode="normal" in2="BackgroundImageFix" result="effect1_dropShadow_14_38"/>
<feBlend mode="normal" in="SourceGraphic" in2="effect1_dropShadow_14_38" result="shape"/>
</filter>
<filter id="filter8_d_14_38" x="266.703" y="280.249" width="49.5937" height="42.6469" filterUnits="userSpaceOnUse" color-interpolation-filters="sRGB">
<feFlood flood-opacity="0" result="BackgroundImageFix"/>
<feColorMatrix in="SourceAlpha" type="matrix" values="0 0 0 0 0 0 0 0 0 0 0 0 0 0 0 0 0 0 127 0" result="hardAlpha"/>
<feOffset dy="3.29686"/>
<feGaussianBlur stdDeviation="1.64843"/>
<feColorMatrix type="matrix" values="0 0 0 0 0 0 0 0 0 0 0 0 0 0 0 0 0 0 0.25 0"/>
<feBlend mode="normal" in2="BackgroundImageFix" result="effect1_dropShadow_14_38"/>
<feBlend mode="normal" in="SourceGraphic" in2="effect1_dropShadow_14_38" result="shape"/>
</filter>
<filter id="filter9_d_14_38" x="266.809" y="280" width="47.6504" height="41.4477" filterUnits="userSpaceOnUse" color-interpolation-filters="sRGB">
<feFlood flood-opacity="0" result="BackgroundImageFix"/>
<feColorMatrix in="SourceAlpha" type="matrix" values="0 0 0 0 0 0 0 0 0 0 0 0 0 0 0 0 0 0 127 0" result="hardAlpha"/>
<feOffset dy="3.29686"/>
<feGaussianBlur stdDeviation="1.64843"/>
<feColorMatrix type="matrix" values="0 0 0 0 0 0 0 0 0 0 0 0 0 0 0 0 0 0 0.25 0"/>
<feBlend mode="normal" in2="BackgroundImageFix" result="effect1_dropShadow_14_38"/>
<feBlend mode="normal" in="SourceGraphic" in2="effect1_dropShadow_14_38" result="shape"/>
</filter>
<filter id="filter10_d_14_38" x="739.843" y="348" width="47.1807" height="40.4233" filterUnits="userSpaceOnUse" color-interpolation-filters="sRGB">
<feFlood flood-opacity="0" result="BackgroundImageFix"/>
<feColorMatrix in="SourceAlpha" type="matrix" values="0 0 0 0 0 0 0 0 0 0 0 0 0 0 0 0 0 0 127 0" result="hardAlpha"/>
<feOffset dy="3.15715"/>
<feGaussianBlur stdDeviation="1.57857"/>
<feColorMatrix type="matrix" values="0 0 0 0 0 0 0 0 0 0 0 0 0 0 0 0 0 0 0.25 0"/>
<feBlend mode="normal" in2="BackgroundImageFix" result="effect1_dropShadow_14_38"/>
<feBlend mode="normal" in="SourceGraphic" in2="effect1_dropShadow_14_38" result="shape"/>
</filter>
<filter id="filter11_d_14_38" x="741.46" y="349.26" width="45.4591" height="39.4052" filterUnits="userSpaceOnUse" color-interpolation-filters="sRGB">
<feFlood flood-opacity="0" result="BackgroundImageFix"/>
<feColorMatrix in="SourceAlpha" type="matrix" values="0 0 0 0 0 0 0 0 0 0 0 0 0 0 0 0 0 0 127 0" result="hardAlpha"/>
<feOffset dy="3.15715"/>
<feGaussianBlur stdDeviation="1.57857"/>
<feColorMatrix type="matrix" values="0 0 0 0 0 0 0 0 0 0 0 0 0 0 0 0 0 0 0.25 0"/>
<feBlend mode="normal" in2="BackgroundImageFix" result="effect1_dropShadow_14_38"/>
<feBlend mode="normal" in="SourceGraphic" in2="effect1_dropShadow_14_38" result="shape"/>
</filter>
<filter id="filter12_d_14_38" x="716.878" y="124" width="62.8912" height="42.4068" filterUnits="userSpaceOnUse" color-interpolation-filters="sRGB">
<feFlood flood-opacity="0" result="BackgroundImageFix"/>
<feColorMatrix in="SourceAlpha" type="matrix" values="0 0 0 0 0 0 0 0 0 0 0 0 0 0 0 0 0 0 127 0" result="hardAlpha"/>
<feOffset dy="3.12211"/>
<feGaussianBlur stdDeviation="1.56106"/>
<feColorMatrix type="matrix" values="0 0 0 0 0 0 0 0 0 0 0 0 0 0 0 0 0 0 0.25 0"/>
<feBlend mode="normal" in2="BackgroundImageFix" result="effect1_dropShadow_14_38"/>
<feBlend mode="normal" in="SourceGraphic" in2="effect1_dropShadow_14_38" result="shape"/>
</filter>
<filter id="filter13_d_14_38" x="723.894" y="124.908" width="45.1248" height="39.2509" filterUnits="userSpaceOnUse" color-interpolation-filters="sRGB">
<feFlood flood-opacity="0" result="BackgroundImageFix"/>
<feColorMatrix in="SourceAlpha" type="matrix" values="0 0 0 0 0 0 0 0 0 0 0 0 0 0 0 0 0 0 127 0" result="hardAlpha"/>
<feOffset dy="3.12211"/>
<feGaussianBlur stdDeviation="1.56106"/>
<feColorMatrix type="matrix" values="0 0 0 0 0 0 0 0 0 0 0 0 0 0 0 0 0 0 0.25 0"/>
<feBlend mode="normal" in2="BackgroundImageFix" result="effect1_dropShadow_14_38"/>
<feBlend mode="normal" in="SourceGraphic" in2="effect1_dropShadow_14_38" result="shape"/>
</filter>
<filter id="filter14_d_14_38" x="616.76" y="377" width="42.4799" height="64.5405" filterUnits="userSpaceOnUse" color-interpolation-filters="sRGB">
<feFlood flood-opacity="0" result="BackgroundImageFix"/>
<feColorMatrix in="SourceAlpha" type="matrix" values="0 0 0 0 0 0 0 0 0 0 0 0 0 0 0 0 0 0 127 0" result="hardAlpha"/>
<feOffset dy="3.23996"/>
<feGaussianBlur stdDeviation="1.61998"/>
<feColorMatrix type="matrix" values="0 0 0 0 0 0 0 0 0 0 0 0 0 0 0 0 0 0 0.25 0"/>
<feBlend mode="normal" in2="BackgroundImageFix" result="effect1_dropShadow_14_38"/>
<feBlend mode="normal" in="SourceGraphic" in2="effect1_dropShadow_14_38" result="shape"/>
</filter>
<filter id="filter15_d_14_38" x="617.415" y="387.834" width="40.017" height="46.3933" filterUnits="userSpaceOnUse" color-interpolation-filters="sRGB">
<feFlood flood-opacity="0" result="BackgroundImageFix"/>
<feColorMatrix in="SourceAlpha" type="matrix" values="0 0 0 0 0 0 0 0 0 0 0 0 0 0 0 0 0 0 127 0" result="hardAlpha"/>
<feOffset dy="3.23996"/>
<feGaussianBlur stdDeviation="1.61998"/>
<feColorMatrix type="matrix" values="0 0 0 0 0 0 0 0 0 0 0 0 0 0 0 0 0 0 0.25 0"/>
<feBlend mode="normal" in2="BackgroundImageFix" result="effect1_dropShadow_14_38"/>
<feBlend mode="normal" in="SourceGraphic" in2="effect1_dropShadow_14_38" result="shape"/>
</filter>
<filter id="filter16_d_14_38" x="921.682" y="322" width="66.3342" height="44.0024" filterUnits="userSpaceOnUse" color-interpolation-filters="sRGB">
<feFlood flood-opacity="0" result="BackgroundImageFix"/>
<feColorMatrix in="SourceAlpha" type="matrix" values="0 0 0 0 0 0 0 0 0 0 0 0 0 0 0 0 0 0 127 0" result="hardAlpha"/>
<feOffset dy="3.31787"/>
<feGaussianBlur stdDeviation="1.65894"/>
<feColorMatrix type="matrix" values="0 0 0 0 0 0 0 0 0 0 0 0 0 0 0 0 0 0 0.25 0"/>
<feBlend mode="normal" in2="BackgroundImageFix" result="effect1_dropShadow_14_38"/>
<feBlend mode="normal" in="SourceGraphic" in2="effect1_dropShadow_14_38" result="shape"/>
</filter>
<filter id="filter17_d_14_38" x="932.883" y="324.023" width="47.6543" height="41.2157" filterUnits="userSpaceOnUse" color-interpolation-filters="sRGB">
<feFlood flood-opacity="0" result="BackgroundImageFix"/>
<feColorMatrix in="SourceAlpha" type="matrix" values="0 0 0 0 0 0 0 0 0 0 0 0 0 0 0 0 0 0 127 0" result="hardAlpha"/>
<feOffset dy="3.31787"/>
<feGaussianBlur stdDeviation="1.65894"/>
<feColorMatrix type="matrix" values="0 0 0 0 0 0 0 0 0 0 0 0 0 0 0 0 0 0 0.25 0"/>
<feBlend mode="normal" in2="BackgroundImageFix" result="effect1_dropShadow_14_38"/>
<feBlend mode="normal" in="SourceGraphic" in2="effect1_dropShadow_14_38" result="shape"/>
</filter>
<filter id="filter18_d_14_38" x="1112.69" y="387" width="65.8318" height="43.2073" filterUnits="userSpaceOnUse" color-interpolation-filters="sRGB">
<feFlood flood-opacity="0" result="BackgroundImageFix"/>
<feColorMatrix in="SourceAlpha" type="matrix" values="0 0 0 0 0 0 0 0 0 0 0 0 0 0 0 0 0 0 127 0" result="hardAlpha"/>
<feOffset dy="3.3092"/>
<feGaussianBlur stdDeviation="1.6546"/>
<feColorMatrix type="matrix" values="0 0 0 0 0 0 0 0 0 0 0 0 0 0 0 0 0 0 0.25 0"/>
<feBlend mode="normal" in2="BackgroundImageFix" result="effect1_dropShadow_14_38"/>
<feBlend mode="normal" in="SourceGraphic" in2="effect1_dropShadow_14_38" result="shape"/>
</filter>
<filter id="filter19_d_14_38" x="1122.55" y="387.412" width="47.3318" height="40.9122" filterUnits="userSpaceOnUse" color-interpolation-filters="sRGB">
<feFlood flood-opacity="0" result="BackgroundImageFix"/>
<feColorMatrix in="SourceAlpha" type="matrix" values="0 0 0 0 0 0 0 0 0 0 0 0 0 0 0 0 0 0 127 0" result="hardAlpha"/>
<feOffset dy="3.3092"/>
<feGaussianBlur stdDeviation="1.6546"/>
<feColorMatrix type="matrix" values="0 0 0 0 0 0 0 0 0 0 0 0 0 0 0 0 0 0 0.25 0"/>
<feBlend mode="normal" in2="BackgroundImageFix" result="effect1_dropShadow_14_38"/>
<feBlend mode="normal" in="SourceGraphic" in2="effect1_dropShadow_14_38" result="shape"/>
</filter>
<filter id="filter20_d_14_38" x="138.977" y="431" width="60.4445" height="40.0955" filterUnits="userSpaceOnUse" color-interpolation-filters="sRGB">
<feFlood flood-opacity="0" result="BackgroundImageFix"/>
<feColorMatrix in="SourceAlpha" type="matrix" values="0 0 0 0 0 0 0 0 0 0 0 0 0 0 0 0 0 0 127 0" result="hardAlpha"/>
<feOffset dy="3.02329"/>
<feGaussianBlur stdDeviation="1.51164"/>
<feColorMatrix type="matrix" values="0 0 0 0 0 0 0 0 0 0 0 0 0 0 0 0 0 0 0.25 0"/>
<feBlend mode="normal" in2="BackgroundImageFix" result="effect1_dropShadow_14_38"/>
<feBlend mode="normal" in="SourceGraphic" in2="effect1_dropShadow_14_38" result="shape"/>
</filter>
<filter id="filter21_d_14_38" x="149.183" y="432.843" width="43.4233" height="37.5562" filterUnits="userSpaceOnUse" color-interpolation-filters="sRGB">
<feFlood flood-opacity="0" result="BackgroundImageFix"/>
<feColorMatrix in="SourceAlpha" type="matrix" values="0 0 0 0 0 0 0 0 0 0 0 0 0 0 0 0 0 0 127 0" result="hardAlpha"/>
<feOffset dy="3.02329"/>
<feGaussianBlur stdDeviation="1.51164"/>
<feColorMatrix type="matrix" values="0 0 0 0 0 0 0 0 0 0 0 0 0 0 0 0 0 0 0.25 0"/>
<feBlend mode="normal" in2="BackgroundImageFix" result="effect1_dropShadow_14_38"/>
<feBlend mode="normal" in="SourceGraphic" in2="effect1_dropShadow_14_38" result="shape"/>
</filter>
<filter id="filter22_d_14_38" x="886.163" y="106.39" width="62.8001" height="42.3455" filterUnits="userSpaceOnUse" color-interpolation-filters="sRGB">
<feFlood flood-opacity="0" result="BackgroundImageFix"/>
<feColorMatrix in="SourceAlpha" type="matrix" values="0 0 0 0 0 0 0 0 0 0 0 0 0 0 0 0 0 0 127 0" result="hardAlpha"/>
<feOffset dy="3.11759"/>
<feGaussianBlur stdDeviation="1.5588"/>
<feColorMatrix type="matrix" values="0 0 0 0 0 0 0 0 0 0 0 0 0 0 0 0 0 0 0.25 0"/>
<feBlend mode="normal" in2="BackgroundImageFix" result="effect1_dropShadow_14_38"/>
<feBlend mode="normal" in="SourceGraphic" in2="effect1_dropShadow_14_38" result="shape"/>
</filter>
<filter id="filter23_d_14_38" x="886.162" y="106" width="61.5411" height="40.4901" filterUnits="userSpaceOnUse" color-interpolation-filters="sRGB">
<feFlood flood-opacity="0" result="BackgroundImageFix"/>
<feColorMatrix in="SourceAlpha" type="matrix" values="0 0 0 0 0 0 0 0 0 0 0 0 0 0 0 0 0 0 127 0" result="hardAlpha"/>
<feOffset dy="3.11759"/>
<feGaussianBlur stdDeviation="1.5588"/>
<feColorMatrix type="matrix" values="0 0 0 0 0 0 0 0 0 0 0 0 0 0 0 0 0 0 0.25 0"/>
<feBlend mode="normal" in2="BackgroundImageFix" result="effect1_dropShadow_14_38"/>
<feBlend mode="normal" in="SourceGraphic" in2="effect1_dropShadow_14_38" result="shape"/>
</filter>
<filter id="filter24_d_14_38" x="1319.83" y="266" width="67.5451" height="44.2834" filterUnits="userSpaceOnUse" color-interpolation-filters="sRGB">
<feFlood flood-opacity="0" result="BackgroundImageFix"/>
<feColorMatrix in="SourceAlpha" type="matrix" values="0 0 0 0 0 0 0 0 0 0 0 0 0 0 0 0 0 0 127 0" result="hardAlpha"/>
<feOffset dy="3.39709"/>
<feGaussianBlur stdDeviation="1.69854"/>
<feColorMatrix type="matrix" values="0 0 0 0 0 0 0 0 0 0 0 0 0 0 0 0 0 0 0.25 0"/>
<feBlend mode="normal" in2="BackgroundImageFix" result="effect1_dropShadow_14_38"/>
<feBlend mode="normal" in="SourceGraphic" in2="effect1_dropShadow_14_38" result="shape"/>
</filter>
<filter id="filter25_d_14_38" x="1320.76" y="267.808" width="66.6052" height="42.8935" filterUnits="userSpaceOnUse" color-interpolation-filters="sRGB">
<feFlood flood-opacity="0" result="BackgroundImageFix"/>
<feColorMatrix in="SourceAlpha" type="matrix" values="0 0 0 0 0 0 0 0 0 0 0 0 0 0 0 0 0 0 127 0" result="hardAlpha"/>
<feOffset dy="3.39709"/>
<feGaussianBlur stdDeviation="1.69854"/>
<feColorMatrix type="matrix" values="0 0 0 0 0 0 0 0 0 0 0 0 0 0 0 0 0 0 0.25 0"/>
<feBlend mode="normal" in2="BackgroundImageFix" result="effect1_dropShadow_14_38"/>
<feBlend mode="normal" in="SourceGraphic" in2="effect1_dropShadow_14_38" result="shape"/>
</filter>
<filter id="filter26_d_14_38" x="744.027" y="437" width="63.5845" height="42.2144" filterUnits="userSpaceOnUse" color-interpolation-filters="sRGB">
<feFlood flood-opacity="0" result="BackgroundImageFix"/>
<feColorMatrix in="SourceAlpha" type="matrix" values="0 0 0 0 0 0 0 0 0 0 0 0 0 0 0 0 0 0 127 0" result="hardAlpha"/>
<feOffset dy="3.1791"/>
<feGaussianBlur stdDeviation="1.58955"/>
<feColorMatrix type="matrix" values="0 0 0 0 0 0 0 0 0 0 0 0 0 0 0 0 0 0 0.25 0"/>
<feBlend mode="normal" in2="BackgroundImageFix" result="effect1_dropShadow_14_38"/>
<feBlend mode="normal" in="SourceGraphic" in2="effect1_dropShadow_14_38" result="shape"/>
</filter>
<filter id="filter27_d_14_38" x="745.084" y="438.956" width="62.5264" height="40.6525" filterUnits="userSpaceOnUse" color-interpolation-filters="sRGB">
<feFlood flood-opacity="0" result="BackgroundImageFix"/>
<feColorMatrix in="SourceAlpha" type="matrix" values="0 0 0 0 0 0 0 0 0 0 0 0 0 0 0 0 0 0 127 0" result="hardAlpha"/>
<feOffset dy="3.1791"/>
<feGaussianBlur stdDeviation="1.58955"/>
<feColorMatrix type="matrix" values="0 0 0 0 0 0 0 0 0 0 0 0 0 0 0 0 0 0 0.25 0"/>
<feBlend mode="normal" in2="BackgroundImageFix" result="effect1_dropShadow_14_38"/>
<feBlend mode="normal" in="SourceGraphic" in2="effect1_dropShadow_14_38" result="shape"/>
</filter>
<filter id="filter28_d_14_38" x="602.745" y="185.18" width="55.8244" height="73.5139" filterUnits="userSpaceOnUse" color-interpolation-filters="sRGB">
<feFlood flood-opacity="0" result="BackgroundImageFix"/>
<feColorMatrix in="SourceAlpha" type="matrix" values="0 0 0 0 0 0 0 0 0 0 0 0 0 0 0 0 0 0 127 0" result="hardAlpha"/>
<feOffset dy="2.9116"/>
<feGaussianBlur stdDeviation="1.4558"/>
<feColorMatrix type="matrix" values="0 0 0 0 0 0 0 0 0 0 0 0 0 0 0 0 0 0 0.25 0"/>
<feBlend mode="normal" in2="BackgroundImageFix" result="effect1_dropShadow_14_38"/>
<feBlend mode="normal" in="SourceGraphic" in2="effect1_dropShadow_14_38" result="shape"/>
</filter>
<filter id="filter29_d_14_38" x="603.297" y="185.18" width="53.1364" height="73.5139" filterUnits="userSpaceOnUse" color-interpolation-filters="sRGB">
<feFlood flood-opacity="0" result="BackgroundImageFix"/>
<feColorMatrix in="SourceAlpha" type="matrix" values="0 0 0 0 0 0 0 0 0 0 0 0 0 0 0 0 0 0 127 0" result="hardAlpha"/>
<feOffset dy="2.9116"/>
<feGaussianBlur stdDeviation="1.4558"/>
<feColorMatrix type="matrix" values="0 0 0 0 0 0 0 0 0 0 0 0 0 0 0 0 0 0 0.25 0"/>
<feBlend mode="normal" in2="BackgroundImageFix" result="effect1_dropShadow_14_38"/>
<feBlend mode="normal" in="SourceGraphic" in2="effect1_dropShadow_14_38" result="shape"/>
</filter>
<filter id="filter30_d_14_38" x="916.955" y="405.133" width="62.6056" height="48.1631" filterUnits="userSpaceOnUse" color-interpolation-filters="sRGB">
<feFlood flood-opacity="0" result="BackgroundImageFix"/>
<feColorMatrix in="SourceAlpha" type="matrix" values="0 0 0 0 0 0 0 0 0 0 0 0 0 0 0 0 0 0 127 0" result="hardAlpha"/>
<feOffset dy="3.15401"/>
<feGaussianBlur stdDeviation="1.57701"/>
<feColorMatrix type="matrix" values="0 0 0 0 0 0 0 0 0 0 0 0 0 0 0 0 0 0 0.25 0"/>
<feBlend mode="normal" in2="BackgroundImageFix" result="effect1_dropShadow_14_38"/>
<feBlend mode="normal" in="SourceGraphic" in2="effect1_dropShadow_14_38" result="shape"/>
</filter>
<filter id="filter31_d_14_38" x="916.955" y="405.557" width="62.6056" height="45.9421" filterUnits="userSpaceOnUse" color-interpolation-filters="sRGB">
<feFlood flood-opacity="0" result="BackgroundImageFix"/>
<feColorMatrix in="SourceAlpha" type="matrix" values="0 0 0 0 0 0 0 0 0 0 0 0 0 0 0 0 0 0 127 0" result="hardAlpha"/>
<feOffset dy="3.15401"/>
<feGaussianBlur stdDeviation="1.57701"/>
<feColorMatrix type="matrix" values="0 0 0 0 0 0 0 0 0 0 0 0 0 0 0 0 0 0 0.25 0"/>
<feBlend mode="normal" in2="BackgroundImageFix" result="effect1_dropShadow_14_38"/>
<feBlend mode="normal" in="SourceGraphic" in2="effect1_dropShadow_14_38" result="shape"/>
</filter>
<filter id="filter32_d_14_38" x="384.624" y="252" width="43.4746" height="50.6357" filterUnits="userSpaceOnUse" color-interpolation-filters="sRGB">
<feFlood flood-opacity="0" result="BackgroundImageFix"/>
<feColorMatrix in="SourceAlpha" type="matrix" values="0 0 0 0 0 0 0 0 0 0 0 0 0 0 0 0 0 0 127 0" result="hardAlpha"/>
<feOffset dy="3.3756"/>
<feGaussianBlur stdDeviation="1.6878"/>
<feColorMatrix type="matrix" values="0 0 0 0 0 0 0 0 0 0 0 0 0 0 0 0 0 0 0.25 0"/>
<feBlend mode="normal" in2="BackgroundImageFix" result="effect1_dropShadow_14_38"/>
<feBlend mode="normal" in="SourceGraphic" in2="effect1_dropShadow_14_38" result="shape"/>
</filter>
<filter id="filter33_d_14_38" x="386.049" y="252.11" width="42.3069" height="49.62" filterUnits="userSpaceOnUse" color-interpolation-filters="sRGB">
<feFlood flood-opacity="0" result="BackgroundImageFix"/>
<feColorMatrix in="SourceAlpha" type="matrix" values="0 0 0 0 0 0 0 0 0 0 0 0 0 0 0 0 0 0 127 0" result="hardAlpha"/>
<feOffset dy="3.3756"/>
<feGaussianBlur stdDeviation="1.6878"/>
<feColorMatrix type="matrix" values="0 0 0 0 0 0 0 0 0 0 0 0 0 0 0 0 0 0 0.25 0"/>
<feBlend mode="normal" in2="BackgroundImageFix" result="effect1_dropShadow_14_38"/>
<feBlend mode="normal" in="SourceGraphic" in2="effect1_dropShadow_14_38" result="shape"/>
</filter>
<filter id="filter34_d_14_38" x="346.661" y="403" width="45.6829" height="53.732" filterUnits="userSpaceOnUse" color-interpolation-filters="sRGB">
<feFlood flood-opacity="0" result="BackgroundImageFix"/>
<feColorMatrix in="SourceAlpha" type="matrix" values="0 0 0 0 0 0 0 0 0 0 0 0 0 0 0 0 0 0 127 0" result="hardAlpha"/>
<feOffset dy="3.64624"/>
<feGaussianBlur stdDeviation="1.82312"/>
<feColorMatrix type="matrix" values="0 0 0 0 0 0 0 0 0 0 0 0 0 0 0 0 0 0 0.25 0"/>
<feBlend mode="normal" in2="BackgroundImageFix" result="effect1_dropShadow_14_38"/>
<feBlend mode="normal" in="SourceGraphic" in2="effect1_dropShadow_14_38" result="shape"/>
</filter>
<filter id="filter35_d_14_38" x="346.357" y="404.284" width="44.9451" height="52.1486" filterUnits="userSpaceOnUse" color-interpolation-filters="sRGB">
<feFlood flood-opacity="0" result="BackgroundImageFix"/>
<feColorMatrix in="SourceAlpha" type="matrix" values="0 0 0 0 0 0 0 0 0 0 0 0 0 0 0 0 0 0 127 0" result="hardAlpha"/>
<feOffset dy="3.64624"/>
<feGaussianBlur stdDeviation="1.82312"/>
<feColorMatrix type="matrix" values="0 0 0 0 0 0 0 0 0 0 0 0 0 0 0 0 0 0 0.25 0"/>
<feBlend mode="normal" in2="BackgroundImageFix" result="effect1_dropShadow_14_38"/>
<feBlend mode="normal" in="SourceGraphic" in2="effect1_dropShadow_14_38" result="shape"/>
</filter>
<filter id="filter36_d_14_38" x="909.697" y="201.271" width="50.0007" height="43.1506" filterUnits="userSpaceOnUse" color-interpolation-filters="sRGB">
<feFlood flood-opacity="0" result="BackgroundImageFix"/>
<feColorMatrix in="SourceAlpha" type="matrix" values="0 0 0 0 0 0 0 0 0 0 0 0 0 0 0 0 0 0 127 0" result="hardAlpha"/>
<feOffset dy="3.30298"/>
<feGaussianBlur stdDeviation="1.65149"/>
<feColorMatrix type="matrix" values="0 0 0 0 0 0 0 0 0 0 0 0 0 0 0 0 0 0 0.25 0"/>
<feBlend mode="normal" in2="BackgroundImageFix" result="effect1_dropShadow_14_38"/>
<feBlend mode="normal" in="SourceGraphic" in2="effect1_dropShadow_14_38" result="shape"/>
</filter>
<filter id="filter37_d_14_38" x="909.953" y="201.005" width="47.9961" height="42.0165" filterUnits="userSpaceOnUse" color-interpolation-filters="sRGB">
<feFlood flood-opacity="0" result="BackgroundImageFix"/>
<feColorMatrix in="SourceAlpha" type="matrix" values="0 0 0 0 0 0 0 0 0 0 0 0 0 0 0 0 0 0 127 0" result="hardAlpha"/>
<feOffset dy="3.30298"/>
<feGaussianBlur stdDeviation="1.65149"/>
<feColorMatrix type="matrix" values="0 0 0 0 0 0 0 0 0 0 0 0 0 0 0 0 0 0 0.25 0"/>
<feBlend mode="normal" in2="BackgroundImageFix" result="effect1_dropShadow_14_38"/>
<feBlend mode="normal" in="SourceGraphic" in2="effect1_dropShadow_14_38" result="shape"/>
</filter>
<filter id="filter38_d_14_38" x="740.041" y="221" width="38.6561" height="48.9174" filterUnits="userSpaceOnUse" color-interpolation-filters="sRGB">
<feFlood flood-opacity="0" result="BackgroundImageFix"/>
<feColorMatrix in="SourceAlpha" type="matrix" values="0 0 0 0 0 0 0 0 0 0 0 0 0 0 0 0 0 0 127 0" result="hardAlpha"/>
<feOffset dy="2.95869"/>
<feGaussianBlur stdDeviation="1.47934"/>
<feColorMatrix type="matrix" values="0 0 0 0 0 0 0 0 0 0 0 0 0 0 0 0 0 0 0.25 0"/>
<feBlend mode="normal" in2="BackgroundImageFix" result="effect1_dropShadow_14_38"/>
<feBlend mode="normal" in="SourceGraphic" in2="effect1_dropShadow_14_38" result="shape"/>
</filter>
<filter id="filter39_d_14_38" x="740.368" y="226.329" width="37.0814" height="43.4915" filterUnits="userSpaceOnUse" color-interpolation-filters="sRGB">
<feFlood flood-opacity="0" result="BackgroundImageFix"/>
<feColorMatrix in="SourceAlpha" type="matrix" values="0 0 0 0 0 0 0 0 0 0 0 0 0 0 0 0 0 0 127 0" result="hardAlpha"/>
<feOffset dy="2.95869"/>
<feGaussianBlur stdDeviation="1.47934"/>
<feColorMatrix type="matrix" values="0 0 0 0 0 0 0 0 0 0 0 0 0 0 0 0 0 0 0.25 0"/>
<feBlend mode="normal" in2="BackgroundImageFix" result="effect1_dropShadow_14_38"/>
<feBlend mode="normal" in="SourceGraphic" in2="effect1_dropShadow_14_38" result="shape"/>
</filter>
<filter id="filter40_d_14_38" x="1326.4" y="360.519" width="47.5138" height="59.838" filterUnits="userSpaceOnUse" color-interpolation-filters="sRGB">
<feFlood flood-opacity="0" result="BackgroundImageFix"/>
<feColorMatrix in="SourceAlpha" type="matrix" values="0 0 0 0 0 0 0 0 0 0 0 0 0 0 0 0 0 0 127 0" result="hardAlpha"/>
<feOffset dy="3.60164"/>
<feGaussianBlur stdDeviation="1.80082"/>
<feColorMatrix type="matrix" values="0 0 0 0 0 0 0 0 0 0 0 0 0 0 0 0 0 0 0.25 0"/>
<feBlend mode="normal" in2="BackgroundImageFix" result="effect1_dropShadow_14_38"/>
<feBlend mode="normal" in="SourceGraphic" in2="effect1_dropShadow_14_38" result="shape"/>
</filter>
<filter id="filter41_d_14_38" x="1328.58" y="366.314" width="45.6208" height="52.2259" filterUnits="userSpaceOnUse" color-interpolation-filters="sRGB">
<feFlood flood-opacity="0" result="BackgroundImageFix"/>
<feColorMatrix in="SourceAlpha" type="matrix" values="0 0 0 0 0 0 0 0 0 0 0 0 0 0 0 0 0 0 127 0" result="hardAlpha"/>
<feOffset dy="3.60164"/>
<feGaussianBlur stdDeviation="1.80082"/>
<feColorMatrix type="matrix" values="0 0 0 0 0 0 0 0 0 0 0 0 0 0 0 0 0 0 0.25 0"/>
<feBlend mode="normal" in2="BackgroundImageFix" result="effect1_dropShadow_14_38"/>
<feBlend mode="normal" in="SourceGraphic" in2="effect1_dropShadow_14_38" result="shape"/>
</filter>
<filter id="filter42_d_14_38" x="1291.67" y="39.2769" width="54.9671" height="43.3431" filterUnits="userSpaceOnUse" color-interpolation-filters="sRGB">
<feFlood flood-opacity="0" result="BackgroundImageFix"/>
<feColorMatrix in="SourceAlpha" type="matrix" values="0 0 0 0 0 0 0 0 0 0 0 0 0 0 0 0 0 0 127 0" result="hardAlpha"/>
<feOffset dy="3.33194"/>
<feGaussianBlur stdDeviation="1.66597"/>
<feColorMatrix type="matrix" values="0 0 0 0 0 0 0 0 0 0 0 0 0 0 0 0 0 0 0.25 0"/>
<feBlend mode="normal" in2="BackgroundImageFix" result="effect1_dropShadow_14_38"/>
<feBlend mode="normal" in="SourceGraphic" in2="effect1_dropShadow_14_38" result="shape"/>
</filter>
<filter id="filter43_d_14_38" x="1297.04" y="39.004" width="48.0902" height="41.811" filterUnits="userSpaceOnUse" color-interpolation-filters="sRGB">
<feFlood flood-opacity="0" result="BackgroundImageFix"/>
<feColorMatrix in="SourceAlpha" type="matrix" values="0 0 0 0 0 0 0 0 0 0 0 0 0 0 0 0 0 0 127 0" result="hardAlpha"/>
<feOffset dy="3.33194"/>
<feGaussianBlur stdDeviation="1.66597"/>
<feColorMatrix type="matrix" values="0 0 0 0 0 0 0 0 0 0 0 0 0 0 0 0 0 0 0.25 0"/>
<feBlend mode="normal" in2="BackgroundImageFix" result="effect1_dropShadow_14_38"/>
<feBlend mode="normal" in="SourceGraphic" in2="effect1_dropShadow_14_38" result="shape"/>
</filter>
<filter id="filter44_d_14_38" x="1084.75" y="89.2844" width="53.5502" height="42.2259" filterUnits="userSpaceOnUse" color-interpolation-filters="sRGB">
<feFlood flood-opacity="0" result="BackgroundImageFix"/>
<feColorMatrix in="SourceAlpha" type="matrix" values="0 0 0 0 0 0 0 0 0 0 0 0 0 0 0 0 0 0 127 0" result="hardAlpha"/>
<feOffset dy="3.24606"/>
<feGaussianBlur stdDeviation="1.62303"/>
<feColorMatrix type="matrix" values="0 0 0 0 0 0 0 0 0 0 0 0 0 0 0 0 0 0 0.25 0"/>
<feBlend mode="normal" in2="BackgroundImageFix" result="effect1_dropShadow_14_38"/>
<feBlend mode="normal" in="SourceGraphic" in2="effect1_dropShadow_14_38" result="shape"/>
</filter>
<filter id="filter45_d_14_38" x="1089.99" y="89.0187" width="48.3229" height="40.7333" filterUnits="userSpaceOnUse" color-interpolation-filters="sRGB">
<feFlood flood-opacity="0" result="BackgroundImageFix"/>
<feColorMatrix in="SourceAlpha" type="matrix" values="0 0 0 0 0 0 0 0 0 0 0 0 0 0 0 0 0 0 127 0" result="hardAlpha"/>
<feOffset dy="3.24606"/>
<feGaussianBlur stdDeviation="1.62303"/>
<feColorMatrix type="matrix" values="0 0 0 0 0 0 0 0 0 0 0 0 0 0 0 0 0 0 0.25 0"/>
<feBlend mode="normal" in2="BackgroundImageFix" result="effect1_dropShadow_14_38"/>
<feBlend mode="normal" in="SourceGraphic" in2="effect1_dropShadow_14_38" result="shape"/>
</filter>
<filter id="filter46_d_14_38" x="494.695" y="206.004" width="46.3402" height="80.6118" filterUnits="userSpaceOnUse" color-interpolation-filters="sRGB">
<feFlood flood-opacity="0" result="BackgroundImageFix"/>
<feColorMatrix in="SourceAlpha" type="matrix" values="0 0 0 0 0 0 0 0 0 0 0 0 0 0 0 0 0 0 127 0" result="hardAlpha"/>
<feOffset dy="3.30545"/>
<feGaussianBlur stdDeviation="1.65273"/>
<feColorMatrix type="matrix" values="0 0 0 0 0 0 0 0 0 0 0 0 0 0 0 0 0 0 0.25 0"/>
<feBlend mode="normal" in2="BackgroundImageFix" result="effect1_dropShadow_14_38"/>
<feBlend mode="normal" in="SourceGraphic" in2="effect1_dropShadow_14_38" result="shape"/>
</filter>
<filter id="filter47_d_14_38" x="495.988" y="206.038" width="44.9825" height="75.5781" filterUnits="userSpaceOnUse" color-interpolation-filters="sRGB">
<feFlood flood-opacity="0" result="BackgroundImageFix"/>
<feColorMatrix in="SourceAlpha" type="matrix" values="0 0 0 0 0 0 0 0 0 0 0 0 0 0 0 0 0 0 127 0" result="hardAlpha"/>
<feOffset dy="3.30545"/>
<feGaussianBlur stdDeviation="1.65273"/>
<feColorMatrix type="matrix" values="0 0 0 0 0 0 0 0 0 0 0 0 0 0 0 0 0 0 0.25 0"/>
<feBlend mode="normal" in2="BackgroundImageFix" result="effect1_dropShadow_14_38"/>
<feBlend mode="normal" in="SourceGraphic" in2="effect1_dropShadow_14_38" result="shape"/>
</filter>
<filter id="filter48_d_14_38" x="1304.04" y="158" width="72.0958" height="40.9305" filterUnits="userSpaceOnUse" color-interpolation-filters="sRGB">
<feFlood flood-opacity="0" result="BackgroundImageFix"/>
<feColorMatrix in="SourceAlpha" type="matrix" values="0 0 0 0 0 0 0 0 0 0 0 0 0 0 0 0 0 0 127 0" result="hardAlpha"/>
<feOffset dy="2.96539"/>
<feGaussianBlur stdDeviation="1.48269"/>
<feColorMatrix type="matrix" values="0 0 0 0 0 0 0 0 0 0 0 0 0 0 0 0 0 0 0.25 0"/>
<feBlend mode="normal" in2="BackgroundImageFix" result="effect1_dropShadow_14_38"/>
<feBlend mode="normal" in="SourceGraphic" in2="effect1_dropShadow_14_38" result="shape"/>
</filter>
<filter id="filter49_d_14_38" x="1304.07" y="158.034" width="67.7867" height="39.8387" filterUnits="userSpaceOnUse" color-interpolation-filters="sRGB">
<feFlood flood-opacity="0" result="BackgroundImageFix"/>
<feColorMatrix in="SourceAlpha" type="matrix" values="0 0 0 0 0 0 0 0 0 0 0 0 0 0 0 0 0 0 127 0" result="hardAlpha"/>
<feOffset dy="2.96539"/>
<feGaussianBlur stdDeviation="1.48269"/>
<feColorMatrix type="matrix" values="0 0 0 0 0 0 0 0 0 0 0 0 0 0 0 0 0 0 0.25 0"/>
<feBlend mode="normal" in2="BackgroundImageFix" result="effect1_dropShadow_14_38"/>
<feBlend mode="normal" in="SourceGraphic" in2="effect1_dropShadow_14_38" result="shape"/>
</filter>
<filter id="filter50_d_14_38" x="1097.99" y="297" width="73.0153" height="41.2071" filterUnits="userSpaceOnUse" color-interpolation-filters="sRGB">
<feFlood flood-opacity="0" result="BackgroundImageFix"/>
<feColorMatrix in="SourceAlpha" type="matrix" values="0 0 0 0 0 0 0 0 0 0 0 0 0 0 0 0 0 0 127 0" result="hardAlpha"/>
<feOffset dy="3.00767"/>
<feGaussianBlur stdDeviation="1.50384"/>
<feColorMatrix type="matrix" values="0 0 0 0 0 0 0 0 0 0 0 0 0 0 0 0 0 0 0.25 0"/>
<feBlend mode="normal" in2="BackgroundImageFix" result="effect1_dropShadow_14_38"/>
<feBlend mode="normal" in="SourceGraphic" in2="effect1_dropShadow_14_38" result="shape"/>
</filter>
<filter id="filter51_d_14_38" x="1099.14" y="300.906" width="69.6809" height="37.4744" filterUnits="userSpaceOnUse" color-interpolation-filters="sRGB">
<feFlood flood-opacity="0" result="BackgroundImageFix"/>
<feColorMatrix in="SourceAlpha" type="matrix" values="0 0 0 0 0 0 0 0 0 0 0 0 0 0 0 0 0 0 127 0" result="hardAlpha"/>
<feOffset dy="3.00767"/>
<feGaussianBlur stdDeviation="1.50384"/>
<feColorMatrix type="matrix" values="0 0 0 0 0 0 0 0 0 0 0 0 0 0 0 0 0 0 0.25 0"/>
<feBlend mode="normal" in2="BackgroundImageFix" result="effect1_dropShadow_14_38"/>
<feBlend mode="normal" in="SourceGraphic" in2="effect1_dropShadow_14_38" result="shape"/>
</filter>
<linearGradient id="paint0_linear_14_38" x1="18.0202" y1="405.133" x2="28.1538" y2="460.407" gradientUnits="userSpaceOnUse">
<stop stop-color="#A9A9A9"/>
<stop offset="1" stop-color="#6C4788" stop-opacity="0.8"/>
</linearGradient>
<linearGradient id="paint1_linear_14_38" x1="153.833" y1="310.875" x2="153.833" y2="337.884" gradientUnits="userSpaceOnUse">
<stop stop-color="#A9A9A9"/>
<stop offset="1" stop-color="#9578AA"/>
</linearGradient>
<linearGradient id="paint2_linear_14_38" x1="491.484" y1="398.12" x2="491.484" y2="424.332" gradientUnits="userSpaceOnUse">
<stop stop-color="#A9A9A9"/>
<stop offset="1" stop-color="#9578AA"/>
</linearGradient>
<linearGradient id="paint3_linear_14_38" x1="1106.3" y1="179.481" x2="1106.3" y2="207.547" gradientUnits="userSpaceOnUse">
<stop stop-color="#A9A9A9"/>
<stop offset="1" stop-color="#9578AA"/>
</linearGradient>
<linearGradient id="paint4_linear_14_38" x1="284.945" y1="283.016" x2="288.427" y2="310.467" gradientUnits="userSpaceOnUse">
<stop stop-color="#A9A9A9"/>
<stop offset="1" stop-color="#9578AA"/>
</linearGradient>
<linearGradient id="paint5_linear_14_38" x1="769.53" y1="379.743" x2="766.52" y2="353.417" gradientUnits="userSpaceOnUse">
<stop stop-color="#A9A9A9"/>
<stop offset="1" stop-color="#9578AA"/>
</linearGradient>
<linearGradient id="paint6_linear_14_38" x1="741.068" y1="127.764" x2="744.366" y2="153.76" gradientUnits="userSpaceOnUse">
<stop stop-color="#A9A9A9"/>
<stop offset="1" stop-color="#9578AA"/>
</linearGradient>
<linearGradient id="paint7_linear_14_38" x1="622.926" y1="413.116" x2="649.992" y2="410.495" gradientUnits="userSpaceOnUse">
<stop stop-color="#A9A9A9"/>
<stop offset="1" stop-color="#9578AA"/>
</linearGradient>
<linearGradient id="paint8_linear_14_38" x1="962.251" y1="356.051" x2="959.305" y2="328.36" gradientUnits="userSpaceOnUse">
<stop stop-color="#A9A9A9"/>
<stop offset="1" stop-color="#9578AA"/>
</linearGradient>
<linearGradient id="paint9_linear_14_38" x1="1149.81" y1="388.809" x2="1152.39" y2="416.463" gradientUnits="userSpaceOnUse">
<stop stop-color="#A9A9A9"/>
<stop offset="1" stop-color="#9578AA"/>
</linearGradient>
<linearGradient id="paint10_linear_14_38" x1="175.943" y1="462.028" x2="173.259" y2="436.795" gradientUnits="userSpaceOnUse">
<stop stop-color="#A9A9A9"/>
<stop offset="1" stop-color="#9578AA"/>
</linearGradient>
<linearGradient id="paint11_linear_14_38" x1="910.318" y1="110.148" x2="913.611" y2="136.106" gradientUnits="userSpaceOnUse">
<stop stop-color="#A9A9A9"/>
<stop offset="1" stop-color="#9578AA"/>
</linearGradient>
<linearGradient id="paint12_linear_14_38" x1="1360.95" y1="300.585" x2="1358.34" y2="272.193" gradientUnits="userSpaceOnUse">
<stop stop-color="#A9A9A9"/>
<stop offset="1" stop-color="#9578AA"/>
</linearGradient>
<linearGradient id="paint13_linear_14_38" x1="782.927" y1="469.646" x2="780.077" y2="443.116" gradientUnits="userSpaceOnUse">
<stop stop-color="#A9A9A9"/>
<stop offset="1" stop-color="#9578AA"/>
</linearGradient>
<linearGradient id="paint14_linear_14_38" x1="651.024" y1="208.883" x2="608.817" y2="214.01" gradientUnits="userSpaceOnUse">
<stop stop-color="#A9A9A9"/>
<stop offset="1" stop-color="#9578AA"/>
</linearGradient>
<linearGradient id="paint15_linear_14_38" x1="956.467" y1="443.603" x2="952.72" y2="408.096" gradientUnits="userSpaceOnUse">
<stop stop-color="#A9A9A9"/>
<stop offset="1" stop-color="#9578AA"/>
</linearGradient>
<linearGradient id="paint16_linear_14_38" x1="422.026" y1="267.355" x2="393.901" y2="270.772" gradientUnits="userSpaceOnUse">
<stop stop-color="#A9A9A9"/>
<stop offset="1" stop-color="#9578AA"/>
</linearGradient>
<linearGradient id="paint17_linear_14_38" x1="351.473" y1="422.781" x2="381.955" y2="420.07" gradientUnits="userSpaceOnUse">
<stop stop-color="#A9A9A9"/>
<stop offset="1" stop-color="#9578AA"/>
</linearGradient>
<linearGradient id="paint18_linear_14_38" x1="936.999" y1="203.077" x2="940.821" y2="230.534" gradientUnits="userSpaceOnUse">
<stop stop-color="#A9A9A9"/>
<stop offset="1" stop-color="#9578AA"/>
</linearGradient>
<linearGradient id="paint19_linear_14_38" x1="745.916" y1="250.541" x2="770.567" y2="247.547" gradientUnits="userSpaceOnUse">
<stop stop-color="#A9A9A9"/>
<stop offset="1" stop-color="#9578AA"/>
</linearGradient>
<linearGradient id="paint20_linear_14_38" x1="1368.46" y1="392.229" x2="1338.49" y2="396.186" gradientUnits="userSpaceOnUse">
<stop stop-color="#A9A9A9"/>
<stop offset="1" stop-color="#9578AA"/>
</linearGradient>
<linearGradient id="paint21_linear_14_38" x1="1324.39" y1="40.7621" x2="1327.64" y2="68.5386" gradientUnits="userSpaceOnUse">
<stop stop-color="#A9A9A9"/>
<stop offset="1" stop-color="#9578AA"/>
</linearGradient>
<linearGradient id="paint22_linear_14_38" x1="1116.64" y1="90.7314" x2="1119.8" y2="117.792" gradientUnits="userSpaceOnUse">
<stop stop-color="#A9A9A9"/>
<stop offset="1" stop-color="#9578AA"/>
</linearGradient>
<linearGradient id="paint23_linear_14_38" x1="532.601" y1="232.072" x2="505.031" y2="235.421" gradientUnits="userSpaceOnUse">
<stop stop-color="#A9A9A9"/>
<stop offset="1" stop-color="#9578AA"/>
</linearGradient>
<linearGradient id="paint24_linear_14_38" x1="1330.42" y1="162.175" x2="1333.16" y2="186.939" gradientUnits="userSpaceOnUse">
<stop stop-color="#A9A9A9"/>
<stop offset="1" stop-color="#9578AA"/>
</linearGradient>
<linearGradient id="paint25_linear_14_38" x1="1127.81" y1="329.892" x2="1125.16" y2="304.761" gradientUnits="userSpaceOnUse">
<stop stop-color="#A9A9A9"/>
<stop offset="1" stop-color="#9578AA"/>
</linearGradient>
</defs>
</svg>
