<svg width="200" height="135" viewBox="0 0 200 135" fill="none" xmlns="http://www.w3.org/2000/svg">
<rect x="198.625" y="111.625" width="197.25" height="110.25" rx="12.375" transform="rotate(-180 198.625 111.625)" fill="white" stroke="#DFDFDF" stroke-width="2.75"/>
<path d="M101.691 132.937C101.162 133.854 99.8385 133.854 99.3092 132.937L87.4014 112.312C86.8721 111.396 87.5337 110.25 88.5922 110.25L112.408 110.25C113.466 110.25 114.128 111.396 113.599 112.312L101.691 132.937Z" fill="white"/>
<path d="M37.4966 22.5V24.15H34.5416V33H32.8166V24.15H29.8466V22.5H37.4966ZM41.9307 25.305C42.9607 25.305 43.8407 25.69 44.5707 26.46C45.3007 27.22 45.6657 28.15 45.6657 29.25C45.6657 30.36 45.3007 31.295 44.5707 32.055C43.8407 32.815 42.9607 33.195 41.9307 33.195C40.7907 33.195 39.9157 32.775 39.3057 31.935V36H37.6857V25.5H39.3057V26.58C39.9157 25.73 40.7907 25.305 41.9307 25.305ZM39.9807 30.975C40.4307 31.425 40.9957 31.65 41.6757 31.65C42.3557 31.65 42.9207 31.425 43.3707 30.975C43.8207 30.515 44.0457 29.94 44.0457 29.25C44.0457 28.56 43.8207 27.99 43.3707 27.54C42.9207 27.08 42.3557 26.85 41.6757 26.85C40.9957 26.85 40.4307 27.08 39.9807 27.54C39.5307 27.99 39.3057 28.56 39.3057 29.25C39.3057 29.94 39.5307 30.515 39.9807 30.975ZM53.074 25.5H54.694V33H53.074V31.92C52.464 32.77 51.589 33.195 50.449 33.195C49.419 33.195 48.539 32.815 47.809 32.055C47.079 31.285 46.714 30.35 46.714 29.25C46.714 28.14 47.079 27.205 47.809 26.445C48.539 25.685 49.419 25.305 50.449 25.305C51.589 25.305 52.464 25.725 53.074 26.565V25.5ZM49.009 30.975C49.459 31.425 50.024 31.65 50.704 31.65C51.384 31.65 51.949 31.425 52.399 30.975C52.849 30.515 53.074 29.94 53.074 29.25C53.074 28.56 52.849 27.99 52.399 27.54C51.949 27.08 51.384 26.85 50.704 26.85C50.024 26.85 49.459 27.08 49.009 27.54C48.559 27.99 48.334 28.56 48.334 29.25C48.334 29.94 48.559 30.515 49.009 30.975ZM61.6372 25.5H63.2572V33H61.6372V30.015H58.2022V33H56.5822V25.5H58.2022V28.485H61.6372V25.5ZM68.6769 33.195C67.5469 33.195 66.6019 32.815 65.8419 32.055C65.0919 31.295 64.7169 30.36 64.7169 29.25C64.7169 28.13 65.0919 27.195 65.8419 26.445C66.6019 25.685 67.5469 25.305 68.6769 25.305C69.4069 25.305 70.0719 25.48 70.6719 25.83C71.2719 26.18 71.7219 26.65 72.0219 27.24L70.6269 28.05C70.4569 27.69 70.1969 27.41 69.8469 27.21C69.5069 27 69.1119 26.895 68.6619 26.895C68.0019 26.895 67.4469 27.12 66.9969 27.57C66.5569 28.02 66.3369 28.58 66.3369 29.25C66.3369 29.92 66.5569 30.48 66.9969 30.93C67.4469 31.38 68.0019 31.605 68.6619 31.605C69.1019 31.605 69.4969 31.5 69.8469 31.29C70.2069 31.08 70.4769 30.8 70.6569 30.45L72.0519 31.245C71.7319 31.845 71.2719 32.32 70.6719 32.67C70.0719 33.02 69.4069 33.195 68.6769 33.195ZM80.8156 26.655C81.4956 27.365 81.8356 28.23 81.8356 29.25C81.8356 30.27 81.4956 31.135 80.8156 31.845C80.1356 32.555 79.2156 32.985 78.0556 33.135V36H76.4656V33.135C75.3056 32.985 74.3856 32.555 73.7056 31.845C73.0256 31.135 72.6856 30.27 72.6856 29.25C72.6856 28.23 73.0256 27.365 73.7056 26.655C74.3856 25.945 75.3056 25.515 76.4656 25.365V22.5H78.0556V25.365C79.2156 25.515 80.1356 25.945 80.8156 26.655ZM78.0556 31.59C78.7456 31.46 79.2806 31.19 79.6606 30.78C80.0406 30.36 80.2306 29.85 80.2306 29.25C80.2306 28.65 80.0406 28.145 79.6606 27.735C79.2806 27.315 78.7456 27.04 78.0556 26.91V31.59ZM74.8606 27.735C74.4806 28.155 74.2906 28.66 74.2906 29.25C74.2906 29.84 74.4806 30.345 74.8606 30.765C75.2406 31.185 75.7756 31.46 76.4656 31.59V26.91C75.7756 27.04 75.2406 27.315 74.8606 27.735ZM86.841 33.195C85.741 33.195 84.806 32.815 84.036 32.055C83.266 31.295 82.881 30.36 82.881 29.25C82.881 28.14 83.266 27.205 84.036 26.445C84.806 25.685 85.741 25.305 86.841 25.305C87.951 25.305 88.886 25.685 89.646 26.445C90.416 27.205 90.801 28.14 90.801 29.25C90.801 30.36 90.416 31.295 89.646 32.055C88.886 32.815 87.951 33.195 86.841 33.195ZM85.176 30.945C85.626 31.395 86.181 31.62 86.841 31.62C87.501 31.62 88.056 31.395 88.506 30.945C88.956 30.495 89.181 29.93 89.181 29.25C89.181 28.57 88.956 28.005 88.506 27.555C88.056 27.105 87.501 26.88 86.841 26.88C86.181 26.88 85.626 27.105 85.176 27.555C84.726 28.005 84.501 28.57 84.501 29.25C84.501 29.93 84.726 30.495 85.176 30.945ZM96.5108 25.305C97.5408 25.305 98.4208 25.69 99.1508 26.46C99.8808 27.22 100.246 28.15 100.246 29.25C100.246 30.36 99.8808 31.295 99.1508 32.055C98.4208 32.815 97.5408 33.195 96.5108 33.195C95.3708 33.195 94.4958 32.775 93.8858 31.935V36H92.2658V25.5H93.8858V26.58C94.4958 25.73 95.3708 25.305 96.5108 25.305ZM94.5608 30.975C95.0108 31.425 95.5758 31.65 96.2558 31.65C96.9358 31.65 97.5008 31.425 97.9508 30.975C98.4008 30.515 98.6258 29.94 98.6258 29.25C98.6258 28.56 98.4008 27.99 97.9508 27.54C97.5008 27.08 96.9358 26.85 96.2558 26.85C95.5758 26.85 95.0108 27.08 94.5608 27.54C94.1108 27.99 93.8858 28.56 93.8858 29.25C93.8858 29.94 94.1108 30.515 94.5608 30.975ZM109.364 25.5V33H107.789V28.065L105.629 31.5H105.434L103.289 28.08V33H101.714V25.5H103.364L105.539 28.965L107.714 25.5H109.364ZM117.176 25.5H118.796V33H117.176V31.92C116.566 32.77 115.691 33.195 114.551 33.195C113.521 33.195 112.641 32.815 111.911 32.055C111.181 31.285 110.816 30.35 110.816 29.25C110.816 28.14 111.181 27.205 111.911 26.445C112.641 25.685 113.521 25.305 114.551 25.305C115.691 25.305 116.566 25.725 117.176 26.565V25.5ZM113.111 30.975C113.561 31.425 114.126 31.65 114.806 31.65C115.486 31.65 116.051 31.425 116.501 30.975C116.951 30.515 117.176 29.94 117.176 29.25C117.176 28.56 116.951 27.99 116.501 27.54C116.051 27.08 115.486 26.85 114.806 26.85C114.126 26.85 113.561 27.08 113.111 27.54C112.661 27.99 112.436 28.56 112.436 29.25C112.436 29.94 112.661 30.515 113.111 30.975ZM126.414 25.5V27.06H123.969V33H122.349V27.06H119.889V25.5H126.414ZM130.757 33.195C129.657 33.195 128.722 32.815 127.952 32.055C127.182 31.295 126.797 30.36 126.797 29.25C126.797 28.14 127.182 27.205 127.952 26.445C128.722 25.685 129.657 25.305 130.757 25.305C131.867 25.305 132.802 25.685 133.562 26.445C134.332 27.205 134.717 28.14 134.717 29.25C134.717 30.36 134.332 31.295 133.562 32.055C132.802 32.815 131.867 33.195 130.757 33.195ZM129.092 30.945C129.542 31.395 130.097 31.62 130.757 31.62C131.417 31.62 131.972 31.395 132.422 30.945C132.872 30.495 133.097 29.93 133.097 29.25C133.097 28.57 132.872 28.005 132.422 27.555C131.972 27.105 131.417 26.88 130.757 26.88C130.097 26.88 129.542 27.105 129.092 27.555C128.642 28.005 128.417 28.57 128.417 29.25C128.417 29.93 128.642 30.495 129.092 30.945ZM140.427 25.305C141.457 25.305 142.337 25.69 143.067 26.46C143.797 27.22 144.162 28.15 144.162 29.25C144.162 30.36 143.797 31.295 143.067 32.055C142.337 32.815 141.457 33.195 140.427 33.195C139.287 33.195 138.412 32.775 137.802 31.935V36H136.182V25.5H137.802V26.58C138.412 25.73 139.287 25.305 140.427 25.305ZM138.477 30.975C138.927 31.425 139.492 31.65 140.172 31.65C140.852 31.65 141.417 31.425 141.867 30.975C142.317 30.515 142.542 29.94 142.542 29.25C142.542 28.56 142.317 27.99 141.867 27.54C141.417 27.08 140.852 26.85 140.172 26.85C139.492 26.85 138.927 27.08 138.477 27.54C138.027 27.99 137.802 28.56 137.802 29.25C137.802 29.94 138.027 30.515 138.477 30.975ZM150.685 25.5H152.305V33H150.685V30.015H147.25V33H145.63V25.5H147.25V28.485H150.685V25.5ZM160.125 25.5H161.745V33H160.125V31.92C159.515 32.77 158.64 33.195 157.5 33.195C156.47 33.195 155.59 32.815 154.86 32.055C154.13 31.285 153.765 30.35 153.765 29.25C153.765 28.14 154.13 27.205 154.86 26.445C155.59 25.685 156.47 25.305 157.5 25.305C158.64 25.305 159.515 25.725 160.125 26.565V25.5ZM156.06 30.975C156.51 31.425 157.075 31.65 157.755 31.65C158.435 31.65 159 31.425 159.45 30.975C159.9 30.515 160.125 29.94 160.125 29.25C160.125 28.56 159.9 27.99 159.45 27.54C159 27.08 158.435 26.85 157.755 26.85C157.075 26.85 156.51 27.08 156.06 27.54C155.61 27.99 155.385 28.56 155.385 29.25C155.385 29.94 155.61 30.515 156.06 30.975ZM169.438 25.5V33H167.848V30.48H166.948L165.043 33H163.138L165.163 30.33C164.643 30.16 164.223 29.86 163.903 29.43C163.593 29 163.438 28.52 163.438 27.99C163.438 27.3 163.683 26.715 164.173 26.235C164.673 25.745 165.313 25.5 166.093 25.5H169.438ZM166.183 29.085H167.848V26.97H166.183C165.853 26.97 165.578 27.065 165.358 27.255C165.138 27.445 165.028 27.705 165.028 28.035C165.028 28.355 165.138 28.61 165.358 28.8C165.578 28.99 165.853 29.085 166.183 29.085ZM63.8138 43.5V51H62.1938V45.03H58.7588V51H57.1388V43.5H63.8138ZM69.2335 51.195C68.1335 51.195 67.1985 50.815 66.4285 50.055C65.6585 49.295 65.2735 48.36 65.2735 47.25C65.2735 46.14 65.6585 45.205 66.4285 44.445C67.1985 43.685 68.1335 43.305 69.2335 43.305C70.3435 43.305 71.2785 43.685 72.0385 44.445C72.8085 45.205 73.1935 46.14 73.1935 47.25C73.1935 48.36 72.8085 49.295 72.0385 50.055C71.2785 50.815 70.3435 51.195 69.2335 51.195ZM67.5685 48.945C68.0185 49.395 68.5735 49.62 69.2335 49.62C69.8935 49.62 70.4485 49.395 70.8985 48.945C71.3485 48.495 71.5735 47.93 71.5735 47.25C71.5735 46.57 71.3485 46.005 70.8985 45.555C70.4485 45.105 69.8935 44.88 69.2335 44.88C68.5735 44.88 68.0185 45.105 67.5685 45.555C67.1185 46.005 66.8935 46.57 66.8935 47.25C66.8935 47.93 67.1185 48.495 67.5685 48.945ZM80.9654 49.47H81.9704V53.01H80.3804V51H75.2354V53.01H73.6454V49.47H74.5604C75.0204 48.82 75.2504 47.915 75.2504 46.755V43.5H80.9654V49.47ZM76.3454 49.47H79.3754V44.985H76.8404V46.755C76.8404 47.825 76.6754 48.73 76.3454 49.47ZM86.5333 51.195C85.4033 51.195 84.4583 50.815 83.6983 50.055C82.9483 49.295 82.5733 48.36 82.5733 47.25C82.5733 46.13 82.9483 45.195 83.6983 44.445C84.4583 43.685 85.4033 43.305 86.5333 43.305C87.2633 43.305 87.9283 43.48 88.5283 43.83C89.1283 44.18 89.5783 44.65 89.8783 45.24L88.4833 46.05C88.3133 45.69 88.0533 45.41 87.7033 45.21C87.3633 45 86.9683 44.895 86.5183 44.895C85.8583 44.895 85.3033 45.12 84.8533 45.57C84.4133 46.02 84.1933 46.58 84.1933 47.25C84.1933 47.92 84.4133 48.48 84.8533 48.93C85.3033 49.38 85.8583 49.605 86.5183 49.605C86.9583 49.605 87.3533 49.5 87.7033 49.29C88.0633 49.08 88.3333 48.8 88.5133 48.45L89.9083 49.245C89.5883 49.845 89.1283 50.32 88.5283 50.67C87.9283 51.02 87.2633 51.195 86.5333 51.195ZM96.736 43.5V45.06H94.291V51H92.671V45.06H90.211V43.5H96.736ZM103.479 43.5H105.099V51H103.479V49.92C102.869 50.77 101.994 51.195 100.854 51.195C99.8242 51.195 98.9442 50.815 98.2142 50.055C97.4842 49.285 97.1192 48.35 97.1192 47.25C97.1192 46.14 97.4842 45.205 98.2142 44.445C98.9442 43.685 99.8242 43.305 100.854 43.305C101.994 43.305 102.869 43.725 103.479 44.565V43.5ZM99.4142 48.975C99.8642 49.425 100.429 49.65 101.109 49.65C101.789 49.65 102.354 49.425 102.804 48.975C103.254 48.515 103.479 47.94 103.479 47.25C103.479 46.56 103.254 45.99 102.804 45.54C102.354 45.08 101.789 44.85 101.109 44.85C100.429 44.85 99.8642 45.08 99.4142 45.54C98.9642 45.99 98.7392 46.56 98.7392 47.25C98.7392 47.94 98.9642 48.515 99.4142 48.975ZM112.042 43.5H113.662V51H112.042V48.015H108.607V51H106.987V43.5H108.607V46.485H112.042V43.5ZM121.992 49.47H123.222V53.01H121.632V51H115.542V43.5H117.162V49.47H120.372V43.5H121.992V49.47ZM129.966 43.5H131.211V51H129.621V46.23L125.781 51H124.536V43.5H126.126V48.255L129.966 43.5ZM138.896 43.5V51H137.306V48.48H136.406L134.501 51H132.596L134.621 48.33C134.101 48.16 133.681 47.86 133.361 47.43C133.051 47 132.896 46.52 132.896 45.99C132.896 45.3 133.141 44.715 133.631 44.235C134.131 43.745 134.771 43.5 135.551 43.5H138.896ZM135.641 47.085H137.306V44.97H135.641C135.311 44.97 135.036 45.065 134.816 45.255C134.596 45.445 134.486 45.705 134.486 46.035C134.486 46.355 134.596 46.61 134.816 46.8C135.036 46.99 135.311 47.085 135.641 47.085ZM143.031 49.2L141.981 53.1H140.631L141.231 49.2H143.031ZM29.5355 69L28.8005 66.885H24.3305L23.5955 69H21.7205L25.5305 58.5H27.6005L31.3955 69H29.5355ZM24.9005 65.265H28.2305L26.5655 60.525L24.9005 65.265ZM39.0929 67.47H40.0979V71.01H38.5079V69H33.3629V71.01H31.7729V67.47H32.6879C33.1479 66.82 33.3779 65.915 33.3779 64.755V61.5H39.0929V67.47ZM34.4729 67.47H37.5029V62.985H34.9679V64.755C34.9679 65.825 34.8029 66.73 34.4729 67.47ZM49.0638 61.5V69H47.4888V64.065L45.3288 67.5H45.1338L42.9888 64.08V69H41.4138V61.5H43.0638L45.2388 64.965L47.4138 61.5H49.0638ZM56.3652 61.5H57.6102V69H56.0202V64.23L52.1802 69H50.9352V61.5H52.5252V66.255L56.3652 61.5ZM64.5449 61.5H66.1649V69H64.5449V66.015H61.1099V69H59.4899V61.5H61.1099V64.485H64.5449V61.5ZM73.4746 61.5H74.7196V69H73.1296V64.23L69.2896 69H68.0446V61.5H69.6346V66.255L73.4746 61.5ZM80.1393 69.195C79.0093 69.195 78.0643 68.815 77.3043 68.055C76.5543 67.295 76.1793 66.36 76.1793 65.25C76.1793 64.13 76.5543 63.195 77.3043 62.445C78.0643 61.685 79.0093 61.305 80.1393 61.305C80.8693 61.305 81.5343 61.48 82.1343 61.83C82.7343 62.18 83.1843 62.65 83.4843 63.24L82.0893 64.05C81.9193 63.69 81.6593 63.41 81.3093 63.21C80.9693 63 80.5743 62.895 80.1243 62.895C79.4643 62.895 78.9093 63.12 78.4593 63.57C78.0193 64.02 77.7993 64.58 77.7993 65.25C77.7993 65.92 78.0193 66.48 78.4593 66.93C78.9093 67.38 79.4643 67.605 80.1243 67.605C80.5643 67.605 80.9593 67.5 81.3093 67.29C81.6693 67.08 81.9393 66.8 82.1193 66.45L83.5143 67.245C83.1943 67.845 82.7343 68.32 82.1343 68.67C81.5343 69.02 80.8693 69.195 80.1393 69.195ZM90.342 61.5V63.06H87.897V69H86.277V63.06H83.817V61.5H90.342ZM95.6832 61.305C96.7132 61.305 97.5932 61.69 98.3232 62.46C99.0532 63.22 99.4182 64.15 99.4182 65.25C99.4182 66.36 99.0532 67.295 98.3232 68.055C97.5932 68.815 96.7132 69.195 95.6832 69.195C94.5432 69.195 93.6682 68.775 93.0582 67.935V72H91.4382V61.5H93.0582V62.58C93.6682 61.73 94.5432 61.305 95.6832 61.305ZM93.7332 66.975C94.1832 67.425 94.7482 67.65 95.4282 67.65C96.1082 67.65 96.6732 67.425 97.1232 66.975C97.5732 66.515 97.7982 65.94 97.7982 65.25C97.7982 64.56 97.5732 63.99 97.1232 63.54C96.6732 63.08 96.1082 62.85 95.4282 62.85C94.7482 62.85 94.1832 63.08 93.7332 63.54C93.2832 63.99 93.0582 64.56 93.0582 65.25C93.0582 65.94 93.2832 66.515 93.7332 66.975ZM106.826 61.5H108.446V69H106.826V67.92C106.216 68.77 105.341 69.195 104.201 69.195C103.171 69.195 102.291 68.815 101.561 68.055C100.831 67.285 100.466 66.35 100.466 65.25C100.466 64.14 100.831 63.205 101.561 62.445C102.291 61.685 103.171 61.305 104.201 61.305C105.341 61.305 106.216 61.725 106.826 62.565V61.5ZM102.761 66.975C103.211 67.425 103.776 67.65 104.456 67.65C105.136 67.65 105.701 67.425 106.151 66.975C106.601 66.515 106.826 65.94 106.826 65.25C106.826 64.56 106.601 63.99 106.151 63.54C105.701 63.08 105.136 62.85 104.456 62.85C103.776 62.85 103.211 63.08 102.761 63.54C102.311 63.99 102.086 64.56 102.086 65.25C102.086 65.94 102.311 66.515 102.761 66.975ZM116.785 67.47H118.015V71.01H116.425V69H110.335V61.5H111.955V67.47H115.165V61.5H116.785V67.47ZM124.759 61.5H126.004V69H124.414V64.23L120.574 69H119.329V61.5H120.919V66.255L124.759 61.5ZM133.688 61.5V69H132.098V66.48H131.198L129.293 69H127.388L129.413 66.33C128.893 66.16 128.473 65.86 128.153 65.43C127.843 65 127.688 64.52 127.688 63.99C127.688 63.3 127.933 62.715 128.423 62.235C128.923 61.745 129.563 61.5 130.343 61.5H133.688ZM130.433 65.085H132.098V62.97H130.433C130.103 62.97 129.828 63.065 129.608 63.255C129.388 63.445 129.278 63.705 129.278 64.035C129.278 64.355 129.388 64.61 129.608 64.8C129.828 64.99 130.103 65.085 130.433 65.085ZM135.979 70.5H135.154L141.154 57H141.979L135.979 70.5ZM146.995 69.195C145.895 69.195 144.96 68.815 144.19 68.055C143.42 67.295 143.035 66.36 143.035 65.25C143.035 64.14 143.42 63.205 144.19 62.445C144.96 61.685 145.895 61.305 146.995 61.305C148.105 61.305 149.04 61.685 149.8 62.445C150.57 63.205 150.955 64.14 150.955 65.25C150.955 66.36 150.57 67.295 149.8 68.055C149.04 68.815 148.105 69.195 146.995 69.195ZM145.33 66.945C145.78 67.395 146.335 67.62 146.995 67.62C147.655 67.62 148.21 67.395 148.66 66.945C149.11 66.495 149.335 65.93 149.335 65.25C149.335 64.57 149.11 64.005 148.66 63.555C148.21 63.105 147.655 62.88 146.995 62.88C146.335 62.88 145.78 63.105 145.33 63.555C144.88 64.005 144.655 64.57 144.655 65.25C144.655 65.93 144.88 66.495 145.33 66.945ZM160.13 62.655C160.81 63.365 161.15 64.23 161.15 65.25C161.15 66.27 160.81 67.135 160.13 67.845C159.45 68.555 158.53 68.985 157.37 69.135V72H155.78V69.135C154.62 68.985 153.7 68.555 153.02 67.845C152.34 67.135 152 66.27 152 65.25C152 64.23 152.34 63.365 153.02 62.655C153.7 61.945 154.62 61.515 155.78 61.365V58.5H157.37V61.365C158.53 61.515 159.45 61.945 160.13 62.655ZM157.37 67.59C158.06 67.46 158.595 67.19 158.975 66.78C159.355 66.36 159.545 65.85 159.545 65.25C159.545 64.65 159.355 64.145 158.975 63.735C158.595 63.315 158.06 63.04 157.37 62.91V67.59ZM154.175 63.735C153.795 64.155 153.605 64.66 153.605 65.25C153.605 65.84 153.795 66.345 154.175 66.765C154.555 67.185 155.09 67.46 155.78 67.59V62.91C155.09 63.04 154.555 63.315 154.175 63.735ZM168.045 61.5H169.29V69H167.7V64.23L163.86 69H162.615V61.5H164.205V66.255L168.045 61.5ZM174.71 69.195C173.58 69.195 172.635 68.815 171.875 68.055C171.125 67.295 170.75 66.36 170.75 65.25C170.75 64.13 171.125 63.195 171.875 62.445C172.635 61.685 173.58 61.305 174.71 61.305C175.44 61.305 176.105 61.48 176.705 61.83C177.305 62.18 177.755 62.65 178.055 63.24L176.66 64.05C176.49 63.69 176.23 63.41 175.88 63.21C175.54 63 175.145 62.895 174.695 62.895C174.035 62.895 173.48 63.12 173.03 63.57C172.59 64.02 172.37 64.58 172.37 65.25C172.37 65.92 172.59 66.48 173.03 66.93C173.48 67.38 174.035 67.605 174.695 67.605C175.135 67.605 175.53 67.5 175.88 67.29C176.24 67.08 176.51 66.8 176.69 66.45L178.085 67.245C177.765 67.845 177.305 68.32 176.705 68.67C176.105 69.02 175.44 69.195 174.71 69.195ZM79.8319 79.5V87H78.2119V81.03H74.7769V87H73.1569V79.5H79.8319ZM85.9566 79.305C86.9866 79.305 87.8666 79.69 88.5966 80.46C89.3266 81.22 89.6916 82.15 89.6916 83.25C89.6916 84.36 89.3266 85.295 88.5966 86.055C87.8666 86.815 86.9866 87.195 85.9566 87.195C84.8166 87.195 83.9416 86.775 83.3316 85.935V90H81.7116V79.5H83.3316V80.58C83.9416 79.73 84.8166 79.305 85.9566 79.305ZM84.0066 84.975C84.4566 85.425 85.0216 85.65 85.7016 85.65C86.3816 85.65 86.9466 85.425 87.3966 84.975C87.8466 84.515 88.0716 83.94 88.0716 83.25C88.0716 82.56 87.8466 81.99 87.3966 81.54C86.9466 81.08 86.3816 80.85 85.7016 80.85C85.0216 80.85 84.4566 81.08 84.0066 81.54C83.5566 81.99 83.3316 82.56 83.3316 83.25C83.3316 83.94 83.5566 84.515 84.0066 84.975ZM94.6998 87.195C93.5998 87.195 92.6648 86.815 91.8948 86.055C91.1248 85.295 90.7398 84.36 90.7398 83.25C90.7398 82.14 91.1248 81.205 91.8948 80.445C92.6648 79.685 93.5998 79.305 94.6998 79.305C95.8098 79.305 96.7448 79.685 97.5048 80.445C98.2748 81.205 98.6598 82.14 98.6598 83.25C98.6598 84.36 98.2748 85.295 97.5048 86.055C96.7448 86.815 95.8098 87.195 94.6998 87.195ZM93.0348 84.945C93.4848 85.395 94.0398 85.62 94.6998 85.62C95.3598 85.62 95.9148 85.395 96.3648 84.945C96.8148 84.495 97.0398 83.93 97.0398 83.25C97.0398 82.57 96.8148 82.005 96.3648 81.555C95.9148 81.105 95.3598 80.88 94.6998 80.88C94.0398 80.88 93.4848 81.105 93.0348 81.555C92.5848 82.005 92.3598 82.57 92.3598 83.25C92.3598 83.93 92.5848 84.495 93.0348 84.945ZM106.432 85.47H107.437V89.01H105.847V87H100.702V89.01H99.1117V85.47H100.027C100.487 84.82 100.717 83.915 100.717 82.755V79.5H106.432V85.47ZM101.812 85.47H104.842V80.985H102.307V82.755C102.307 83.825 102.142 84.73 101.812 85.47ZM114.4 79.5H116.02V87H114.4V85.92C113.79 86.77 112.915 87.195 111.775 87.195C110.745 87.195 109.865 86.815 109.135 86.055C108.405 85.285 108.04 84.35 108.04 83.25C108.04 82.14 108.405 81.205 109.135 80.445C109.865 79.685 110.745 79.305 111.775 79.305C112.915 79.305 113.79 79.725 114.4 80.565V79.5ZM110.335 84.975C110.785 85.425 111.35 85.65 112.03 85.65C112.71 85.65 113.275 85.425 113.725 84.975C114.175 84.515 114.4 83.94 114.4 83.25C114.4 82.56 114.175 81.99 113.725 81.54C113.275 81.08 112.71 80.85 112.03 80.85C111.35 80.85 110.785 81.08 110.335 81.54C109.885 81.99 109.66 82.56 109.66 83.25C109.66 83.94 109.885 84.515 110.335 84.975ZM127.568 87H125.723L123.173 83.535V87H121.583V83.565L119.033 87H117.188L120.113 83.175L117.338 79.5H119.183L121.583 82.785V79.5H123.173V82.8L125.573 79.5H127.418L124.643 83.175L127.568 87Z" fill="#333333"/>
</svg>
