<svg width="200" height="102" viewBox="0 0 200 102" fill="none" xmlns="http://www.w3.org/2000/svg">
<rect x="198.625" y="78.625" width="197.25" height="77.25" rx="12.375" transform="rotate(-180 198.625 78.625)" fill="white" stroke="#DFDFDF" stroke-width="2.75"/>
<path d="M101.691 99.9375C101.162 100.854 99.8385 100.854 99.3092 99.9375L87.4014 79.3125C86.8721 78.3958 87.5337 77.25 88.5922 77.25L112.408 77.25C113.466 77.25 114.128 78.3958 113.599 79.3125L101.691 99.9375Z" fill="white"/>
<path d="M49.1119 24.5V35H47.3869V26.15H43.1119V35H41.3869V24.5H49.1119ZM57.051 27.5H58.671V35H57.051V33.92C56.441 34.77 55.566 35.195 54.426 35.195C53.396 35.195 52.516 34.815 51.786 34.055C51.056 33.285 50.691 32.35 50.691 31.25C50.691 30.14 51.056 29.205 51.786 28.445C52.516 27.685 53.396 27.305 54.426 27.305C55.566 27.305 56.441 27.725 57.051 28.565V27.5ZM52.986 32.975C53.436 33.425 54.001 33.65 54.681 33.65C55.361 33.65 55.926 33.425 56.376 32.975C56.826 32.515 57.051 31.94 57.051 31.25C57.051 30.56 56.826 29.99 56.376 29.54C55.926 29.08 55.361 28.85 54.681 28.85C54.001 28.85 53.436 29.08 52.986 29.54C52.536 29.99 52.311 30.56 52.311 31.25C52.311 31.94 52.536 32.515 52.986 32.975ZM64.8043 27.305C65.8343 27.305 66.7143 27.69 67.4443 28.46C68.1743 29.22 68.5393 30.15 68.5393 31.25C68.5393 32.36 68.1743 33.295 67.4443 34.055C66.7143 34.815 65.8343 35.195 64.8043 35.195C63.6643 35.195 62.7893 34.775 62.1793 33.935V38H60.5593V27.5H62.1793V28.58C62.7893 27.73 63.6643 27.305 64.8043 27.305ZM62.8543 32.975C63.3043 33.425 63.8693 33.65 64.5493 33.65C65.2293 33.65 65.7943 33.425 66.2443 32.975C66.6943 32.515 66.9193 31.94 66.9193 31.25C66.9193 30.56 66.6943 29.99 66.2443 29.54C65.7943 29.08 65.2293 28.85 64.5493 28.85C63.8693 28.85 63.3043 29.08 62.8543 29.54C62.4043 29.99 62.1793 30.56 62.1793 31.25C62.1793 31.94 62.4043 32.515 62.8543 32.975ZM76.6375 35H74.7025L71.6275 31.535V35H70.0075V27.5H71.6275V30.815L74.5375 27.5H76.5175L73.2175 31.175L76.6375 35ZM80.6666 35.195C79.5666 35.195 78.6316 34.815 77.8616 34.055C77.0916 33.295 76.7066 32.36 76.7066 31.25C76.7066 30.14 77.0916 29.205 77.8616 28.445C78.6316 27.685 79.5666 27.305 80.6666 27.305C81.7766 27.305 82.7116 27.685 83.4716 28.445C84.2416 29.205 84.6266 30.14 84.6266 31.25C84.6266 32.36 84.2416 33.295 83.4716 34.055C82.7116 34.815 81.7766 35.195 80.6666 35.195ZM79.0016 32.945C79.4516 33.395 80.0066 33.62 80.6666 33.62C81.3266 33.62 81.8816 33.395 82.3316 32.945C82.7816 32.495 83.0066 31.93 83.0066 31.25C83.0066 30.57 82.7816 30.005 82.3316 29.555C81.8816 29.105 81.3266 28.88 80.6666 28.88C80.0066 28.88 79.4516 29.105 79.0016 29.555C78.5516 30.005 78.3266 30.57 78.3266 31.25C78.3266 31.93 78.5516 32.495 79.0016 32.945ZM91.2815 31.145C92.0215 31.485 92.3915 32.06 92.3915 32.87C92.3915 33.5 92.1765 34.015 91.7465 34.415C91.3265 34.805 90.7215 35 89.9315 35H86.0915V27.5H89.6315C90.4015 27.5 90.9965 27.695 91.4165 28.085C91.8465 28.465 92.0615 28.96 92.0615 29.57C92.0615 30.28 91.8015 30.805 91.2815 31.145ZM89.5115 28.88H87.6365V30.545H89.5115C90.1715 30.545 90.5015 30.265 90.5015 29.705C90.5015 29.155 90.1715 28.88 89.5115 28.88ZM89.7815 33.59C90.4615 33.59 90.8015 33.295 90.8015 32.705C90.8015 32.445 90.7115 32.245 90.5315 32.105C90.3515 31.955 90.1015 31.88 89.7815 31.88H87.6365V33.59H89.7815ZM99.6487 27.5H101.269V35H99.6487V33.92C99.0387 34.77 98.1637 35.195 97.0237 35.195C95.9937 35.195 95.1137 34.815 94.3837 34.055C93.6537 33.285 93.2887 32.35 93.2887 31.25C93.2887 30.14 93.6537 29.205 94.3837 28.445C95.1137 27.685 95.9937 27.305 97.0237 27.305C98.1637 27.305 99.0387 27.725 99.6487 28.565V27.5ZM95.5837 32.975C96.0337 33.425 96.5987 33.65 97.2787 33.65C97.9587 33.65 98.5237 33.425 98.9737 32.975C99.4237 32.515 99.6487 31.94 99.6487 31.25C99.6487 30.56 99.4237 29.99 98.9737 29.54C98.5237 29.08 97.9587 28.85 97.2787 28.85C96.5987 28.85 96.0337 29.08 95.5837 29.54C95.1337 29.99 94.9087 30.56 94.9087 31.25C94.9087 31.94 95.1337 32.515 95.5837 32.975ZM108.962 27.5V35H107.372V32.48H106.472L104.567 35H102.662L104.687 32.33C104.167 32.16 103.747 31.86 103.427 31.43C103.117 31 102.962 30.52 102.962 29.99C102.962 29.3 103.207 28.715 103.697 28.235C104.197 27.745 104.837 27.5 105.617 27.5H108.962ZM105.707 31.085H107.372V28.97H105.707C105.377 28.97 105.102 29.065 104.882 29.255C104.662 29.445 104.552 29.705 104.552 30.035C104.552 30.355 104.662 30.61 104.882 30.8C105.102 30.99 105.377 31.085 105.707 31.085ZM118.812 31.16C119.612 31.52 120.012 32.115 120.012 32.945C120.012 33.585 119.752 34.12 119.232 34.55C118.712 34.98 117.987 35.195 117.057 35.195C115.547 35.195 114.527 34.595 113.997 33.395L115.317 32.615C115.587 33.365 116.172 33.74 117.072 33.74C117.492 33.74 117.822 33.655 118.062 33.485C118.302 33.305 118.422 33.07 118.422 32.78C118.422 32.52 118.327 32.315 118.137 32.165C117.947 32.005 117.682 31.925 117.342 31.925H116.277V30.5H117.072C117.402 30.5 117.657 30.425 117.837 30.275C118.027 30.115 118.122 29.9 118.122 29.63C118.122 29.37 118.017 29.16 117.807 29C117.597 28.83 117.317 28.745 116.967 28.745C116.217 28.745 115.697 29.075 115.407 29.735L114.087 28.985C114.647 27.865 115.597 27.305 116.937 27.305C117.777 27.305 118.442 27.52 118.932 27.95C119.432 28.37 119.682 28.885 119.682 29.495C119.682 30.245 119.392 30.8 118.812 31.16ZM124.876 35.195C123.776 35.195 122.841 34.815 122.071 34.055C121.301 33.295 120.916 32.36 120.916 31.25C120.916 30.14 121.301 29.205 122.071 28.445C122.841 27.685 123.776 27.305 124.876 27.305C125.986 27.305 126.921 27.685 127.681 28.445C128.451 29.205 128.836 30.14 128.836 31.25C128.836 32.36 128.451 33.295 127.681 34.055C126.921 34.815 125.986 35.195 124.876 35.195ZM123.211 32.945C123.661 33.395 124.216 33.62 124.876 33.62C125.536 33.62 126.091 33.395 126.541 32.945C126.991 32.495 127.216 31.93 127.216 31.25C127.216 30.57 126.991 30.005 126.541 29.555C126.091 29.105 125.536 28.88 124.876 28.88C124.216 28.88 123.661 29.105 123.211 29.555C122.761 30.005 122.536 30.57 122.536 31.25C122.536 31.93 122.761 32.495 123.211 32.945ZM135.355 27.5H136.975V35H135.355V32.015H131.92V35H130.3V27.5H131.92V30.485H135.355V27.5ZM144.795 27.5H146.415V35H144.795V33.92C144.185 34.77 143.31 35.195 142.17 35.195C141.14 35.195 140.26 34.815 139.53 34.055C138.8 33.285 138.435 32.35 138.435 31.25C138.435 30.14 138.8 29.205 139.53 28.445C140.26 27.685 141.14 27.305 142.17 27.305C143.31 27.305 144.185 27.725 144.795 28.565V27.5ZM140.73 32.975C141.18 33.425 141.745 33.65 142.425 33.65C143.105 33.65 143.67 33.425 144.12 32.975C144.57 32.515 144.795 31.94 144.795 31.25C144.795 30.56 144.57 29.99 144.12 29.54C143.67 29.08 143.105 28.85 142.425 28.85C141.745 28.85 141.18 29.08 140.73 29.54C140.28 29.99 140.055 30.56 140.055 31.25C140.055 31.94 140.28 32.515 140.73 32.975ZM157.483 27.5H158.728V35H157.138V30.23L153.298 35H152.053V27.5H153.643V32.255L157.483 27.5ZM41.151 51.47H42.156V55.01H40.566V53H35.421V55.01H33.831V51.47H34.746C35.206 50.82 35.436 49.915 35.436 48.755V45.5H41.151V51.47ZM36.531 51.47H39.561V46.985H37.026V48.755C37.026 49.825 36.861 50.73 36.531 51.47ZM44.4539 49.94C44.5739 50.51 44.8489 50.95 45.2789 51.26C45.7089 51.56 46.2339 51.71 46.8539 51.71C47.7139 51.71 48.3589 51.4 48.7889 50.78L50.1239 51.56C49.3839 52.65 48.2889 53.195 46.8389 53.195C45.6189 53.195 44.6339 52.825 43.8839 52.085C43.1339 51.335 42.7589 50.39 42.7589 49.25C42.7589 48.13 43.1289 47.195 43.8689 46.445C44.6089 45.685 45.5589 45.305 46.7189 45.305C47.8189 45.305 48.7189 45.69 49.4189 46.46C50.1289 47.23 50.4839 48.165 50.4839 49.265C50.4839 49.435 50.4639 49.66 50.4239 49.94H44.4539ZM44.4389 48.62H48.8489C48.7389 48.01 48.4839 47.55 48.0839 47.24C47.6939 46.93 47.2339 46.775 46.7039 46.775C46.1039 46.775 45.6039 46.94 45.2039 47.27C44.8039 47.6 44.5489 48.05 44.4389 48.62ZM57.3464 45.5V47.06H54.9014V53H53.2814V47.06H50.8214V45.5H57.3464ZM61.6896 53.195C60.5596 53.195 59.6146 52.815 58.8546 52.055C58.1046 51.295 57.7296 50.36 57.7296 49.25C57.7296 48.13 58.1046 47.195 58.8546 46.445C59.6146 45.685 60.5596 45.305 61.6896 45.305C62.4196 45.305 63.0846 45.48 63.6846 45.83C64.2846 46.18 64.7346 46.65 65.0346 47.24L63.6396 48.05C63.4696 47.69 63.2096 47.41 62.8596 47.21C62.5196 47 62.1246 46.895 61.6746 46.895C61.0146 46.895 60.4596 47.12 60.0096 47.57C59.5696 48.02 59.3496 48.58 59.3496 49.25C59.3496 49.92 59.5696 50.48 60.0096 50.93C60.4596 51.38 61.0146 51.605 61.6746 51.605C62.1146 51.605 62.5096 51.5 62.8596 51.29C63.2196 51.08 63.4896 50.8 63.6696 50.45L65.0646 51.245C64.7446 51.845 64.2846 52.32 63.6846 52.67C63.0846 53.02 62.4196 53.195 61.6896 53.195ZM72.9095 53H70.9745L67.8995 49.535V53H66.2795V45.5H67.8995V48.815L70.8095 45.5H72.7895L69.4895 49.175L72.9095 53ZM79.3386 45.5H80.9586V53H79.3386V51.92C78.7286 52.77 77.8536 53.195 76.7136 53.195C75.6836 53.195 74.8036 52.815 74.0736 52.055C73.3436 51.285 72.9786 50.35 72.9786 49.25C72.9786 48.14 73.3436 47.205 74.0736 46.445C74.8036 45.685 75.6836 45.305 76.7136 45.305C77.8536 45.305 78.7286 45.725 79.3386 46.565V45.5ZM75.2736 50.975C75.7236 51.425 76.2886 51.65 76.9686 51.65C77.6486 51.65 78.2136 51.425 78.6636 50.975C79.1136 50.515 79.3386 49.94 79.3386 49.25C79.3386 48.56 79.1136 47.99 78.6636 47.54C78.2136 47.08 77.6486 46.85 76.9686 46.85C76.2886 46.85 75.7236 47.08 75.2736 47.54C74.8236 47.99 74.5986 48.56 74.5986 49.25C74.5986 49.94 74.8236 50.515 75.2736 50.975ZM88.6519 45.5V53H87.0619V50.48H86.1619L84.2569 53H82.3519L84.3769 50.33C83.8569 50.16 83.4369 49.86 83.1169 49.43C82.8069 49 82.6519 48.52 82.6519 47.99C82.6519 47.3 82.8969 46.715 83.3869 46.235C83.8869 45.745 84.5269 45.5 85.3069 45.5H88.6519ZM85.3969 49.085H87.0619V46.97H85.3969C85.0669 46.97 84.7919 47.065 84.5719 47.255C84.3519 47.445 84.2419 47.705 84.2419 48.035C84.2419 48.355 84.3519 48.61 84.5719 48.8C84.7919 48.99 85.0669 49.085 85.3969 49.085ZM100.962 45.5V53H99.3423V47.03H95.9073V53H94.2873V45.5H100.962ZM109.172 45.5V53H107.552V47.06H105.047V49.85C105.047 51.04 104.787 51.885 104.267 52.385C103.747 52.885 103.007 53.09 102.047 53V51.485C102.507 51.565 102.852 51.47 103.082 51.2C103.312 50.93 103.427 50.455 103.427 49.775V45.5H109.172ZM114.6 53.195C113.5 53.195 112.565 52.815 111.795 52.055C111.025 51.295 110.64 50.36 110.64 49.25C110.64 48.14 111.025 47.205 111.795 46.445C112.565 45.685 113.5 45.305 114.6 45.305C115.71 45.305 116.645 45.685 117.405 46.445C118.175 47.205 118.56 48.14 118.56 49.25C118.56 50.36 118.175 51.295 117.405 52.055C116.645 52.815 115.71 53.195 114.6 53.195ZM112.935 50.945C113.385 51.395 113.94 51.62 114.6 51.62C115.26 51.62 115.815 51.395 116.265 50.945C116.715 50.495 116.94 49.93 116.94 49.25C116.94 48.57 116.715 48.005 116.265 47.555C115.815 47.105 115.26 46.88 114.6 46.88C113.94 46.88 113.385 47.105 112.935 47.555C112.485 48.005 112.26 48.57 112.26 49.25C112.26 49.93 112.485 50.495 112.935 50.945ZM130.375 51.47H131.38V55.01H129.79V53H120.025V45.5H121.645V51.47H124.39V45.5H126.01V51.47H128.755V45.5H130.375V51.47ZM138.343 45.5H139.963V53H138.343V51.92C137.733 52.77 136.858 53.195 135.718 53.195C134.688 53.195 133.808 52.815 133.078 52.055C132.348 51.285 131.983 50.35 131.983 49.25C131.983 48.14 132.348 47.205 133.078 46.445C133.808 45.685 134.688 45.305 135.718 45.305C136.858 45.305 137.733 45.725 138.343 46.565V45.5ZM134.278 50.975C134.728 51.425 135.293 51.65 135.973 51.65C136.653 51.65 137.218 51.425 137.668 50.975C138.118 50.515 138.343 49.94 138.343 49.25C138.343 48.56 138.118 47.99 137.668 47.54C137.218 47.08 136.653 46.85 135.973 46.85C135.293 46.85 134.728 47.08 134.278 47.54C133.828 47.99 133.603 48.56 133.603 49.25C133.603 49.94 133.828 50.515 134.278 50.975ZM148.451 51.47H149.456V55.01H147.866V53H142.721V55.01H141.131V51.47H142.046C142.506 50.82 142.736 49.915 142.736 48.755V45.5H148.451V51.47ZM143.831 51.47H146.861V46.985H144.326V48.755C144.326 49.825 144.161 50.73 143.831 51.47ZM157.402 53H155.467L152.392 49.535V53H150.772V45.5H152.392V48.815L155.302 45.5H157.282L153.982 49.175L157.402 53ZM163.831 45.5H165.451V53H163.831V51.92C163.221 52.77 162.346 53.195 161.206 53.195C160.176 53.195 159.296 52.815 158.566 52.055C157.836 51.285 157.471 50.35 157.471 49.25C157.471 48.14 157.836 47.205 158.566 46.445C159.296 45.685 160.176 45.305 161.206 45.305C162.346 45.305 163.221 45.725 163.831 46.565V45.5ZM159.766 50.975C160.216 51.425 160.781 51.65 161.461 51.65C162.141 51.65 162.706 51.425 163.156 50.975C163.606 50.515 163.831 49.94 163.831 49.25C163.831 48.56 163.606 47.99 163.156 47.54C162.706 47.08 162.141 46.85 161.461 46.85C160.781 46.85 160.216 47.08 159.766 47.54C159.316 47.99 159.091 48.56 159.091 49.25C159.091 49.94 159.316 50.515 159.766 50.975Z" fill="#333333"/>
</svg>
