<svg width="186" height="97" viewBox="0 0 186 97" fill="none" xmlns="http://www.w3.org/2000/svg">
<rect x="184.625" y="73.625" width="183.25" height="72.25" rx="12.375" transform="rotate(-180 184.625 73.625)" fill="white" stroke="#DFDFDF" stroke-width="2.75"/>
<path d="M94.6908 94.9375C94.1615 95.8542 92.8385 95.8542 92.3092 94.9375L80.4014 74.3125C79.8721 73.3958 80.5337 72.25 81.5922 72.25L105.408 72.25C106.466 72.25 107.128 73.3958 106.599 74.3125L94.6908 94.9375Z" fill="white"/>
<path d="M37.4199 22.8C38.4759 22.8 39.3559 23.152 40.0599 23.856C40.7745 24.56 41.1319 25.4347 41.1319 26.48C41.1319 27.5147 40.7745 28.3893 40.0599 29.104C39.3559 29.808 38.4759 30.16 37.4199 30.16H35.1319V34H33.2919V22.8H37.4199ZM37.4199 28.432C37.9639 28.432 38.4119 28.2507 38.7639 27.888C39.1159 27.5147 39.2919 27.0453 39.2919 26.48C39.2919 25.9147 39.1159 25.4507 38.7639 25.088C38.4119 24.7147 37.9639 24.528 37.4199 24.528H35.1319V28.432H37.4199ZM43.4149 30.736C43.5429 31.344 43.8362 31.8133 44.2949 32.144C44.7535 32.464 45.3135 32.624 45.9749 32.624C46.8922 32.624 47.5802 32.2933 48.0389 31.632L49.4629 32.464C48.6735 33.6267 47.5055 34.208 45.9589 34.208C44.6575 34.208 43.6069 33.8133 42.8069 33.024C42.0069 32.224 41.6069 31.216 41.6069 30C41.6069 28.8053 42.0015 27.808 42.7909 27.008C43.5802 26.1973 44.5935 25.792 45.8309 25.792C47.0042 25.792 47.9642 26.2027 48.7109 27.024C49.4682 27.8453 49.8469 28.8427 49.8469 30.016C49.8469 30.1973 49.8255 30.4373 49.7829 30.736H43.4149ZM43.3989 29.328H48.1029C47.9855 28.6773 47.7135 28.1867 47.2869 27.856C46.8709 27.5253 46.3802 27.36 45.8149 27.36C45.1749 27.36 44.6415 27.536 44.2149 27.888C43.7882 28.24 43.5162 28.72 43.3989 29.328ZM58.4394 34H56.3754L53.0954 30.304V34H51.3674V26H53.0954V29.536L56.1994 26H58.3114L54.7914 29.92L58.4394 34ZM64.1298 25.792C65.2284 25.792 66.1671 26.2027 66.9458 27.024C67.7244 27.8347 68.1138 28.8267 68.1138 30C68.1138 31.184 67.7244 32.1813 66.9458 32.992C66.1671 33.8027 65.2284 34.208 64.1298 34.208C62.9138 34.208 61.9804 33.76 61.3298 32.864V37.2H59.6018V26H61.3298V27.152C61.9804 26.2453 62.9138 25.792 64.1298 25.792ZM62.0498 31.84C62.5298 32.32 63.1324 32.56 63.8578 32.56C64.5831 32.56 65.1858 32.32 65.6658 31.84C66.1458 31.3493 66.3858 30.736 66.3858 30C66.3858 29.264 66.1458 28.656 65.6658 28.176C65.1858 27.6853 64.5831 27.44 63.8578 27.44C63.1324 27.44 62.5298 27.6853 62.0498 28.176C61.5698 28.656 61.3298 29.264 61.3298 30C61.3298 30.736 61.5698 31.3493 62.0498 31.84ZM71.0399 30.736C71.1679 31.344 71.4612 31.8133 71.9199 32.144C72.3785 32.464 72.9385 32.624 73.5999 32.624C74.5172 32.624 75.2052 32.2933 75.6639 31.632L77.0879 32.464C76.2985 33.6267 75.1305 34.208 73.5839 34.208C72.2825 34.208 71.2319 33.8133 70.4319 33.024C69.6319 32.224 69.2319 31.216 69.2319 30C69.2319 28.8053 69.6265 27.808 70.4159 27.008C71.2052 26.1973 72.2185 25.792 73.4559 25.792C74.6292 25.792 75.5892 26.2027 76.3359 27.024C77.0932 27.8453 77.4719 28.8427 77.4719 30.016C77.4719 30.1973 77.4505 30.4373 77.4079 30.736H71.0399ZM71.0239 29.328H75.7279C75.6105 28.6773 75.3385 28.1867 74.9119 27.856C74.4959 27.5253 74.0052 27.36 73.4399 27.36C72.7999 27.36 72.2665 27.536 71.8399 27.888C71.4132 28.24 71.1412 28.72 71.0239 29.328ZM85.2815 26H87.0095V34H85.2815V32.848C84.6308 33.7547 83.6975 34.208 82.4815 34.208C81.3828 34.208 80.4442 33.8027 79.6655 32.992C78.8868 32.1707 78.4975 31.1733 78.4975 30C78.4975 28.816 78.8868 27.8187 79.6655 27.008C80.4442 26.1973 81.3828 25.792 82.4815 25.792C83.6975 25.792 84.6308 26.24 85.2815 27.136V26ZM80.9455 31.84C81.4255 32.32 82.0282 32.56 82.7535 32.56C83.4788 32.56 84.0815 32.32 84.5615 31.84C85.0415 31.3493 85.2815 30.736 85.2815 30C85.2815 29.264 85.0415 28.656 84.5615 28.176C84.0815 27.6853 83.4788 27.44 82.7535 27.44C82.0282 27.44 81.4255 27.6853 80.9455 28.176C80.4655 28.656 80.2255 29.264 80.2255 30C80.2255 30.736 80.4655 31.3493 80.9455 31.84ZM95.9036 32.368H97.2156V36.144H95.5196V34H89.0236V26H90.7516V32.368H94.1756V26H95.9036V32.368ZM104.409 26H105.737V34H104.041V28.912L99.9454 34H98.6174V26H100.313V31.072L104.409 26ZM111.518 34.208C110.345 34.208 109.348 33.8027 108.526 32.992C107.705 32.1813 107.294 31.184 107.294 30C107.294 28.816 107.705 27.8187 108.526 27.008C109.348 26.1973 110.345 25.792 111.518 25.792C112.702 25.792 113.7 26.1973 114.51 27.008C115.332 27.8187 115.742 28.816 115.742 30C115.742 31.184 115.332 32.1813 114.51 32.992C113.7 33.8027 112.702 34.208 111.518 34.208ZM109.742 31.808C110.222 32.288 110.814 32.528 111.518 32.528C112.222 32.528 112.814 32.288 113.294 31.808C113.774 31.328 114.014 30.7253 114.014 30C114.014 29.2747 113.774 28.672 113.294 28.192C112.814 27.712 112.222 27.472 111.518 27.472C110.814 27.472 110.222 27.712 109.742 28.192C109.262 28.672 109.022 29.2747 109.022 30C109.022 30.7253 109.262 31.328 109.742 31.808ZM122.697 26H124.425V34H122.697V30.816H119.033V34H117.305V26H119.033V29.184H122.697V26ZM131.822 26H133.55V34H131.822V30.816H128.158V34H126.43V26H128.158V29.184H131.822V26ZM141.891 26H143.619V34H141.891V32.848C141.24 33.7547 140.307 34.208 139.091 34.208C137.992 34.208 137.054 33.8027 136.275 32.992C135.496 32.1707 135.107 31.1733 135.107 30C135.107 28.816 135.496 27.8187 136.275 27.008C137.054 26.1973 137.992 25.792 139.091 25.792C140.307 25.792 141.24 26.24 141.891 27.136V26ZM137.555 31.84C138.035 32.32 138.638 32.56 139.363 32.56C140.088 32.56 140.691 32.32 141.171 31.84C141.651 31.3493 141.891 30.736 141.891 30C141.891 29.264 141.651 28.656 141.171 28.176C140.691 27.6853 140.088 27.44 139.363 27.44C138.638 27.44 138.035 27.6853 137.555 28.176C137.075 28.656 136.835 29.264 136.835 30C136.835 30.736 137.075 31.3493 137.555 31.84ZM151.825 26V34H150.129V31.312H149.169L147.137 34H145.105L147.265 31.152C146.71 30.9707 146.262 30.6507 145.921 30.192C145.59 29.7333 145.425 29.2213 145.425 28.656C145.425 27.92 145.686 27.296 146.209 26.784C146.742 26.2613 147.425 26 148.257 26H151.825ZM148.353 29.824H150.129V27.568H148.353C148.001 27.568 147.708 27.6693 147.473 27.872C147.238 28.0747 147.121 28.352 147.121 28.704C147.121 29.0453 147.238 29.3173 147.473 29.52C147.708 29.7227 148.001 29.824 148.353 29.824ZM80.0274 48.904C80.8808 49.288 81.3074 49.9227 81.3074 50.808C81.3074 51.4907 81.0301 52.0613 80.4754 52.52C79.9208 52.9787 79.1474 53.208 78.1554 53.208C76.5448 53.208 75.4568 52.568 74.8914 51.288L76.2994 50.456C76.5874 51.256 77.2114 51.656 78.1714 51.656C78.6194 51.656 78.9714 51.5653 79.2274 51.384C79.4834 51.192 79.6114 50.9413 79.6114 50.632C79.6114 50.3547 79.5101 50.136 79.3074 49.976C79.1048 49.8053 78.8221 49.72 78.4594 49.72H77.3234V48.2H78.1714C78.5234 48.2 78.7954 48.12 78.9874 47.96C79.1901 47.7893 79.2914 47.56 79.2914 47.272C79.2914 46.9947 79.1794 46.7707 78.9554 46.6C78.7314 46.4187 78.4328 46.328 78.0594 46.328C77.2594 46.328 76.7048 46.68 76.3954 47.384L74.9874 46.584C75.5848 45.3893 76.5981 44.792 78.0274 44.792C78.9234 44.792 79.6328 45.0213 80.1554 45.48C80.6888 45.928 80.9554 46.4773 80.9554 47.128C80.9554 47.928 80.6461 48.52 80.0274 48.904ZM86.4949 53.208C85.3216 53.208 84.3243 52.8027 83.5029 51.992C82.6816 51.1813 82.2709 50.184 82.2709 49C82.2709 47.816 82.6816 46.8187 83.5029 46.008C84.3243 45.1973 85.3216 44.792 86.4949 44.792C87.6789 44.792 88.6763 45.1973 89.4869 46.008C90.3083 46.8187 90.7189 47.816 90.7189 49C90.7189 50.184 90.3083 51.1813 89.4869 51.992C88.6763 52.8027 87.6789 53.208 86.4949 53.208ZM84.7189 50.808C85.1989 51.288 85.7909 51.528 86.4949 51.528C87.1989 51.528 87.7909 51.288 88.2709 50.808C88.7509 50.328 88.9909 49.7253 88.9909 49C88.9909 48.2747 88.7509 47.672 88.2709 47.192C87.7909 46.712 87.1989 46.472 86.4949 46.472C85.7909 46.472 85.1989 46.712 84.7189 47.192C84.2389 47.672 83.9989 48.2747 83.9989 49C83.9989 49.7253 84.2389 50.328 84.7189 50.808ZM97.6734 45H99.4014V53H97.6734V49.816H94.0094V53H92.2814V45H94.0094V48.184H97.6734V45ZM107.742 45H109.47V53H107.742V51.848C107.092 52.7547 106.158 53.208 104.942 53.208C103.844 53.208 102.905 52.8027 102.126 51.992C101.348 51.1707 100.958 50.1733 100.958 49C100.958 47.816 101.348 46.8187 102.126 46.008C102.905 45.1973 103.844 44.792 104.942 44.792C106.158 44.792 107.092 45.24 107.742 46.136V45ZM103.406 50.84C103.886 51.32 104.489 51.56 105.214 51.56C105.94 51.56 106.542 51.32 107.022 50.84C107.502 50.3493 107.742 49.736 107.742 49C107.742 48.264 107.502 47.656 107.022 47.176C106.542 46.6853 105.94 46.44 105.214 46.44C104.489 46.44 103.886 46.6853 103.406 47.176C102.926 47.656 102.686 48.264 102.686 49C102.686 49.736 102.926 50.3493 103.406 50.84Z" fill="#333333"/>
</svg>
