<svg width="200" height="135" viewBox="0 0 200 135" fill="none" xmlns="http://www.w3.org/2000/svg">
<rect x="198.625" y="111.625" width="197.25" height="110.25" rx="12.375" transform="rotate(-180 198.625 111.625)" fill="white" stroke="#DFDFDF" stroke-width="2.75"/>
<path d="M101.691 132.937C101.162 133.854 99.8385 133.854 99.3092 132.937L87.4014 112.312C86.8721 111.396 87.5337 110.25 88.5922 110.25L112.408 110.25C113.466 110.25 114.128 111.396 113.599 112.312L101.691 132.937Z" fill="white"/>
<path d="M34.6062 39.35H35.7312V43.01H34.0062V41H27.6312V43.01H25.9062V39.35H26.8812C27.4912 38.55 27.7962 37.345 27.7962 35.735V30.5H34.6062V39.35ZM28.7712 39.35H32.8812V32.12H29.5212V35.765C29.5212 37.325 29.2712 38.52 28.7712 39.35ZM40.3761 41.195C39.2761 41.195 38.3411 40.815 37.5711 40.055C36.8011 39.295 36.4161 38.36 36.4161 37.25C36.4161 36.14 36.8011 35.205 37.5711 34.445C38.3411 33.685 39.2761 33.305 40.3761 33.305C41.4861 33.305 42.4211 33.685 43.1811 34.445C43.9511 35.205 44.3361 36.14 44.3361 37.25C44.3361 38.36 43.9511 39.295 43.1811 40.055C42.4211 40.815 41.4861 41.195 40.3761 41.195ZM38.7111 38.945C39.1611 39.395 39.7161 39.62 40.3761 39.62C41.0361 39.62 41.5911 39.395 42.0411 38.945C42.4911 38.495 42.7161 37.93 42.7161 37.25C42.7161 36.57 42.4911 36.005 42.0411 35.555C41.5911 35.105 41.0361 34.88 40.3761 34.88C39.7161 34.88 39.1611 35.105 38.7111 35.555C38.2611 36.005 38.0361 36.57 38.0361 37.25C38.0361 37.93 38.2611 38.495 38.7111 38.945ZM53.451 33.5V41H51.876V36.065L49.716 39.5H49.521L47.376 36.08V41H45.801V33.5H47.451L49.626 36.965L51.801 33.5H53.451ZM65.6724 39.47H66.6774V43.01H65.0874V41H59.9424V43.01H58.3524V39.47H59.2674C59.7274 38.82 59.9574 37.915 59.9574 36.755V33.5H65.6724V39.47ZM61.0524 39.47H64.0824V34.985H61.5474V36.755C61.5474 37.825 61.3824 38.73 61.0524 39.47ZM74.3233 33.5V41H72.7033V35.06H70.1983V37.85C70.1983 39.04 69.9383 39.885 69.4183 40.385C68.8983 40.885 68.1583 41.09 67.1983 41V39.485C67.6583 39.565 68.0033 39.47 68.2333 39.2C68.4633 38.93 68.5783 38.455 68.5783 37.775V33.5H74.3233ZM82.0161 33.5V41H80.4261V38.48H79.5261L77.6211 41H75.7161L77.7411 38.33C77.2211 38.16 76.8011 37.86 76.4811 37.43C76.1711 37 76.0161 36.52 76.0161 35.99C76.0161 35.3 76.2611 34.715 76.7511 34.235C77.2511 33.745 77.8911 33.5 78.6711 33.5H82.0161ZM78.7611 37.085H80.4261V34.97H78.7611C78.4311 34.97 78.1561 35.065 77.9361 35.255C77.7161 35.445 77.6061 35.705 77.6061 36.035C77.6061 36.355 77.7161 36.61 77.9361 36.8C78.1561 36.99 78.4311 37.085 78.7611 37.085ZM94.3265 33.5V41H92.7065V35.03H89.2715V41H87.6515V33.5H94.3265ZM100.451 33.305C101.481 33.305 102.361 33.69 103.091 34.46C103.821 35.22 104.186 36.15 104.186 37.25C104.186 38.36 103.821 39.295 103.091 40.055C102.361 40.815 101.481 41.195 100.451 41.195C99.3112 41.195 98.4362 40.775 97.8262 39.935V44H96.2062V33.5H97.8262V34.58C98.4362 33.73 99.3112 33.305 100.451 33.305ZM98.5012 38.975C98.9512 39.425 99.5162 39.65 100.196 39.65C100.876 39.65 101.441 39.425 101.891 38.975C102.341 38.515 102.566 37.94 102.566 37.25C102.566 36.56 102.341 35.99 101.891 35.54C101.441 35.08 100.876 34.85 100.196 34.85C99.5162 34.85 98.9512 35.08 98.5012 35.54C98.0512 35.99 97.8262 36.56 97.8262 37.25C97.8262 37.94 98.0512 38.515 98.5012 38.975ZM109.194 41.195C108.094 41.195 107.159 40.815 106.389 40.055C105.619 39.295 105.234 38.36 105.234 37.25C105.234 36.14 105.619 35.205 106.389 34.445C107.159 33.685 108.094 33.305 109.194 33.305C110.304 33.305 111.239 33.685 111.999 34.445C112.769 35.205 113.154 36.14 113.154 37.25C113.154 38.36 112.769 39.295 111.999 40.055C111.239 40.815 110.304 41.195 109.194 41.195ZM107.529 38.945C107.979 39.395 108.534 39.62 109.194 39.62C109.854 39.62 110.409 39.395 110.859 38.945C111.309 38.495 111.534 37.93 111.534 37.25C111.534 36.57 111.309 36.005 110.859 35.555C110.409 35.105 109.854 34.88 109.194 34.88C108.534 34.88 107.979 35.105 107.529 35.555C107.079 36.005 106.854 36.57 106.854 37.25C106.854 37.93 107.079 38.495 107.529 38.945ZM123.679 41H121.834L119.284 37.535V41H117.694V37.565L115.144 41H113.299L116.224 37.175L113.449 33.5H115.294L117.694 36.785V33.5H119.284V36.8L121.684 33.5H123.529L120.754 37.175L123.679 41ZM130.274 33.5H131.519V41H129.929V36.23L126.089 41H124.844V33.5H126.434V38.255L130.274 33.5ZM138.589 37.145C139.329 37.485 139.699 38.06 139.699 38.87C139.699 39.5 139.484 40.015 139.054 40.415C138.634 40.805 138.029 41 137.239 41H133.399V33.5H136.939C137.709 33.5 138.304 33.695 138.724 34.085C139.154 34.465 139.369 34.96 139.369 35.57C139.369 36.28 139.109 36.805 138.589 37.145ZM136.819 34.88H134.944V36.545H136.819C137.479 36.545 137.809 36.265 137.809 35.705C137.809 35.155 137.479 34.88 136.819 34.88ZM137.089 39.59C137.769 39.59 138.109 39.295 138.109 38.705C138.109 38.445 138.019 38.245 137.839 38.105C137.659 37.955 137.409 37.88 137.089 37.88H134.944V39.59H137.089ZM146.956 33.5H148.576V41H146.956V39.92C146.346 40.77 145.471 41.195 144.331 41.195C143.301 41.195 142.421 40.815 141.691 40.055C140.961 39.285 140.596 38.35 140.596 37.25C140.596 36.14 140.961 35.205 141.691 34.445C142.421 33.685 143.301 33.305 144.331 33.305C145.471 33.305 146.346 33.725 146.956 34.565V33.5ZM142.891 38.975C143.341 39.425 143.906 39.65 144.586 39.65C145.266 39.65 145.831 39.425 146.281 38.975C146.731 38.515 146.956 37.94 146.956 37.25C146.956 36.56 146.731 35.99 146.281 35.54C145.831 35.08 145.266 34.85 144.586 34.85C143.906 34.85 143.341 35.08 142.891 35.54C142.441 35.99 142.216 36.56 142.216 37.25C142.216 37.94 142.441 38.515 142.891 38.975ZM155.519 33.5H157.139V41H155.519V38.015H152.084V41H150.464V33.5H152.084V36.485H155.519V33.5ZM164.449 33.5H165.694V41H164.104V36.23L160.264 41H159.019V33.5H160.609V38.255L164.449 33.5ZM173.378 33.5V41H171.788V38.48H170.888L168.983 41H167.078L169.103 38.33C168.583 38.16 168.163 37.86 167.843 37.43C167.533 37 167.378 36.52 167.378 35.99C167.378 35.3 167.623 34.715 168.113 34.235C168.613 33.745 169.253 33.5 170.033 33.5H173.378ZM170.123 37.085H171.788V34.97H170.123C169.793 34.97 169.518 35.065 169.298 35.255C169.078 35.445 168.968 35.705 168.968 36.035C168.968 36.355 169.078 36.61 169.298 36.8C169.518 36.99 169.793 37.085 170.123 37.085ZM61.7997 51.5V59H60.1797V53.03H56.7447V59H55.1247V51.5H61.7997ZM64.9544 55.94C65.0744 56.51 65.3494 56.95 65.7794 57.26C66.2094 57.56 66.7344 57.71 67.3544 57.71C68.2144 57.71 68.8594 57.4 69.2894 56.78L70.6244 57.56C69.8844 58.65 68.7894 59.195 67.3394 59.195C66.1194 59.195 65.1344 58.825 64.3844 58.085C63.6344 57.335 63.2594 56.39 63.2594 55.25C63.2594 54.13 63.6294 53.195 64.3694 52.445C65.1094 51.685 66.0594 51.305 67.2194 51.305C68.3194 51.305 69.2194 51.69 69.9194 52.46C70.6294 53.23 70.9844 54.165 70.9844 55.265C70.9844 55.435 70.9644 55.66 70.9244 55.94H64.9544ZM64.9394 54.62H69.3494C69.2394 54.01 68.9844 53.55 68.5844 53.24C68.1944 52.93 67.7344 52.775 67.2044 52.775C66.6044 52.775 66.1044 52.94 65.7044 53.27C65.3044 53.6 65.0494 54.05 64.9394 54.62ZM76.6548 51.305C77.6848 51.305 78.5648 51.69 79.2948 52.46C80.0248 53.22 80.3898 54.15 80.3898 55.25C80.3898 56.36 80.0248 57.295 79.2948 58.055C78.5648 58.815 77.6848 59.195 76.6548 59.195C75.5148 59.195 74.6398 58.775 74.0298 57.935V62H72.4098V51.5H74.0298V52.58C74.6398 51.73 75.5148 51.305 76.6548 51.305ZM74.7048 56.975C75.1548 57.425 75.7198 57.65 76.3998 57.65C77.0798 57.65 77.6448 57.425 78.0948 56.975C78.5448 56.515 78.7698 55.94 78.7698 55.25C78.7698 54.56 78.5448 53.99 78.0948 53.54C77.6448 53.08 77.0798 52.85 76.3998 52.85C75.7198 52.85 75.1548 53.08 74.7048 53.54C74.2548 53.99 74.0298 54.56 74.0298 55.25C74.0298 55.94 74.2548 56.515 74.7048 56.975ZM85.3981 59.195C84.2681 59.195 83.3231 58.815 82.5631 58.055C81.8131 57.295 81.4381 56.36 81.4381 55.25C81.4381 54.13 81.8131 53.195 82.5631 52.445C83.3231 51.685 84.2681 51.305 85.3981 51.305C86.1281 51.305 86.7931 51.48 87.3931 51.83C87.9931 52.18 88.4431 52.65 88.7431 53.24L87.3481 54.05C87.1781 53.69 86.9181 53.41 86.5681 53.21C86.2281 53 85.8331 52.895 85.3831 52.895C84.7231 52.895 84.1681 53.12 83.7181 53.57C83.2781 54.02 83.0581 54.58 83.0581 55.25C83.0581 55.92 83.2781 56.48 83.7181 56.93C84.1681 57.38 84.7231 57.605 85.3831 57.605C85.8231 57.605 86.2181 57.5 86.5681 57.29C86.9281 57.08 87.1981 56.8 87.3781 56.45L88.7731 57.245C88.4531 57.845 87.9931 58.32 87.3931 58.67C86.7931 59.02 86.1281 59.195 85.3981 59.195ZM93.3668 59.195C92.2668 59.195 91.3318 58.815 90.5618 58.055C89.7918 57.295 89.4068 56.36 89.4068 55.25C89.4068 54.14 89.7918 53.205 90.5618 52.445C91.3318 51.685 92.2668 51.305 93.3668 51.305C94.4768 51.305 95.4118 51.685 96.1718 52.445C96.9418 53.205 97.3268 54.14 97.3268 55.25C97.3268 56.36 96.9418 57.295 96.1718 58.055C95.4118 58.815 94.4768 59.195 93.3668 59.195ZM91.7018 56.945C92.1518 57.395 92.7068 57.62 93.3668 57.62C94.0268 57.62 94.5818 57.395 95.0318 56.945C95.4818 56.495 95.7068 55.93 95.7068 55.25C95.7068 54.57 95.4818 54.005 95.0318 53.555C94.5818 53.105 94.0268 52.88 93.3668 52.88C92.7068 52.88 92.1518 53.105 91.7018 53.555C91.2518 54.005 91.0268 54.57 91.0268 55.25C91.0268 55.93 91.2518 56.495 91.7018 56.945ZM103.847 51.5H105.467V59H103.847V56.015H100.412V59H98.7917V51.5H100.412V54.485H103.847V51.5ZM113.286 51.5H114.906V59H113.286V57.92C112.676 58.77 111.801 59.195 110.661 59.195C109.631 59.195 108.751 58.815 108.021 58.055C107.291 57.285 106.926 56.35 106.926 55.25C106.926 54.14 107.291 53.205 108.021 52.445C108.751 51.685 109.631 51.305 110.661 51.305C111.801 51.305 112.676 51.725 113.286 52.565V51.5ZM109.221 56.975C109.671 57.425 110.236 57.65 110.916 57.65C111.596 57.65 112.161 57.425 112.611 56.975C113.061 56.515 113.286 55.94 113.286 55.25C113.286 54.56 113.061 53.99 112.611 53.54C112.161 53.08 111.596 52.85 110.916 52.85C110.236 52.85 109.671 53.08 109.221 53.54C108.771 53.99 108.546 54.56 108.546 55.25C108.546 55.94 108.771 56.515 109.221 56.975ZM123.125 51.5V59H121.505V53.06H119V55.85C119 57.04 118.74 57.885 118.22 58.385C117.7 58.885 116.96 59.09 116 59V57.485C116.46 57.565 116.805 57.47 117.035 57.2C117.265 56.93 117.38 56.455 117.38 55.775V51.5H123.125ZM130.952 51.5H132.572V59H130.952V57.92C130.342 58.77 129.467 59.195 128.327 59.195C127.297 59.195 126.417 58.815 125.687 58.055C124.957 57.285 124.592 56.35 124.592 55.25C124.592 54.14 124.957 53.205 125.687 52.445C126.417 51.685 127.297 51.305 128.327 51.305C129.467 51.305 130.342 51.725 130.952 52.565V51.5ZM126.887 56.975C127.337 57.425 127.902 57.65 128.582 57.65C129.262 57.65 129.827 57.425 130.277 56.975C130.727 56.515 130.952 55.94 130.952 55.25C130.952 54.56 130.727 53.99 130.277 53.54C129.827 53.08 129.262 52.85 128.582 52.85C127.902 52.85 127.337 53.08 126.887 53.54C126.437 53.99 126.212 54.56 126.212 55.25C126.212 55.94 126.437 56.515 126.887 56.975ZM143.641 51.5H144.886V59H143.296V54.23L139.456 59H138.211V51.5H139.801V56.255L143.641 51.5ZM23.7062 77.195C22.5762 77.195 21.6312 76.815 20.8712 76.055C20.1212 75.295 19.7462 74.36 19.7462 73.25C19.7462 72.13 20.1212 71.195 20.8712 70.445C21.6312 69.685 22.5762 69.305 23.7062 69.305C24.4362 69.305 25.1012 69.48 25.7012 69.83C26.3012 70.18 26.7512 70.65 27.0512 71.24L25.6562 72.05C25.4862 71.69 25.2262 71.41 24.8762 71.21C24.5362 71 24.1412 70.895 23.6912 70.895C23.0312 70.895 22.4762 71.12 22.0262 71.57C21.5862 72.02 21.3662 72.58 21.3662 73.25C21.3662 73.92 21.5862 74.48 22.0262 74.93C22.4762 75.38 23.0312 75.605 23.6912 75.605C24.1312 75.605 24.5262 75.5 24.8762 75.29C25.2362 75.08 25.5062 74.8 25.6862 74.45L27.0812 75.245C26.7612 75.845 26.3012 76.32 25.7012 76.67C25.1012 77.02 24.4362 77.195 23.7062 77.195ZM34.9261 77H32.9911L29.9161 73.535V77H28.2961V69.5H29.9161V72.815L32.8261 69.5H34.8061L31.5061 73.175L34.9261 77ZM42.3458 69.5V77H40.7258V71.06H38.2208V73.85C38.2208 75.04 37.9608 75.885 37.4408 76.385C36.9208 76.885 36.1808 77.09 35.2208 77V75.485C35.6808 75.565 36.0258 75.47 36.2558 75.2C36.4858 74.93 36.6008 74.455 36.6008 73.775V69.5H42.3458ZM50.1736 69.5H51.7936V77H50.1736V75.92C49.5636 76.77 48.6886 77.195 47.5486 77.195C46.5186 77.195 45.6386 76.815 44.9086 76.055C44.1786 75.285 43.8136 74.35 43.8136 73.25C43.8136 72.14 44.1786 71.205 44.9086 70.445C45.6386 69.685 46.5186 69.305 47.5486 69.305C48.6886 69.305 49.5636 69.725 50.1736 70.565V69.5ZM46.1086 74.975C46.5586 75.425 47.1236 75.65 47.8036 75.65C48.4836 75.65 49.0486 75.425 49.4986 74.975C49.9486 74.515 50.1736 73.94 50.1736 73.25C50.1736 72.56 49.9486 71.99 49.4986 71.54C49.0486 71.08 48.4836 70.85 47.8036 70.85C47.1236 70.85 46.5586 71.08 46.1086 71.54C45.6586 71.99 45.4336 72.56 45.4336 73.25C45.4336 73.94 45.6586 74.515 46.1086 74.975ZM60.2818 75.47H61.2868V79.01H59.6968V77H54.5518V79.01H52.9618V75.47H53.8768C54.3368 74.82 54.5668 73.915 54.5668 72.755V69.5H60.2818V75.47ZM55.6618 75.47H58.6918V70.985H56.1568V72.755C56.1568 73.825 55.9918 74.73 55.6618 75.47ZM65.8497 77.195C64.7197 77.195 63.7747 76.815 63.0147 76.055C62.2647 75.295 61.8897 74.36 61.8897 73.25C61.8897 72.13 62.2647 71.195 63.0147 70.445C63.7747 69.685 64.7197 69.305 65.8497 69.305C66.5797 69.305 67.2447 69.48 67.8447 69.83C68.4447 70.18 68.8947 70.65 69.1947 71.24L67.7997 72.05C67.6297 71.69 67.3697 71.41 67.0197 71.21C66.6797 71 66.2847 70.895 65.8347 70.895C65.1747 70.895 64.6197 71.12 64.1697 71.57C63.7297 72.02 63.5097 72.58 63.5097 73.25C63.5097 73.92 63.7297 74.48 64.1697 74.93C64.6197 75.38 65.1747 75.605 65.8347 75.605C66.2747 75.605 66.6697 75.5 67.0197 75.29C67.3797 75.08 67.6497 74.8 67.8297 74.45L69.2247 75.245C68.9047 75.845 68.4447 76.32 67.8447 76.67C67.2447 77.02 66.5797 77.195 65.8497 77.195ZM77.0696 77H75.1346L72.0596 73.535V77H70.4396V69.5H72.0596V72.815L74.9696 69.5H76.9496L73.6496 73.175L77.0696 77ZM81.0988 77.195C79.9988 77.195 79.0638 76.815 78.2938 76.055C77.5238 75.295 77.1388 74.36 77.1388 73.25C77.1388 72.14 77.5238 71.205 78.2938 70.445C79.0638 69.685 79.9988 69.305 81.0988 69.305C82.2088 69.305 83.1438 69.685 83.9038 70.445C84.6738 71.205 85.0588 72.14 85.0588 73.25C85.0588 74.36 84.6738 75.295 83.9038 76.055C83.1438 76.815 82.2088 77.195 81.0988 77.195ZM79.4338 74.945C79.8838 75.395 80.4388 75.62 81.0988 75.62C81.7588 75.62 82.3138 75.395 82.7638 74.945C83.2138 74.495 83.4388 73.93 83.4388 73.25C83.4388 72.57 83.2138 72.005 82.7638 71.555C82.3138 71.105 81.7588 70.88 81.0988 70.88C80.4388 70.88 79.8838 71.105 79.4338 71.555C78.9838 72.005 78.7588 72.57 78.7588 73.25C78.7588 73.93 78.9838 74.495 79.4338 74.945ZM87.7986 73.94C87.9186 74.51 88.1936 74.95 88.6236 75.26C89.0536 75.56 89.5786 75.71 90.1986 75.71C91.0586 75.71 91.7036 75.4 92.1336 74.78L93.4686 75.56C92.7286 76.65 91.6336 77.195 90.1836 77.195C88.9636 77.195 87.9786 76.825 87.2286 76.085C86.4786 75.335 86.1036 74.39 86.1036 73.25C86.1036 72.13 86.4736 71.195 87.2136 70.445C87.9536 69.685 88.9036 69.305 90.0636 69.305C91.1636 69.305 92.0636 69.69 92.7636 70.46C93.4736 71.23 93.8286 72.165 93.8286 73.265C93.8286 73.435 93.8086 73.66 93.7686 73.94H87.7986ZM87.7836 72.62H92.1936C92.0836 72.01 91.8286 71.55 91.4286 71.24C91.0386 70.93 90.5786 70.775 90.0486 70.775C89.4486 70.775 88.9486 70.94 88.5486 71.27C88.1486 71.6 87.8936 72.05 87.7836 72.62ZM105.679 69.5V77H104.059V71.03H100.624V77H99.0041V69.5H105.679ZM111.099 77.195C109.999 77.195 109.064 76.815 108.294 76.055C107.524 75.295 107.139 74.36 107.139 73.25C107.139 72.14 107.524 71.205 108.294 70.445C109.064 69.685 109.999 69.305 111.099 69.305C112.209 69.305 113.144 69.685 113.904 70.445C114.674 71.205 115.059 72.14 115.059 73.25C115.059 74.36 114.674 75.295 113.904 76.055C113.144 76.815 112.209 77.195 111.099 77.195ZM109.434 74.945C109.884 75.395 110.439 75.62 111.099 75.62C111.759 75.62 112.314 75.395 112.764 74.945C113.214 74.495 113.439 73.93 113.439 73.25C113.439 72.57 113.214 72.005 112.764 71.555C112.314 71.105 111.759 70.88 111.099 70.88C110.439 70.88 109.884 71.105 109.434 71.555C108.984 72.005 108.759 72.57 108.759 73.25C108.759 73.93 108.984 74.495 109.434 74.945ZM124.174 69.5V77H122.599V72.065L120.439 75.5H120.244L118.099 72.08V77H116.524V69.5H118.174L120.349 72.965L122.524 69.5H124.174ZM127.32 73.94C127.44 74.51 127.715 74.95 128.145 75.26C128.575 75.56 129.1 75.71 129.72 75.71C130.58 75.71 131.225 75.4 131.655 74.78L132.99 75.56C132.25 76.65 131.155 77.195 129.705 77.195C128.485 77.195 127.5 76.825 126.75 76.085C126 75.335 125.625 74.39 125.625 73.25C125.625 72.13 125.995 71.195 126.735 70.445C127.475 69.685 128.425 69.305 129.585 69.305C130.685 69.305 131.585 69.69 132.285 70.46C132.995 71.23 133.35 72.165 133.35 73.265C133.35 73.435 133.33 73.66 133.29 73.94H127.32ZM127.305 72.62H131.715C131.605 72.01 131.35 71.55 130.95 71.24C130.56 70.93 130.1 70.775 129.57 70.775C128.97 70.775 128.47 70.94 128.07 71.27C127.67 71.6 127.415 72.05 127.305 72.62ZM145.126 75.47H146.131V79.01H144.541V77H134.776V69.5H136.396V75.47H139.141V69.5H140.761V75.47H143.506V69.5H145.126V75.47ZM148.428 73.94C148.548 74.51 148.823 74.95 149.253 75.26C149.683 75.56 150.208 75.71 150.828 75.71C151.688 75.71 152.333 75.4 152.763 74.78L154.098 75.56C153.358 76.65 152.263 77.195 150.813 77.195C149.593 77.195 148.608 76.825 147.858 76.085C147.108 75.335 146.733 74.39 146.733 73.25C146.733 72.13 147.103 71.195 147.843 70.445C148.583 69.685 149.533 69.305 150.693 69.305C151.793 69.305 152.693 69.69 153.393 70.46C154.103 71.23 154.458 72.165 154.458 73.265C154.458 73.435 154.438 73.66 154.398 73.94H148.428ZM148.413 72.62H152.823C152.713 72.01 152.458 71.55 152.058 71.24C151.668 70.93 151.208 70.775 150.678 70.775C150.078 70.775 149.578 70.94 149.178 71.27C148.778 71.6 148.523 72.05 148.413 72.62ZM160.939 69.5H162.559V77H160.939V74.015H157.504V77H155.884V69.5H157.504V72.485H160.939V69.5ZM169.869 69.5H171.114V77H169.524V72.23L165.684 77H164.439V69.5H166.029V74.255L169.869 69.5ZM174.268 73.94C174.388 74.51 174.663 74.95 175.093 75.26C175.523 75.56 176.048 75.71 176.668 75.71C177.528 75.71 178.173 75.4 178.603 74.78L179.938 75.56C179.198 76.65 178.103 77.195 176.653 77.195C175.433 77.195 174.448 76.825 173.698 76.085C172.948 75.335 172.573 74.39 172.573 73.25C172.573 72.13 172.943 71.195 173.683 70.445C174.423 69.685 175.373 69.305 176.533 69.305C177.633 69.305 178.533 69.69 179.233 70.46C179.943 71.23 180.298 72.165 180.298 73.265C180.298 73.435 180.278 73.66 180.238 73.94H174.268ZM174.253 72.62H178.663C178.553 72.01 178.298 71.55 177.898 71.24C177.508 70.93 177.048 70.775 176.518 70.775C175.918 70.775 175.418 70.94 175.018 71.27C174.618 71.6 174.363 72.05 174.253 72.62Z" fill="#333333"/>
</svg>
