<svg width="200" height="135" viewBox="0 0 200 135" fill="none" xmlns="http://www.w3.org/2000/svg">
<rect x="198.625" y="111.625" width="197.25" height="110.25" rx="12.375" transform="rotate(-180 198.625 111.625)" fill="white" stroke="#DFDFDF" stroke-width="2.75"/>
<path d="M101.691 132.937C101.162 133.854 99.8385 133.854 99.3092 132.937L87.4014 112.312C86.8721 111.396 87.5337 110.25 88.5922 110.25L112.408 110.25C113.466 110.25 114.128 111.396 113.599 112.312L101.691 132.937Z" fill="white"/>
<path d="M57.9974 35L57.2624 32.885H52.7924L52.0574 35H50.1824L53.9924 24.5H56.0624L59.8574 35H57.9974ZM53.3624 31.265H56.6924L55.0274 26.525L53.3624 31.265ZM65.1265 27.305C66.1565 27.305 67.0365 27.69 67.7665 28.46C68.4965 29.22 68.8615 30.15 68.8615 31.25C68.8615 32.36 68.4965 33.295 67.7665 34.055C67.0365 34.815 66.1565 35.195 65.1265 35.195C63.9865 35.195 63.1115 34.775 62.5015 33.935V38H60.8815V27.5H62.5015V28.58C63.1115 27.73 63.9865 27.305 65.1265 27.305ZM63.1765 32.975C63.6265 33.425 64.1915 33.65 64.8715 33.65C65.5515 33.65 66.1165 33.425 66.5665 32.975C67.0165 32.515 67.2415 31.94 67.2415 31.25C67.2415 30.56 67.0165 29.99 66.5665 29.54C66.1165 29.08 65.5515 28.85 64.8715 28.85C64.1915 28.85 63.6265 29.08 63.1765 29.54C62.7265 29.99 62.5015 30.56 62.5015 31.25C62.5015 31.94 62.7265 32.515 63.1765 32.975ZM75.7668 27.5V29.06H73.3218V35H71.7018V29.06H69.2418V27.5H75.7668ZM77.845 31.94C77.965 32.51 78.24 32.95 78.67 33.26C79.1 33.56 79.625 33.71 80.245 33.71C81.105 33.71 81.75 33.4 82.18 32.78L83.515 33.56C82.775 34.65 81.68 35.195 80.23 35.195C79.01 35.195 78.025 34.825 77.275 34.085C76.525 33.335 76.15 32.39 76.15 31.25C76.15 30.13 76.52 29.195 77.26 28.445C78 27.685 78.95 27.305 80.11 27.305C81.21 27.305 82.11 27.69 82.81 28.46C83.52 29.23 83.875 30.165 83.875 31.265C83.875 31.435 83.855 31.66 83.815 31.94H77.845ZM77.83 30.62H82.24C82.13 30.01 81.875 29.55 81.475 29.24C81.085 28.93 80.625 28.775 80.095 28.775C79.495 28.775 78.995 28.94 78.595 29.27C78.195 29.6 77.94 30.05 77.83 30.62ZM89.369 31.16C90.169 31.52 90.569 32.115 90.569 32.945C90.569 33.585 90.309 34.12 89.789 34.55C89.269 34.98 88.544 35.195 87.614 35.195C86.104 35.195 85.084 34.595 84.554 33.395L85.874 32.615C86.144 33.365 86.729 33.74 87.629 33.74C88.049 33.74 88.379 33.655 88.619 33.485C88.859 33.305 88.979 33.07 88.979 32.78C88.979 32.52 88.884 32.315 88.694 32.165C88.504 32.005 88.239 31.925 87.899 31.925H86.834V30.5H87.629C87.959 30.5 88.214 30.425 88.394 30.275C88.584 30.115 88.679 29.9 88.679 29.63C88.679 29.37 88.574 29.16 88.364 29C88.154 28.83 87.874 28.745 87.524 28.745C86.774 28.745 86.254 29.075 85.964 29.735L84.644 28.985C85.204 27.865 86.154 27.305 87.494 27.305C88.334 27.305 88.999 27.52 89.489 27.95C89.989 28.37 90.239 28.885 90.239 29.495C90.239 30.245 89.949 30.8 89.369 31.16ZM97.3223 27.5H98.5673V35H96.9773V30.23L93.1373 35H91.8923V27.5H93.4823V32.255L97.3223 27.5ZM106.387 27.5H108.007V35H106.387V33.92C105.777 34.77 104.902 35.195 103.762 35.195C102.732 35.195 101.852 34.815 101.122 34.055C100.392 33.285 100.027 32.35 100.027 31.25C100.027 30.14 100.392 29.205 101.122 28.445C101.852 27.685 102.732 27.305 103.762 27.305C104.902 27.305 105.777 27.725 106.387 28.565V27.5ZM102.322 32.975C102.772 33.425 103.337 33.65 104.017 33.65C104.697 33.65 105.262 33.425 105.712 32.975C106.162 32.515 106.387 31.94 106.387 31.25C106.387 30.56 106.162 29.99 105.712 29.54C105.262 29.08 104.697 28.85 104.017 28.85C103.337 28.85 102.772 29.08 102.322 29.54C101.872 29.99 101.647 30.56 101.647 31.25C101.647 31.94 101.872 32.515 102.322 32.975ZM114.95 27.5H116.57V35H114.95V32.015H111.515V35H109.895V27.5H111.515V30.485H114.95V27.5ZM121.99 35.195C120.86 35.195 119.915 34.815 119.155 34.055C118.405 33.295 118.03 32.36 118.03 31.25C118.03 30.13 118.405 29.195 119.155 28.445C119.915 27.685 120.86 27.305 121.99 27.305C122.72 27.305 123.385 27.48 123.985 27.83C124.585 28.18 125.035 28.65 125.335 29.24L123.94 30.05C123.77 29.69 123.51 29.41 123.16 29.21C122.82 29 122.425 28.895 121.975 28.895C121.315 28.895 120.76 29.12 120.31 29.57C119.87 30.02 119.65 30.58 119.65 31.25C119.65 31.92 119.87 32.48 120.31 32.93C120.76 33.38 121.315 33.605 121.975 33.605C122.415 33.605 122.81 33.5 123.16 33.29C123.52 33.08 123.79 32.8 123.97 32.45L125.365 33.245C125.045 33.845 124.585 34.32 123.985 34.67C123.385 35.02 122.72 35.195 121.99 35.195ZM133.21 35H131.275L128.2 31.535V35H126.58V27.5H128.2V30.815L131.11 27.5H133.09L129.79 31.175L133.21 35ZM139.639 27.5H141.259V35H139.639V33.92C139.029 34.77 138.154 35.195 137.014 35.195C135.984 35.195 135.104 34.815 134.374 34.055C133.644 33.285 133.279 32.35 133.279 31.25C133.279 30.14 133.644 29.205 134.374 28.445C135.104 27.685 135.984 27.305 137.014 27.305C138.154 27.305 139.029 27.725 139.639 28.565V27.5ZM135.574 32.975C136.024 33.425 136.589 33.65 137.269 33.65C137.949 33.65 138.514 33.425 138.964 32.975C139.414 32.515 139.639 31.94 139.639 31.25C139.639 30.56 139.414 29.99 138.964 29.54C138.514 29.08 137.949 28.85 137.269 28.85C136.589 28.85 136.024 29.08 135.574 29.54C135.124 29.99 134.899 30.56 134.899 31.25C134.899 31.94 135.124 32.515 135.574 32.975ZM148.952 27.5V35H147.362V32.48H146.462L144.557 35H142.652L144.677 32.33C144.157 32.16 143.737 31.86 143.417 31.43C143.107 31 142.952 30.52 142.952 29.99C142.952 29.3 143.197 28.715 143.687 28.235C144.187 27.745 144.827 27.5 145.607 27.5H148.952ZM145.697 31.085H147.362V28.97H145.697C145.367 28.97 145.092 29.065 144.872 29.255C144.652 29.445 144.542 29.705 144.542 30.035C144.542 30.355 144.652 30.61 144.872 30.8C145.092 30.99 145.367 31.085 145.697 31.085ZM28.9503 53.195C27.8203 53.195 26.8753 52.815 26.1153 52.055C25.3653 51.295 24.9903 50.36 24.9903 49.25C24.9903 48.13 25.3653 47.195 26.1153 46.445C26.8753 45.685 27.8203 45.305 28.9503 45.305C29.6803 45.305 30.3453 45.48 30.9453 45.83C31.5453 46.18 31.9953 46.65 32.2953 47.24L30.9003 48.05C30.7303 47.69 30.4703 47.41 30.1203 47.21C29.7803 47 29.3853 46.895 28.9353 46.895C28.2753 46.895 27.7203 47.12 27.2703 47.57C26.8303 48.02 26.6103 48.58 26.6103 49.25C26.6103 49.92 26.8303 50.48 27.2703 50.93C27.7203 51.38 28.2753 51.605 28.9353 51.605C29.3753 51.605 29.7703 51.5 30.1203 51.29C30.4803 51.08 30.7503 50.8 30.9303 50.45L32.3253 51.245C32.0053 51.845 31.5453 52.32 30.9453 52.67C30.3453 53.02 29.6803 53.195 28.9503 53.195ZM40.1702 53H38.2352L35.1602 49.535V53H33.5402V45.5H35.1602V48.815L38.0702 45.5H40.0502L36.7502 49.175L40.1702 53ZM46.4499 49.145C47.1899 49.485 47.5599 50.06 47.5599 50.87C47.5599 51.5 47.3449 52.015 46.9149 52.415C46.4949 52.805 45.8899 53 45.0999 53H41.2599V45.5H44.7999C45.5699 45.5 46.1649 45.695 46.5849 46.085C47.0149 46.465 47.2299 46.96 47.2299 47.57C47.2299 48.28 46.9699 48.805 46.4499 49.145ZM44.6799 46.88H42.8049V48.545H44.6799C45.3399 48.545 45.6699 48.265 45.6699 47.705C45.6699 47.155 45.3399 46.88 44.6799 46.88ZM44.9499 51.59C45.6299 51.59 45.9699 51.295 45.9699 50.705C45.9699 50.445 45.8799 50.245 45.6999 50.105C45.5199 49.955 45.2699 49.88 44.9499 49.88H42.8049V51.59H44.9499ZM54.8171 45.5H56.4371V53H54.8171V51.92C54.2071 52.77 53.3321 53.195 52.1921 53.195C51.1621 53.195 50.2821 52.815 49.5521 52.055C48.8221 51.285 48.4571 50.35 48.4571 49.25C48.4571 48.14 48.8221 47.205 49.5521 46.445C50.2821 45.685 51.1621 45.305 52.1921 45.305C53.3321 45.305 54.2071 45.725 54.8171 46.565V45.5ZM50.7521 50.975C51.2021 51.425 51.7671 51.65 52.4471 51.65C53.1271 51.65 53.6921 51.425 54.1421 50.975C54.5921 50.515 54.8171 49.94 54.8171 49.25C54.8171 48.56 54.5921 47.99 54.1421 47.54C53.6921 47.08 53.1271 46.85 52.4471 46.85C51.7671 46.85 51.2021 47.08 50.7521 47.54C50.3021 47.99 50.0771 48.56 50.0771 49.25C50.0771 49.94 50.3021 50.515 50.7521 50.975ZM67.9854 53H66.1404L63.5904 49.535V53H62.0004V49.565L59.4504 53H57.6054L60.5304 49.175L57.7554 45.5H59.6004L62.0004 48.785V45.5H63.5904V48.8L65.9904 45.5H67.8354L65.0604 49.175L67.9854 53ZM74.5806 45.5H75.8256V53H74.2356V48.23L70.3956 53H69.1506V45.5H70.7406V50.255L74.5806 45.5ZM82.7603 45.5H84.3803V53H82.7603V50.015H79.3253V53H77.7053V45.5H79.3253V48.485H82.7603V45.5ZM92.1999 45.5H93.8199V53H92.1999V51.92C91.5899 52.77 90.7149 53.195 89.5749 53.195C88.5449 53.195 87.6649 52.815 86.9349 52.055C86.2049 51.285 85.8399 50.35 85.8399 49.25C85.8399 48.14 86.2049 47.205 86.9349 46.445C87.6649 45.685 88.5449 45.305 89.5749 45.305C90.7149 45.305 91.5899 45.725 92.1999 46.565V45.5ZM88.1349 50.975C88.5849 51.425 89.1499 51.65 89.8299 51.65C90.5099 51.65 91.0749 51.425 91.5249 50.975C91.9749 50.515 92.1999 49.94 92.1999 49.25C92.1999 48.56 91.9749 47.99 91.5249 47.54C91.0749 47.08 90.5099 46.85 89.8299 46.85C89.1499 46.85 88.5849 47.08 88.1349 47.54C87.6849 47.99 87.4599 48.56 87.4599 49.25C87.4599 49.94 87.6849 50.515 88.1349 50.975ZM97.9582 51.2L96.9082 55.1H95.5582L96.1582 51.2H97.9582ZM110.103 45.5V53H108.483V47.03H105.048V53H103.428V45.5H110.103ZM118.313 45.5V53H116.693V47.06H114.188V49.85C114.188 51.04 113.928 51.885 113.408 52.385C112.888 52.885 112.148 53.09 111.188 53V51.485C111.648 51.565 111.993 51.47 112.223 51.2C112.453 50.93 112.568 50.455 112.568 49.775V45.5H118.313ZM123.74 53.195C122.64 53.195 121.705 52.815 120.935 52.055C120.165 51.295 119.78 50.36 119.78 49.25C119.78 48.14 120.165 47.205 120.935 46.445C121.705 45.685 122.64 45.305 123.74 45.305C124.85 45.305 125.785 45.685 126.545 46.445C127.315 47.205 127.7 48.14 127.7 49.25C127.7 50.36 127.315 51.295 126.545 52.055C125.785 52.815 124.85 53.195 123.74 53.195ZM122.075 50.945C122.525 51.395 123.08 51.62 123.74 51.62C124.4 51.62 124.955 51.395 125.405 50.945C125.855 50.495 126.08 49.93 126.08 49.25C126.08 48.57 125.855 48.005 125.405 47.555C124.955 47.105 124.4 46.88 123.74 46.88C123.08 46.88 122.525 47.105 122.075 47.555C121.625 48.005 121.4 48.57 121.4 49.25C121.4 49.93 121.625 50.495 122.075 50.945ZM139.515 51.47H140.52V55.01H138.93V53H129.165V45.5H130.785V51.47H133.53V45.5H135.15V51.47H137.895V45.5H139.515V51.47ZM147.483 45.5H149.103V53H147.483V51.92C146.873 52.77 145.998 53.195 144.858 53.195C143.828 53.195 142.948 52.815 142.218 52.055C141.488 51.285 141.123 50.35 141.123 49.25C141.123 48.14 141.488 47.205 142.218 46.445C142.948 45.685 143.828 45.305 144.858 45.305C145.998 45.305 146.873 45.725 147.483 46.565V45.5ZM143.418 50.975C143.868 51.425 144.433 51.65 145.113 51.65C145.793 51.65 146.358 51.425 146.808 50.975C147.258 50.515 147.483 49.94 147.483 49.25C147.483 48.56 147.258 47.99 146.808 47.54C146.358 47.08 145.793 46.85 145.113 46.85C144.433 46.85 143.868 47.08 143.418 47.54C142.968 47.99 142.743 48.56 142.743 49.25C142.743 49.94 142.968 50.515 143.418 50.975ZM157.591 51.47H158.596V55.01H157.006V53H151.861V55.01H150.271V51.47H151.186C151.646 50.82 151.876 49.915 151.876 48.755V45.5H157.591V51.47ZM152.971 51.47H156.001V46.985H153.466V48.755C153.466 49.825 153.301 50.73 152.971 51.47ZM166.542 53H164.607L161.532 49.535V53H159.912V45.5H161.532V48.815L164.442 45.5H166.422L163.122 49.175L166.542 53ZM172.971 45.5H174.591V53H172.971V51.92C172.361 52.77 171.486 53.195 170.346 53.195C169.316 53.195 168.436 52.815 167.706 52.055C166.976 51.285 166.611 50.35 166.611 49.25C166.611 48.14 166.976 47.205 167.706 46.445C168.436 45.685 169.316 45.305 170.346 45.305C171.486 45.305 172.361 45.725 172.971 46.565V45.5ZM168.906 50.975C169.356 51.425 169.921 51.65 170.601 51.65C171.281 51.65 171.846 51.425 172.296 50.975C172.746 50.515 172.971 49.94 172.971 49.25C172.971 48.56 172.746 47.99 172.296 47.54C171.846 47.08 171.281 46.85 170.601 46.85C169.921 46.85 169.356 47.08 168.906 47.54C168.456 47.99 168.231 48.56 168.231 49.25C168.231 49.94 168.456 50.515 168.906 50.975ZM40.7994 69.47H41.8044V73.01H40.2144V71H35.0694V73.01H33.4794V69.47H34.3944C34.8544 68.82 35.0844 67.915 35.0844 66.755V63.5H40.7994V69.47ZM36.1794 69.47H39.2094V64.985H36.6744V66.755C36.6744 67.825 36.5094 68.73 36.1794 69.47ZM49.4503 63.5V71H47.8303V65.06H45.3253V67.85C45.3253 69.04 45.0653 69.885 44.5453 70.385C44.0253 70.885 43.2853 71.09 42.3253 71V69.485C42.7853 69.565 43.1303 69.47 43.3603 69.2C43.5903 68.93 43.7053 68.455 43.7053 67.775V63.5H49.4503ZM57.1431 63.5V71H55.5531V68.48H54.6531L52.7481 71H50.8431L52.8681 68.33C52.3481 68.16 51.9281 67.86 51.6081 67.43C51.2981 67 51.1431 66.52 51.1431 65.99C51.1431 65.3 51.3881 64.715 51.8781 64.235C52.3781 63.745 53.0181 63.5 53.7981 63.5H57.1431ZM53.8881 67.085H55.5531V64.97H53.8881C53.5581 64.97 53.2831 65.065 53.0631 65.255C52.8431 65.445 52.7331 65.705 52.7331 66.035C52.7331 66.355 52.8431 66.61 53.0631 66.8C53.2831 66.99 53.5581 67.085 53.8881 67.085ZM66.3185 71.195C65.1885 71.195 64.2435 70.815 63.4835 70.055C62.7335 69.295 62.3585 68.36 62.3585 67.25C62.3585 66.13 62.7335 65.195 63.4835 64.445C64.2435 63.685 65.1885 63.305 66.3185 63.305C67.0485 63.305 67.7135 63.48 68.3135 63.83C68.9135 64.18 69.3635 64.65 69.6635 65.24L68.2685 66.05C68.0985 65.69 67.8385 65.41 67.4885 65.21C67.1485 65 66.7535 64.895 66.3035 64.895C65.6435 64.895 65.0885 65.12 64.6385 65.57C64.1985 66.02 63.9785 66.58 63.9785 67.25C63.9785 67.92 64.1985 68.48 64.6385 68.93C65.0885 69.38 65.6435 69.605 66.3035 69.605C66.7435 69.605 67.1385 69.5 67.4885 69.29C67.8485 69.08 68.1185 68.8 68.2985 68.45L69.6935 69.245C69.3735 69.845 68.9135 70.32 68.3135 70.67C67.7135 71.02 67.0485 71.195 66.3185 71.195ZM74.2272 71.195C73.0772 71.195 72.1372 70.825 71.4072 70.085C70.6872 69.335 70.3272 68.38 70.3272 67.22C70.3272 65.95 70.5172 64.97 70.8972 64.28C71.2772 63.58 72.0472 62.945 73.2072 62.375C73.3972 62.285 73.6772 62.155 74.0472 61.985C74.4272 61.815 74.6872 61.695 74.8272 61.625C74.9672 61.545 75.1422 61.435 75.3522 61.295C75.5622 61.145 75.7172 60.99 75.8172 60.83C75.9172 60.66 75.9972 60.46 76.0572 60.23L77.3772 60.995C77.3372 61.215 77.2722 61.42 77.1822 61.61C77.0922 61.79 76.9622 61.96 76.7922 62.12C76.6222 62.28 76.4722 62.41 76.3422 62.51C76.2222 62.61 76.0172 62.73 75.7272 62.87C75.4372 63.01 75.2222 63.11 75.0822 63.17C74.9522 63.23 74.7022 63.335 74.3322 63.485C73.6722 63.745 73.1872 64.015 72.8772 64.295C72.5772 64.565 72.3672 64.905 72.2472 65.315C72.8472 64.635 73.6622 64.295 74.6922 64.295C75.5722 64.295 76.3372 64.61 76.9872 65.24C77.6472 65.87 77.9772 66.685 77.9772 67.685C77.9772 68.705 77.6272 69.545 76.9272 70.205C76.2372 70.865 75.3372 71.195 74.2272 71.195ZM74.2122 69.68C74.8422 69.68 75.3572 69.495 75.7572 69.125C76.1572 68.745 76.3572 68.265 76.3572 67.685C76.3572 67.095 76.1572 66.61 75.7572 66.23C75.3672 65.85 74.8572 65.66 74.2272 65.66C73.6672 65.66 73.1622 65.84 72.7122 66.2C72.2622 66.55 72.0372 67.02 72.0372 67.61C72.0372 68.21 72.2472 68.705 72.6672 69.095C73.0872 69.485 73.6022 69.68 74.2122 69.68ZM82.798 71.195C81.698 71.195 80.763 70.815 79.993 70.055C79.223 69.295 78.838 68.36 78.838 67.25C78.838 66.14 79.223 65.205 79.993 64.445C80.763 63.685 81.698 63.305 82.798 63.305C83.908 63.305 84.843 63.685 85.603 64.445C86.373 65.205 86.758 66.14 86.758 67.25C86.758 68.36 86.373 69.295 85.603 70.055C84.843 70.815 83.908 71.195 82.798 71.195ZM81.133 68.945C81.583 69.395 82.138 69.62 82.798 69.62C83.458 69.62 84.013 69.395 84.463 68.945C84.913 68.495 85.138 67.93 85.138 67.25C85.138 66.57 84.913 66.005 84.463 65.555C84.013 65.105 83.458 64.88 82.798 64.88C82.138 64.88 81.583 65.105 81.133 65.555C80.683 66.005 80.458 66.57 80.458 67.25C80.458 67.93 80.683 68.495 81.133 68.945ZM92.4678 63.305C93.4978 63.305 94.3778 63.69 95.1078 64.46C95.8378 65.22 96.2028 66.15 96.2028 67.25C96.2028 68.36 95.8378 69.295 95.1078 70.055C94.3778 70.815 93.4978 71.195 92.4678 71.195C91.3278 71.195 90.4528 70.775 89.8428 69.935V74H88.2228V63.5H89.8428V64.58C90.4528 63.73 91.3278 63.305 92.4678 63.305ZM90.5178 68.975C90.9678 69.425 91.5328 69.65 92.2128 69.65C92.8928 69.65 93.4578 69.425 93.9078 68.975C94.3578 68.515 94.5828 67.94 94.5828 67.25C94.5828 66.56 94.3578 65.99 93.9078 65.54C93.4578 65.08 92.8928 64.85 92.2128 64.85C91.5328 64.85 90.9678 65.08 90.5178 65.54C90.0678 65.99 89.8428 66.56 89.8428 67.25C89.8428 67.94 90.0678 68.515 90.5178 68.975ZM103.611 63.5H105.231V71H103.611V69.92C103.001 70.77 102.126 71.195 100.986 71.195C99.9561 71.195 99.0761 70.815 98.3461 70.055C97.6161 69.285 97.2511 68.35 97.2511 67.25C97.2511 66.14 97.6161 65.205 98.3461 64.445C99.0761 63.685 99.9561 63.305 100.986 63.305C102.126 63.305 103.001 63.725 103.611 64.565V63.5ZM99.5461 68.975C99.9961 69.425 100.561 69.65 101.241 69.65C101.921 69.65 102.486 69.425 102.936 68.975C103.386 68.515 103.611 67.94 103.611 67.25C103.611 66.56 103.386 65.99 102.936 65.54C102.486 65.08 101.921 64.85 101.241 64.85C100.561 64.85 99.9961 65.08 99.5461 65.54C99.0961 65.99 98.8711 66.56 98.8711 67.25C98.8711 67.94 99.0961 68.515 99.5461 68.975ZM118.519 63.5V71H116.944V66.065L114.784 69.5H114.589L112.444 66.08V71H110.869V63.5H112.519L114.694 66.965L116.869 63.5H118.519ZM125.446 63.5H127.171L124.291 71.24C123.941 72.19 123.451 72.9 122.821 73.37C122.191 73.84 121.461 74.05 120.631 74V72.485C121.141 72.515 121.551 72.41 121.861 72.17C122.181 71.94 122.436 71.565 122.626 71.045L122.671 70.94L119.521 63.5H121.246L123.526 68.96L125.446 63.5ZM131.431 71.195C130.301 71.195 129.356 70.815 128.596 70.055C127.846 69.295 127.471 68.36 127.471 67.25C127.471 66.13 127.846 65.195 128.596 64.445C129.356 63.685 130.301 63.305 131.431 63.305C132.161 63.305 132.826 63.48 133.426 63.83C134.026 64.18 134.476 64.65 134.776 65.24L133.381 66.05C133.211 65.69 132.951 65.41 132.601 65.21C132.261 65 131.866 64.895 131.416 64.895C130.756 64.895 130.201 65.12 129.751 65.57C129.311 66.02 129.091 66.58 129.091 67.25C129.091 67.92 129.311 68.48 129.751 68.93C130.201 69.38 130.756 69.605 131.416 69.605C131.856 69.605 132.251 69.5 132.601 69.29C132.961 69.08 133.231 68.8 133.411 68.45L134.806 69.245C134.486 69.845 134.026 70.32 133.426 70.67C132.826 71.02 132.161 71.195 131.431 71.195ZM139.4 71.195C138.3 71.195 137.365 70.815 136.595 70.055C135.825 69.295 135.44 68.36 135.44 67.25C135.44 66.14 135.825 65.205 136.595 64.445C137.365 63.685 138.3 63.305 139.4 63.305C140.51 63.305 141.445 63.685 142.205 64.445C142.975 65.205 143.36 66.14 143.36 67.25C143.36 68.36 142.975 69.295 142.205 70.055C141.445 70.815 140.51 71.195 139.4 71.195ZM137.735 68.945C138.185 69.395 138.74 69.62 139.4 69.62C140.06 69.62 140.615 69.395 141.065 68.945C141.515 68.495 141.74 67.93 141.74 67.25C141.74 66.57 141.515 66.005 141.065 65.555C140.615 65.105 140.06 64.88 139.4 64.88C138.74 64.88 138.185 65.105 137.735 65.555C137.285 66.005 137.06 66.57 137.06 67.25C137.06 67.93 137.285 68.495 137.735 68.945ZM149.069 63.305C150.099 63.305 150.979 63.69 151.709 64.46C152.439 65.22 152.804 66.15 152.804 67.25C152.804 68.36 152.439 69.295 151.709 70.055C150.979 70.815 150.099 71.195 149.069 71.195C147.929 71.195 147.054 70.775 146.444 69.935V74H144.824V63.5H146.444V64.58C147.054 63.73 147.929 63.305 149.069 63.305ZM147.119 68.975C147.569 69.425 148.134 69.65 148.814 69.65C149.494 69.65 150.059 69.425 150.509 68.975C150.959 68.515 151.184 67.94 151.184 67.25C151.184 66.56 150.959 65.99 150.509 65.54C150.059 65.08 149.494 64.85 148.814 64.85C148.134 64.85 147.569 65.08 147.119 65.54C146.669 65.99 146.444 66.56 146.444 67.25C146.444 67.94 146.669 68.515 147.119 68.975ZM160.213 63.5H161.833V71H160.213V69.92C159.603 70.77 158.728 71.195 157.588 71.195C156.558 71.195 155.678 70.815 154.948 70.055C154.218 69.285 153.853 68.35 153.853 67.25C153.853 66.14 154.218 65.205 154.948 64.445C155.678 63.685 156.558 63.305 157.588 63.305C158.728 63.305 159.603 63.725 160.213 64.565V63.5ZM156.148 68.975C156.598 69.425 157.163 69.65 157.843 69.65C158.523 69.65 159.088 69.425 159.538 68.975C159.988 68.515 160.213 67.94 160.213 67.25C160.213 66.56 159.988 65.99 159.538 65.54C159.088 65.08 158.523 64.85 157.843 64.85C157.163 64.85 156.598 65.08 156.148 65.54C155.698 65.99 155.473 66.56 155.473 67.25C155.473 67.94 155.698 68.515 156.148 68.975ZM165.971 69.2L164.921 73.1H163.571L164.171 69.2H165.971ZM86.9433 78.5V80.15H82.7433V89H81.0183V78.5H86.9433ZM92.0953 78.5C93.0853 78.5 93.9103 78.83 94.5703 79.49C95.2403 80.15 95.5753 80.97 95.5753 81.95C95.5753 82.92 95.2403 83.74 94.5703 84.41C93.9103 85.07 93.0853 85.4 92.0953 85.4H89.9503V89H88.2253V78.5H92.0953ZM92.0953 83.78C92.6053 83.78 93.0253 83.61 93.3553 83.27C93.6853 82.92 93.8503 82.48 93.8503 81.95C93.8503 81.42 93.6853 80.985 93.3553 80.645C93.0253 80.295 92.6053 80.12 92.0953 80.12H89.9503V83.78H92.0953ZM104.798 78.5V89H103.073V80.15H98.7979V89H97.0729V78.5H104.798ZM117.252 78.5H118.977V89H106.902V78.5H108.627V87.35H112.077V78.5H113.802V87.35H117.252V78.5Z" fill="#333333"/>
</svg>
