<svg width="40" height="40" viewBox="0 0 40 40" fill="none" xmlns="http://www.w3.org/2000/svg">
<circle cx="20" cy="20" r="20" fill="url(#paint0_linear_6_25)"/>
<path d="M26.618 12.0018C26.3875 12.0191 26.1612 12.075 25.948 12.1673H25.9451C25.7404 12.2512 24.7674 12.6744 23.2881 13.3158L17.987 15.6238C14.1831 17.2793 10.4439 18.9095 10.4439 18.9095L10.4884 18.8917C10.4884 18.8917 10.2306 18.9793 9.96134 19.1701C9.79497 19.2795 9.65181 19.4227 9.54052 19.591C9.40839 19.7914 9.30211 20.098 9.3416 20.415C9.40623 20.951 9.74231 21.2724 9.9836 21.4499C10.2278 21.6295 10.4604 21.7134 10.4604 21.7134H10.4662L13.9727 22.9346C14.13 23.4565 15.0413 26.5536 15.2603 27.267C15.3896 27.6932 15.5152 27.9597 15.6725 28.1631C15.7486 28.267 15.8377 28.3539 15.9447 28.4236C16.0003 28.4571 16.0596 28.4835 16.1213 28.5023L16.0854 28.4934C16.0962 28.4964 16.1048 28.5053 16.1127 28.5083C16.1414 28.5164 16.1608 28.5194 16.1974 28.5254C16.7525 28.6991 17.1985 28.3427 17.1985 28.3427L17.2236 28.3219L19.2939 26.3732L22.7639 29.1252L22.8429 29.1601C23.566 29.4882 24.2985 29.3056 24.6855 28.9834C25.0755 28.659 25.227 28.244 25.227 28.244L25.2521 28.1772L27.9336 13.9765C28.0097 13.6261 28.0291 13.2979 27.9451 12.9795C27.8584 12.6572 27.6584 12.3799 27.3842 12.2022C27.154 12.0575 26.887 11.9877 26.618 12.0018V12.0018ZM26.5455 13.5236C26.5426 13.5704 26.5512 13.5652 26.5311 13.655V13.6632L23.8748 27.7162C23.8633 27.7362 23.8439 27.78 23.7908 27.8238C23.7348 27.8698 23.6902 27.8988 23.4568 27.803L19.2128 24.4394L16.6491 26.855L17.1877 23.2991L24.1218 16.6178C24.4076 16.3431 24.3121 16.2852 24.3121 16.2852C24.3322 15.9482 23.8805 16.1865 23.8805 16.1865L15.1368 21.7862L15.1339 21.7713L10.943 20.3126V20.3096L10.9322 20.3074C10.9396 20.3048 10.9468 20.3019 10.9538 20.2985L10.9767 20.2866L10.999 20.2784C10.999 20.2784 14.7411 18.6482 18.5449 16.9927C20.4494 16.1635 22.3682 15.3283 23.8439 14.6839C25.3196 14.0433 26.4104 13.5734 26.4722 13.5481C26.5311 13.5244 26.5031 13.5244 26.5455 13.5244V13.5236Z" fill="white"/>
<defs>
<linearGradient id="paint0_linear_6_25" x1="-15.2039" y1="19.6923" x2="54.0374" y2="19.6923" gradientUnits="userSpaceOnUse">
<stop stop-color="#4EA86A"/>
<stop offset="1" stop-color="#5CACC7"/>
</linearGradient>
</defs>
</svg>
