<svg width="40" height="40" viewBox="0 0 40 40" fill="none" xmlns="http://www.w3.org/2000/svg">
<circle cx="20" cy="20" r="20" fill="white"/>
<circle cx="20" cy="20" r="20" fill="url(#paint0_linear_1916_4)"/>
<path fill-rule="evenodd" clip-rule="evenodd" d="M30.4954 14.869C30.6475 14.3685 30.4954 14 29.7666 14H27.3604C26.7481 14 26.4658 14.3181 26.3127 14.6692C26.3127 14.6692 25.089 17.5988 23.3556 19.5017C22.7946 20.0535 22.5398 20.2286 22.2336 20.2286C22.0806 20.2286 21.8505 20.0535 21.8505 19.5521V14.869C21.8505 14.2677 21.6818 14 21.1722 14H17.3882C17.006 14 16.7759 14.2787 16.7759 14.5436C16.7759 15.1128 17.6431 15.2448 17.732 16.8471V20.3285C17.732 21.0921 17.5917 21.2305 17.2856 21.2305C16.4698 21.2305 14.4852 18.2872 13.3073 14.9194C13.0791 14.264 12.8481 14 12.233 14H9.82498C9.1375 14 9 14.3181 9 14.6692C9 15.2943 9.81582 18.3999 12.7995 22.5074C14.7886 25.3123 17.589 26.8331 20.14 26.8331C21.6699 26.8331 21.8587 26.4957 21.8587 25.9137V23.7935C21.8587 23.1179 22.0036 22.9831 22.4885 22.9831C22.846 22.9831 23.4574 23.1591 24.8855 24.5112C26.5171 26.1144 26.7857 26.8331 27.7042 26.8331H30.1104C30.7979 26.8331 31.1425 26.4957 30.9445 25.8284C30.7264 25.1648 29.9472 24.2014 28.9142 23.0583C28.3532 22.4075 27.5117 21.7063 27.256 21.3552C26.8994 20.9051 27.0011 20.7044 27.256 20.3038C27.256 20.3038 30.1892 16.2467 30.4945 14.869H30.4954Z" fill="white"/>
<defs>
<linearGradient id="paint0_linear_1916_4" x1="0" y1="20" x2="40" y2="20" gradientUnits="userSpaceOnUse">
<stop stop-color="#348F50"/>
<stop offset="1" stop-color="#56B4D3"/>
</linearGradient>
</defs>
</svg>
