<svg width="40" height="40" viewBox="0 0 40 40" fill="none" xmlns="http://www.w3.org/2000/svg">
<circle cx="20" cy="20" r="20" fill="white"/>
<circle cx="20" cy="20" r="20" fill="url(#paint0_linear_1924_2)"/>
<path d="M28.5791 14.3936C25.7369 9.99985 19.9341 8.6936 15.434 11.4249C11.0524 14.1561 9.63127 20.0937 12.4734 24.4875L12.7103 24.8437L11.7629 28.4062L15.3156 27.4562L15.6709 27.6937C17.2104 28.525 18.8683 29 20.5263 29C22.3026 29 24.079 28.525 25.6185 27.575C30.0001 24.725 31.3028 18.9062 28.5791 14.3936ZM26.0922 23.5375C25.6185 24.25 25.0264 24.725 24.1974 24.8437C23.7237 24.8437 23.1316 25.0812 20.7631 24.1312C18.7499 23.1812 17.092 21.6374 15.9077 19.8562C15.1972 19.0249 14.8419 17.9562 14.7235 16.8874C14.7235 15.9374 15.0788 15.1061 15.6709 14.5124C15.9077 14.2749 16.1446 14.1561 16.3814 14.1561H16.9735C17.2104 14.1561 17.4472 14.1561 17.5657 14.6311C17.8025 15.2249 18.3946 16.6499 18.3946 16.7687C18.513 16.8874 18.513 17.1249 18.3946 17.2437C18.513 17.4812 18.3946 17.7187 18.2762 17.8374C18.1578 17.9562 18.0394 18.1937 17.9209 18.3124C17.6841 18.4312 17.5657 18.6687 17.6841 18.9062C18.1578 19.6187 18.7499 20.3312 19.342 20.9249C20.0526 21.5187 20.7631 21.9937 21.5921 22.3499C21.8289 22.4687 22.0658 22.4687 22.1842 22.2312C22.3026 21.9937 22.8947 21.3999 23.1316 21.1624C23.3684 20.9249 23.4868 20.9249 23.7237 21.0437L25.6185 21.9937C25.8553 22.1124 26.0922 22.2312 26.2106 22.3499C26.329 22.7062 26.329 23.1812 26.0922 23.5375Z" fill="white"/>
<defs>
<linearGradient id="paint0_linear_1924_2" x1="0" y1="20" x2="40" y2="20" gradientUnits="userSpaceOnUse">
<stop stop-color="#348F50"/>
<stop offset="1" stop-color="#56B4D3"/>
</linearGradient>
</defs>
</svg>
