<svg width="208" height="144" viewBox="0 0 208 144" fill="none" xmlns="http://www.w3.org/2000/svg">
<path d="M35.3309 28.9032L34.9199 25.5864L204.547 3.60984C204.577 5.17573 204.614 7.35555 204.644 10.0199C204.707 15.7266 204.74 23.652 204.618 32.5264C204.372 50.3202 203.5 71.7695 201.033 86.8194C200.067 92.7112 198.949 96.7413 197.191 100.396C195.427 104.067 192.953 107.496 189.083 112.119C188.64 112.648 188.206 113.168 187.779 113.68C181.394 121.33 176.66 127.002 168.235 131.947C159.385 137.141 151.488 141.139 141.887 141.379C115.073 142.048 82.5163 139.617 56.6052 137.008C43.662 135.704 32.4009 134.359 24.3765 133.339C20.3647 132.83 17.1627 132.401 14.965 132.101C14.3966 132.023 13.8954 131.954 13.4647 131.894L2.83225 47.0357L23.4226 44.311C30.9487 43.315 36.2643 36.4374 35.3309 28.9032Z" fill="white" fill-opacity="0.4" stroke="white" stroke-width="5"/>
</svg>
