<svg width="194" height="149" viewBox="0 0 194 149" fill="none" xmlns="http://www.w3.org/2000/svg">
<path d="M190.617 123.036L17.6302 145.698L3.45952 33.6669C4.02685 33.2211 4.80171 32.6177 5.74913 31.8933C7.88086 30.2635 10.8815 28.0247 14.354 25.5912C21.3419 20.6942 30.0812 15.1228 37.4604 12.0719C45.0096 8.95061 49.9399 7.12735 55.4979 5.88337C61.0789 4.63423 67.379 3.95005 77.677 3.2176C87.335 2.53067 100.762 4.6149 110.364 7.14158C119.728 9.60584 127.899 12.4828 136.788 17.4104C141.146 19.8266 143.78 21.4326 146.162 23.2911C148.547 25.1523 150.748 27.3206 154.186 30.9446C155.669 32.5072 156.999 33.8528 158.228 35.0967C162.244 39.1609 165.186 42.1384 168.88 48.0489C169.348 48.7979 169.806 49.5232 170.252 50.2305C173.966 56.12 176.888 60.753 178.578 67.3447C181.5 78.7462 184.633 93.3089 187.04 105.047C188.242 110.91 189.26 116.059 189.979 119.741C190.23 121.03 190.445 122.139 190.617 123.036Z" fill="white" fill-opacity="0.4" stroke="white" stroke-width="5"/>
</svg>
