<svg width="122" height="167" viewBox="0 0 122 167" fill="none" xmlns="http://www.w3.org/2000/svg">
<path d="M119.118 164.273C118.025 164.264 116.639 164.25 115.004 164.227C110.628 164.165 104.466 164.042 97.3228 163.796C83.0217 163.303 64.8474 162.318 49.218 160.357C41.9182 159.441 36.3331 157.395 31.4059 154.226C26.441 151.033 22.0292 146.627 17.1604 140.807C11.182 133.662 8.592 128.843 5.94657 119.912C3.28061 110.911 3.04869 105.395 4.01479 95.9216C5.32786 83.0457 7.33002 75.3226 15.0771 65.4214C19.3063 60.0163 23.0036 57.5288 28.1671 54.055C29.5723 53.1095 31.0862 52.0911 32.7489 50.9208C39.3921 46.2453 45.5512 44.4165 51.9374 42.5203C52.3781 42.3894 52.82 42.2582 53.2632 42.1258C60.1375 40.0708 67.2217 37.7257 74.5351 31.3265C80.6295 25.9939 87.7259 18.7414 93.2664 12.8614C95.565 10.422 97.6053 8.20864 99.2078 6.45165L119.118 164.273Z" fill="white" fill-opacity="0.4" stroke="white" stroke-width="5"/>
</svg>
